%TF.GenerationSoftware,KiCad,Pcbnew,7.0.8*%
%TF.CreationDate,2024-05-21T03:17:24+02:00*%
%TF.ProjectId,IssaScope_v0.2,49737361-5363-46f7-9065-5f76302e322e,rev?*%
%TF.SameCoordinates,Original*%
%TF.FileFunction,Drillmap*%
%TF.FilePolarity,Positive*%
%FSLAX45Y45*%
G04 Gerber Fmt 4.5, Leading zero omitted, Abs format (unit mm)*
G04 Created by KiCad (PCBNEW 7.0.8) date 2024-05-21 03:17:24*
%MOMM*%
%LPD*%
G01*
G04 APERTURE LIST*
%ADD10C,0.100000*%
%ADD11C,0.200000*%
%ADD12C,0.080000*%
%ADD13C,0.095000*%
%ADD14C,0.099000*%
%ADD15C,0.100076*%
%ADD16C,0.101600*%
%ADD17C,0.104000*%
%ADD18C,0.110000*%
%ADD19C,0.130000*%
%ADD20C,0.160000*%
%ADD21C,0.219964*%
G04 APERTURE END LIST*
D10*
X19502500Y-5005000D02*
X19502500Y-13005000D01*
X19502500Y-13005000D02*
X7502500Y-13005000D01*
X7502500Y-13005000D02*
X7502500Y-5005000D01*
X7502500Y-5005000D02*
X19502500Y-5005000D01*
D11*
D12*
X16345738Y-5807500D02*
X16425738Y-5887500D01*
X16425738Y-5807500D02*
X16345738Y-5887500D01*
X16595738Y-5807500D02*
X16675738Y-5887500D01*
X16675738Y-5807500D02*
X16595738Y-5887500D01*
X17380738Y-7562500D02*
X17460738Y-7642500D01*
X17460738Y-7562500D02*
X17380738Y-7642500D01*
X17630738Y-7562500D02*
X17710738Y-7642500D01*
X17710738Y-7562500D02*
X17630738Y-7642500D01*
D13*
X7847500Y-5750000D02*
G75*
G03*
X7847500Y-5750000I-47500J0D01*
G01*
X7847500Y-6000000D02*
G75*
G03*
X7847500Y-6000000I-47500J0D01*
G01*
X7847500Y-6250000D02*
G75*
G03*
X7847500Y-6250000I-47500J0D01*
G01*
X7847500Y-6500000D02*
G75*
G03*
X7847500Y-6500000I-47500J0D01*
G01*
X7847500Y-7250000D02*
G75*
G03*
X7847500Y-7250000I-47500J0D01*
G01*
X7847500Y-7500000D02*
G75*
G03*
X7847500Y-7500000I-47500J0D01*
G01*
X7847500Y-7750000D02*
G75*
G03*
X7847500Y-7750000I-47500J0D01*
G01*
X7847500Y-8000000D02*
G75*
G03*
X7847500Y-8000000I-47500J0D01*
G01*
X7847500Y-8750000D02*
G75*
G03*
X7847500Y-8750000I-47500J0D01*
G01*
X7847500Y-9000000D02*
G75*
G03*
X7847500Y-9000000I-47500J0D01*
G01*
X7847500Y-9250000D02*
G75*
G03*
X7847500Y-9250000I-47500J0D01*
G01*
X7847500Y-9500000D02*
G75*
G03*
X7847500Y-9500000I-47500J0D01*
G01*
X7847500Y-10250000D02*
G75*
G03*
X7847500Y-10250000I-47500J0D01*
G01*
X7847500Y-10500000D02*
G75*
G03*
X7847500Y-10500000I-47500J0D01*
G01*
X7847500Y-10750000D02*
G75*
G03*
X7847500Y-10750000I-47500J0D01*
G01*
X7847500Y-11000000D02*
G75*
G03*
X7847500Y-11000000I-47500J0D01*
G01*
X7847500Y-11750000D02*
G75*
G03*
X7847500Y-11750000I-47500J0D01*
G01*
X7847500Y-12000000D02*
G75*
G03*
X7847500Y-12000000I-47500J0D01*
G01*
X7847500Y-12250000D02*
G75*
G03*
X7847500Y-12250000I-47500J0D01*
G01*
X7847500Y-12500000D02*
G75*
G03*
X7847500Y-12500000I-47500J0D01*
G01*
X8047500Y-14000000D02*
G75*
G03*
X8047500Y-14000000I-47500J0D01*
G01*
X8297500Y-14000000D02*
G75*
G03*
X8297500Y-14000000I-47500J0D01*
G01*
X8547500Y-14000000D02*
G75*
G03*
X8547500Y-14000000I-47500J0D01*
G01*
X8797500Y-14000000D02*
G75*
G03*
X8797500Y-14000000I-47500J0D01*
G01*
X9047500Y-14000000D02*
G75*
G03*
X9047500Y-14000000I-47500J0D01*
G01*
X10047500Y-14000000D02*
G75*
G03*
X10047500Y-14000000I-47500J0D01*
G01*
X10297500Y-14000000D02*
G75*
G03*
X10297500Y-14000000I-47500J0D01*
G01*
X10547500Y-14000000D02*
G75*
G03*
X10547500Y-14000000I-47500J0D01*
G01*
X10797500Y-14000000D02*
G75*
G03*
X10797500Y-14000000I-47500J0D01*
G01*
X11047500Y-14000000D02*
G75*
G03*
X11047500Y-14000000I-47500J0D01*
G01*
X12047500Y-14000000D02*
G75*
G03*
X12047500Y-14000000I-47500J0D01*
G01*
X12297500Y-14000000D02*
G75*
G03*
X12297500Y-14000000I-47500J0D01*
G01*
X12547500Y-14000000D02*
G75*
G03*
X12547500Y-14000000I-47500J0D01*
G01*
X12797500Y-14000000D02*
G75*
G03*
X12797500Y-14000000I-47500J0D01*
G01*
X13047500Y-14000000D02*
G75*
G03*
X13047500Y-14000000I-47500J0D01*
G01*
X14047500Y-14000000D02*
G75*
G03*
X14047500Y-14000000I-47500J0D01*
G01*
X14297500Y-14000000D02*
G75*
G03*
X14297500Y-14000000I-47500J0D01*
G01*
X14547500Y-14000000D02*
G75*
G03*
X14547500Y-14000000I-47500J0D01*
G01*
X14797500Y-14000000D02*
G75*
G03*
X14797500Y-14000000I-47500J0D01*
G01*
X14852500Y-5460000D02*
G75*
G03*
X14852500Y-5460000I-47500J0D01*
G01*
X15047500Y-14000000D02*
G75*
G03*
X15047500Y-14000000I-47500J0D01*
G01*
X15102500Y-5460000D02*
G75*
G03*
X15102500Y-5460000I-47500J0D01*
G01*
X15352500Y-5460000D02*
G75*
G03*
X15352500Y-5460000I-47500J0D01*
G01*
X16047500Y-14000000D02*
G75*
G03*
X16047500Y-14000000I-47500J0D01*
G01*
X16297500Y-14000000D02*
G75*
G03*
X16297500Y-14000000I-47500J0D01*
G01*
X16547500Y-14000000D02*
G75*
G03*
X16547500Y-14000000I-47500J0D01*
G01*
X16797500Y-14000000D02*
G75*
G03*
X16797500Y-14000000I-47500J0D01*
G01*
X17047500Y-14000000D02*
G75*
G03*
X17047500Y-14000000I-47500J0D01*
G01*
X18047500Y-14000000D02*
G75*
G03*
X18047500Y-14000000I-47500J0D01*
G01*
X18297500Y-14000000D02*
G75*
G03*
X18297500Y-14000000I-47500J0D01*
G01*
X18547500Y-14000000D02*
G75*
G03*
X18547500Y-14000000I-47500J0D01*
G01*
X18797500Y-14000000D02*
G75*
G03*
X18797500Y-14000000I-47500J0D01*
G01*
X19047500Y-14000000D02*
G75*
G03*
X19047500Y-14000000I-47500J0D01*
G01*
X19247500Y-7300000D02*
G75*
G03*
X19247500Y-7300000I-47500J0D01*
G01*
X19247500Y-7550000D02*
G75*
G03*
X19247500Y-7550000I-47500J0D01*
G01*
X19247500Y-7800000D02*
G75*
G03*
X19247500Y-7800000I-47500J0D01*
G01*
X19247500Y-8050000D02*
G75*
G03*
X19247500Y-8050000I-47500J0D01*
G01*
X19247500Y-8800000D02*
G75*
G03*
X19247500Y-8800000I-47500J0D01*
G01*
X19247500Y-9050000D02*
G75*
G03*
X19247500Y-9050000I-47500J0D01*
G01*
X19247500Y-9300000D02*
G75*
G03*
X19247500Y-9300000I-47500J0D01*
G01*
X19247500Y-9550000D02*
G75*
G03*
X19247500Y-9550000I-47500J0D01*
G01*
X19247500Y-10300000D02*
G75*
G03*
X19247500Y-10300000I-47500J0D01*
G01*
X19247500Y-10550000D02*
G75*
G03*
X19247500Y-10550000I-47500J0D01*
G01*
X19247500Y-10800000D02*
G75*
G03*
X19247500Y-10800000I-47500J0D01*
G01*
X19247500Y-11050000D02*
G75*
G03*
X19247500Y-11050000I-47500J0D01*
G01*
X19247500Y-11800000D02*
G75*
G03*
X19247500Y-11800000I-47500J0D01*
G01*
X19247500Y-12050000D02*
G75*
G03*
X19247500Y-12050000I-47500J0D01*
G01*
X19247500Y-12300000D02*
G75*
G03*
X19247500Y-12300000I-47500J0D01*
G01*
X19247500Y-12550000D02*
G75*
G03*
X19247500Y-12550000I-47500J0D01*
G01*
D14*
X12887500Y-5231750D02*
X12887500Y-5330750D01*
X12838000Y-5281250D02*
X12937000Y-5281250D01*
X13337500Y-5231750D02*
X13337500Y-5330750D01*
X13288000Y-5281250D02*
X13387000Y-5281250D01*
D10*
X13074856Y-7409856D02*
X13074856Y-7339144D01*
X13004144Y-7339144D01*
X13004144Y-7409856D01*
X13074856Y-7409856D01*
X13074856Y-7663856D02*
X13074856Y-7593144D01*
X13004144Y-7593144D01*
X13004144Y-7663856D01*
X13074856Y-7663856D01*
X13074856Y-7917856D02*
X13074856Y-7847144D01*
X13004144Y-7847144D01*
X13004144Y-7917856D01*
X13074856Y-7917856D01*
X13074856Y-8425856D02*
X13074856Y-8355144D01*
X13004144Y-8355144D01*
X13004144Y-8425856D01*
X13074856Y-8425856D01*
X13074856Y-8679856D02*
X13074856Y-8609144D01*
X13004144Y-8609144D01*
X13004144Y-8679856D01*
X13074856Y-8679856D01*
X13074856Y-8933856D02*
X13074856Y-8863144D01*
X13004144Y-8863144D01*
X13004144Y-8933856D01*
X13074856Y-8933856D01*
X13074856Y-9441856D02*
X13074856Y-9371144D01*
X13004144Y-9371144D01*
X13004144Y-9441856D01*
X13074856Y-9441856D01*
X13074856Y-9695856D02*
X13074856Y-9625144D01*
X13004144Y-9625144D01*
X13004144Y-9695856D01*
X13074856Y-9695856D01*
X13074856Y-9949856D02*
X13074856Y-9879144D01*
X13004144Y-9879144D01*
X13004144Y-9949856D01*
X13074856Y-9949856D01*
X13074856Y-10457856D02*
X13074856Y-10387144D01*
X13004144Y-10387144D01*
X13004144Y-10457856D01*
X13074856Y-10457856D01*
X13074856Y-10711856D02*
X13074856Y-10641144D01*
X13004144Y-10641144D01*
X13004144Y-10711856D01*
X13074856Y-10711856D01*
X13074856Y-10965856D02*
X13074856Y-10895144D01*
X13004144Y-10895144D01*
X13004144Y-10965856D01*
X13074856Y-10965856D01*
X13328856Y-7409856D02*
X13328856Y-7339144D01*
X13258144Y-7339144D01*
X13258144Y-7409856D01*
X13328856Y-7409856D01*
X13328856Y-7663856D02*
X13328856Y-7593144D01*
X13258144Y-7593144D01*
X13258144Y-7663856D01*
X13328856Y-7663856D01*
X13328856Y-7917856D02*
X13328856Y-7847144D01*
X13258144Y-7847144D01*
X13258144Y-7917856D01*
X13328856Y-7917856D01*
X13328856Y-8425856D02*
X13328856Y-8355144D01*
X13258144Y-8355144D01*
X13258144Y-8425856D01*
X13328856Y-8425856D01*
X13328856Y-8679856D02*
X13328856Y-8609144D01*
X13258144Y-8609144D01*
X13258144Y-8679856D01*
X13328856Y-8679856D01*
X13328856Y-8933856D02*
X13328856Y-8863144D01*
X13258144Y-8863144D01*
X13258144Y-8933856D01*
X13328856Y-8933856D01*
X13328856Y-9441856D02*
X13328856Y-9371144D01*
X13258144Y-9371144D01*
X13258144Y-9441856D01*
X13328856Y-9441856D01*
X13328856Y-9695856D02*
X13328856Y-9625144D01*
X13258144Y-9625144D01*
X13258144Y-9695856D01*
X13328856Y-9695856D01*
X13328856Y-9949856D02*
X13328856Y-9879144D01*
X13258144Y-9879144D01*
X13258144Y-9949856D01*
X13328856Y-9949856D01*
X13328856Y-10457856D02*
X13328856Y-10387144D01*
X13258144Y-10387144D01*
X13258144Y-10457856D01*
X13328856Y-10457856D01*
X13328856Y-10711856D02*
X13328856Y-10641144D01*
X13258144Y-10641144D01*
X13258144Y-10711856D01*
X13328856Y-10711856D01*
X13328856Y-10965856D02*
X13328856Y-10895144D01*
X13258144Y-10895144D01*
X13258144Y-10965856D01*
X13328856Y-10965856D01*
X15106856Y-7409856D02*
X15106856Y-7339144D01*
X15036144Y-7339144D01*
X15036144Y-7409856D01*
X15106856Y-7409856D01*
X15106856Y-7663856D02*
X15106856Y-7593144D01*
X15036144Y-7593144D01*
X15036144Y-7663856D01*
X15106856Y-7663856D01*
X15106856Y-7917856D02*
X15106856Y-7847144D01*
X15036144Y-7847144D01*
X15036144Y-7917856D01*
X15106856Y-7917856D01*
X15106856Y-8425856D02*
X15106856Y-8355144D01*
X15036144Y-8355144D01*
X15036144Y-8425856D01*
X15106856Y-8425856D01*
X15106856Y-8679856D02*
X15106856Y-8609144D01*
X15036144Y-8609144D01*
X15036144Y-8679856D01*
X15106856Y-8679856D01*
X15106856Y-8933856D02*
X15106856Y-8863144D01*
X15036144Y-8863144D01*
X15036144Y-8933856D01*
X15106856Y-8933856D01*
X15106856Y-9441856D02*
X15106856Y-9371144D01*
X15036144Y-9371144D01*
X15036144Y-9441856D01*
X15106856Y-9441856D01*
X15106856Y-9695856D02*
X15106856Y-9625144D01*
X15036144Y-9625144D01*
X15036144Y-9695856D01*
X15106856Y-9695856D01*
X15106856Y-9949856D02*
X15106856Y-9879144D01*
X15036144Y-9879144D01*
X15036144Y-9949856D01*
X15106856Y-9949856D01*
X15106856Y-10457856D02*
X15106856Y-10387144D01*
X15036144Y-10387144D01*
X15036144Y-10457856D01*
X15106856Y-10457856D01*
X15106856Y-10711856D02*
X15106856Y-10641144D01*
X15036144Y-10641144D01*
X15036144Y-10711856D01*
X15106856Y-10711856D01*
X15106856Y-10965856D02*
X15106856Y-10895144D01*
X15036144Y-10895144D01*
X15036144Y-10965856D01*
X15106856Y-10965856D01*
X15347856Y-10965856D02*
X15347856Y-10895144D01*
X15277144Y-10895144D01*
X15277144Y-10965856D01*
X15347856Y-10965856D01*
X15360856Y-7409856D02*
X15360856Y-7339144D01*
X15290144Y-7339144D01*
X15290144Y-7409856D01*
X15360856Y-7409856D01*
X15360856Y-7663856D02*
X15360856Y-7593144D01*
X15290144Y-7593144D01*
X15290144Y-7663856D01*
X15360856Y-7663856D01*
X15360856Y-7917856D02*
X15360856Y-7847144D01*
X15290144Y-7847144D01*
X15290144Y-7917856D01*
X15360856Y-7917856D01*
X15360856Y-8425856D02*
X15360856Y-8355144D01*
X15290144Y-8355144D01*
X15290144Y-8425856D01*
X15360856Y-8425856D01*
X15360856Y-8679856D02*
X15360856Y-8609144D01*
X15290144Y-8609144D01*
X15290144Y-8679856D01*
X15360856Y-8679856D01*
X15360856Y-8933856D02*
X15360856Y-8863144D01*
X15290144Y-8863144D01*
X15290144Y-8933856D01*
X15360856Y-8933856D01*
X15360856Y-9441856D02*
X15360856Y-9371144D01*
X15290144Y-9371144D01*
X15290144Y-9441856D01*
X15360856Y-9441856D01*
X15360856Y-9695856D02*
X15360856Y-9625144D01*
X15290144Y-9625144D01*
X15290144Y-9695856D01*
X15360856Y-9695856D01*
X15360856Y-9949856D02*
X15360856Y-9879144D01*
X15290144Y-9879144D01*
X15290144Y-9949856D01*
X15360856Y-9949856D01*
X15360856Y-10457856D02*
X15360856Y-10387144D01*
X15290144Y-10387144D01*
X15290144Y-10457856D01*
X15360856Y-10457856D01*
X15360856Y-10711856D02*
X15360856Y-10641144D01*
X15290144Y-10641144D01*
X15290144Y-10711856D01*
X15360856Y-10711856D01*
X17312856Y-6632856D02*
X17312856Y-6562144D01*
X17242144Y-6562144D01*
X17242144Y-6632856D01*
X17312856Y-6632856D01*
X17712856Y-6632856D02*
X17712856Y-6562144D01*
X17642144Y-6562144D01*
X17642144Y-6632856D01*
X17712856Y-6632856D01*
X18482856Y-5692856D02*
X18482856Y-5622144D01*
X18412144Y-5622144D01*
X18412144Y-5692856D01*
X18482856Y-5692856D01*
D11*
X18397500Y-5557500D02*
X18397500Y-5757500D01*
X18397500Y-5757500D02*
G75*
G03*
X18497500Y-5757500I50000J0D01*
G01*
X18497500Y-5757500D02*
X18497500Y-5557500D01*
X18497500Y-5557500D02*
G75*
G03*
X18397500Y-5557500I-50000J0D01*
G01*
D10*
X18952856Y-5392856D02*
X18952856Y-5322144D01*
X18882144Y-5322144D01*
X18882144Y-5392856D01*
X18952856Y-5392856D01*
D11*
X19017500Y-5307500D02*
X18817500Y-5307500D01*
X18817500Y-5307500D02*
G75*
G03*
X18817500Y-5407500I0J-50000D01*
G01*
X18817500Y-5407500D02*
X19017500Y-5407500D01*
X19017500Y-5407500D02*
G75*
G03*
X19017500Y-5307500I0J50000D01*
G01*
D10*
X18952856Y-5992856D02*
X18952856Y-5922144D01*
X18882144Y-5922144D01*
X18882144Y-5992856D01*
X18952856Y-5992856D01*
D11*
X19017500Y-5907500D02*
X18817500Y-5907500D01*
X18817500Y-5907500D02*
G75*
G03*
X18817500Y-6007500I0J-50000D01*
G01*
X18817500Y-6007500D02*
X19017500Y-6007500D01*
X19017500Y-6007500D02*
G75*
G03*
X19017500Y-5907500I0J50000D01*
G01*
D15*
X5405064Y-6495143D02*
X5455102Y-6445105D01*
X5405064Y-6395067D01*
X5355026Y-6445105D01*
X5405064Y-6495143D01*
X5655000Y-6495143D02*
X5705038Y-6445105D01*
X5655000Y-6395067D01*
X5604962Y-6445105D01*
X5655000Y-6495143D01*
D16*
X13496700Y-11387700D02*
X13598300Y-11489300D01*
X13598300Y-11387700D02*
X13496700Y-11489300D01*
X13598300Y-11438500D02*
G75*
G03*
X13598300Y-11438500I-50800J0D01*
G01*
X13497700Y-6815700D02*
X13599300Y-6917300D01*
X13599300Y-6815700D02*
X13497700Y-6917300D01*
X13599300Y-6866500D02*
G75*
G03*
X13599300Y-6866500I-50800J0D01*
G01*
X13749700Y-6815700D02*
X13851300Y-6917300D01*
X13851300Y-6815700D02*
X13749700Y-6917300D01*
X13851300Y-6866500D02*
G75*
G03*
X13851300Y-6866500I-50800J0D01*
G01*
X13750700Y-11387700D02*
X13852300Y-11489300D01*
X13852300Y-11387700D02*
X13750700Y-11489300D01*
X13852300Y-11438500D02*
G75*
G03*
X13852300Y-11438500I-50800J0D01*
G01*
X14004700Y-6815700D02*
X14106300Y-6917300D01*
X14106300Y-6815700D02*
X14004700Y-6917300D01*
X14106300Y-6866500D02*
G75*
G03*
X14106300Y-6866500I-50800J0D01*
G01*
X14004700Y-11387700D02*
X14106300Y-11489300D01*
X14106300Y-11387700D02*
X14004700Y-11489300D01*
X14106300Y-11438500D02*
G75*
G03*
X14106300Y-11438500I-50800J0D01*
G01*
X14258700Y-6815700D02*
X14360300Y-6917300D01*
X14360300Y-6815700D02*
X14258700Y-6917300D01*
X14360300Y-6866500D02*
G75*
G03*
X14360300Y-6866500I-50800J0D01*
G01*
X14258700Y-11387700D02*
X14360300Y-11489300D01*
X14360300Y-11387700D02*
X14258700Y-11489300D01*
X14360300Y-11438500D02*
G75*
G03*
X14360300Y-11438500I-50800J0D01*
G01*
X14512700Y-6815700D02*
X14614300Y-6917300D01*
X14614300Y-6815700D02*
X14512700Y-6917300D01*
X14614300Y-6866500D02*
G75*
G03*
X14614300Y-6866500I-50800J0D01*
G01*
X14512700Y-11387700D02*
X14614300Y-11489300D01*
X14614300Y-11387700D02*
X14512700Y-11489300D01*
X14614300Y-11438500D02*
G75*
G03*
X14614300Y-11438500I-50800J0D01*
G01*
X14766700Y-6815700D02*
X14868300Y-6917300D01*
X14868300Y-6815700D02*
X14766700Y-6917300D01*
X14868300Y-6866500D02*
G75*
G03*
X14868300Y-6866500I-50800J0D01*
G01*
X14766700Y-11387700D02*
X14868300Y-11489300D01*
X14868300Y-11387700D02*
X14766700Y-11489300D01*
X14868300Y-11438500D02*
G75*
G03*
X14868300Y-11438500I-50800J0D01*
G01*
D17*
X9678000Y-6033000D02*
X9782000Y-6137000D01*
X9782000Y-6033000D02*
X9678000Y-6137000D01*
X9730000Y-6033000D02*
X9730000Y-6137000D01*
X9678000Y-6085000D02*
X9782000Y-6085000D01*
X9678000Y-6287000D02*
X9782000Y-6391000D01*
X9782000Y-6287000D02*
X9678000Y-6391000D01*
X9730000Y-6287000D02*
X9730000Y-6391000D01*
X9678000Y-6339000D02*
X9782000Y-6339000D01*
X9678000Y-6541000D02*
X9782000Y-6645000D01*
X9782000Y-6541000D02*
X9678000Y-6645000D01*
X9730000Y-6541000D02*
X9730000Y-6645000D01*
X9678000Y-6593000D02*
X9782000Y-6593000D01*
X9678000Y-6795000D02*
X9782000Y-6899000D01*
X9782000Y-6795000D02*
X9678000Y-6899000D01*
X9730000Y-6795000D02*
X9730000Y-6899000D01*
X9678000Y-6847000D02*
X9782000Y-6847000D01*
X9678000Y-7049000D02*
X9782000Y-7153000D01*
X9782000Y-7049000D02*
X9678000Y-7153000D01*
X9730000Y-7049000D02*
X9730000Y-7153000D01*
X9678000Y-7101000D02*
X9782000Y-7101000D01*
X9678000Y-7303000D02*
X9782000Y-7407000D01*
X9782000Y-7303000D02*
X9678000Y-7407000D01*
X9730000Y-7303000D02*
X9730000Y-7407000D01*
X9678000Y-7355000D02*
X9782000Y-7355000D01*
X9678000Y-7557000D02*
X9782000Y-7661000D01*
X9782000Y-7557000D02*
X9678000Y-7661000D01*
X9730000Y-7557000D02*
X9730000Y-7661000D01*
X9678000Y-7609000D02*
X9782000Y-7609000D01*
X9678000Y-7811000D02*
X9782000Y-7915000D01*
X9782000Y-7811000D02*
X9678000Y-7915000D01*
X9730000Y-7811000D02*
X9730000Y-7915000D01*
X9678000Y-7863000D02*
X9782000Y-7863000D01*
X9678000Y-8065000D02*
X9782000Y-8169000D01*
X9782000Y-8065000D02*
X9678000Y-8169000D01*
X9730000Y-8065000D02*
X9730000Y-8169000D01*
X9678000Y-8117000D02*
X9782000Y-8117000D01*
X9678000Y-8319000D02*
X9782000Y-8423000D01*
X9782000Y-8319000D02*
X9678000Y-8423000D01*
X9730000Y-8319000D02*
X9730000Y-8423000D01*
X9678000Y-8371000D02*
X9782000Y-8371000D01*
X9678000Y-8573000D02*
X9782000Y-8677000D01*
X9782000Y-8573000D02*
X9678000Y-8677000D01*
X9730000Y-8573000D02*
X9730000Y-8677000D01*
X9678000Y-8625000D02*
X9782000Y-8625000D01*
X9678000Y-8827000D02*
X9782000Y-8931000D01*
X9782000Y-8827000D02*
X9678000Y-8931000D01*
X9730000Y-8827000D02*
X9730000Y-8931000D01*
X9678000Y-8879000D02*
X9782000Y-8879000D01*
X9678000Y-9081000D02*
X9782000Y-9185000D01*
X9782000Y-9081000D02*
X9678000Y-9185000D01*
X9730000Y-9081000D02*
X9730000Y-9185000D01*
X9678000Y-9133000D02*
X9782000Y-9133000D01*
X9678000Y-9335000D02*
X9782000Y-9439000D01*
X9782000Y-9335000D02*
X9678000Y-9439000D01*
X9730000Y-9335000D02*
X9730000Y-9439000D01*
X9678000Y-9387000D02*
X9782000Y-9387000D01*
X9678000Y-9589000D02*
X9782000Y-9693000D01*
X9782000Y-9589000D02*
X9678000Y-9693000D01*
X9730000Y-9589000D02*
X9730000Y-9693000D01*
X9678000Y-9641000D02*
X9782000Y-9641000D01*
X9678000Y-9843000D02*
X9782000Y-9947000D01*
X9782000Y-9843000D02*
X9678000Y-9947000D01*
X9730000Y-9843000D02*
X9730000Y-9947000D01*
X9678000Y-9895000D02*
X9782000Y-9895000D01*
X9678000Y-10097000D02*
X9782000Y-10201000D01*
X9782000Y-10097000D02*
X9678000Y-10201000D01*
X9730000Y-10097000D02*
X9730000Y-10201000D01*
X9678000Y-10149000D02*
X9782000Y-10149000D01*
X9678000Y-10351000D02*
X9782000Y-10455000D01*
X9782000Y-10351000D02*
X9678000Y-10455000D01*
X9730000Y-10351000D02*
X9730000Y-10455000D01*
X9678000Y-10403000D02*
X9782000Y-10403000D01*
X9678000Y-10605000D02*
X9782000Y-10709000D01*
X9782000Y-10605000D02*
X9678000Y-10709000D01*
X9730000Y-10605000D02*
X9730000Y-10709000D01*
X9678000Y-10657000D02*
X9782000Y-10657000D01*
X12218000Y-6033000D02*
X12322000Y-6137000D01*
X12322000Y-6033000D02*
X12218000Y-6137000D01*
X12270000Y-6033000D02*
X12270000Y-6137000D01*
X12218000Y-6085000D02*
X12322000Y-6085000D01*
X12218000Y-6287000D02*
X12322000Y-6391000D01*
X12322000Y-6287000D02*
X12218000Y-6391000D01*
X12270000Y-6287000D02*
X12270000Y-6391000D01*
X12218000Y-6339000D02*
X12322000Y-6339000D01*
X12218000Y-6541000D02*
X12322000Y-6645000D01*
X12322000Y-6541000D02*
X12218000Y-6645000D01*
X12270000Y-6541000D02*
X12270000Y-6645000D01*
X12218000Y-6593000D02*
X12322000Y-6593000D01*
X12218000Y-6795000D02*
X12322000Y-6899000D01*
X12322000Y-6795000D02*
X12218000Y-6899000D01*
X12270000Y-6795000D02*
X12270000Y-6899000D01*
X12218000Y-6847000D02*
X12322000Y-6847000D01*
X12218000Y-7049000D02*
X12322000Y-7153000D01*
X12322000Y-7049000D02*
X12218000Y-7153000D01*
X12270000Y-7049000D02*
X12270000Y-7153000D01*
X12218000Y-7101000D02*
X12322000Y-7101000D01*
X12218000Y-7303000D02*
X12322000Y-7407000D01*
X12322000Y-7303000D02*
X12218000Y-7407000D01*
X12270000Y-7303000D02*
X12270000Y-7407000D01*
X12218000Y-7355000D02*
X12322000Y-7355000D01*
X12218000Y-7557000D02*
X12322000Y-7661000D01*
X12322000Y-7557000D02*
X12218000Y-7661000D01*
X12270000Y-7557000D02*
X12270000Y-7661000D01*
X12218000Y-7609000D02*
X12322000Y-7609000D01*
X12218000Y-7811000D02*
X12322000Y-7915000D01*
X12322000Y-7811000D02*
X12218000Y-7915000D01*
X12270000Y-7811000D02*
X12270000Y-7915000D01*
X12218000Y-7863000D02*
X12322000Y-7863000D01*
X12218000Y-8065000D02*
X12322000Y-8169000D01*
X12322000Y-8065000D02*
X12218000Y-8169000D01*
X12270000Y-8065000D02*
X12270000Y-8169000D01*
X12218000Y-8117000D02*
X12322000Y-8117000D01*
X12218000Y-8319000D02*
X12322000Y-8423000D01*
X12322000Y-8319000D02*
X12218000Y-8423000D01*
X12270000Y-8319000D02*
X12270000Y-8423000D01*
X12218000Y-8371000D02*
X12322000Y-8371000D01*
X12218000Y-8573000D02*
X12322000Y-8677000D01*
X12322000Y-8573000D02*
X12218000Y-8677000D01*
X12270000Y-8573000D02*
X12270000Y-8677000D01*
X12218000Y-8625000D02*
X12322000Y-8625000D01*
X12218000Y-8827000D02*
X12322000Y-8931000D01*
X12322000Y-8827000D02*
X12218000Y-8931000D01*
X12270000Y-8827000D02*
X12270000Y-8931000D01*
X12218000Y-8879000D02*
X12322000Y-8879000D01*
X12218000Y-9081000D02*
X12322000Y-9185000D01*
X12322000Y-9081000D02*
X12218000Y-9185000D01*
X12270000Y-9081000D02*
X12270000Y-9185000D01*
X12218000Y-9133000D02*
X12322000Y-9133000D01*
X12218000Y-9335000D02*
X12322000Y-9439000D01*
X12322000Y-9335000D02*
X12218000Y-9439000D01*
X12270000Y-9335000D02*
X12270000Y-9439000D01*
X12218000Y-9387000D02*
X12322000Y-9387000D01*
X12218000Y-9589000D02*
X12322000Y-9693000D01*
X12322000Y-9589000D02*
X12218000Y-9693000D01*
X12270000Y-9589000D02*
X12270000Y-9693000D01*
X12218000Y-9641000D02*
X12322000Y-9641000D01*
X12218000Y-9843000D02*
X12322000Y-9947000D01*
X12322000Y-9843000D02*
X12218000Y-9947000D01*
X12270000Y-9843000D02*
X12270000Y-9947000D01*
X12218000Y-9895000D02*
X12322000Y-9895000D01*
X12218000Y-10097000D02*
X12322000Y-10201000D01*
X12322000Y-10097000D02*
X12218000Y-10201000D01*
X12270000Y-10097000D02*
X12270000Y-10201000D01*
X12218000Y-10149000D02*
X12322000Y-10149000D01*
X12218000Y-10351000D02*
X12322000Y-10455000D01*
X12322000Y-10351000D02*
X12218000Y-10455000D01*
X12270000Y-10351000D02*
X12270000Y-10455000D01*
X12218000Y-10403000D02*
X12322000Y-10403000D01*
X12218000Y-10605000D02*
X12322000Y-10709000D01*
X12322000Y-10605000D02*
X12218000Y-10709000D01*
X12270000Y-10605000D02*
X12270000Y-10709000D01*
X12218000Y-10657000D02*
X12322000Y-10657000D01*
D18*
X17112500Y-5792500D02*
X17222500Y-5902500D01*
X17222500Y-5792500D02*
X17112500Y-5902500D01*
X17206391Y-5886391D02*
X17206391Y-5808609D01*
X17128609Y-5808609D01*
X17128609Y-5886391D01*
X17206391Y-5886391D01*
X17282500Y-5422500D02*
X17392500Y-5532500D01*
X17392500Y-5422500D02*
X17282500Y-5532500D01*
X17376391Y-5516391D02*
X17376391Y-5438609D01*
X17298609Y-5438609D01*
X17298609Y-5516391D01*
X17376391Y-5516391D01*
X17452500Y-5792500D02*
X17562500Y-5902500D01*
X17562500Y-5792500D02*
X17452500Y-5902500D01*
X17546391Y-5886391D02*
X17546391Y-5808609D01*
X17468609Y-5808609D01*
X17468609Y-5886391D01*
X17546391Y-5886391D01*
X17622500Y-5422500D02*
X17732500Y-5532500D01*
X17732500Y-5422500D02*
X17622500Y-5532500D01*
X17716391Y-5516391D02*
X17716391Y-5438609D01*
X17638609Y-5438609D01*
X17638609Y-5516391D01*
X17716391Y-5516391D01*
X17792500Y-5792500D02*
X17902500Y-5902500D01*
X17902500Y-5792500D02*
X17792500Y-5902500D01*
X17886391Y-5886391D02*
X17886391Y-5808609D01*
X17808609Y-5808609D01*
X17808609Y-5886391D01*
X17886391Y-5886391D01*
D19*
X12697500Y-5465250D02*
X12827500Y-5595250D01*
X12827500Y-5465250D02*
X12697500Y-5595250D01*
X12762500Y-5595250D02*
X12827500Y-5530250D01*
X12762500Y-5465250D01*
X12697500Y-5530250D01*
X12762500Y-5595250D01*
X13398500Y-5465250D02*
X13528500Y-5595250D01*
X13528500Y-5465250D02*
X13398500Y-5595250D01*
X13463500Y-5595250D02*
X13528500Y-5530250D01*
X13463500Y-5465250D01*
X13398500Y-5530250D01*
X13463500Y-5595250D01*
D20*
X16512500Y-6518000D02*
X16512500Y-6678000D01*
X16432500Y-6598000D02*
X16592500Y-6598000D01*
X16592500Y-6598000D02*
G75*
G03*
X16592500Y-6598000I-80000J0D01*
G01*
X16512500Y-8042000D02*
X16512500Y-8202000D01*
X16432500Y-8122000D02*
X16592500Y-8122000D01*
X16592500Y-8122000D02*
G75*
G03*
X16592500Y-8122000I-80000J0D01*
G01*
D21*
X5222992Y-6096409D02*
X5222992Y-5940869D01*
X5067452Y-5940869D01*
X5067452Y-6096409D01*
X5222992Y-6096409D01*
X5255204Y-6018639D02*
G75*
G03*
X5255204Y-6018639I-109982J0D01*
G01*
X6242802Y-6096409D02*
X6242802Y-5940869D01*
X6087262Y-5940869D01*
X6087262Y-6096409D01*
X6242802Y-6096409D01*
X6275014Y-6018639D02*
G75*
G03*
X6275014Y-6018639I-109982J0D01*
G01*
D11*
X7758277Y-13321484D02*
X7758277Y-13121484D01*
X7758277Y-13121484D02*
X7805896Y-13121484D01*
X7805896Y-13121484D02*
X7834467Y-13131008D01*
X7834467Y-13131008D02*
X7853515Y-13150055D01*
X7853515Y-13150055D02*
X7863039Y-13169103D01*
X7863039Y-13169103D02*
X7872562Y-13207198D01*
X7872562Y-13207198D02*
X7872562Y-13235769D01*
X7872562Y-13235769D02*
X7863039Y-13273865D01*
X7863039Y-13273865D02*
X7853515Y-13292912D01*
X7853515Y-13292912D02*
X7834467Y-13311960D01*
X7834467Y-13311960D02*
X7805896Y-13321484D01*
X7805896Y-13321484D02*
X7758277Y-13321484D01*
X7958277Y-13321484D02*
X7958277Y-13188150D01*
X7958277Y-13226246D02*
X7967801Y-13207198D01*
X7967801Y-13207198D02*
X7977324Y-13197674D01*
X7977324Y-13197674D02*
X7996372Y-13188150D01*
X7996372Y-13188150D02*
X8015420Y-13188150D01*
X8082086Y-13321484D02*
X8082086Y-13188150D01*
X8082086Y-13121484D02*
X8072562Y-13131008D01*
X8072562Y-13131008D02*
X8082086Y-13140531D01*
X8082086Y-13140531D02*
X8091610Y-13131008D01*
X8091610Y-13131008D02*
X8082086Y-13121484D01*
X8082086Y-13121484D02*
X8082086Y-13140531D01*
X8205896Y-13321484D02*
X8186848Y-13311960D01*
X8186848Y-13311960D02*
X8177324Y-13292912D01*
X8177324Y-13292912D02*
X8177324Y-13121484D01*
X8310658Y-13321484D02*
X8291610Y-13311960D01*
X8291610Y-13311960D02*
X8282086Y-13292912D01*
X8282086Y-13292912D02*
X8282086Y-13121484D01*
X8539229Y-13321484D02*
X8539229Y-13121484D01*
X8539229Y-13121484D02*
X8605896Y-13264341D01*
X8605896Y-13264341D02*
X8672563Y-13121484D01*
X8672563Y-13121484D02*
X8672563Y-13321484D01*
X8853515Y-13321484D02*
X8853515Y-13216722D01*
X8853515Y-13216722D02*
X8843991Y-13197674D01*
X8843991Y-13197674D02*
X8824944Y-13188150D01*
X8824944Y-13188150D02*
X8786848Y-13188150D01*
X8786848Y-13188150D02*
X8767801Y-13197674D01*
X8853515Y-13311960D02*
X8834467Y-13321484D01*
X8834467Y-13321484D02*
X8786848Y-13321484D01*
X8786848Y-13321484D02*
X8767801Y-13311960D01*
X8767801Y-13311960D02*
X8758277Y-13292912D01*
X8758277Y-13292912D02*
X8758277Y-13273865D01*
X8758277Y-13273865D02*
X8767801Y-13254817D01*
X8767801Y-13254817D02*
X8786848Y-13245293D01*
X8786848Y-13245293D02*
X8834467Y-13245293D01*
X8834467Y-13245293D02*
X8853515Y-13235769D01*
X8948753Y-13188150D02*
X8948753Y-13388150D01*
X8948753Y-13197674D02*
X8967801Y-13188150D01*
X8967801Y-13188150D02*
X9005896Y-13188150D01*
X9005896Y-13188150D02*
X9024944Y-13197674D01*
X9024944Y-13197674D02*
X9034467Y-13207198D01*
X9034467Y-13207198D02*
X9043991Y-13226246D01*
X9043991Y-13226246D02*
X9043991Y-13283388D01*
X9043991Y-13283388D02*
X9034467Y-13302436D01*
X9034467Y-13302436D02*
X9024944Y-13311960D01*
X9024944Y-13311960D02*
X9005896Y-13321484D01*
X9005896Y-13321484D02*
X8967801Y-13321484D01*
X8967801Y-13321484D02*
X8948753Y-13311960D01*
X9129705Y-13302436D02*
X9139229Y-13311960D01*
X9139229Y-13311960D02*
X9129705Y-13321484D01*
X9129705Y-13321484D02*
X9120182Y-13311960D01*
X9120182Y-13311960D02*
X9129705Y-13302436D01*
X9129705Y-13302436D02*
X9129705Y-13321484D01*
X9129705Y-13197674D02*
X9139229Y-13207198D01*
X9139229Y-13207198D02*
X9129705Y-13216722D01*
X9129705Y-13216722D02*
X9120182Y-13207198D01*
X9120182Y-13207198D02*
X9129705Y-13197674D01*
X9129705Y-13197674D02*
X9129705Y-13216722D01*
D12*
X7417500Y-13610000D02*
X7497500Y-13690000D01*
X7497500Y-13610000D02*
X7417500Y-13690000D01*
D11*
X7796372Y-13541484D02*
X7815420Y-13541484D01*
X7815420Y-13541484D02*
X7834467Y-13551008D01*
X7834467Y-13551008D02*
X7843991Y-13560531D01*
X7843991Y-13560531D02*
X7853515Y-13579579D01*
X7853515Y-13579579D02*
X7863039Y-13617674D01*
X7863039Y-13617674D02*
X7863039Y-13665293D01*
X7863039Y-13665293D02*
X7853515Y-13703388D01*
X7853515Y-13703388D02*
X7843991Y-13722436D01*
X7843991Y-13722436D02*
X7834467Y-13731960D01*
X7834467Y-13731960D02*
X7815420Y-13741484D01*
X7815420Y-13741484D02*
X7796372Y-13741484D01*
X7796372Y-13741484D02*
X7777324Y-13731960D01*
X7777324Y-13731960D02*
X7767801Y-13722436D01*
X7767801Y-13722436D02*
X7758277Y-13703388D01*
X7758277Y-13703388D02*
X7748753Y-13665293D01*
X7748753Y-13665293D02*
X7748753Y-13617674D01*
X7748753Y-13617674D02*
X7758277Y-13579579D01*
X7758277Y-13579579D02*
X7767801Y-13560531D01*
X7767801Y-13560531D02*
X7777324Y-13551008D01*
X7777324Y-13551008D02*
X7796372Y-13541484D01*
X7948753Y-13722436D02*
X7958277Y-13731960D01*
X7958277Y-13731960D02*
X7948753Y-13741484D01*
X7948753Y-13741484D02*
X7939229Y-13731960D01*
X7939229Y-13731960D02*
X7948753Y-13722436D01*
X7948753Y-13722436D02*
X7948753Y-13741484D01*
X8072562Y-13627198D02*
X8053515Y-13617674D01*
X8053515Y-13617674D02*
X8043991Y-13608150D01*
X8043991Y-13608150D02*
X8034467Y-13589103D01*
X8034467Y-13589103D02*
X8034467Y-13579579D01*
X8034467Y-13579579D02*
X8043991Y-13560531D01*
X8043991Y-13560531D02*
X8053515Y-13551008D01*
X8053515Y-13551008D02*
X8072562Y-13541484D01*
X8072562Y-13541484D02*
X8110658Y-13541484D01*
X8110658Y-13541484D02*
X8129705Y-13551008D01*
X8129705Y-13551008D02*
X8139229Y-13560531D01*
X8139229Y-13560531D02*
X8148753Y-13579579D01*
X8148753Y-13579579D02*
X8148753Y-13589103D01*
X8148753Y-13589103D02*
X8139229Y-13608150D01*
X8139229Y-13608150D02*
X8129705Y-13617674D01*
X8129705Y-13617674D02*
X8110658Y-13627198D01*
X8110658Y-13627198D02*
X8072562Y-13627198D01*
X8072562Y-13627198D02*
X8053515Y-13636722D01*
X8053515Y-13636722D02*
X8043991Y-13646246D01*
X8043991Y-13646246D02*
X8034467Y-13665293D01*
X8034467Y-13665293D02*
X8034467Y-13703388D01*
X8034467Y-13703388D02*
X8043991Y-13722436D01*
X8043991Y-13722436D02*
X8053515Y-13731960D01*
X8053515Y-13731960D02*
X8072562Y-13741484D01*
X8072562Y-13741484D02*
X8110658Y-13741484D01*
X8110658Y-13741484D02*
X8129705Y-13731960D01*
X8129705Y-13731960D02*
X8139229Y-13722436D01*
X8139229Y-13722436D02*
X8148753Y-13703388D01*
X8148753Y-13703388D02*
X8148753Y-13665293D01*
X8148753Y-13665293D02*
X8139229Y-13646246D01*
X8139229Y-13646246D02*
X8129705Y-13636722D01*
X8129705Y-13636722D02*
X8110658Y-13627198D01*
X8272562Y-13541484D02*
X8291610Y-13541484D01*
X8291610Y-13541484D02*
X8310658Y-13551008D01*
X8310658Y-13551008D02*
X8320182Y-13560531D01*
X8320182Y-13560531D02*
X8329705Y-13579579D01*
X8329705Y-13579579D02*
X8339229Y-13617674D01*
X8339229Y-13617674D02*
X8339229Y-13665293D01*
X8339229Y-13665293D02*
X8329705Y-13703388D01*
X8329705Y-13703388D02*
X8320182Y-13722436D01*
X8320182Y-13722436D02*
X8310658Y-13731960D01*
X8310658Y-13731960D02*
X8291610Y-13741484D01*
X8291610Y-13741484D02*
X8272562Y-13741484D01*
X8272562Y-13741484D02*
X8253515Y-13731960D01*
X8253515Y-13731960D02*
X8243991Y-13722436D01*
X8243991Y-13722436D02*
X8234467Y-13703388D01*
X8234467Y-13703388D02*
X8224943Y-13665293D01*
X8224943Y-13665293D02*
X8224943Y-13617674D01*
X8224943Y-13617674D02*
X8234467Y-13579579D01*
X8234467Y-13579579D02*
X8243991Y-13560531D01*
X8243991Y-13560531D02*
X8253515Y-13551008D01*
X8253515Y-13551008D02*
X8272562Y-13541484D01*
X8463039Y-13541484D02*
X8482086Y-13541484D01*
X8482086Y-13541484D02*
X8501134Y-13551008D01*
X8501134Y-13551008D02*
X8510658Y-13560531D01*
X8510658Y-13560531D02*
X8520182Y-13579579D01*
X8520182Y-13579579D02*
X8529705Y-13617674D01*
X8529705Y-13617674D02*
X8529705Y-13665293D01*
X8529705Y-13665293D02*
X8520182Y-13703388D01*
X8520182Y-13703388D02*
X8510658Y-13722436D01*
X8510658Y-13722436D02*
X8501134Y-13731960D01*
X8501134Y-13731960D02*
X8482086Y-13741484D01*
X8482086Y-13741484D02*
X8463039Y-13741484D01*
X8463039Y-13741484D02*
X8443991Y-13731960D01*
X8443991Y-13731960D02*
X8434467Y-13722436D01*
X8434467Y-13722436D02*
X8424944Y-13703388D01*
X8424944Y-13703388D02*
X8415420Y-13665293D01*
X8415420Y-13665293D02*
X8415420Y-13617674D01*
X8415420Y-13617674D02*
X8424944Y-13579579D01*
X8424944Y-13579579D02*
X8434467Y-13560531D01*
X8434467Y-13560531D02*
X8443991Y-13551008D01*
X8443991Y-13551008D02*
X8463039Y-13541484D01*
X8615420Y-13741484D02*
X8615420Y-13608150D01*
X8615420Y-13627198D02*
X8624944Y-13617674D01*
X8624944Y-13617674D02*
X8643991Y-13608150D01*
X8643991Y-13608150D02*
X8672563Y-13608150D01*
X8672563Y-13608150D02*
X8691610Y-13617674D01*
X8691610Y-13617674D02*
X8701134Y-13636722D01*
X8701134Y-13636722D02*
X8701134Y-13741484D01*
X8701134Y-13636722D02*
X8710658Y-13617674D01*
X8710658Y-13617674D02*
X8729705Y-13608150D01*
X8729705Y-13608150D02*
X8758277Y-13608150D01*
X8758277Y-13608150D02*
X8777325Y-13617674D01*
X8777325Y-13617674D02*
X8786848Y-13636722D01*
X8786848Y-13636722D02*
X8786848Y-13741484D01*
X8882086Y-13741484D02*
X8882086Y-13608150D01*
X8882086Y-13627198D02*
X8891610Y-13617674D01*
X8891610Y-13617674D02*
X8910658Y-13608150D01*
X8910658Y-13608150D02*
X8939229Y-13608150D01*
X8939229Y-13608150D02*
X8958277Y-13617674D01*
X8958277Y-13617674D02*
X8967801Y-13636722D01*
X8967801Y-13636722D02*
X8967801Y-13741484D01*
X8967801Y-13636722D02*
X8977325Y-13617674D01*
X8977325Y-13617674D02*
X8996372Y-13608150D01*
X8996372Y-13608150D02*
X9024944Y-13608150D01*
X9024944Y-13608150D02*
X9043991Y-13617674D01*
X9043991Y-13617674D02*
X9053515Y-13636722D01*
X9053515Y-13636722D02*
X9053515Y-13741484D01*
X9443991Y-13531960D02*
X9272563Y-13789103D01*
X9701134Y-13541484D02*
X9720182Y-13541484D01*
X9720182Y-13541484D02*
X9739229Y-13551008D01*
X9739229Y-13551008D02*
X9748753Y-13560531D01*
X9748753Y-13560531D02*
X9758277Y-13579579D01*
X9758277Y-13579579D02*
X9767801Y-13617674D01*
X9767801Y-13617674D02*
X9767801Y-13665293D01*
X9767801Y-13665293D02*
X9758277Y-13703388D01*
X9758277Y-13703388D02*
X9748753Y-13722436D01*
X9748753Y-13722436D02*
X9739229Y-13731960D01*
X9739229Y-13731960D02*
X9720182Y-13741484D01*
X9720182Y-13741484D02*
X9701134Y-13741484D01*
X9701134Y-13741484D02*
X9682087Y-13731960D01*
X9682087Y-13731960D02*
X9672563Y-13722436D01*
X9672563Y-13722436D02*
X9663039Y-13703388D01*
X9663039Y-13703388D02*
X9653515Y-13665293D01*
X9653515Y-13665293D02*
X9653515Y-13617674D01*
X9653515Y-13617674D02*
X9663039Y-13579579D01*
X9663039Y-13579579D02*
X9672563Y-13560531D01*
X9672563Y-13560531D02*
X9682087Y-13551008D01*
X9682087Y-13551008D02*
X9701134Y-13541484D01*
X9853515Y-13722436D02*
X9863039Y-13731960D01*
X9863039Y-13731960D02*
X9853515Y-13741484D01*
X9853515Y-13741484D02*
X9843991Y-13731960D01*
X9843991Y-13731960D02*
X9853515Y-13722436D01*
X9853515Y-13722436D02*
X9853515Y-13741484D01*
X9986848Y-13541484D02*
X10005896Y-13541484D01*
X10005896Y-13541484D02*
X10024944Y-13551008D01*
X10024944Y-13551008D02*
X10034468Y-13560531D01*
X10034468Y-13560531D02*
X10043991Y-13579579D01*
X10043991Y-13579579D02*
X10053515Y-13617674D01*
X10053515Y-13617674D02*
X10053515Y-13665293D01*
X10053515Y-13665293D02*
X10043991Y-13703388D01*
X10043991Y-13703388D02*
X10034468Y-13722436D01*
X10034468Y-13722436D02*
X10024944Y-13731960D01*
X10024944Y-13731960D02*
X10005896Y-13741484D01*
X10005896Y-13741484D02*
X9986848Y-13741484D01*
X9986848Y-13741484D02*
X9967801Y-13731960D01*
X9967801Y-13731960D02*
X9958277Y-13722436D01*
X9958277Y-13722436D02*
X9948753Y-13703388D01*
X9948753Y-13703388D02*
X9939229Y-13665293D01*
X9939229Y-13665293D02*
X9939229Y-13617674D01*
X9939229Y-13617674D02*
X9948753Y-13579579D01*
X9948753Y-13579579D02*
X9958277Y-13560531D01*
X9958277Y-13560531D02*
X9967801Y-13551008D01*
X9967801Y-13551008D02*
X9986848Y-13541484D01*
X10120182Y-13541484D02*
X10243991Y-13541484D01*
X10243991Y-13541484D02*
X10177325Y-13617674D01*
X10177325Y-13617674D02*
X10205896Y-13617674D01*
X10205896Y-13617674D02*
X10224944Y-13627198D01*
X10224944Y-13627198D02*
X10234468Y-13636722D01*
X10234468Y-13636722D02*
X10243991Y-13655769D01*
X10243991Y-13655769D02*
X10243991Y-13703388D01*
X10243991Y-13703388D02*
X10234468Y-13722436D01*
X10234468Y-13722436D02*
X10224944Y-13731960D01*
X10224944Y-13731960D02*
X10205896Y-13741484D01*
X10205896Y-13741484D02*
X10148753Y-13741484D01*
X10148753Y-13741484D02*
X10129706Y-13731960D01*
X10129706Y-13731960D02*
X10120182Y-13722436D01*
X10434468Y-13741484D02*
X10320182Y-13741484D01*
X10377325Y-13741484D02*
X10377325Y-13541484D01*
X10377325Y-13541484D02*
X10358277Y-13570055D01*
X10358277Y-13570055D02*
X10339229Y-13589103D01*
X10339229Y-13589103D02*
X10320182Y-13598627D01*
X10615420Y-13541484D02*
X10520182Y-13541484D01*
X10520182Y-13541484D02*
X10510658Y-13636722D01*
X10510658Y-13636722D02*
X10520182Y-13627198D01*
X10520182Y-13627198D02*
X10539229Y-13617674D01*
X10539229Y-13617674D02*
X10586849Y-13617674D01*
X10586849Y-13617674D02*
X10605896Y-13627198D01*
X10605896Y-13627198D02*
X10615420Y-13636722D01*
X10615420Y-13636722D02*
X10624944Y-13655769D01*
X10624944Y-13655769D02*
X10624944Y-13703388D01*
X10624944Y-13703388D02*
X10615420Y-13722436D01*
X10615420Y-13722436D02*
X10605896Y-13731960D01*
X10605896Y-13731960D02*
X10586849Y-13741484D01*
X10586849Y-13741484D02*
X10539229Y-13741484D01*
X10539229Y-13741484D02*
X10520182Y-13731960D01*
X10520182Y-13731960D02*
X10510658Y-13722436D01*
X10701134Y-13541484D02*
X10701134Y-13579579D01*
X10777325Y-13541484D02*
X10777325Y-13579579D01*
X11072563Y-13817674D02*
X11063039Y-13808150D01*
X11063039Y-13808150D02*
X11043991Y-13779579D01*
X11043991Y-13779579D02*
X11034468Y-13760531D01*
X11034468Y-13760531D02*
X11024944Y-13731960D01*
X11024944Y-13731960D02*
X11015420Y-13684341D01*
X11015420Y-13684341D02*
X11015420Y-13646246D01*
X11015420Y-13646246D02*
X11024944Y-13598627D01*
X11024944Y-13598627D02*
X11034468Y-13570055D01*
X11034468Y-13570055D02*
X11043991Y-13551008D01*
X11043991Y-13551008D02*
X11063039Y-13522436D01*
X11063039Y-13522436D02*
X11072563Y-13512912D01*
X11234468Y-13608150D02*
X11234468Y-13741484D01*
X11186848Y-13531960D02*
X11139230Y-13674817D01*
X11139230Y-13674817D02*
X11263039Y-13674817D01*
X11491610Y-13741484D02*
X11491610Y-13541484D01*
X11577325Y-13741484D02*
X11577325Y-13636722D01*
X11577325Y-13636722D02*
X11567801Y-13617674D01*
X11567801Y-13617674D02*
X11548753Y-13608150D01*
X11548753Y-13608150D02*
X11520182Y-13608150D01*
X11520182Y-13608150D02*
X11501134Y-13617674D01*
X11501134Y-13617674D02*
X11491610Y-13627198D01*
X11701134Y-13741484D02*
X11682087Y-13731960D01*
X11682087Y-13731960D02*
X11672563Y-13722436D01*
X11672563Y-13722436D02*
X11663039Y-13703388D01*
X11663039Y-13703388D02*
X11663039Y-13646246D01*
X11663039Y-13646246D02*
X11672563Y-13627198D01*
X11672563Y-13627198D02*
X11682087Y-13617674D01*
X11682087Y-13617674D02*
X11701134Y-13608150D01*
X11701134Y-13608150D02*
X11729706Y-13608150D01*
X11729706Y-13608150D02*
X11748753Y-13617674D01*
X11748753Y-13617674D02*
X11758277Y-13627198D01*
X11758277Y-13627198D02*
X11767801Y-13646246D01*
X11767801Y-13646246D02*
X11767801Y-13703388D01*
X11767801Y-13703388D02*
X11758277Y-13722436D01*
X11758277Y-13722436D02*
X11748753Y-13731960D01*
X11748753Y-13731960D02*
X11729706Y-13741484D01*
X11729706Y-13741484D02*
X11701134Y-13741484D01*
X11882087Y-13741484D02*
X11863039Y-13731960D01*
X11863039Y-13731960D02*
X11853515Y-13712912D01*
X11853515Y-13712912D02*
X11853515Y-13541484D01*
X12034468Y-13731960D02*
X12015420Y-13741484D01*
X12015420Y-13741484D02*
X11977325Y-13741484D01*
X11977325Y-13741484D02*
X11958277Y-13731960D01*
X11958277Y-13731960D02*
X11948753Y-13712912D01*
X11948753Y-13712912D02*
X11948753Y-13636722D01*
X11948753Y-13636722D02*
X11958277Y-13617674D01*
X11958277Y-13617674D02*
X11977325Y-13608150D01*
X11977325Y-13608150D02*
X12015420Y-13608150D01*
X12015420Y-13608150D02*
X12034468Y-13617674D01*
X12034468Y-13617674D02*
X12043991Y-13636722D01*
X12043991Y-13636722D02*
X12043991Y-13655769D01*
X12043991Y-13655769D02*
X11948753Y-13674817D01*
X12120182Y-13731960D02*
X12139230Y-13741484D01*
X12139230Y-13741484D02*
X12177325Y-13741484D01*
X12177325Y-13741484D02*
X12196372Y-13731960D01*
X12196372Y-13731960D02*
X12205896Y-13712912D01*
X12205896Y-13712912D02*
X12205896Y-13703388D01*
X12205896Y-13703388D02*
X12196372Y-13684341D01*
X12196372Y-13684341D02*
X12177325Y-13674817D01*
X12177325Y-13674817D02*
X12148753Y-13674817D01*
X12148753Y-13674817D02*
X12129706Y-13665293D01*
X12129706Y-13665293D02*
X12120182Y-13646246D01*
X12120182Y-13646246D02*
X12120182Y-13636722D01*
X12120182Y-13636722D02*
X12129706Y-13617674D01*
X12129706Y-13617674D02*
X12148753Y-13608150D01*
X12148753Y-13608150D02*
X12177325Y-13608150D01*
X12177325Y-13608150D02*
X12196372Y-13617674D01*
X12272563Y-13817674D02*
X12282087Y-13808150D01*
X12282087Y-13808150D02*
X12301134Y-13779579D01*
X12301134Y-13779579D02*
X12310658Y-13760531D01*
X12310658Y-13760531D02*
X12320182Y-13731960D01*
X12320182Y-13731960D02*
X12329706Y-13684341D01*
X12329706Y-13684341D02*
X12329706Y-13646246D01*
X12329706Y-13646246D02*
X12320182Y-13598627D01*
X12320182Y-13598627D02*
X12310658Y-13570055D01*
X12310658Y-13570055D02*
X12301134Y-13551008D01*
X12301134Y-13551008D02*
X12282087Y-13522436D01*
X12282087Y-13522436D02*
X12272563Y-13512912D01*
D13*
X7497500Y-13914000D02*
G75*
G03*
X7497500Y-13914000I-47500J0D01*
G01*
D11*
X7796372Y-13805484D02*
X7815420Y-13805484D01*
X7815420Y-13805484D02*
X7834467Y-13815008D01*
X7834467Y-13815008D02*
X7843991Y-13824531D01*
X7843991Y-13824531D02*
X7853515Y-13843579D01*
X7853515Y-13843579D02*
X7863039Y-13881674D01*
X7863039Y-13881674D02*
X7863039Y-13929293D01*
X7863039Y-13929293D02*
X7853515Y-13967388D01*
X7853515Y-13967388D02*
X7843991Y-13986436D01*
X7843991Y-13986436D02*
X7834467Y-13995960D01*
X7834467Y-13995960D02*
X7815420Y-14005484D01*
X7815420Y-14005484D02*
X7796372Y-14005484D01*
X7796372Y-14005484D02*
X7777324Y-13995960D01*
X7777324Y-13995960D02*
X7767801Y-13986436D01*
X7767801Y-13986436D02*
X7758277Y-13967388D01*
X7758277Y-13967388D02*
X7748753Y-13929293D01*
X7748753Y-13929293D02*
X7748753Y-13881674D01*
X7748753Y-13881674D02*
X7758277Y-13843579D01*
X7758277Y-13843579D02*
X7767801Y-13824531D01*
X7767801Y-13824531D02*
X7777324Y-13815008D01*
X7777324Y-13815008D02*
X7796372Y-13805484D01*
X7948753Y-13986436D02*
X7958277Y-13995960D01*
X7958277Y-13995960D02*
X7948753Y-14005484D01*
X7948753Y-14005484D02*
X7939229Y-13995960D01*
X7939229Y-13995960D02*
X7948753Y-13986436D01*
X7948753Y-13986436D02*
X7948753Y-14005484D01*
X8053515Y-14005484D02*
X8091610Y-14005484D01*
X8091610Y-14005484D02*
X8110658Y-13995960D01*
X8110658Y-13995960D02*
X8120182Y-13986436D01*
X8120182Y-13986436D02*
X8139229Y-13957865D01*
X8139229Y-13957865D02*
X8148753Y-13919769D01*
X8148753Y-13919769D02*
X8148753Y-13843579D01*
X8148753Y-13843579D02*
X8139229Y-13824531D01*
X8139229Y-13824531D02*
X8129705Y-13815008D01*
X8129705Y-13815008D02*
X8110658Y-13805484D01*
X8110658Y-13805484D02*
X8072562Y-13805484D01*
X8072562Y-13805484D02*
X8053515Y-13815008D01*
X8053515Y-13815008D02*
X8043991Y-13824531D01*
X8043991Y-13824531D02*
X8034467Y-13843579D01*
X8034467Y-13843579D02*
X8034467Y-13891198D01*
X8034467Y-13891198D02*
X8043991Y-13910246D01*
X8043991Y-13910246D02*
X8053515Y-13919769D01*
X8053515Y-13919769D02*
X8072562Y-13929293D01*
X8072562Y-13929293D02*
X8110658Y-13929293D01*
X8110658Y-13929293D02*
X8129705Y-13919769D01*
X8129705Y-13919769D02*
X8139229Y-13910246D01*
X8139229Y-13910246D02*
X8148753Y-13891198D01*
X8329705Y-13805484D02*
X8234467Y-13805484D01*
X8234467Y-13805484D02*
X8224943Y-13900722D01*
X8224943Y-13900722D02*
X8234467Y-13891198D01*
X8234467Y-13891198D02*
X8253515Y-13881674D01*
X8253515Y-13881674D02*
X8301134Y-13881674D01*
X8301134Y-13881674D02*
X8320182Y-13891198D01*
X8320182Y-13891198D02*
X8329705Y-13900722D01*
X8329705Y-13900722D02*
X8339229Y-13919769D01*
X8339229Y-13919769D02*
X8339229Y-13967388D01*
X8339229Y-13967388D02*
X8329705Y-13986436D01*
X8329705Y-13986436D02*
X8320182Y-13995960D01*
X8320182Y-13995960D02*
X8301134Y-14005484D01*
X8301134Y-14005484D02*
X8253515Y-14005484D01*
X8253515Y-14005484D02*
X8234467Y-13995960D01*
X8234467Y-13995960D02*
X8224943Y-13986436D01*
X8463039Y-13805484D02*
X8482086Y-13805484D01*
X8482086Y-13805484D02*
X8501134Y-13815008D01*
X8501134Y-13815008D02*
X8510658Y-13824531D01*
X8510658Y-13824531D02*
X8520182Y-13843579D01*
X8520182Y-13843579D02*
X8529705Y-13881674D01*
X8529705Y-13881674D02*
X8529705Y-13929293D01*
X8529705Y-13929293D02*
X8520182Y-13967388D01*
X8520182Y-13967388D02*
X8510658Y-13986436D01*
X8510658Y-13986436D02*
X8501134Y-13995960D01*
X8501134Y-13995960D02*
X8482086Y-14005484D01*
X8482086Y-14005484D02*
X8463039Y-14005484D01*
X8463039Y-14005484D02*
X8443991Y-13995960D01*
X8443991Y-13995960D02*
X8434467Y-13986436D01*
X8434467Y-13986436D02*
X8424944Y-13967388D01*
X8424944Y-13967388D02*
X8415420Y-13929293D01*
X8415420Y-13929293D02*
X8415420Y-13881674D01*
X8415420Y-13881674D02*
X8424944Y-13843579D01*
X8424944Y-13843579D02*
X8434467Y-13824531D01*
X8434467Y-13824531D02*
X8443991Y-13815008D01*
X8443991Y-13815008D02*
X8463039Y-13805484D01*
X8615420Y-14005484D02*
X8615420Y-13872150D01*
X8615420Y-13891198D02*
X8624944Y-13881674D01*
X8624944Y-13881674D02*
X8643991Y-13872150D01*
X8643991Y-13872150D02*
X8672563Y-13872150D01*
X8672563Y-13872150D02*
X8691610Y-13881674D01*
X8691610Y-13881674D02*
X8701134Y-13900722D01*
X8701134Y-13900722D02*
X8701134Y-14005484D01*
X8701134Y-13900722D02*
X8710658Y-13881674D01*
X8710658Y-13881674D02*
X8729705Y-13872150D01*
X8729705Y-13872150D02*
X8758277Y-13872150D01*
X8758277Y-13872150D02*
X8777325Y-13881674D01*
X8777325Y-13881674D02*
X8786848Y-13900722D01*
X8786848Y-13900722D02*
X8786848Y-14005484D01*
X8882086Y-14005484D02*
X8882086Y-13872150D01*
X8882086Y-13891198D02*
X8891610Y-13881674D01*
X8891610Y-13881674D02*
X8910658Y-13872150D01*
X8910658Y-13872150D02*
X8939229Y-13872150D01*
X8939229Y-13872150D02*
X8958277Y-13881674D01*
X8958277Y-13881674D02*
X8967801Y-13900722D01*
X8967801Y-13900722D02*
X8967801Y-14005484D01*
X8967801Y-13900722D02*
X8977325Y-13881674D01*
X8977325Y-13881674D02*
X8996372Y-13872150D01*
X8996372Y-13872150D02*
X9024944Y-13872150D01*
X9024944Y-13872150D02*
X9043991Y-13881674D01*
X9043991Y-13881674D02*
X9053515Y-13900722D01*
X9053515Y-13900722D02*
X9053515Y-14005484D01*
X9443991Y-13795960D02*
X9272563Y-14053103D01*
X9701134Y-13805484D02*
X9720182Y-13805484D01*
X9720182Y-13805484D02*
X9739229Y-13815008D01*
X9739229Y-13815008D02*
X9748753Y-13824531D01*
X9748753Y-13824531D02*
X9758277Y-13843579D01*
X9758277Y-13843579D02*
X9767801Y-13881674D01*
X9767801Y-13881674D02*
X9767801Y-13929293D01*
X9767801Y-13929293D02*
X9758277Y-13967388D01*
X9758277Y-13967388D02*
X9748753Y-13986436D01*
X9748753Y-13986436D02*
X9739229Y-13995960D01*
X9739229Y-13995960D02*
X9720182Y-14005484D01*
X9720182Y-14005484D02*
X9701134Y-14005484D01*
X9701134Y-14005484D02*
X9682087Y-13995960D01*
X9682087Y-13995960D02*
X9672563Y-13986436D01*
X9672563Y-13986436D02*
X9663039Y-13967388D01*
X9663039Y-13967388D02*
X9653515Y-13929293D01*
X9653515Y-13929293D02*
X9653515Y-13881674D01*
X9653515Y-13881674D02*
X9663039Y-13843579D01*
X9663039Y-13843579D02*
X9672563Y-13824531D01*
X9672563Y-13824531D02*
X9682087Y-13815008D01*
X9682087Y-13815008D02*
X9701134Y-13805484D01*
X9853515Y-13986436D02*
X9863039Y-13995960D01*
X9863039Y-13995960D02*
X9853515Y-14005484D01*
X9853515Y-14005484D02*
X9843991Y-13995960D01*
X9843991Y-13995960D02*
X9853515Y-13986436D01*
X9853515Y-13986436D02*
X9853515Y-14005484D01*
X9986848Y-13805484D02*
X10005896Y-13805484D01*
X10005896Y-13805484D02*
X10024944Y-13815008D01*
X10024944Y-13815008D02*
X10034468Y-13824531D01*
X10034468Y-13824531D02*
X10043991Y-13843579D01*
X10043991Y-13843579D02*
X10053515Y-13881674D01*
X10053515Y-13881674D02*
X10053515Y-13929293D01*
X10053515Y-13929293D02*
X10043991Y-13967388D01*
X10043991Y-13967388D02*
X10034468Y-13986436D01*
X10034468Y-13986436D02*
X10024944Y-13995960D01*
X10024944Y-13995960D02*
X10005896Y-14005484D01*
X10005896Y-14005484D02*
X9986848Y-14005484D01*
X9986848Y-14005484D02*
X9967801Y-13995960D01*
X9967801Y-13995960D02*
X9958277Y-13986436D01*
X9958277Y-13986436D02*
X9948753Y-13967388D01*
X9948753Y-13967388D02*
X9939229Y-13929293D01*
X9939229Y-13929293D02*
X9939229Y-13881674D01*
X9939229Y-13881674D02*
X9948753Y-13843579D01*
X9948753Y-13843579D02*
X9958277Y-13824531D01*
X9958277Y-13824531D02*
X9967801Y-13815008D01*
X9967801Y-13815008D02*
X9986848Y-13805484D01*
X10120182Y-13805484D02*
X10243991Y-13805484D01*
X10243991Y-13805484D02*
X10177325Y-13881674D01*
X10177325Y-13881674D02*
X10205896Y-13881674D01*
X10205896Y-13881674D02*
X10224944Y-13891198D01*
X10224944Y-13891198D02*
X10234468Y-13900722D01*
X10234468Y-13900722D02*
X10243991Y-13919769D01*
X10243991Y-13919769D02*
X10243991Y-13967388D01*
X10243991Y-13967388D02*
X10234468Y-13986436D01*
X10234468Y-13986436D02*
X10224944Y-13995960D01*
X10224944Y-13995960D02*
X10205896Y-14005484D01*
X10205896Y-14005484D02*
X10148753Y-14005484D01*
X10148753Y-14005484D02*
X10129706Y-13995960D01*
X10129706Y-13995960D02*
X10120182Y-13986436D01*
X10310658Y-13805484D02*
X10443991Y-13805484D01*
X10443991Y-13805484D02*
X10358277Y-14005484D01*
X10605896Y-13872150D02*
X10605896Y-14005484D01*
X10558277Y-13795960D02*
X10510658Y-13938817D01*
X10510658Y-13938817D02*
X10634468Y-13938817D01*
X10701134Y-13805484D02*
X10701134Y-13843579D01*
X10777325Y-13805484D02*
X10777325Y-13843579D01*
X11072563Y-14081674D02*
X11063039Y-14072150D01*
X11063039Y-14072150D02*
X11043991Y-14043579D01*
X11043991Y-14043579D02*
X11034468Y-14024531D01*
X11034468Y-14024531D02*
X11024944Y-13995960D01*
X11024944Y-13995960D02*
X11015420Y-13948341D01*
X11015420Y-13948341D02*
X11015420Y-13910246D01*
X11015420Y-13910246D02*
X11024944Y-13862627D01*
X11024944Y-13862627D02*
X11034468Y-13834055D01*
X11034468Y-13834055D02*
X11043991Y-13815008D01*
X11043991Y-13815008D02*
X11063039Y-13786436D01*
X11063039Y-13786436D02*
X11072563Y-13776912D01*
X11234468Y-13805484D02*
X11196372Y-13805484D01*
X11196372Y-13805484D02*
X11177325Y-13815008D01*
X11177325Y-13815008D02*
X11167801Y-13824531D01*
X11167801Y-13824531D02*
X11148753Y-13853103D01*
X11148753Y-13853103D02*
X11139230Y-13891198D01*
X11139230Y-13891198D02*
X11139230Y-13967388D01*
X11139230Y-13967388D02*
X11148753Y-13986436D01*
X11148753Y-13986436D02*
X11158277Y-13995960D01*
X11158277Y-13995960D02*
X11177325Y-14005484D01*
X11177325Y-14005484D02*
X11215420Y-14005484D01*
X11215420Y-14005484D02*
X11234468Y-13995960D01*
X11234468Y-13995960D02*
X11243991Y-13986436D01*
X11243991Y-13986436D02*
X11253515Y-13967388D01*
X11253515Y-13967388D02*
X11253515Y-13919769D01*
X11253515Y-13919769D02*
X11243991Y-13900722D01*
X11243991Y-13900722D02*
X11234468Y-13891198D01*
X11234468Y-13891198D02*
X11215420Y-13881674D01*
X11215420Y-13881674D02*
X11177325Y-13881674D01*
X11177325Y-13881674D02*
X11158277Y-13891198D01*
X11158277Y-13891198D02*
X11148753Y-13900722D01*
X11148753Y-13900722D02*
X11139230Y-13919769D01*
X11348753Y-14005484D02*
X11386848Y-14005484D01*
X11386848Y-14005484D02*
X11405896Y-13995960D01*
X11405896Y-13995960D02*
X11415420Y-13986436D01*
X11415420Y-13986436D02*
X11434468Y-13957865D01*
X11434468Y-13957865D02*
X11443991Y-13919769D01*
X11443991Y-13919769D02*
X11443991Y-13843579D01*
X11443991Y-13843579D02*
X11434468Y-13824531D01*
X11434468Y-13824531D02*
X11424944Y-13815008D01*
X11424944Y-13815008D02*
X11405896Y-13805484D01*
X11405896Y-13805484D02*
X11367801Y-13805484D01*
X11367801Y-13805484D02*
X11348753Y-13815008D01*
X11348753Y-13815008D02*
X11339229Y-13824531D01*
X11339229Y-13824531D02*
X11329706Y-13843579D01*
X11329706Y-13843579D02*
X11329706Y-13891198D01*
X11329706Y-13891198D02*
X11339229Y-13910246D01*
X11339229Y-13910246D02*
X11348753Y-13919769D01*
X11348753Y-13919769D02*
X11367801Y-13929293D01*
X11367801Y-13929293D02*
X11405896Y-13929293D01*
X11405896Y-13929293D02*
X11424944Y-13919769D01*
X11424944Y-13919769D02*
X11434468Y-13910246D01*
X11434468Y-13910246D02*
X11443991Y-13891198D01*
X11682087Y-14005484D02*
X11682087Y-13805484D01*
X11767801Y-14005484D02*
X11767801Y-13900722D01*
X11767801Y-13900722D02*
X11758277Y-13881674D01*
X11758277Y-13881674D02*
X11739230Y-13872150D01*
X11739230Y-13872150D02*
X11710658Y-13872150D01*
X11710658Y-13872150D02*
X11691610Y-13881674D01*
X11691610Y-13881674D02*
X11682087Y-13891198D01*
X11891610Y-14005484D02*
X11872563Y-13995960D01*
X11872563Y-13995960D02*
X11863039Y-13986436D01*
X11863039Y-13986436D02*
X11853515Y-13967388D01*
X11853515Y-13967388D02*
X11853515Y-13910246D01*
X11853515Y-13910246D02*
X11863039Y-13891198D01*
X11863039Y-13891198D02*
X11872563Y-13881674D01*
X11872563Y-13881674D02*
X11891610Y-13872150D01*
X11891610Y-13872150D02*
X11920182Y-13872150D01*
X11920182Y-13872150D02*
X11939230Y-13881674D01*
X11939230Y-13881674D02*
X11948753Y-13891198D01*
X11948753Y-13891198D02*
X11958277Y-13910246D01*
X11958277Y-13910246D02*
X11958277Y-13967388D01*
X11958277Y-13967388D02*
X11948753Y-13986436D01*
X11948753Y-13986436D02*
X11939230Y-13995960D01*
X11939230Y-13995960D02*
X11920182Y-14005484D01*
X11920182Y-14005484D02*
X11891610Y-14005484D01*
X12072563Y-14005484D02*
X12053515Y-13995960D01*
X12053515Y-13995960D02*
X12043991Y-13976912D01*
X12043991Y-13976912D02*
X12043991Y-13805484D01*
X12224944Y-13995960D02*
X12205896Y-14005484D01*
X12205896Y-14005484D02*
X12167801Y-14005484D01*
X12167801Y-14005484D02*
X12148753Y-13995960D01*
X12148753Y-13995960D02*
X12139230Y-13976912D01*
X12139230Y-13976912D02*
X12139230Y-13900722D01*
X12139230Y-13900722D02*
X12148753Y-13881674D01*
X12148753Y-13881674D02*
X12167801Y-13872150D01*
X12167801Y-13872150D02*
X12205896Y-13872150D01*
X12205896Y-13872150D02*
X12224944Y-13881674D01*
X12224944Y-13881674D02*
X12234468Y-13900722D01*
X12234468Y-13900722D02*
X12234468Y-13919769D01*
X12234468Y-13919769D02*
X12139230Y-13938817D01*
X12310658Y-13995960D02*
X12329706Y-14005484D01*
X12329706Y-14005484D02*
X12367801Y-14005484D01*
X12367801Y-14005484D02*
X12386849Y-13995960D01*
X12386849Y-13995960D02*
X12396372Y-13976912D01*
X12396372Y-13976912D02*
X12396372Y-13967388D01*
X12396372Y-13967388D02*
X12386849Y-13948341D01*
X12386849Y-13948341D02*
X12367801Y-13938817D01*
X12367801Y-13938817D02*
X12339230Y-13938817D01*
X12339230Y-13938817D02*
X12320182Y-13929293D01*
X12320182Y-13929293D02*
X12310658Y-13910246D01*
X12310658Y-13910246D02*
X12310658Y-13900722D01*
X12310658Y-13900722D02*
X12320182Y-13881674D01*
X12320182Y-13881674D02*
X12339230Y-13872150D01*
X12339230Y-13872150D02*
X12367801Y-13872150D01*
X12367801Y-13872150D02*
X12386849Y-13881674D01*
X12463039Y-14081674D02*
X12472563Y-14072150D01*
X12472563Y-14072150D02*
X12491611Y-14043579D01*
X12491611Y-14043579D02*
X12501134Y-14024531D01*
X12501134Y-14024531D02*
X12510658Y-13995960D01*
X12510658Y-13995960D02*
X12520182Y-13948341D01*
X12520182Y-13948341D02*
X12520182Y-13910246D01*
X12520182Y-13910246D02*
X12510658Y-13862627D01*
X12510658Y-13862627D02*
X12501134Y-13834055D01*
X12501134Y-13834055D02*
X12491611Y-13815008D01*
X12491611Y-13815008D02*
X12472563Y-13786436D01*
X12472563Y-13786436D02*
X12463039Y-13776912D01*
D14*
X7448000Y-14128500D02*
X7448000Y-14227500D01*
X7398500Y-14178000D02*
X7497500Y-14178000D01*
D11*
X7796372Y-14069484D02*
X7815420Y-14069484D01*
X7815420Y-14069484D02*
X7834467Y-14079008D01*
X7834467Y-14079008D02*
X7843991Y-14088531D01*
X7843991Y-14088531D02*
X7853515Y-14107579D01*
X7853515Y-14107579D02*
X7863039Y-14145674D01*
X7863039Y-14145674D02*
X7863039Y-14193293D01*
X7863039Y-14193293D02*
X7853515Y-14231388D01*
X7853515Y-14231388D02*
X7843991Y-14250436D01*
X7843991Y-14250436D02*
X7834467Y-14259960D01*
X7834467Y-14259960D02*
X7815420Y-14269484D01*
X7815420Y-14269484D02*
X7796372Y-14269484D01*
X7796372Y-14269484D02*
X7777324Y-14259960D01*
X7777324Y-14259960D02*
X7767801Y-14250436D01*
X7767801Y-14250436D02*
X7758277Y-14231388D01*
X7758277Y-14231388D02*
X7748753Y-14193293D01*
X7748753Y-14193293D02*
X7748753Y-14145674D01*
X7748753Y-14145674D02*
X7758277Y-14107579D01*
X7758277Y-14107579D02*
X7767801Y-14088531D01*
X7767801Y-14088531D02*
X7777324Y-14079008D01*
X7777324Y-14079008D02*
X7796372Y-14069484D01*
X7948753Y-14250436D02*
X7958277Y-14259960D01*
X7958277Y-14259960D02*
X7948753Y-14269484D01*
X7948753Y-14269484D02*
X7939229Y-14259960D01*
X7939229Y-14259960D02*
X7948753Y-14250436D01*
X7948753Y-14250436D02*
X7948753Y-14269484D01*
X8053515Y-14269484D02*
X8091610Y-14269484D01*
X8091610Y-14269484D02*
X8110658Y-14259960D01*
X8110658Y-14259960D02*
X8120182Y-14250436D01*
X8120182Y-14250436D02*
X8139229Y-14221865D01*
X8139229Y-14221865D02*
X8148753Y-14183769D01*
X8148753Y-14183769D02*
X8148753Y-14107579D01*
X8148753Y-14107579D02*
X8139229Y-14088531D01*
X8139229Y-14088531D02*
X8129705Y-14079008D01*
X8129705Y-14079008D02*
X8110658Y-14069484D01*
X8110658Y-14069484D02*
X8072562Y-14069484D01*
X8072562Y-14069484D02*
X8053515Y-14079008D01*
X8053515Y-14079008D02*
X8043991Y-14088531D01*
X8043991Y-14088531D02*
X8034467Y-14107579D01*
X8034467Y-14107579D02*
X8034467Y-14155198D01*
X8034467Y-14155198D02*
X8043991Y-14174246D01*
X8043991Y-14174246D02*
X8053515Y-14183769D01*
X8053515Y-14183769D02*
X8072562Y-14193293D01*
X8072562Y-14193293D02*
X8110658Y-14193293D01*
X8110658Y-14193293D02*
X8129705Y-14183769D01*
X8129705Y-14183769D02*
X8139229Y-14174246D01*
X8139229Y-14174246D02*
X8148753Y-14155198D01*
X8243991Y-14269484D02*
X8282086Y-14269484D01*
X8282086Y-14269484D02*
X8301134Y-14259960D01*
X8301134Y-14259960D02*
X8310658Y-14250436D01*
X8310658Y-14250436D02*
X8329705Y-14221865D01*
X8329705Y-14221865D02*
X8339229Y-14183769D01*
X8339229Y-14183769D02*
X8339229Y-14107579D01*
X8339229Y-14107579D02*
X8329705Y-14088531D01*
X8329705Y-14088531D02*
X8320182Y-14079008D01*
X8320182Y-14079008D02*
X8301134Y-14069484D01*
X8301134Y-14069484D02*
X8263039Y-14069484D01*
X8263039Y-14069484D02*
X8243991Y-14079008D01*
X8243991Y-14079008D02*
X8234467Y-14088531D01*
X8234467Y-14088531D02*
X8224943Y-14107579D01*
X8224943Y-14107579D02*
X8224943Y-14155198D01*
X8224943Y-14155198D02*
X8234467Y-14174246D01*
X8234467Y-14174246D02*
X8243991Y-14183769D01*
X8243991Y-14183769D02*
X8263039Y-14193293D01*
X8263039Y-14193293D02*
X8301134Y-14193293D01*
X8301134Y-14193293D02*
X8320182Y-14183769D01*
X8320182Y-14183769D02*
X8329705Y-14174246D01*
X8329705Y-14174246D02*
X8339229Y-14155198D01*
X8463039Y-14069484D02*
X8482086Y-14069484D01*
X8482086Y-14069484D02*
X8501134Y-14079008D01*
X8501134Y-14079008D02*
X8510658Y-14088531D01*
X8510658Y-14088531D02*
X8520182Y-14107579D01*
X8520182Y-14107579D02*
X8529705Y-14145674D01*
X8529705Y-14145674D02*
X8529705Y-14193293D01*
X8529705Y-14193293D02*
X8520182Y-14231388D01*
X8520182Y-14231388D02*
X8510658Y-14250436D01*
X8510658Y-14250436D02*
X8501134Y-14259960D01*
X8501134Y-14259960D02*
X8482086Y-14269484D01*
X8482086Y-14269484D02*
X8463039Y-14269484D01*
X8463039Y-14269484D02*
X8443991Y-14259960D01*
X8443991Y-14259960D02*
X8434467Y-14250436D01*
X8434467Y-14250436D02*
X8424944Y-14231388D01*
X8424944Y-14231388D02*
X8415420Y-14193293D01*
X8415420Y-14193293D02*
X8415420Y-14145674D01*
X8415420Y-14145674D02*
X8424944Y-14107579D01*
X8424944Y-14107579D02*
X8434467Y-14088531D01*
X8434467Y-14088531D02*
X8443991Y-14079008D01*
X8443991Y-14079008D02*
X8463039Y-14069484D01*
X8615420Y-14269484D02*
X8615420Y-14136150D01*
X8615420Y-14155198D02*
X8624944Y-14145674D01*
X8624944Y-14145674D02*
X8643991Y-14136150D01*
X8643991Y-14136150D02*
X8672563Y-14136150D01*
X8672563Y-14136150D02*
X8691610Y-14145674D01*
X8691610Y-14145674D02*
X8701134Y-14164722D01*
X8701134Y-14164722D02*
X8701134Y-14269484D01*
X8701134Y-14164722D02*
X8710658Y-14145674D01*
X8710658Y-14145674D02*
X8729705Y-14136150D01*
X8729705Y-14136150D02*
X8758277Y-14136150D01*
X8758277Y-14136150D02*
X8777325Y-14145674D01*
X8777325Y-14145674D02*
X8786848Y-14164722D01*
X8786848Y-14164722D02*
X8786848Y-14269484D01*
X8882086Y-14269484D02*
X8882086Y-14136150D01*
X8882086Y-14155198D02*
X8891610Y-14145674D01*
X8891610Y-14145674D02*
X8910658Y-14136150D01*
X8910658Y-14136150D02*
X8939229Y-14136150D01*
X8939229Y-14136150D02*
X8958277Y-14145674D01*
X8958277Y-14145674D02*
X8967801Y-14164722D01*
X8967801Y-14164722D02*
X8967801Y-14269484D01*
X8967801Y-14164722D02*
X8977325Y-14145674D01*
X8977325Y-14145674D02*
X8996372Y-14136150D01*
X8996372Y-14136150D02*
X9024944Y-14136150D01*
X9024944Y-14136150D02*
X9043991Y-14145674D01*
X9043991Y-14145674D02*
X9053515Y-14164722D01*
X9053515Y-14164722D02*
X9053515Y-14269484D01*
X9443991Y-14059960D02*
X9272563Y-14317103D01*
X9701134Y-14069484D02*
X9720182Y-14069484D01*
X9720182Y-14069484D02*
X9739229Y-14079008D01*
X9739229Y-14079008D02*
X9748753Y-14088531D01*
X9748753Y-14088531D02*
X9758277Y-14107579D01*
X9758277Y-14107579D02*
X9767801Y-14145674D01*
X9767801Y-14145674D02*
X9767801Y-14193293D01*
X9767801Y-14193293D02*
X9758277Y-14231388D01*
X9758277Y-14231388D02*
X9748753Y-14250436D01*
X9748753Y-14250436D02*
X9739229Y-14259960D01*
X9739229Y-14259960D02*
X9720182Y-14269484D01*
X9720182Y-14269484D02*
X9701134Y-14269484D01*
X9701134Y-14269484D02*
X9682087Y-14259960D01*
X9682087Y-14259960D02*
X9672563Y-14250436D01*
X9672563Y-14250436D02*
X9663039Y-14231388D01*
X9663039Y-14231388D02*
X9653515Y-14193293D01*
X9653515Y-14193293D02*
X9653515Y-14145674D01*
X9653515Y-14145674D02*
X9663039Y-14107579D01*
X9663039Y-14107579D02*
X9672563Y-14088531D01*
X9672563Y-14088531D02*
X9682087Y-14079008D01*
X9682087Y-14079008D02*
X9701134Y-14069484D01*
X9853515Y-14250436D02*
X9863039Y-14259960D01*
X9863039Y-14259960D02*
X9853515Y-14269484D01*
X9853515Y-14269484D02*
X9843991Y-14259960D01*
X9843991Y-14259960D02*
X9853515Y-14250436D01*
X9853515Y-14250436D02*
X9853515Y-14269484D01*
X9986848Y-14069484D02*
X10005896Y-14069484D01*
X10005896Y-14069484D02*
X10024944Y-14079008D01*
X10024944Y-14079008D02*
X10034468Y-14088531D01*
X10034468Y-14088531D02*
X10043991Y-14107579D01*
X10043991Y-14107579D02*
X10053515Y-14145674D01*
X10053515Y-14145674D02*
X10053515Y-14193293D01*
X10053515Y-14193293D02*
X10043991Y-14231388D01*
X10043991Y-14231388D02*
X10034468Y-14250436D01*
X10034468Y-14250436D02*
X10024944Y-14259960D01*
X10024944Y-14259960D02*
X10005896Y-14269484D01*
X10005896Y-14269484D02*
X9986848Y-14269484D01*
X9986848Y-14269484D02*
X9967801Y-14259960D01*
X9967801Y-14259960D02*
X9958277Y-14250436D01*
X9958277Y-14250436D02*
X9948753Y-14231388D01*
X9948753Y-14231388D02*
X9939229Y-14193293D01*
X9939229Y-14193293D02*
X9939229Y-14145674D01*
X9939229Y-14145674D02*
X9948753Y-14107579D01*
X9948753Y-14107579D02*
X9958277Y-14088531D01*
X9958277Y-14088531D02*
X9967801Y-14079008D01*
X9967801Y-14079008D02*
X9986848Y-14069484D01*
X10120182Y-14069484D02*
X10243991Y-14069484D01*
X10243991Y-14069484D02*
X10177325Y-14145674D01*
X10177325Y-14145674D02*
X10205896Y-14145674D01*
X10205896Y-14145674D02*
X10224944Y-14155198D01*
X10224944Y-14155198D02*
X10234468Y-14164722D01*
X10234468Y-14164722D02*
X10243991Y-14183769D01*
X10243991Y-14183769D02*
X10243991Y-14231388D01*
X10243991Y-14231388D02*
X10234468Y-14250436D01*
X10234468Y-14250436D02*
X10224944Y-14259960D01*
X10224944Y-14259960D02*
X10205896Y-14269484D01*
X10205896Y-14269484D02*
X10148753Y-14269484D01*
X10148753Y-14269484D02*
X10129706Y-14259960D01*
X10129706Y-14259960D02*
X10120182Y-14250436D01*
X10339229Y-14269484D02*
X10377325Y-14269484D01*
X10377325Y-14269484D02*
X10396372Y-14259960D01*
X10396372Y-14259960D02*
X10405896Y-14250436D01*
X10405896Y-14250436D02*
X10424944Y-14221865D01*
X10424944Y-14221865D02*
X10434468Y-14183769D01*
X10434468Y-14183769D02*
X10434468Y-14107579D01*
X10434468Y-14107579D02*
X10424944Y-14088531D01*
X10424944Y-14088531D02*
X10415420Y-14079008D01*
X10415420Y-14079008D02*
X10396372Y-14069484D01*
X10396372Y-14069484D02*
X10358277Y-14069484D01*
X10358277Y-14069484D02*
X10339229Y-14079008D01*
X10339229Y-14079008D02*
X10329706Y-14088531D01*
X10329706Y-14088531D02*
X10320182Y-14107579D01*
X10320182Y-14107579D02*
X10320182Y-14155198D01*
X10320182Y-14155198D02*
X10329706Y-14174246D01*
X10329706Y-14174246D02*
X10339229Y-14183769D01*
X10339229Y-14183769D02*
X10358277Y-14193293D01*
X10358277Y-14193293D02*
X10396372Y-14193293D01*
X10396372Y-14193293D02*
X10415420Y-14183769D01*
X10415420Y-14183769D02*
X10424944Y-14174246D01*
X10424944Y-14174246D02*
X10434468Y-14155198D01*
X10558277Y-14069484D02*
X10577325Y-14069484D01*
X10577325Y-14069484D02*
X10596372Y-14079008D01*
X10596372Y-14079008D02*
X10605896Y-14088531D01*
X10605896Y-14088531D02*
X10615420Y-14107579D01*
X10615420Y-14107579D02*
X10624944Y-14145674D01*
X10624944Y-14145674D02*
X10624944Y-14193293D01*
X10624944Y-14193293D02*
X10615420Y-14231388D01*
X10615420Y-14231388D02*
X10605896Y-14250436D01*
X10605896Y-14250436D02*
X10596372Y-14259960D01*
X10596372Y-14259960D02*
X10577325Y-14269484D01*
X10577325Y-14269484D02*
X10558277Y-14269484D01*
X10558277Y-14269484D02*
X10539229Y-14259960D01*
X10539229Y-14259960D02*
X10529706Y-14250436D01*
X10529706Y-14250436D02*
X10520182Y-14231388D01*
X10520182Y-14231388D02*
X10510658Y-14193293D01*
X10510658Y-14193293D02*
X10510658Y-14145674D01*
X10510658Y-14145674D02*
X10520182Y-14107579D01*
X10520182Y-14107579D02*
X10529706Y-14088531D01*
X10529706Y-14088531D02*
X10539229Y-14079008D01*
X10539229Y-14079008D02*
X10558277Y-14069484D01*
X10701134Y-14069484D02*
X10701134Y-14107579D01*
X10777325Y-14069484D02*
X10777325Y-14107579D01*
X11072563Y-14345674D02*
X11063039Y-14336150D01*
X11063039Y-14336150D02*
X11043991Y-14307579D01*
X11043991Y-14307579D02*
X11034468Y-14288531D01*
X11034468Y-14288531D02*
X11024944Y-14259960D01*
X11024944Y-14259960D02*
X11015420Y-14212341D01*
X11015420Y-14212341D02*
X11015420Y-14174246D01*
X11015420Y-14174246D02*
X11024944Y-14126627D01*
X11024944Y-14126627D02*
X11034468Y-14098055D01*
X11034468Y-14098055D02*
X11043991Y-14079008D01*
X11043991Y-14079008D02*
X11063039Y-14050436D01*
X11063039Y-14050436D02*
X11072563Y-14040912D01*
X11139230Y-14088531D02*
X11148753Y-14079008D01*
X11148753Y-14079008D02*
X11167801Y-14069484D01*
X11167801Y-14069484D02*
X11215420Y-14069484D01*
X11215420Y-14069484D02*
X11234468Y-14079008D01*
X11234468Y-14079008D02*
X11243991Y-14088531D01*
X11243991Y-14088531D02*
X11253515Y-14107579D01*
X11253515Y-14107579D02*
X11253515Y-14126627D01*
X11253515Y-14126627D02*
X11243991Y-14155198D01*
X11243991Y-14155198D02*
X11129706Y-14269484D01*
X11129706Y-14269484D02*
X11253515Y-14269484D01*
X11491610Y-14269484D02*
X11491610Y-14069484D01*
X11577325Y-14269484D02*
X11577325Y-14164722D01*
X11577325Y-14164722D02*
X11567801Y-14145674D01*
X11567801Y-14145674D02*
X11548753Y-14136150D01*
X11548753Y-14136150D02*
X11520182Y-14136150D01*
X11520182Y-14136150D02*
X11501134Y-14145674D01*
X11501134Y-14145674D02*
X11491610Y-14155198D01*
X11701134Y-14269484D02*
X11682087Y-14259960D01*
X11682087Y-14259960D02*
X11672563Y-14250436D01*
X11672563Y-14250436D02*
X11663039Y-14231388D01*
X11663039Y-14231388D02*
X11663039Y-14174246D01*
X11663039Y-14174246D02*
X11672563Y-14155198D01*
X11672563Y-14155198D02*
X11682087Y-14145674D01*
X11682087Y-14145674D02*
X11701134Y-14136150D01*
X11701134Y-14136150D02*
X11729706Y-14136150D01*
X11729706Y-14136150D02*
X11748753Y-14145674D01*
X11748753Y-14145674D02*
X11758277Y-14155198D01*
X11758277Y-14155198D02*
X11767801Y-14174246D01*
X11767801Y-14174246D02*
X11767801Y-14231388D01*
X11767801Y-14231388D02*
X11758277Y-14250436D01*
X11758277Y-14250436D02*
X11748753Y-14259960D01*
X11748753Y-14259960D02*
X11729706Y-14269484D01*
X11729706Y-14269484D02*
X11701134Y-14269484D01*
X11882087Y-14269484D02*
X11863039Y-14259960D01*
X11863039Y-14259960D02*
X11853515Y-14240912D01*
X11853515Y-14240912D02*
X11853515Y-14069484D01*
X12034468Y-14259960D02*
X12015420Y-14269484D01*
X12015420Y-14269484D02*
X11977325Y-14269484D01*
X11977325Y-14269484D02*
X11958277Y-14259960D01*
X11958277Y-14259960D02*
X11948753Y-14240912D01*
X11948753Y-14240912D02*
X11948753Y-14164722D01*
X11948753Y-14164722D02*
X11958277Y-14145674D01*
X11958277Y-14145674D02*
X11977325Y-14136150D01*
X11977325Y-14136150D02*
X12015420Y-14136150D01*
X12015420Y-14136150D02*
X12034468Y-14145674D01*
X12034468Y-14145674D02*
X12043991Y-14164722D01*
X12043991Y-14164722D02*
X12043991Y-14183769D01*
X12043991Y-14183769D02*
X11948753Y-14202817D01*
X12120182Y-14259960D02*
X12139230Y-14269484D01*
X12139230Y-14269484D02*
X12177325Y-14269484D01*
X12177325Y-14269484D02*
X12196372Y-14259960D01*
X12196372Y-14259960D02*
X12205896Y-14240912D01*
X12205896Y-14240912D02*
X12205896Y-14231388D01*
X12205896Y-14231388D02*
X12196372Y-14212341D01*
X12196372Y-14212341D02*
X12177325Y-14202817D01*
X12177325Y-14202817D02*
X12148753Y-14202817D01*
X12148753Y-14202817D02*
X12129706Y-14193293D01*
X12129706Y-14193293D02*
X12120182Y-14174246D01*
X12120182Y-14174246D02*
X12120182Y-14164722D01*
X12120182Y-14164722D02*
X12129706Y-14145674D01*
X12129706Y-14145674D02*
X12148753Y-14136150D01*
X12148753Y-14136150D02*
X12177325Y-14136150D01*
X12177325Y-14136150D02*
X12196372Y-14145674D01*
X12272563Y-14345674D02*
X12282087Y-14336150D01*
X12282087Y-14336150D02*
X12301134Y-14307579D01*
X12301134Y-14307579D02*
X12310658Y-14288531D01*
X12310658Y-14288531D02*
X12320182Y-14259960D01*
X12320182Y-14259960D02*
X12329706Y-14212341D01*
X12329706Y-14212341D02*
X12329706Y-14174246D01*
X12329706Y-14174246D02*
X12320182Y-14126627D01*
X12320182Y-14126627D02*
X12310658Y-14098055D01*
X12310658Y-14098055D02*
X12301134Y-14079008D01*
X12301134Y-14079008D02*
X12282087Y-14050436D01*
X12282087Y-14050436D02*
X12272563Y-14040912D01*
D10*
X7482856Y-14477356D02*
X7482856Y-14406644D01*
X7412144Y-14406644D01*
X7412144Y-14477356D01*
X7482856Y-14477356D01*
D11*
X7863039Y-14533484D02*
X7748753Y-14533484D01*
X7805896Y-14533484D02*
X7805896Y-14333484D01*
X7805896Y-14333484D02*
X7786848Y-14362055D01*
X7786848Y-14362055D02*
X7767801Y-14381103D01*
X7767801Y-14381103D02*
X7748753Y-14390627D01*
X7948753Y-14514436D02*
X7958277Y-14523960D01*
X7958277Y-14523960D02*
X7948753Y-14533484D01*
X7948753Y-14533484D02*
X7939229Y-14523960D01*
X7939229Y-14523960D02*
X7948753Y-14514436D01*
X7948753Y-14514436D02*
X7948753Y-14533484D01*
X8082086Y-14333484D02*
X8101134Y-14333484D01*
X8101134Y-14333484D02*
X8120182Y-14343008D01*
X8120182Y-14343008D02*
X8129705Y-14352531D01*
X8129705Y-14352531D02*
X8139229Y-14371579D01*
X8139229Y-14371579D02*
X8148753Y-14409674D01*
X8148753Y-14409674D02*
X8148753Y-14457293D01*
X8148753Y-14457293D02*
X8139229Y-14495388D01*
X8139229Y-14495388D02*
X8129705Y-14514436D01*
X8129705Y-14514436D02*
X8120182Y-14523960D01*
X8120182Y-14523960D02*
X8101134Y-14533484D01*
X8101134Y-14533484D02*
X8082086Y-14533484D01*
X8082086Y-14533484D02*
X8063039Y-14523960D01*
X8063039Y-14523960D02*
X8053515Y-14514436D01*
X8053515Y-14514436D02*
X8043991Y-14495388D01*
X8043991Y-14495388D02*
X8034467Y-14457293D01*
X8034467Y-14457293D02*
X8034467Y-14409674D01*
X8034467Y-14409674D02*
X8043991Y-14371579D01*
X8043991Y-14371579D02*
X8053515Y-14352531D01*
X8053515Y-14352531D02*
X8063039Y-14343008D01*
X8063039Y-14343008D02*
X8082086Y-14333484D01*
X8272562Y-14333484D02*
X8291610Y-14333484D01*
X8291610Y-14333484D02*
X8310658Y-14343008D01*
X8310658Y-14343008D02*
X8320182Y-14352531D01*
X8320182Y-14352531D02*
X8329705Y-14371579D01*
X8329705Y-14371579D02*
X8339229Y-14409674D01*
X8339229Y-14409674D02*
X8339229Y-14457293D01*
X8339229Y-14457293D02*
X8329705Y-14495388D01*
X8329705Y-14495388D02*
X8320182Y-14514436D01*
X8320182Y-14514436D02*
X8310658Y-14523960D01*
X8310658Y-14523960D02*
X8291610Y-14533484D01*
X8291610Y-14533484D02*
X8272562Y-14533484D01*
X8272562Y-14533484D02*
X8253515Y-14523960D01*
X8253515Y-14523960D02*
X8243991Y-14514436D01*
X8243991Y-14514436D02*
X8234467Y-14495388D01*
X8234467Y-14495388D02*
X8224943Y-14457293D01*
X8224943Y-14457293D02*
X8224943Y-14409674D01*
X8224943Y-14409674D02*
X8234467Y-14371579D01*
X8234467Y-14371579D02*
X8243991Y-14352531D01*
X8243991Y-14352531D02*
X8253515Y-14343008D01*
X8253515Y-14343008D02*
X8272562Y-14333484D01*
X8463039Y-14333484D02*
X8482086Y-14333484D01*
X8482086Y-14333484D02*
X8501134Y-14343008D01*
X8501134Y-14343008D02*
X8510658Y-14352531D01*
X8510658Y-14352531D02*
X8520182Y-14371579D01*
X8520182Y-14371579D02*
X8529705Y-14409674D01*
X8529705Y-14409674D02*
X8529705Y-14457293D01*
X8529705Y-14457293D02*
X8520182Y-14495388D01*
X8520182Y-14495388D02*
X8510658Y-14514436D01*
X8510658Y-14514436D02*
X8501134Y-14523960D01*
X8501134Y-14523960D02*
X8482086Y-14533484D01*
X8482086Y-14533484D02*
X8463039Y-14533484D01*
X8463039Y-14533484D02*
X8443991Y-14523960D01*
X8443991Y-14523960D02*
X8434467Y-14514436D01*
X8434467Y-14514436D02*
X8424944Y-14495388D01*
X8424944Y-14495388D02*
X8415420Y-14457293D01*
X8415420Y-14457293D02*
X8415420Y-14409674D01*
X8415420Y-14409674D02*
X8424944Y-14371579D01*
X8424944Y-14371579D02*
X8434467Y-14352531D01*
X8434467Y-14352531D02*
X8443991Y-14343008D01*
X8443991Y-14343008D02*
X8463039Y-14333484D01*
X8615420Y-14533484D02*
X8615420Y-14400150D01*
X8615420Y-14419198D02*
X8624944Y-14409674D01*
X8624944Y-14409674D02*
X8643991Y-14400150D01*
X8643991Y-14400150D02*
X8672563Y-14400150D01*
X8672563Y-14400150D02*
X8691610Y-14409674D01*
X8691610Y-14409674D02*
X8701134Y-14428722D01*
X8701134Y-14428722D02*
X8701134Y-14533484D01*
X8701134Y-14428722D02*
X8710658Y-14409674D01*
X8710658Y-14409674D02*
X8729705Y-14400150D01*
X8729705Y-14400150D02*
X8758277Y-14400150D01*
X8758277Y-14400150D02*
X8777325Y-14409674D01*
X8777325Y-14409674D02*
X8786848Y-14428722D01*
X8786848Y-14428722D02*
X8786848Y-14533484D01*
X8882086Y-14533484D02*
X8882086Y-14400150D01*
X8882086Y-14419198D02*
X8891610Y-14409674D01*
X8891610Y-14409674D02*
X8910658Y-14400150D01*
X8910658Y-14400150D02*
X8939229Y-14400150D01*
X8939229Y-14400150D02*
X8958277Y-14409674D01*
X8958277Y-14409674D02*
X8967801Y-14428722D01*
X8967801Y-14428722D02*
X8967801Y-14533484D01*
X8967801Y-14428722D02*
X8977325Y-14409674D01*
X8977325Y-14409674D02*
X8996372Y-14400150D01*
X8996372Y-14400150D02*
X9024944Y-14400150D01*
X9024944Y-14400150D02*
X9043991Y-14409674D01*
X9043991Y-14409674D02*
X9053515Y-14428722D01*
X9053515Y-14428722D02*
X9053515Y-14533484D01*
X9443991Y-14323960D02*
X9272563Y-14581103D01*
X9701134Y-14333484D02*
X9720182Y-14333484D01*
X9720182Y-14333484D02*
X9739229Y-14343008D01*
X9739229Y-14343008D02*
X9748753Y-14352531D01*
X9748753Y-14352531D02*
X9758277Y-14371579D01*
X9758277Y-14371579D02*
X9767801Y-14409674D01*
X9767801Y-14409674D02*
X9767801Y-14457293D01*
X9767801Y-14457293D02*
X9758277Y-14495388D01*
X9758277Y-14495388D02*
X9748753Y-14514436D01*
X9748753Y-14514436D02*
X9739229Y-14523960D01*
X9739229Y-14523960D02*
X9720182Y-14533484D01*
X9720182Y-14533484D02*
X9701134Y-14533484D01*
X9701134Y-14533484D02*
X9682087Y-14523960D01*
X9682087Y-14523960D02*
X9672563Y-14514436D01*
X9672563Y-14514436D02*
X9663039Y-14495388D01*
X9663039Y-14495388D02*
X9653515Y-14457293D01*
X9653515Y-14457293D02*
X9653515Y-14409674D01*
X9653515Y-14409674D02*
X9663039Y-14371579D01*
X9663039Y-14371579D02*
X9672563Y-14352531D01*
X9672563Y-14352531D02*
X9682087Y-14343008D01*
X9682087Y-14343008D02*
X9701134Y-14333484D01*
X9853515Y-14514436D02*
X9863039Y-14523960D01*
X9863039Y-14523960D02*
X9853515Y-14533484D01*
X9853515Y-14533484D02*
X9843991Y-14523960D01*
X9843991Y-14523960D02*
X9853515Y-14514436D01*
X9853515Y-14514436D02*
X9853515Y-14533484D01*
X9986848Y-14333484D02*
X10005896Y-14333484D01*
X10005896Y-14333484D02*
X10024944Y-14343008D01*
X10024944Y-14343008D02*
X10034468Y-14352531D01*
X10034468Y-14352531D02*
X10043991Y-14371579D01*
X10043991Y-14371579D02*
X10053515Y-14409674D01*
X10053515Y-14409674D02*
X10053515Y-14457293D01*
X10053515Y-14457293D02*
X10043991Y-14495388D01*
X10043991Y-14495388D02*
X10034468Y-14514436D01*
X10034468Y-14514436D02*
X10024944Y-14523960D01*
X10024944Y-14523960D02*
X10005896Y-14533484D01*
X10005896Y-14533484D02*
X9986848Y-14533484D01*
X9986848Y-14533484D02*
X9967801Y-14523960D01*
X9967801Y-14523960D02*
X9958277Y-14514436D01*
X9958277Y-14514436D02*
X9948753Y-14495388D01*
X9948753Y-14495388D02*
X9939229Y-14457293D01*
X9939229Y-14457293D02*
X9939229Y-14409674D01*
X9939229Y-14409674D02*
X9948753Y-14371579D01*
X9948753Y-14371579D02*
X9958277Y-14352531D01*
X9958277Y-14352531D02*
X9967801Y-14343008D01*
X9967801Y-14343008D02*
X9986848Y-14333484D01*
X10120182Y-14333484D02*
X10243991Y-14333484D01*
X10243991Y-14333484D02*
X10177325Y-14409674D01*
X10177325Y-14409674D02*
X10205896Y-14409674D01*
X10205896Y-14409674D02*
X10224944Y-14419198D01*
X10224944Y-14419198D02*
X10234468Y-14428722D01*
X10234468Y-14428722D02*
X10243991Y-14447769D01*
X10243991Y-14447769D02*
X10243991Y-14495388D01*
X10243991Y-14495388D02*
X10234468Y-14514436D01*
X10234468Y-14514436D02*
X10224944Y-14523960D01*
X10224944Y-14523960D02*
X10205896Y-14533484D01*
X10205896Y-14533484D02*
X10148753Y-14533484D01*
X10148753Y-14533484D02*
X10129706Y-14523960D01*
X10129706Y-14523960D02*
X10120182Y-14514436D01*
X10339229Y-14533484D02*
X10377325Y-14533484D01*
X10377325Y-14533484D02*
X10396372Y-14523960D01*
X10396372Y-14523960D02*
X10405896Y-14514436D01*
X10405896Y-14514436D02*
X10424944Y-14485865D01*
X10424944Y-14485865D02*
X10434468Y-14447769D01*
X10434468Y-14447769D02*
X10434468Y-14371579D01*
X10434468Y-14371579D02*
X10424944Y-14352531D01*
X10424944Y-14352531D02*
X10415420Y-14343008D01*
X10415420Y-14343008D02*
X10396372Y-14333484D01*
X10396372Y-14333484D02*
X10358277Y-14333484D01*
X10358277Y-14333484D02*
X10339229Y-14343008D01*
X10339229Y-14343008D02*
X10329706Y-14352531D01*
X10329706Y-14352531D02*
X10320182Y-14371579D01*
X10320182Y-14371579D02*
X10320182Y-14419198D01*
X10320182Y-14419198D02*
X10329706Y-14438246D01*
X10329706Y-14438246D02*
X10339229Y-14447769D01*
X10339229Y-14447769D02*
X10358277Y-14457293D01*
X10358277Y-14457293D02*
X10396372Y-14457293D01*
X10396372Y-14457293D02*
X10415420Y-14447769D01*
X10415420Y-14447769D02*
X10424944Y-14438246D01*
X10424944Y-14438246D02*
X10434468Y-14419198D01*
X10605896Y-14400150D02*
X10605896Y-14533484D01*
X10558277Y-14323960D02*
X10510658Y-14466817D01*
X10510658Y-14466817D02*
X10634468Y-14466817D01*
X10701134Y-14333484D02*
X10701134Y-14371579D01*
X10777325Y-14333484D02*
X10777325Y-14371579D01*
X11072563Y-14609674D02*
X11063039Y-14600150D01*
X11063039Y-14600150D02*
X11043991Y-14571579D01*
X11043991Y-14571579D02*
X11034468Y-14552531D01*
X11034468Y-14552531D02*
X11024944Y-14523960D01*
X11024944Y-14523960D02*
X11015420Y-14476341D01*
X11015420Y-14476341D02*
X11015420Y-14438246D01*
X11015420Y-14438246D02*
X11024944Y-14390627D01*
X11024944Y-14390627D02*
X11034468Y-14362055D01*
X11034468Y-14362055D02*
X11043991Y-14343008D01*
X11043991Y-14343008D02*
X11063039Y-14314436D01*
X11063039Y-14314436D02*
X11072563Y-14304912D01*
X11243991Y-14333484D02*
X11148753Y-14333484D01*
X11148753Y-14333484D02*
X11139230Y-14428722D01*
X11139230Y-14428722D02*
X11148753Y-14419198D01*
X11148753Y-14419198D02*
X11167801Y-14409674D01*
X11167801Y-14409674D02*
X11215420Y-14409674D01*
X11215420Y-14409674D02*
X11234468Y-14419198D01*
X11234468Y-14419198D02*
X11243991Y-14428722D01*
X11243991Y-14428722D02*
X11253515Y-14447769D01*
X11253515Y-14447769D02*
X11253515Y-14495388D01*
X11253515Y-14495388D02*
X11243991Y-14514436D01*
X11243991Y-14514436D02*
X11234468Y-14523960D01*
X11234468Y-14523960D02*
X11215420Y-14533484D01*
X11215420Y-14533484D02*
X11167801Y-14533484D01*
X11167801Y-14533484D02*
X11148753Y-14523960D01*
X11148753Y-14523960D02*
X11139230Y-14514436D01*
X11377325Y-14333484D02*
X11396372Y-14333484D01*
X11396372Y-14333484D02*
X11415420Y-14343008D01*
X11415420Y-14343008D02*
X11424944Y-14352531D01*
X11424944Y-14352531D02*
X11434468Y-14371579D01*
X11434468Y-14371579D02*
X11443991Y-14409674D01*
X11443991Y-14409674D02*
X11443991Y-14457293D01*
X11443991Y-14457293D02*
X11434468Y-14495388D01*
X11434468Y-14495388D02*
X11424944Y-14514436D01*
X11424944Y-14514436D02*
X11415420Y-14523960D01*
X11415420Y-14523960D02*
X11396372Y-14533484D01*
X11396372Y-14533484D02*
X11377325Y-14533484D01*
X11377325Y-14533484D02*
X11358277Y-14523960D01*
X11358277Y-14523960D02*
X11348753Y-14514436D01*
X11348753Y-14514436D02*
X11339229Y-14495388D01*
X11339229Y-14495388D02*
X11329706Y-14457293D01*
X11329706Y-14457293D02*
X11329706Y-14409674D01*
X11329706Y-14409674D02*
X11339229Y-14371579D01*
X11339229Y-14371579D02*
X11348753Y-14352531D01*
X11348753Y-14352531D02*
X11358277Y-14343008D01*
X11358277Y-14343008D02*
X11377325Y-14333484D01*
X11682087Y-14533484D02*
X11682087Y-14333484D01*
X11767801Y-14533484D02*
X11767801Y-14428722D01*
X11767801Y-14428722D02*
X11758277Y-14409674D01*
X11758277Y-14409674D02*
X11739230Y-14400150D01*
X11739230Y-14400150D02*
X11710658Y-14400150D01*
X11710658Y-14400150D02*
X11691610Y-14409674D01*
X11691610Y-14409674D02*
X11682087Y-14419198D01*
X11891610Y-14533484D02*
X11872563Y-14523960D01*
X11872563Y-14523960D02*
X11863039Y-14514436D01*
X11863039Y-14514436D02*
X11853515Y-14495388D01*
X11853515Y-14495388D02*
X11853515Y-14438246D01*
X11853515Y-14438246D02*
X11863039Y-14419198D01*
X11863039Y-14419198D02*
X11872563Y-14409674D01*
X11872563Y-14409674D02*
X11891610Y-14400150D01*
X11891610Y-14400150D02*
X11920182Y-14400150D01*
X11920182Y-14400150D02*
X11939230Y-14409674D01*
X11939230Y-14409674D02*
X11948753Y-14419198D01*
X11948753Y-14419198D02*
X11958277Y-14438246D01*
X11958277Y-14438246D02*
X11958277Y-14495388D01*
X11958277Y-14495388D02*
X11948753Y-14514436D01*
X11948753Y-14514436D02*
X11939230Y-14523960D01*
X11939230Y-14523960D02*
X11920182Y-14533484D01*
X11920182Y-14533484D02*
X11891610Y-14533484D01*
X12072563Y-14533484D02*
X12053515Y-14523960D01*
X12053515Y-14523960D02*
X12043991Y-14504912D01*
X12043991Y-14504912D02*
X12043991Y-14333484D01*
X12224944Y-14523960D02*
X12205896Y-14533484D01*
X12205896Y-14533484D02*
X12167801Y-14533484D01*
X12167801Y-14533484D02*
X12148753Y-14523960D01*
X12148753Y-14523960D02*
X12139230Y-14504912D01*
X12139230Y-14504912D02*
X12139230Y-14428722D01*
X12139230Y-14428722D02*
X12148753Y-14409674D01*
X12148753Y-14409674D02*
X12167801Y-14400150D01*
X12167801Y-14400150D02*
X12205896Y-14400150D01*
X12205896Y-14400150D02*
X12224944Y-14409674D01*
X12224944Y-14409674D02*
X12234468Y-14428722D01*
X12234468Y-14428722D02*
X12234468Y-14447769D01*
X12234468Y-14447769D02*
X12139230Y-14466817D01*
X12310658Y-14523960D02*
X12329706Y-14533484D01*
X12329706Y-14533484D02*
X12367801Y-14533484D01*
X12367801Y-14533484D02*
X12386849Y-14523960D01*
X12386849Y-14523960D02*
X12396372Y-14504912D01*
X12396372Y-14504912D02*
X12396372Y-14495388D01*
X12396372Y-14495388D02*
X12386849Y-14476341D01*
X12386849Y-14476341D02*
X12367801Y-14466817D01*
X12367801Y-14466817D02*
X12339230Y-14466817D01*
X12339230Y-14466817D02*
X12320182Y-14457293D01*
X12320182Y-14457293D02*
X12310658Y-14438246D01*
X12310658Y-14438246D02*
X12310658Y-14428722D01*
X12310658Y-14428722D02*
X12320182Y-14409674D01*
X12320182Y-14409674D02*
X12339230Y-14400150D01*
X12339230Y-14400150D02*
X12367801Y-14400150D01*
X12367801Y-14400150D02*
X12386849Y-14409674D01*
X12634468Y-14457293D02*
X12786849Y-14457293D01*
X12710658Y-14533484D02*
X12710658Y-14381103D01*
X13015420Y-14333484D02*
X13139230Y-14333484D01*
X13139230Y-14333484D02*
X13072563Y-14409674D01*
X13072563Y-14409674D02*
X13101134Y-14409674D01*
X13101134Y-14409674D02*
X13120182Y-14419198D01*
X13120182Y-14419198D02*
X13129706Y-14428722D01*
X13129706Y-14428722D02*
X13139230Y-14447769D01*
X13139230Y-14447769D02*
X13139230Y-14495388D01*
X13139230Y-14495388D02*
X13129706Y-14514436D01*
X13129706Y-14514436D02*
X13120182Y-14523960D01*
X13120182Y-14523960D02*
X13101134Y-14533484D01*
X13101134Y-14533484D02*
X13043992Y-14533484D01*
X13043992Y-14533484D02*
X13024944Y-14523960D01*
X13024944Y-14523960D02*
X13015420Y-14514436D01*
X13367801Y-14523960D02*
X13386849Y-14533484D01*
X13386849Y-14533484D02*
X13424944Y-14533484D01*
X13424944Y-14533484D02*
X13443992Y-14523960D01*
X13443992Y-14523960D02*
X13453515Y-14504912D01*
X13453515Y-14504912D02*
X13453515Y-14495388D01*
X13453515Y-14495388D02*
X13443992Y-14476341D01*
X13443992Y-14476341D02*
X13424944Y-14466817D01*
X13424944Y-14466817D02*
X13396373Y-14466817D01*
X13396373Y-14466817D02*
X13377325Y-14457293D01*
X13377325Y-14457293D02*
X13367801Y-14438246D01*
X13367801Y-14438246D02*
X13367801Y-14428722D01*
X13367801Y-14428722D02*
X13377325Y-14409674D01*
X13377325Y-14409674D02*
X13396373Y-14400150D01*
X13396373Y-14400150D02*
X13424944Y-14400150D01*
X13424944Y-14400150D02*
X13443992Y-14409674D01*
X13567801Y-14533484D02*
X13548754Y-14523960D01*
X13548754Y-14523960D02*
X13539230Y-14504912D01*
X13539230Y-14504912D02*
X13539230Y-14333484D01*
X13672563Y-14533484D02*
X13653515Y-14523960D01*
X13653515Y-14523960D02*
X13643992Y-14514436D01*
X13643992Y-14514436D02*
X13634468Y-14495388D01*
X13634468Y-14495388D02*
X13634468Y-14438246D01*
X13634468Y-14438246D02*
X13643992Y-14419198D01*
X13643992Y-14419198D02*
X13653515Y-14409674D01*
X13653515Y-14409674D02*
X13672563Y-14400150D01*
X13672563Y-14400150D02*
X13701135Y-14400150D01*
X13701135Y-14400150D02*
X13720182Y-14409674D01*
X13720182Y-14409674D02*
X13729706Y-14419198D01*
X13729706Y-14419198D02*
X13739230Y-14438246D01*
X13739230Y-14438246D02*
X13739230Y-14495388D01*
X13739230Y-14495388D02*
X13729706Y-14514436D01*
X13729706Y-14514436D02*
X13720182Y-14523960D01*
X13720182Y-14523960D02*
X13701135Y-14533484D01*
X13701135Y-14533484D02*
X13672563Y-14533484D01*
X13796373Y-14400150D02*
X13872563Y-14400150D01*
X13824944Y-14333484D02*
X13824944Y-14504912D01*
X13824944Y-14504912D02*
X13834468Y-14523960D01*
X13834468Y-14523960D02*
X13853515Y-14533484D01*
X13853515Y-14533484D02*
X13872563Y-14533484D01*
X13929706Y-14523960D02*
X13948754Y-14533484D01*
X13948754Y-14533484D02*
X13986849Y-14533484D01*
X13986849Y-14533484D02*
X14005896Y-14523960D01*
X14005896Y-14523960D02*
X14015420Y-14504912D01*
X14015420Y-14504912D02*
X14015420Y-14495388D01*
X14015420Y-14495388D02*
X14005896Y-14476341D01*
X14005896Y-14476341D02*
X13986849Y-14466817D01*
X13986849Y-14466817D02*
X13958277Y-14466817D01*
X13958277Y-14466817D02*
X13939230Y-14457293D01*
X13939230Y-14457293D02*
X13929706Y-14438246D01*
X13929706Y-14438246D02*
X13929706Y-14428722D01*
X13929706Y-14428722D02*
X13939230Y-14409674D01*
X13939230Y-14409674D02*
X13958277Y-14400150D01*
X13958277Y-14400150D02*
X13986849Y-14400150D01*
X13986849Y-14400150D02*
X14005896Y-14409674D01*
X14082087Y-14609674D02*
X14091611Y-14600150D01*
X14091611Y-14600150D02*
X14110658Y-14571579D01*
X14110658Y-14571579D02*
X14120182Y-14552531D01*
X14120182Y-14552531D02*
X14129706Y-14523960D01*
X14129706Y-14523960D02*
X14139230Y-14476341D01*
X14139230Y-14476341D02*
X14139230Y-14438246D01*
X14139230Y-14438246D02*
X14129706Y-14390627D01*
X14129706Y-14390627D02*
X14120182Y-14362055D01*
X14120182Y-14362055D02*
X14110658Y-14343008D01*
X14110658Y-14343008D02*
X14091611Y-14314436D01*
X14091611Y-14314436D02*
X14082087Y-14304912D01*
D15*
X7447462Y-14756038D02*
X7497500Y-14706000D01*
X7447462Y-14655962D01*
X7397424Y-14706000D01*
X7447462Y-14756038D01*
D11*
X7863039Y-14797484D02*
X7748753Y-14797484D01*
X7805896Y-14797484D02*
X7805896Y-14597484D01*
X7805896Y-14597484D02*
X7786848Y-14626055D01*
X7786848Y-14626055D02*
X7767801Y-14645103D01*
X7767801Y-14645103D02*
X7748753Y-14654627D01*
X7948753Y-14778436D02*
X7958277Y-14787960D01*
X7958277Y-14787960D02*
X7948753Y-14797484D01*
X7948753Y-14797484D02*
X7939229Y-14787960D01*
X7939229Y-14787960D02*
X7948753Y-14778436D01*
X7948753Y-14778436D02*
X7948753Y-14797484D01*
X8082086Y-14597484D02*
X8101134Y-14597484D01*
X8101134Y-14597484D02*
X8120182Y-14607008D01*
X8120182Y-14607008D02*
X8129705Y-14616531D01*
X8129705Y-14616531D02*
X8139229Y-14635579D01*
X8139229Y-14635579D02*
X8148753Y-14673674D01*
X8148753Y-14673674D02*
X8148753Y-14721293D01*
X8148753Y-14721293D02*
X8139229Y-14759388D01*
X8139229Y-14759388D02*
X8129705Y-14778436D01*
X8129705Y-14778436D02*
X8120182Y-14787960D01*
X8120182Y-14787960D02*
X8101134Y-14797484D01*
X8101134Y-14797484D02*
X8082086Y-14797484D01*
X8082086Y-14797484D02*
X8063039Y-14787960D01*
X8063039Y-14787960D02*
X8053515Y-14778436D01*
X8053515Y-14778436D02*
X8043991Y-14759388D01*
X8043991Y-14759388D02*
X8034467Y-14721293D01*
X8034467Y-14721293D02*
X8034467Y-14673674D01*
X8034467Y-14673674D02*
X8043991Y-14635579D01*
X8043991Y-14635579D02*
X8053515Y-14616531D01*
X8053515Y-14616531D02*
X8063039Y-14607008D01*
X8063039Y-14607008D02*
X8082086Y-14597484D01*
X8272562Y-14597484D02*
X8291610Y-14597484D01*
X8291610Y-14597484D02*
X8310658Y-14607008D01*
X8310658Y-14607008D02*
X8320182Y-14616531D01*
X8320182Y-14616531D02*
X8329705Y-14635579D01*
X8329705Y-14635579D02*
X8339229Y-14673674D01*
X8339229Y-14673674D02*
X8339229Y-14721293D01*
X8339229Y-14721293D02*
X8329705Y-14759388D01*
X8329705Y-14759388D02*
X8320182Y-14778436D01*
X8320182Y-14778436D02*
X8310658Y-14787960D01*
X8310658Y-14787960D02*
X8291610Y-14797484D01*
X8291610Y-14797484D02*
X8272562Y-14797484D01*
X8272562Y-14797484D02*
X8253515Y-14787960D01*
X8253515Y-14787960D02*
X8243991Y-14778436D01*
X8243991Y-14778436D02*
X8234467Y-14759388D01*
X8234467Y-14759388D02*
X8224943Y-14721293D01*
X8224943Y-14721293D02*
X8224943Y-14673674D01*
X8224943Y-14673674D02*
X8234467Y-14635579D01*
X8234467Y-14635579D02*
X8243991Y-14616531D01*
X8243991Y-14616531D02*
X8253515Y-14607008D01*
X8253515Y-14607008D02*
X8272562Y-14597484D01*
X8529705Y-14797484D02*
X8415420Y-14797484D01*
X8472563Y-14797484D02*
X8472563Y-14597484D01*
X8472563Y-14597484D02*
X8453515Y-14626055D01*
X8453515Y-14626055D02*
X8434467Y-14645103D01*
X8434467Y-14645103D02*
X8415420Y-14654627D01*
X8615420Y-14797484D02*
X8615420Y-14664150D01*
X8615420Y-14683198D02*
X8624944Y-14673674D01*
X8624944Y-14673674D02*
X8643991Y-14664150D01*
X8643991Y-14664150D02*
X8672563Y-14664150D01*
X8672563Y-14664150D02*
X8691610Y-14673674D01*
X8691610Y-14673674D02*
X8701134Y-14692722D01*
X8701134Y-14692722D02*
X8701134Y-14797484D01*
X8701134Y-14692722D02*
X8710658Y-14673674D01*
X8710658Y-14673674D02*
X8729705Y-14664150D01*
X8729705Y-14664150D02*
X8758277Y-14664150D01*
X8758277Y-14664150D02*
X8777325Y-14673674D01*
X8777325Y-14673674D02*
X8786848Y-14692722D01*
X8786848Y-14692722D02*
X8786848Y-14797484D01*
X8882086Y-14797484D02*
X8882086Y-14664150D01*
X8882086Y-14683198D02*
X8891610Y-14673674D01*
X8891610Y-14673674D02*
X8910658Y-14664150D01*
X8910658Y-14664150D02*
X8939229Y-14664150D01*
X8939229Y-14664150D02*
X8958277Y-14673674D01*
X8958277Y-14673674D02*
X8967801Y-14692722D01*
X8967801Y-14692722D02*
X8967801Y-14797484D01*
X8967801Y-14692722D02*
X8977325Y-14673674D01*
X8977325Y-14673674D02*
X8996372Y-14664150D01*
X8996372Y-14664150D02*
X9024944Y-14664150D01*
X9024944Y-14664150D02*
X9043991Y-14673674D01*
X9043991Y-14673674D02*
X9053515Y-14692722D01*
X9053515Y-14692722D02*
X9053515Y-14797484D01*
X9443991Y-14587960D02*
X9272563Y-14845103D01*
X9701134Y-14597484D02*
X9720182Y-14597484D01*
X9720182Y-14597484D02*
X9739229Y-14607008D01*
X9739229Y-14607008D02*
X9748753Y-14616531D01*
X9748753Y-14616531D02*
X9758277Y-14635579D01*
X9758277Y-14635579D02*
X9767801Y-14673674D01*
X9767801Y-14673674D02*
X9767801Y-14721293D01*
X9767801Y-14721293D02*
X9758277Y-14759388D01*
X9758277Y-14759388D02*
X9748753Y-14778436D01*
X9748753Y-14778436D02*
X9739229Y-14787960D01*
X9739229Y-14787960D02*
X9720182Y-14797484D01*
X9720182Y-14797484D02*
X9701134Y-14797484D01*
X9701134Y-14797484D02*
X9682087Y-14787960D01*
X9682087Y-14787960D02*
X9672563Y-14778436D01*
X9672563Y-14778436D02*
X9663039Y-14759388D01*
X9663039Y-14759388D02*
X9653515Y-14721293D01*
X9653515Y-14721293D02*
X9653515Y-14673674D01*
X9653515Y-14673674D02*
X9663039Y-14635579D01*
X9663039Y-14635579D02*
X9672563Y-14616531D01*
X9672563Y-14616531D02*
X9682087Y-14607008D01*
X9682087Y-14607008D02*
X9701134Y-14597484D01*
X9853515Y-14778436D02*
X9863039Y-14787960D01*
X9863039Y-14787960D02*
X9853515Y-14797484D01*
X9853515Y-14797484D02*
X9843991Y-14787960D01*
X9843991Y-14787960D02*
X9853515Y-14778436D01*
X9853515Y-14778436D02*
X9853515Y-14797484D01*
X9986848Y-14597484D02*
X10005896Y-14597484D01*
X10005896Y-14597484D02*
X10024944Y-14607008D01*
X10024944Y-14607008D02*
X10034468Y-14616531D01*
X10034468Y-14616531D02*
X10043991Y-14635579D01*
X10043991Y-14635579D02*
X10053515Y-14673674D01*
X10053515Y-14673674D02*
X10053515Y-14721293D01*
X10053515Y-14721293D02*
X10043991Y-14759388D01*
X10043991Y-14759388D02*
X10034468Y-14778436D01*
X10034468Y-14778436D02*
X10024944Y-14787960D01*
X10024944Y-14787960D02*
X10005896Y-14797484D01*
X10005896Y-14797484D02*
X9986848Y-14797484D01*
X9986848Y-14797484D02*
X9967801Y-14787960D01*
X9967801Y-14787960D02*
X9958277Y-14778436D01*
X9958277Y-14778436D02*
X9948753Y-14759388D01*
X9948753Y-14759388D02*
X9939229Y-14721293D01*
X9939229Y-14721293D02*
X9939229Y-14673674D01*
X9939229Y-14673674D02*
X9948753Y-14635579D01*
X9948753Y-14635579D02*
X9958277Y-14616531D01*
X9958277Y-14616531D02*
X9967801Y-14607008D01*
X9967801Y-14607008D02*
X9986848Y-14597484D01*
X10120182Y-14597484D02*
X10243991Y-14597484D01*
X10243991Y-14597484D02*
X10177325Y-14673674D01*
X10177325Y-14673674D02*
X10205896Y-14673674D01*
X10205896Y-14673674D02*
X10224944Y-14683198D01*
X10224944Y-14683198D02*
X10234468Y-14692722D01*
X10234468Y-14692722D02*
X10243991Y-14711769D01*
X10243991Y-14711769D02*
X10243991Y-14759388D01*
X10243991Y-14759388D02*
X10234468Y-14778436D01*
X10234468Y-14778436D02*
X10224944Y-14787960D01*
X10224944Y-14787960D02*
X10205896Y-14797484D01*
X10205896Y-14797484D02*
X10148753Y-14797484D01*
X10148753Y-14797484D02*
X10129706Y-14787960D01*
X10129706Y-14787960D02*
X10120182Y-14778436D01*
X10339229Y-14797484D02*
X10377325Y-14797484D01*
X10377325Y-14797484D02*
X10396372Y-14787960D01*
X10396372Y-14787960D02*
X10405896Y-14778436D01*
X10405896Y-14778436D02*
X10424944Y-14749865D01*
X10424944Y-14749865D02*
X10434468Y-14711769D01*
X10434468Y-14711769D02*
X10434468Y-14635579D01*
X10434468Y-14635579D02*
X10424944Y-14616531D01*
X10424944Y-14616531D02*
X10415420Y-14607008D01*
X10415420Y-14607008D02*
X10396372Y-14597484D01*
X10396372Y-14597484D02*
X10358277Y-14597484D01*
X10358277Y-14597484D02*
X10339229Y-14607008D01*
X10339229Y-14607008D02*
X10329706Y-14616531D01*
X10329706Y-14616531D02*
X10320182Y-14635579D01*
X10320182Y-14635579D02*
X10320182Y-14683198D01*
X10320182Y-14683198D02*
X10329706Y-14702246D01*
X10329706Y-14702246D02*
X10339229Y-14711769D01*
X10339229Y-14711769D02*
X10358277Y-14721293D01*
X10358277Y-14721293D02*
X10396372Y-14721293D01*
X10396372Y-14721293D02*
X10415420Y-14711769D01*
X10415420Y-14711769D02*
X10424944Y-14702246D01*
X10424944Y-14702246D02*
X10434468Y-14683198D01*
X10605896Y-14664150D02*
X10605896Y-14797484D01*
X10558277Y-14587960D02*
X10510658Y-14730817D01*
X10510658Y-14730817D02*
X10634468Y-14730817D01*
X10701134Y-14597484D02*
X10701134Y-14635579D01*
X10777325Y-14597484D02*
X10777325Y-14635579D01*
X11072563Y-14873674D02*
X11063039Y-14864150D01*
X11063039Y-14864150D02*
X11043991Y-14835579D01*
X11043991Y-14835579D02*
X11034468Y-14816531D01*
X11034468Y-14816531D02*
X11024944Y-14787960D01*
X11024944Y-14787960D02*
X11015420Y-14740341D01*
X11015420Y-14740341D02*
X11015420Y-14702246D01*
X11015420Y-14702246D02*
X11024944Y-14654627D01*
X11024944Y-14654627D02*
X11034468Y-14626055D01*
X11034468Y-14626055D02*
X11043991Y-14607008D01*
X11043991Y-14607008D02*
X11063039Y-14578436D01*
X11063039Y-14578436D02*
X11072563Y-14568912D01*
X11139230Y-14616531D02*
X11148753Y-14607008D01*
X11148753Y-14607008D02*
X11167801Y-14597484D01*
X11167801Y-14597484D02*
X11215420Y-14597484D01*
X11215420Y-14597484D02*
X11234468Y-14607008D01*
X11234468Y-14607008D02*
X11243991Y-14616531D01*
X11243991Y-14616531D02*
X11253515Y-14635579D01*
X11253515Y-14635579D02*
X11253515Y-14654627D01*
X11253515Y-14654627D02*
X11243991Y-14683198D01*
X11243991Y-14683198D02*
X11129706Y-14797484D01*
X11129706Y-14797484D02*
X11253515Y-14797484D01*
X11491610Y-14797484D02*
X11491610Y-14597484D01*
X11577325Y-14797484D02*
X11577325Y-14692722D01*
X11577325Y-14692722D02*
X11567801Y-14673674D01*
X11567801Y-14673674D02*
X11548753Y-14664150D01*
X11548753Y-14664150D02*
X11520182Y-14664150D01*
X11520182Y-14664150D02*
X11501134Y-14673674D01*
X11501134Y-14673674D02*
X11491610Y-14683198D01*
X11701134Y-14797484D02*
X11682087Y-14787960D01*
X11682087Y-14787960D02*
X11672563Y-14778436D01*
X11672563Y-14778436D02*
X11663039Y-14759388D01*
X11663039Y-14759388D02*
X11663039Y-14702246D01*
X11663039Y-14702246D02*
X11672563Y-14683198D01*
X11672563Y-14683198D02*
X11682087Y-14673674D01*
X11682087Y-14673674D02*
X11701134Y-14664150D01*
X11701134Y-14664150D02*
X11729706Y-14664150D01*
X11729706Y-14664150D02*
X11748753Y-14673674D01*
X11748753Y-14673674D02*
X11758277Y-14683198D01*
X11758277Y-14683198D02*
X11767801Y-14702246D01*
X11767801Y-14702246D02*
X11767801Y-14759388D01*
X11767801Y-14759388D02*
X11758277Y-14778436D01*
X11758277Y-14778436D02*
X11748753Y-14787960D01*
X11748753Y-14787960D02*
X11729706Y-14797484D01*
X11729706Y-14797484D02*
X11701134Y-14797484D01*
X11882087Y-14797484D02*
X11863039Y-14787960D01*
X11863039Y-14787960D02*
X11853515Y-14768912D01*
X11853515Y-14768912D02*
X11853515Y-14597484D01*
X12034468Y-14787960D02*
X12015420Y-14797484D01*
X12015420Y-14797484D02*
X11977325Y-14797484D01*
X11977325Y-14797484D02*
X11958277Y-14787960D01*
X11958277Y-14787960D02*
X11948753Y-14768912D01*
X11948753Y-14768912D02*
X11948753Y-14692722D01*
X11948753Y-14692722D02*
X11958277Y-14673674D01*
X11958277Y-14673674D02*
X11977325Y-14664150D01*
X11977325Y-14664150D02*
X12015420Y-14664150D01*
X12015420Y-14664150D02*
X12034468Y-14673674D01*
X12034468Y-14673674D02*
X12043991Y-14692722D01*
X12043991Y-14692722D02*
X12043991Y-14711769D01*
X12043991Y-14711769D02*
X11948753Y-14730817D01*
X12120182Y-14787960D02*
X12139230Y-14797484D01*
X12139230Y-14797484D02*
X12177325Y-14797484D01*
X12177325Y-14797484D02*
X12196372Y-14787960D01*
X12196372Y-14787960D02*
X12205896Y-14768912D01*
X12205896Y-14768912D02*
X12205896Y-14759388D01*
X12205896Y-14759388D02*
X12196372Y-14740341D01*
X12196372Y-14740341D02*
X12177325Y-14730817D01*
X12177325Y-14730817D02*
X12148753Y-14730817D01*
X12148753Y-14730817D02*
X12129706Y-14721293D01*
X12129706Y-14721293D02*
X12120182Y-14702246D01*
X12120182Y-14702246D02*
X12120182Y-14692722D01*
X12120182Y-14692722D02*
X12129706Y-14673674D01*
X12129706Y-14673674D02*
X12148753Y-14664150D01*
X12148753Y-14664150D02*
X12177325Y-14664150D01*
X12177325Y-14664150D02*
X12196372Y-14673674D01*
X12272563Y-14873674D02*
X12282087Y-14864150D01*
X12282087Y-14864150D02*
X12301134Y-14835579D01*
X12301134Y-14835579D02*
X12310658Y-14816531D01*
X12310658Y-14816531D02*
X12320182Y-14787960D01*
X12320182Y-14787960D02*
X12329706Y-14740341D01*
X12329706Y-14740341D02*
X12329706Y-14702246D01*
X12329706Y-14702246D02*
X12320182Y-14654627D01*
X12320182Y-14654627D02*
X12310658Y-14626055D01*
X12310658Y-14626055D02*
X12301134Y-14607008D01*
X12301134Y-14607008D02*
X12282087Y-14578436D01*
X12282087Y-14578436D02*
X12272563Y-14568912D01*
D16*
X7395900Y-14919200D02*
X7497500Y-15020800D01*
X7497500Y-14919200D02*
X7395900Y-15020800D01*
X7497500Y-14970000D02*
G75*
G03*
X7497500Y-14970000I-50800J0D01*
G01*
D11*
X7863039Y-15061484D02*
X7748753Y-15061484D01*
X7805896Y-15061484D02*
X7805896Y-14861484D01*
X7805896Y-14861484D02*
X7786848Y-14890055D01*
X7786848Y-14890055D02*
X7767801Y-14909103D01*
X7767801Y-14909103D02*
X7748753Y-14918627D01*
X7948753Y-15042436D02*
X7958277Y-15051960D01*
X7958277Y-15051960D02*
X7948753Y-15061484D01*
X7948753Y-15061484D02*
X7939229Y-15051960D01*
X7939229Y-15051960D02*
X7948753Y-15042436D01*
X7948753Y-15042436D02*
X7948753Y-15061484D01*
X8082086Y-14861484D02*
X8101134Y-14861484D01*
X8101134Y-14861484D02*
X8120182Y-14871008D01*
X8120182Y-14871008D02*
X8129705Y-14880531D01*
X8129705Y-14880531D02*
X8139229Y-14899579D01*
X8139229Y-14899579D02*
X8148753Y-14937674D01*
X8148753Y-14937674D02*
X8148753Y-14985293D01*
X8148753Y-14985293D02*
X8139229Y-15023388D01*
X8139229Y-15023388D02*
X8129705Y-15042436D01*
X8129705Y-15042436D02*
X8120182Y-15051960D01*
X8120182Y-15051960D02*
X8101134Y-15061484D01*
X8101134Y-15061484D02*
X8082086Y-15061484D01*
X8082086Y-15061484D02*
X8063039Y-15051960D01*
X8063039Y-15051960D02*
X8053515Y-15042436D01*
X8053515Y-15042436D02*
X8043991Y-15023388D01*
X8043991Y-15023388D02*
X8034467Y-14985293D01*
X8034467Y-14985293D02*
X8034467Y-14937674D01*
X8034467Y-14937674D02*
X8043991Y-14899579D01*
X8043991Y-14899579D02*
X8053515Y-14880531D01*
X8053515Y-14880531D02*
X8063039Y-14871008D01*
X8063039Y-14871008D02*
X8082086Y-14861484D01*
X8339229Y-15061484D02*
X8224943Y-15061484D01*
X8282086Y-15061484D02*
X8282086Y-14861484D01*
X8282086Y-14861484D02*
X8263039Y-14890055D01*
X8263039Y-14890055D02*
X8243991Y-14909103D01*
X8243991Y-14909103D02*
X8224943Y-14918627D01*
X8510658Y-14861484D02*
X8472563Y-14861484D01*
X8472563Y-14861484D02*
X8453515Y-14871008D01*
X8453515Y-14871008D02*
X8443991Y-14880531D01*
X8443991Y-14880531D02*
X8424944Y-14909103D01*
X8424944Y-14909103D02*
X8415420Y-14947198D01*
X8415420Y-14947198D02*
X8415420Y-15023388D01*
X8415420Y-15023388D02*
X8424944Y-15042436D01*
X8424944Y-15042436D02*
X8434467Y-15051960D01*
X8434467Y-15051960D02*
X8453515Y-15061484D01*
X8453515Y-15061484D02*
X8491610Y-15061484D01*
X8491610Y-15061484D02*
X8510658Y-15051960D01*
X8510658Y-15051960D02*
X8520182Y-15042436D01*
X8520182Y-15042436D02*
X8529705Y-15023388D01*
X8529705Y-15023388D02*
X8529705Y-14975769D01*
X8529705Y-14975769D02*
X8520182Y-14956722D01*
X8520182Y-14956722D02*
X8510658Y-14947198D01*
X8510658Y-14947198D02*
X8491610Y-14937674D01*
X8491610Y-14937674D02*
X8453515Y-14937674D01*
X8453515Y-14937674D02*
X8434467Y-14947198D01*
X8434467Y-14947198D02*
X8424944Y-14956722D01*
X8424944Y-14956722D02*
X8415420Y-14975769D01*
X8615420Y-15061484D02*
X8615420Y-14928150D01*
X8615420Y-14947198D02*
X8624944Y-14937674D01*
X8624944Y-14937674D02*
X8643991Y-14928150D01*
X8643991Y-14928150D02*
X8672563Y-14928150D01*
X8672563Y-14928150D02*
X8691610Y-14937674D01*
X8691610Y-14937674D02*
X8701134Y-14956722D01*
X8701134Y-14956722D02*
X8701134Y-15061484D01*
X8701134Y-14956722D02*
X8710658Y-14937674D01*
X8710658Y-14937674D02*
X8729705Y-14928150D01*
X8729705Y-14928150D02*
X8758277Y-14928150D01*
X8758277Y-14928150D02*
X8777325Y-14937674D01*
X8777325Y-14937674D02*
X8786848Y-14956722D01*
X8786848Y-14956722D02*
X8786848Y-15061484D01*
X8882086Y-15061484D02*
X8882086Y-14928150D01*
X8882086Y-14947198D02*
X8891610Y-14937674D01*
X8891610Y-14937674D02*
X8910658Y-14928150D01*
X8910658Y-14928150D02*
X8939229Y-14928150D01*
X8939229Y-14928150D02*
X8958277Y-14937674D01*
X8958277Y-14937674D02*
X8967801Y-14956722D01*
X8967801Y-14956722D02*
X8967801Y-15061484D01*
X8967801Y-14956722D02*
X8977325Y-14937674D01*
X8977325Y-14937674D02*
X8996372Y-14928150D01*
X8996372Y-14928150D02*
X9024944Y-14928150D01*
X9024944Y-14928150D02*
X9043991Y-14937674D01*
X9043991Y-14937674D02*
X9053515Y-14956722D01*
X9053515Y-14956722D02*
X9053515Y-15061484D01*
X9443991Y-14851960D02*
X9272563Y-15109103D01*
X9701134Y-14861484D02*
X9720182Y-14861484D01*
X9720182Y-14861484D02*
X9739229Y-14871008D01*
X9739229Y-14871008D02*
X9748753Y-14880531D01*
X9748753Y-14880531D02*
X9758277Y-14899579D01*
X9758277Y-14899579D02*
X9767801Y-14937674D01*
X9767801Y-14937674D02*
X9767801Y-14985293D01*
X9767801Y-14985293D02*
X9758277Y-15023388D01*
X9758277Y-15023388D02*
X9748753Y-15042436D01*
X9748753Y-15042436D02*
X9739229Y-15051960D01*
X9739229Y-15051960D02*
X9720182Y-15061484D01*
X9720182Y-15061484D02*
X9701134Y-15061484D01*
X9701134Y-15061484D02*
X9682087Y-15051960D01*
X9682087Y-15051960D02*
X9672563Y-15042436D01*
X9672563Y-15042436D02*
X9663039Y-15023388D01*
X9663039Y-15023388D02*
X9653515Y-14985293D01*
X9653515Y-14985293D02*
X9653515Y-14937674D01*
X9653515Y-14937674D02*
X9663039Y-14899579D01*
X9663039Y-14899579D02*
X9672563Y-14880531D01*
X9672563Y-14880531D02*
X9682087Y-14871008D01*
X9682087Y-14871008D02*
X9701134Y-14861484D01*
X9853515Y-15042436D02*
X9863039Y-15051960D01*
X9863039Y-15051960D02*
X9853515Y-15061484D01*
X9853515Y-15061484D02*
X9843991Y-15051960D01*
X9843991Y-15051960D02*
X9853515Y-15042436D01*
X9853515Y-15042436D02*
X9853515Y-15061484D01*
X9986848Y-14861484D02*
X10005896Y-14861484D01*
X10005896Y-14861484D02*
X10024944Y-14871008D01*
X10024944Y-14871008D02*
X10034468Y-14880531D01*
X10034468Y-14880531D02*
X10043991Y-14899579D01*
X10043991Y-14899579D02*
X10053515Y-14937674D01*
X10053515Y-14937674D02*
X10053515Y-14985293D01*
X10053515Y-14985293D02*
X10043991Y-15023388D01*
X10043991Y-15023388D02*
X10034468Y-15042436D01*
X10034468Y-15042436D02*
X10024944Y-15051960D01*
X10024944Y-15051960D02*
X10005896Y-15061484D01*
X10005896Y-15061484D02*
X9986848Y-15061484D01*
X9986848Y-15061484D02*
X9967801Y-15051960D01*
X9967801Y-15051960D02*
X9958277Y-15042436D01*
X9958277Y-15042436D02*
X9948753Y-15023388D01*
X9948753Y-15023388D02*
X9939229Y-14985293D01*
X9939229Y-14985293D02*
X9939229Y-14937674D01*
X9939229Y-14937674D02*
X9948753Y-14899579D01*
X9948753Y-14899579D02*
X9958277Y-14880531D01*
X9958277Y-14880531D02*
X9967801Y-14871008D01*
X9967801Y-14871008D02*
X9986848Y-14861484D01*
X10224944Y-14928150D02*
X10224944Y-15061484D01*
X10177325Y-14851960D02*
X10129706Y-14994817D01*
X10129706Y-14994817D02*
X10253515Y-14994817D01*
X10367801Y-14861484D02*
X10386849Y-14861484D01*
X10386849Y-14861484D02*
X10405896Y-14871008D01*
X10405896Y-14871008D02*
X10415420Y-14880531D01*
X10415420Y-14880531D02*
X10424944Y-14899579D01*
X10424944Y-14899579D02*
X10434468Y-14937674D01*
X10434468Y-14937674D02*
X10434468Y-14985293D01*
X10434468Y-14985293D02*
X10424944Y-15023388D01*
X10424944Y-15023388D02*
X10415420Y-15042436D01*
X10415420Y-15042436D02*
X10405896Y-15051960D01*
X10405896Y-15051960D02*
X10386849Y-15061484D01*
X10386849Y-15061484D02*
X10367801Y-15061484D01*
X10367801Y-15061484D02*
X10348753Y-15051960D01*
X10348753Y-15051960D02*
X10339229Y-15042436D01*
X10339229Y-15042436D02*
X10329706Y-15023388D01*
X10329706Y-15023388D02*
X10320182Y-14985293D01*
X10320182Y-14985293D02*
X10320182Y-14937674D01*
X10320182Y-14937674D02*
X10329706Y-14899579D01*
X10329706Y-14899579D02*
X10339229Y-14880531D01*
X10339229Y-14880531D02*
X10348753Y-14871008D01*
X10348753Y-14871008D02*
X10367801Y-14861484D01*
X10558277Y-14861484D02*
X10577325Y-14861484D01*
X10577325Y-14861484D02*
X10596372Y-14871008D01*
X10596372Y-14871008D02*
X10605896Y-14880531D01*
X10605896Y-14880531D02*
X10615420Y-14899579D01*
X10615420Y-14899579D02*
X10624944Y-14937674D01*
X10624944Y-14937674D02*
X10624944Y-14985293D01*
X10624944Y-14985293D02*
X10615420Y-15023388D01*
X10615420Y-15023388D02*
X10605896Y-15042436D01*
X10605896Y-15042436D02*
X10596372Y-15051960D01*
X10596372Y-15051960D02*
X10577325Y-15061484D01*
X10577325Y-15061484D02*
X10558277Y-15061484D01*
X10558277Y-15061484D02*
X10539229Y-15051960D01*
X10539229Y-15051960D02*
X10529706Y-15042436D01*
X10529706Y-15042436D02*
X10520182Y-15023388D01*
X10520182Y-15023388D02*
X10510658Y-14985293D01*
X10510658Y-14985293D02*
X10510658Y-14937674D01*
X10510658Y-14937674D02*
X10520182Y-14899579D01*
X10520182Y-14899579D02*
X10529706Y-14880531D01*
X10529706Y-14880531D02*
X10539229Y-14871008D01*
X10539229Y-14871008D02*
X10558277Y-14861484D01*
X10701134Y-14861484D02*
X10701134Y-14899579D01*
X10777325Y-14861484D02*
X10777325Y-14899579D01*
X11072563Y-15137674D02*
X11063039Y-15128150D01*
X11063039Y-15128150D02*
X11043991Y-15099579D01*
X11043991Y-15099579D02*
X11034468Y-15080531D01*
X11034468Y-15080531D02*
X11024944Y-15051960D01*
X11024944Y-15051960D02*
X11015420Y-15004341D01*
X11015420Y-15004341D02*
X11015420Y-14966246D01*
X11015420Y-14966246D02*
X11024944Y-14918627D01*
X11024944Y-14918627D02*
X11034468Y-14890055D01*
X11034468Y-14890055D02*
X11043991Y-14871008D01*
X11043991Y-14871008D02*
X11063039Y-14842436D01*
X11063039Y-14842436D02*
X11072563Y-14832912D01*
X11253515Y-15061484D02*
X11139230Y-15061484D01*
X11196372Y-15061484D02*
X11196372Y-14861484D01*
X11196372Y-14861484D02*
X11177325Y-14890055D01*
X11177325Y-14890055D02*
X11158277Y-14909103D01*
X11158277Y-14909103D02*
X11139230Y-14918627D01*
X11329706Y-14880531D02*
X11339229Y-14871008D01*
X11339229Y-14871008D02*
X11358277Y-14861484D01*
X11358277Y-14861484D02*
X11405896Y-14861484D01*
X11405896Y-14861484D02*
X11424944Y-14871008D01*
X11424944Y-14871008D02*
X11434468Y-14880531D01*
X11434468Y-14880531D02*
X11443991Y-14899579D01*
X11443991Y-14899579D02*
X11443991Y-14918627D01*
X11443991Y-14918627D02*
X11434468Y-14947198D01*
X11434468Y-14947198D02*
X11320182Y-15061484D01*
X11320182Y-15061484D02*
X11443991Y-15061484D01*
X11682087Y-15061484D02*
X11682087Y-14861484D01*
X11767801Y-15061484D02*
X11767801Y-14956722D01*
X11767801Y-14956722D02*
X11758277Y-14937674D01*
X11758277Y-14937674D02*
X11739230Y-14928150D01*
X11739230Y-14928150D02*
X11710658Y-14928150D01*
X11710658Y-14928150D02*
X11691610Y-14937674D01*
X11691610Y-14937674D02*
X11682087Y-14947198D01*
X11891610Y-15061484D02*
X11872563Y-15051960D01*
X11872563Y-15051960D02*
X11863039Y-15042436D01*
X11863039Y-15042436D02*
X11853515Y-15023388D01*
X11853515Y-15023388D02*
X11853515Y-14966246D01*
X11853515Y-14966246D02*
X11863039Y-14947198D01*
X11863039Y-14947198D02*
X11872563Y-14937674D01*
X11872563Y-14937674D02*
X11891610Y-14928150D01*
X11891610Y-14928150D02*
X11920182Y-14928150D01*
X11920182Y-14928150D02*
X11939230Y-14937674D01*
X11939230Y-14937674D02*
X11948753Y-14947198D01*
X11948753Y-14947198D02*
X11958277Y-14966246D01*
X11958277Y-14966246D02*
X11958277Y-15023388D01*
X11958277Y-15023388D02*
X11948753Y-15042436D01*
X11948753Y-15042436D02*
X11939230Y-15051960D01*
X11939230Y-15051960D02*
X11920182Y-15061484D01*
X11920182Y-15061484D02*
X11891610Y-15061484D01*
X12072563Y-15061484D02*
X12053515Y-15051960D01*
X12053515Y-15051960D02*
X12043991Y-15032912D01*
X12043991Y-15032912D02*
X12043991Y-14861484D01*
X12224944Y-15051960D02*
X12205896Y-15061484D01*
X12205896Y-15061484D02*
X12167801Y-15061484D01*
X12167801Y-15061484D02*
X12148753Y-15051960D01*
X12148753Y-15051960D02*
X12139230Y-15032912D01*
X12139230Y-15032912D02*
X12139230Y-14956722D01*
X12139230Y-14956722D02*
X12148753Y-14937674D01*
X12148753Y-14937674D02*
X12167801Y-14928150D01*
X12167801Y-14928150D02*
X12205896Y-14928150D01*
X12205896Y-14928150D02*
X12224944Y-14937674D01*
X12224944Y-14937674D02*
X12234468Y-14956722D01*
X12234468Y-14956722D02*
X12234468Y-14975769D01*
X12234468Y-14975769D02*
X12139230Y-14994817D01*
X12310658Y-15051960D02*
X12329706Y-15061484D01*
X12329706Y-15061484D02*
X12367801Y-15061484D01*
X12367801Y-15061484D02*
X12386849Y-15051960D01*
X12386849Y-15051960D02*
X12396372Y-15032912D01*
X12396372Y-15032912D02*
X12396372Y-15023388D01*
X12396372Y-15023388D02*
X12386849Y-15004341D01*
X12386849Y-15004341D02*
X12367801Y-14994817D01*
X12367801Y-14994817D02*
X12339230Y-14994817D01*
X12339230Y-14994817D02*
X12320182Y-14985293D01*
X12320182Y-14985293D02*
X12310658Y-14966246D01*
X12310658Y-14966246D02*
X12310658Y-14956722D01*
X12310658Y-14956722D02*
X12320182Y-14937674D01*
X12320182Y-14937674D02*
X12339230Y-14928150D01*
X12339230Y-14928150D02*
X12367801Y-14928150D01*
X12367801Y-14928150D02*
X12386849Y-14937674D01*
X12463039Y-15137674D02*
X12472563Y-15128150D01*
X12472563Y-15128150D02*
X12491611Y-15099579D01*
X12491611Y-15099579D02*
X12501134Y-15080531D01*
X12501134Y-15080531D02*
X12510658Y-15051960D01*
X12510658Y-15051960D02*
X12520182Y-15004341D01*
X12520182Y-15004341D02*
X12520182Y-14966246D01*
X12520182Y-14966246D02*
X12510658Y-14918627D01*
X12510658Y-14918627D02*
X12501134Y-14890055D01*
X12501134Y-14890055D02*
X12491611Y-14871008D01*
X12491611Y-14871008D02*
X12472563Y-14842436D01*
X12472563Y-14842436D02*
X12463039Y-14832912D01*
D17*
X7393500Y-15182000D02*
X7497500Y-15286000D01*
X7497500Y-15182000D02*
X7393500Y-15286000D01*
X7445500Y-15182000D02*
X7445500Y-15286000D01*
X7393500Y-15234000D02*
X7497500Y-15234000D01*
D11*
X7863039Y-15325484D02*
X7748753Y-15325484D01*
X7805896Y-15325484D02*
X7805896Y-15125484D01*
X7805896Y-15125484D02*
X7786848Y-15154055D01*
X7786848Y-15154055D02*
X7767801Y-15173103D01*
X7767801Y-15173103D02*
X7748753Y-15182627D01*
X7948753Y-15306436D02*
X7958277Y-15315960D01*
X7958277Y-15315960D02*
X7948753Y-15325484D01*
X7948753Y-15325484D02*
X7939229Y-15315960D01*
X7939229Y-15315960D02*
X7948753Y-15306436D01*
X7948753Y-15306436D02*
X7948753Y-15325484D01*
X8082086Y-15125484D02*
X8101134Y-15125484D01*
X8101134Y-15125484D02*
X8120182Y-15135008D01*
X8120182Y-15135008D02*
X8129705Y-15144531D01*
X8129705Y-15144531D02*
X8139229Y-15163579D01*
X8139229Y-15163579D02*
X8148753Y-15201674D01*
X8148753Y-15201674D02*
X8148753Y-15249293D01*
X8148753Y-15249293D02*
X8139229Y-15287388D01*
X8139229Y-15287388D02*
X8129705Y-15306436D01*
X8129705Y-15306436D02*
X8120182Y-15315960D01*
X8120182Y-15315960D02*
X8101134Y-15325484D01*
X8101134Y-15325484D02*
X8082086Y-15325484D01*
X8082086Y-15325484D02*
X8063039Y-15315960D01*
X8063039Y-15315960D02*
X8053515Y-15306436D01*
X8053515Y-15306436D02*
X8043991Y-15287388D01*
X8043991Y-15287388D02*
X8034467Y-15249293D01*
X8034467Y-15249293D02*
X8034467Y-15201674D01*
X8034467Y-15201674D02*
X8043991Y-15163579D01*
X8043991Y-15163579D02*
X8053515Y-15144531D01*
X8053515Y-15144531D02*
X8063039Y-15135008D01*
X8063039Y-15135008D02*
X8082086Y-15125484D01*
X8320182Y-15192150D02*
X8320182Y-15325484D01*
X8272562Y-15115960D02*
X8224943Y-15258817D01*
X8224943Y-15258817D02*
X8348753Y-15258817D01*
X8463039Y-15125484D02*
X8482086Y-15125484D01*
X8482086Y-15125484D02*
X8501134Y-15135008D01*
X8501134Y-15135008D02*
X8510658Y-15144531D01*
X8510658Y-15144531D02*
X8520182Y-15163579D01*
X8520182Y-15163579D02*
X8529705Y-15201674D01*
X8529705Y-15201674D02*
X8529705Y-15249293D01*
X8529705Y-15249293D02*
X8520182Y-15287388D01*
X8520182Y-15287388D02*
X8510658Y-15306436D01*
X8510658Y-15306436D02*
X8501134Y-15315960D01*
X8501134Y-15315960D02*
X8482086Y-15325484D01*
X8482086Y-15325484D02*
X8463039Y-15325484D01*
X8463039Y-15325484D02*
X8443991Y-15315960D01*
X8443991Y-15315960D02*
X8434467Y-15306436D01*
X8434467Y-15306436D02*
X8424944Y-15287388D01*
X8424944Y-15287388D02*
X8415420Y-15249293D01*
X8415420Y-15249293D02*
X8415420Y-15201674D01*
X8415420Y-15201674D02*
X8424944Y-15163579D01*
X8424944Y-15163579D02*
X8434467Y-15144531D01*
X8434467Y-15144531D02*
X8443991Y-15135008D01*
X8443991Y-15135008D02*
X8463039Y-15125484D01*
X8615420Y-15325484D02*
X8615420Y-15192150D01*
X8615420Y-15211198D02*
X8624944Y-15201674D01*
X8624944Y-15201674D02*
X8643991Y-15192150D01*
X8643991Y-15192150D02*
X8672563Y-15192150D01*
X8672563Y-15192150D02*
X8691610Y-15201674D01*
X8691610Y-15201674D02*
X8701134Y-15220722D01*
X8701134Y-15220722D02*
X8701134Y-15325484D01*
X8701134Y-15220722D02*
X8710658Y-15201674D01*
X8710658Y-15201674D02*
X8729705Y-15192150D01*
X8729705Y-15192150D02*
X8758277Y-15192150D01*
X8758277Y-15192150D02*
X8777325Y-15201674D01*
X8777325Y-15201674D02*
X8786848Y-15220722D01*
X8786848Y-15220722D02*
X8786848Y-15325484D01*
X8882086Y-15325484D02*
X8882086Y-15192150D01*
X8882086Y-15211198D02*
X8891610Y-15201674D01*
X8891610Y-15201674D02*
X8910658Y-15192150D01*
X8910658Y-15192150D02*
X8939229Y-15192150D01*
X8939229Y-15192150D02*
X8958277Y-15201674D01*
X8958277Y-15201674D02*
X8967801Y-15220722D01*
X8967801Y-15220722D02*
X8967801Y-15325484D01*
X8967801Y-15220722D02*
X8977325Y-15201674D01*
X8977325Y-15201674D02*
X8996372Y-15192150D01*
X8996372Y-15192150D02*
X9024944Y-15192150D01*
X9024944Y-15192150D02*
X9043991Y-15201674D01*
X9043991Y-15201674D02*
X9053515Y-15220722D01*
X9053515Y-15220722D02*
X9053515Y-15325484D01*
X9443991Y-15115960D02*
X9272563Y-15373103D01*
X9701134Y-15125484D02*
X9720182Y-15125484D01*
X9720182Y-15125484D02*
X9739229Y-15135008D01*
X9739229Y-15135008D02*
X9748753Y-15144531D01*
X9748753Y-15144531D02*
X9758277Y-15163579D01*
X9758277Y-15163579D02*
X9767801Y-15201674D01*
X9767801Y-15201674D02*
X9767801Y-15249293D01*
X9767801Y-15249293D02*
X9758277Y-15287388D01*
X9758277Y-15287388D02*
X9748753Y-15306436D01*
X9748753Y-15306436D02*
X9739229Y-15315960D01*
X9739229Y-15315960D02*
X9720182Y-15325484D01*
X9720182Y-15325484D02*
X9701134Y-15325484D01*
X9701134Y-15325484D02*
X9682087Y-15315960D01*
X9682087Y-15315960D02*
X9672563Y-15306436D01*
X9672563Y-15306436D02*
X9663039Y-15287388D01*
X9663039Y-15287388D02*
X9653515Y-15249293D01*
X9653515Y-15249293D02*
X9653515Y-15201674D01*
X9653515Y-15201674D02*
X9663039Y-15163579D01*
X9663039Y-15163579D02*
X9672563Y-15144531D01*
X9672563Y-15144531D02*
X9682087Y-15135008D01*
X9682087Y-15135008D02*
X9701134Y-15125484D01*
X9853515Y-15306436D02*
X9863039Y-15315960D01*
X9863039Y-15315960D02*
X9853515Y-15325484D01*
X9853515Y-15325484D02*
X9843991Y-15315960D01*
X9843991Y-15315960D02*
X9853515Y-15306436D01*
X9853515Y-15306436D02*
X9853515Y-15325484D01*
X9986848Y-15125484D02*
X10005896Y-15125484D01*
X10005896Y-15125484D02*
X10024944Y-15135008D01*
X10024944Y-15135008D02*
X10034468Y-15144531D01*
X10034468Y-15144531D02*
X10043991Y-15163579D01*
X10043991Y-15163579D02*
X10053515Y-15201674D01*
X10053515Y-15201674D02*
X10053515Y-15249293D01*
X10053515Y-15249293D02*
X10043991Y-15287388D01*
X10043991Y-15287388D02*
X10034468Y-15306436D01*
X10034468Y-15306436D02*
X10024944Y-15315960D01*
X10024944Y-15315960D02*
X10005896Y-15325484D01*
X10005896Y-15325484D02*
X9986848Y-15325484D01*
X9986848Y-15325484D02*
X9967801Y-15315960D01*
X9967801Y-15315960D02*
X9958277Y-15306436D01*
X9958277Y-15306436D02*
X9948753Y-15287388D01*
X9948753Y-15287388D02*
X9939229Y-15249293D01*
X9939229Y-15249293D02*
X9939229Y-15201674D01*
X9939229Y-15201674D02*
X9948753Y-15163579D01*
X9948753Y-15163579D02*
X9958277Y-15144531D01*
X9958277Y-15144531D02*
X9967801Y-15135008D01*
X9967801Y-15135008D02*
X9986848Y-15125484D01*
X10224944Y-15192150D02*
X10224944Y-15325484D01*
X10177325Y-15115960D02*
X10129706Y-15258817D01*
X10129706Y-15258817D02*
X10253515Y-15258817D01*
X10367801Y-15125484D02*
X10386849Y-15125484D01*
X10386849Y-15125484D02*
X10405896Y-15135008D01*
X10405896Y-15135008D02*
X10415420Y-15144531D01*
X10415420Y-15144531D02*
X10424944Y-15163579D01*
X10424944Y-15163579D02*
X10434468Y-15201674D01*
X10434468Y-15201674D02*
X10434468Y-15249293D01*
X10434468Y-15249293D02*
X10424944Y-15287388D01*
X10424944Y-15287388D02*
X10415420Y-15306436D01*
X10415420Y-15306436D02*
X10405896Y-15315960D01*
X10405896Y-15315960D02*
X10386849Y-15325484D01*
X10386849Y-15325484D02*
X10367801Y-15325484D01*
X10367801Y-15325484D02*
X10348753Y-15315960D01*
X10348753Y-15315960D02*
X10339229Y-15306436D01*
X10339229Y-15306436D02*
X10329706Y-15287388D01*
X10329706Y-15287388D02*
X10320182Y-15249293D01*
X10320182Y-15249293D02*
X10320182Y-15201674D01*
X10320182Y-15201674D02*
X10329706Y-15163579D01*
X10329706Y-15163579D02*
X10339229Y-15144531D01*
X10339229Y-15144531D02*
X10348753Y-15135008D01*
X10348753Y-15135008D02*
X10367801Y-15125484D01*
X10529706Y-15325484D02*
X10567801Y-15325484D01*
X10567801Y-15325484D02*
X10586849Y-15315960D01*
X10586849Y-15315960D02*
X10596372Y-15306436D01*
X10596372Y-15306436D02*
X10615420Y-15277865D01*
X10615420Y-15277865D02*
X10624944Y-15239769D01*
X10624944Y-15239769D02*
X10624944Y-15163579D01*
X10624944Y-15163579D02*
X10615420Y-15144531D01*
X10615420Y-15144531D02*
X10605896Y-15135008D01*
X10605896Y-15135008D02*
X10586849Y-15125484D01*
X10586849Y-15125484D02*
X10548753Y-15125484D01*
X10548753Y-15125484D02*
X10529706Y-15135008D01*
X10529706Y-15135008D02*
X10520182Y-15144531D01*
X10520182Y-15144531D02*
X10510658Y-15163579D01*
X10510658Y-15163579D02*
X10510658Y-15211198D01*
X10510658Y-15211198D02*
X10520182Y-15230246D01*
X10520182Y-15230246D02*
X10529706Y-15239769D01*
X10529706Y-15239769D02*
X10548753Y-15249293D01*
X10548753Y-15249293D02*
X10586849Y-15249293D01*
X10586849Y-15249293D02*
X10605896Y-15239769D01*
X10605896Y-15239769D02*
X10615420Y-15230246D01*
X10615420Y-15230246D02*
X10624944Y-15211198D01*
X10701134Y-15125484D02*
X10701134Y-15163579D01*
X10777325Y-15125484D02*
X10777325Y-15163579D01*
X11072563Y-15401674D02*
X11063039Y-15392150D01*
X11063039Y-15392150D02*
X11043991Y-15363579D01*
X11043991Y-15363579D02*
X11034468Y-15344531D01*
X11034468Y-15344531D02*
X11024944Y-15315960D01*
X11024944Y-15315960D02*
X11015420Y-15268341D01*
X11015420Y-15268341D02*
X11015420Y-15230246D01*
X11015420Y-15230246D02*
X11024944Y-15182627D01*
X11024944Y-15182627D02*
X11034468Y-15154055D01*
X11034468Y-15154055D02*
X11043991Y-15135008D01*
X11043991Y-15135008D02*
X11063039Y-15106436D01*
X11063039Y-15106436D02*
X11072563Y-15096912D01*
X11129706Y-15125484D02*
X11253515Y-15125484D01*
X11253515Y-15125484D02*
X11186848Y-15201674D01*
X11186848Y-15201674D02*
X11215420Y-15201674D01*
X11215420Y-15201674D02*
X11234468Y-15211198D01*
X11234468Y-15211198D02*
X11243991Y-15220722D01*
X11243991Y-15220722D02*
X11253515Y-15239769D01*
X11253515Y-15239769D02*
X11253515Y-15287388D01*
X11253515Y-15287388D02*
X11243991Y-15306436D01*
X11243991Y-15306436D02*
X11234468Y-15315960D01*
X11234468Y-15315960D02*
X11215420Y-15325484D01*
X11215420Y-15325484D02*
X11158277Y-15325484D01*
X11158277Y-15325484D02*
X11139230Y-15315960D01*
X11139230Y-15315960D02*
X11129706Y-15306436D01*
X11367801Y-15211198D02*
X11348753Y-15201674D01*
X11348753Y-15201674D02*
X11339229Y-15192150D01*
X11339229Y-15192150D02*
X11329706Y-15173103D01*
X11329706Y-15173103D02*
X11329706Y-15163579D01*
X11329706Y-15163579D02*
X11339229Y-15144531D01*
X11339229Y-15144531D02*
X11348753Y-15135008D01*
X11348753Y-15135008D02*
X11367801Y-15125484D01*
X11367801Y-15125484D02*
X11405896Y-15125484D01*
X11405896Y-15125484D02*
X11424944Y-15135008D01*
X11424944Y-15135008D02*
X11434468Y-15144531D01*
X11434468Y-15144531D02*
X11443991Y-15163579D01*
X11443991Y-15163579D02*
X11443991Y-15173103D01*
X11443991Y-15173103D02*
X11434468Y-15192150D01*
X11434468Y-15192150D02*
X11424944Y-15201674D01*
X11424944Y-15201674D02*
X11405896Y-15211198D01*
X11405896Y-15211198D02*
X11367801Y-15211198D01*
X11367801Y-15211198D02*
X11348753Y-15220722D01*
X11348753Y-15220722D02*
X11339229Y-15230246D01*
X11339229Y-15230246D02*
X11329706Y-15249293D01*
X11329706Y-15249293D02*
X11329706Y-15287388D01*
X11329706Y-15287388D02*
X11339229Y-15306436D01*
X11339229Y-15306436D02*
X11348753Y-15315960D01*
X11348753Y-15315960D02*
X11367801Y-15325484D01*
X11367801Y-15325484D02*
X11405896Y-15325484D01*
X11405896Y-15325484D02*
X11424944Y-15315960D01*
X11424944Y-15315960D02*
X11434468Y-15306436D01*
X11434468Y-15306436D02*
X11443991Y-15287388D01*
X11443991Y-15287388D02*
X11443991Y-15249293D01*
X11443991Y-15249293D02*
X11434468Y-15230246D01*
X11434468Y-15230246D02*
X11424944Y-15220722D01*
X11424944Y-15220722D02*
X11405896Y-15211198D01*
X11682087Y-15325484D02*
X11682087Y-15125484D01*
X11767801Y-15325484D02*
X11767801Y-15220722D01*
X11767801Y-15220722D02*
X11758277Y-15201674D01*
X11758277Y-15201674D02*
X11739230Y-15192150D01*
X11739230Y-15192150D02*
X11710658Y-15192150D01*
X11710658Y-15192150D02*
X11691610Y-15201674D01*
X11691610Y-15201674D02*
X11682087Y-15211198D01*
X11891610Y-15325484D02*
X11872563Y-15315960D01*
X11872563Y-15315960D02*
X11863039Y-15306436D01*
X11863039Y-15306436D02*
X11853515Y-15287388D01*
X11853515Y-15287388D02*
X11853515Y-15230246D01*
X11853515Y-15230246D02*
X11863039Y-15211198D01*
X11863039Y-15211198D02*
X11872563Y-15201674D01*
X11872563Y-15201674D02*
X11891610Y-15192150D01*
X11891610Y-15192150D02*
X11920182Y-15192150D01*
X11920182Y-15192150D02*
X11939230Y-15201674D01*
X11939230Y-15201674D02*
X11948753Y-15211198D01*
X11948753Y-15211198D02*
X11958277Y-15230246D01*
X11958277Y-15230246D02*
X11958277Y-15287388D01*
X11958277Y-15287388D02*
X11948753Y-15306436D01*
X11948753Y-15306436D02*
X11939230Y-15315960D01*
X11939230Y-15315960D02*
X11920182Y-15325484D01*
X11920182Y-15325484D02*
X11891610Y-15325484D01*
X12072563Y-15325484D02*
X12053515Y-15315960D01*
X12053515Y-15315960D02*
X12043991Y-15296912D01*
X12043991Y-15296912D02*
X12043991Y-15125484D01*
X12224944Y-15315960D02*
X12205896Y-15325484D01*
X12205896Y-15325484D02*
X12167801Y-15325484D01*
X12167801Y-15325484D02*
X12148753Y-15315960D01*
X12148753Y-15315960D02*
X12139230Y-15296912D01*
X12139230Y-15296912D02*
X12139230Y-15220722D01*
X12139230Y-15220722D02*
X12148753Y-15201674D01*
X12148753Y-15201674D02*
X12167801Y-15192150D01*
X12167801Y-15192150D02*
X12205896Y-15192150D01*
X12205896Y-15192150D02*
X12224944Y-15201674D01*
X12224944Y-15201674D02*
X12234468Y-15220722D01*
X12234468Y-15220722D02*
X12234468Y-15239769D01*
X12234468Y-15239769D02*
X12139230Y-15258817D01*
X12310658Y-15315960D02*
X12329706Y-15325484D01*
X12329706Y-15325484D02*
X12367801Y-15325484D01*
X12367801Y-15325484D02*
X12386849Y-15315960D01*
X12386849Y-15315960D02*
X12396372Y-15296912D01*
X12396372Y-15296912D02*
X12396372Y-15287388D01*
X12396372Y-15287388D02*
X12386849Y-15268341D01*
X12386849Y-15268341D02*
X12367801Y-15258817D01*
X12367801Y-15258817D02*
X12339230Y-15258817D01*
X12339230Y-15258817D02*
X12320182Y-15249293D01*
X12320182Y-15249293D02*
X12310658Y-15230246D01*
X12310658Y-15230246D02*
X12310658Y-15220722D01*
X12310658Y-15220722D02*
X12320182Y-15201674D01*
X12320182Y-15201674D02*
X12339230Y-15192150D01*
X12339230Y-15192150D02*
X12367801Y-15192150D01*
X12367801Y-15192150D02*
X12386849Y-15201674D01*
X12463039Y-15401674D02*
X12472563Y-15392150D01*
X12472563Y-15392150D02*
X12491611Y-15363579D01*
X12491611Y-15363579D02*
X12501134Y-15344531D01*
X12501134Y-15344531D02*
X12510658Y-15315960D01*
X12510658Y-15315960D02*
X12520182Y-15268341D01*
X12520182Y-15268341D02*
X12520182Y-15230246D01*
X12520182Y-15230246D02*
X12510658Y-15182627D01*
X12510658Y-15182627D02*
X12501134Y-15154055D01*
X12501134Y-15154055D02*
X12491611Y-15135008D01*
X12491611Y-15135008D02*
X12472563Y-15106436D01*
X12472563Y-15106436D02*
X12463039Y-15096912D01*
D18*
X7387500Y-15443000D02*
X7497500Y-15553000D01*
X7497500Y-15443000D02*
X7387500Y-15553000D01*
X7481391Y-15536891D02*
X7481391Y-15459109D01*
X7403609Y-15459109D01*
X7403609Y-15536891D01*
X7481391Y-15536891D01*
D11*
X7863039Y-15589484D02*
X7748753Y-15589484D01*
X7805896Y-15589484D02*
X7805896Y-15389484D01*
X7805896Y-15389484D02*
X7786848Y-15418055D01*
X7786848Y-15418055D02*
X7767801Y-15437103D01*
X7767801Y-15437103D02*
X7748753Y-15446627D01*
X7948753Y-15570436D02*
X7958277Y-15579960D01*
X7958277Y-15579960D02*
X7948753Y-15589484D01*
X7948753Y-15589484D02*
X7939229Y-15579960D01*
X7939229Y-15579960D02*
X7948753Y-15570436D01*
X7948753Y-15570436D02*
X7948753Y-15589484D01*
X8148753Y-15589484D02*
X8034467Y-15589484D01*
X8091610Y-15589484D02*
X8091610Y-15389484D01*
X8091610Y-15389484D02*
X8072562Y-15418055D01*
X8072562Y-15418055D02*
X8053515Y-15437103D01*
X8053515Y-15437103D02*
X8034467Y-15446627D01*
X8272562Y-15389484D02*
X8291610Y-15389484D01*
X8291610Y-15389484D02*
X8310658Y-15399008D01*
X8310658Y-15399008D02*
X8320182Y-15408531D01*
X8320182Y-15408531D02*
X8329705Y-15427579D01*
X8329705Y-15427579D02*
X8339229Y-15465674D01*
X8339229Y-15465674D02*
X8339229Y-15513293D01*
X8339229Y-15513293D02*
X8329705Y-15551388D01*
X8329705Y-15551388D02*
X8320182Y-15570436D01*
X8320182Y-15570436D02*
X8310658Y-15579960D01*
X8310658Y-15579960D02*
X8291610Y-15589484D01*
X8291610Y-15589484D02*
X8272562Y-15589484D01*
X8272562Y-15589484D02*
X8253515Y-15579960D01*
X8253515Y-15579960D02*
X8243991Y-15570436D01*
X8243991Y-15570436D02*
X8234467Y-15551388D01*
X8234467Y-15551388D02*
X8224943Y-15513293D01*
X8224943Y-15513293D02*
X8224943Y-15465674D01*
X8224943Y-15465674D02*
X8234467Y-15427579D01*
X8234467Y-15427579D02*
X8243991Y-15408531D01*
X8243991Y-15408531D02*
X8253515Y-15399008D01*
X8253515Y-15399008D02*
X8272562Y-15389484D01*
X8463039Y-15389484D02*
X8482086Y-15389484D01*
X8482086Y-15389484D02*
X8501134Y-15399008D01*
X8501134Y-15399008D02*
X8510658Y-15408531D01*
X8510658Y-15408531D02*
X8520182Y-15427579D01*
X8520182Y-15427579D02*
X8529705Y-15465674D01*
X8529705Y-15465674D02*
X8529705Y-15513293D01*
X8529705Y-15513293D02*
X8520182Y-15551388D01*
X8520182Y-15551388D02*
X8510658Y-15570436D01*
X8510658Y-15570436D02*
X8501134Y-15579960D01*
X8501134Y-15579960D02*
X8482086Y-15589484D01*
X8482086Y-15589484D02*
X8463039Y-15589484D01*
X8463039Y-15589484D02*
X8443991Y-15579960D01*
X8443991Y-15579960D02*
X8434467Y-15570436D01*
X8434467Y-15570436D02*
X8424944Y-15551388D01*
X8424944Y-15551388D02*
X8415420Y-15513293D01*
X8415420Y-15513293D02*
X8415420Y-15465674D01*
X8415420Y-15465674D02*
X8424944Y-15427579D01*
X8424944Y-15427579D02*
X8434467Y-15408531D01*
X8434467Y-15408531D02*
X8443991Y-15399008D01*
X8443991Y-15399008D02*
X8463039Y-15389484D01*
X8615420Y-15589484D02*
X8615420Y-15456150D01*
X8615420Y-15475198D02*
X8624944Y-15465674D01*
X8624944Y-15465674D02*
X8643991Y-15456150D01*
X8643991Y-15456150D02*
X8672563Y-15456150D01*
X8672563Y-15456150D02*
X8691610Y-15465674D01*
X8691610Y-15465674D02*
X8701134Y-15484722D01*
X8701134Y-15484722D02*
X8701134Y-15589484D01*
X8701134Y-15484722D02*
X8710658Y-15465674D01*
X8710658Y-15465674D02*
X8729705Y-15456150D01*
X8729705Y-15456150D02*
X8758277Y-15456150D01*
X8758277Y-15456150D02*
X8777325Y-15465674D01*
X8777325Y-15465674D02*
X8786848Y-15484722D01*
X8786848Y-15484722D02*
X8786848Y-15589484D01*
X8882086Y-15589484D02*
X8882086Y-15456150D01*
X8882086Y-15475198D02*
X8891610Y-15465674D01*
X8891610Y-15465674D02*
X8910658Y-15456150D01*
X8910658Y-15456150D02*
X8939229Y-15456150D01*
X8939229Y-15456150D02*
X8958277Y-15465674D01*
X8958277Y-15465674D02*
X8967801Y-15484722D01*
X8967801Y-15484722D02*
X8967801Y-15589484D01*
X8967801Y-15484722D02*
X8977325Y-15465674D01*
X8977325Y-15465674D02*
X8996372Y-15456150D01*
X8996372Y-15456150D02*
X9024944Y-15456150D01*
X9024944Y-15456150D02*
X9043991Y-15465674D01*
X9043991Y-15465674D02*
X9053515Y-15484722D01*
X9053515Y-15484722D02*
X9053515Y-15589484D01*
X9443991Y-15379960D02*
X9272563Y-15637103D01*
X9701134Y-15389484D02*
X9720182Y-15389484D01*
X9720182Y-15389484D02*
X9739229Y-15399008D01*
X9739229Y-15399008D02*
X9748753Y-15408531D01*
X9748753Y-15408531D02*
X9758277Y-15427579D01*
X9758277Y-15427579D02*
X9767801Y-15465674D01*
X9767801Y-15465674D02*
X9767801Y-15513293D01*
X9767801Y-15513293D02*
X9758277Y-15551388D01*
X9758277Y-15551388D02*
X9748753Y-15570436D01*
X9748753Y-15570436D02*
X9739229Y-15579960D01*
X9739229Y-15579960D02*
X9720182Y-15589484D01*
X9720182Y-15589484D02*
X9701134Y-15589484D01*
X9701134Y-15589484D02*
X9682087Y-15579960D01*
X9682087Y-15579960D02*
X9672563Y-15570436D01*
X9672563Y-15570436D02*
X9663039Y-15551388D01*
X9663039Y-15551388D02*
X9653515Y-15513293D01*
X9653515Y-15513293D02*
X9653515Y-15465674D01*
X9653515Y-15465674D02*
X9663039Y-15427579D01*
X9663039Y-15427579D02*
X9672563Y-15408531D01*
X9672563Y-15408531D02*
X9682087Y-15399008D01*
X9682087Y-15399008D02*
X9701134Y-15389484D01*
X9853515Y-15570436D02*
X9863039Y-15579960D01*
X9863039Y-15579960D02*
X9853515Y-15589484D01*
X9853515Y-15589484D02*
X9843991Y-15579960D01*
X9843991Y-15579960D02*
X9853515Y-15570436D01*
X9853515Y-15570436D02*
X9853515Y-15589484D01*
X9986848Y-15389484D02*
X10005896Y-15389484D01*
X10005896Y-15389484D02*
X10024944Y-15399008D01*
X10024944Y-15399008D02*
X10034468Y-15408531D01*
X10034468Y-15408531D02*
X10043991Y-15427579D01*
X10043991Y-15427579D02*
X10053515Y-15465674D01*
X10053515Y-15465674D02*
X10053515Y-15513293D01*
X10053515Y-15513293D02*
X10043991Y-15551388D01*
X10043991Y-15551388D02*
X10034468Y-15570436D01*
X10034468Y-15570436D02*
X10024944Y-15579960D01*
X10024944Y-15579960D02*
X10005896Y-15589484D01*
X10005896Y-15589484D02*
X9986848Y-15589484D01*
X9986848Y-15589484D02*
X9967801Y-15579960D01*
X9967801Y-15579960D02*
X9958277Y-15570436D01*
X9958277Y-15570436D02*
X9948753Y-15551388D01*
X9948753Y-15551388D02*
X9939229Y-15513293D01*
X9939229Y-15513293D02*
X9939229Y-15465674D01*
X9939229Y-15465674D02*
X9948753Y-15427579D01*
X9948753Y-15427579D02*
X9958277Y-15408531D01*
X9958277Y-15408531D02*
X9967801Y-15399008D01*
X9967801Y-15399008D02*
X9986848Y-15389484D01*
X10224944Y-15456150D02*
X10224944Y-15589484D01*
X10177325Y-15379960D02*
X10129706Y-15522817D01*
X10129706Y-15522817D02*
X10253515Y-15522817D01*
X10310658Y-15389484D02*
X10434468Y-15389484D01*
X10434468Y-15389484D02*
X10367801Y-15465674D01*
X10367801Y-15465674D02*
X10396372Y-15465674D01*
X10396372Y-15465674D02*
X10415420Y-15475198D01*
X10415420Y-15475198D02*
X10424944Y-15484722D01*
X10424944Y-15484722D02*
X10434468Y-15503769D01*
X10434468Y-15503769D02*
X10434468Y-15551388D01*
X10434468Y-15551388D02*
X10424944Y-15570436D01*
X10424944Y-15570436D02*
X10415420Y-15579960D01*
X10415420Y-15579960D02*
X10396372Y-15589484D01*
X10396372Y-15589484D02*
X10339229Y-15589484D01*
X10339229Y-15589484D02*
X10320182Y-15579960D01*
X10320182Y-15579960D02*
X10310658Y-15570436D01*
X10501134Y-15389484D02*
X10624944Y-15389484D01*
X10624944Y-15389484D02*
X10558277Y-15465674D01*
X10558277Y-15465674D02*
X10586849Y-15465674D01*
X10586849Y-15465674D02*
X10605896Y-15475198D01*
X10605896Y-15475198D02*
X10615420Y-15484722D01*
X10615420Y-15484722D02*
X10624944Y-15503769D01*
X10624944Y-15503769D02*
X10624944Y-15551388D01*
X10624944Y-15551388D02*
X10615420Y-15570436D01*
X10615420Y-15570436D02*
X10605896Y-15579960D01*
X10605896Y-15579960D02*
X10586849Y-15589484D01*
X10586849Y-15589484D02*
X10529706Y-15589484D01*
X10529706Y-15589484D02*
X10510658Y-15579960D01*
X10510658Y-15579960D02*
X10501134Y-15570436D01*
X10701134Y-15389484D02*
X10701134Y-15427579D01*
X10777325Y-15389484D02*
X10777325Y-15427579D01*
X11072563Y-15665674D02*
X11063039Y-15656150D01*
X11063039Y-15656150D02*
X11043991Y-15627579D01*
X11043991Y-15627579D02*
X11034468Y-15608531D01*
X11034468Y-15608531D02*
X11024944Y-15579960D01*
X11024944Y-15579960D02*
X11015420Y-15532341D01*
X11015420Y-15532341D02*
X11015420Y-15494246D01*
X11015420Y-15494246D02*
X11024944Y-15446627D01*
X11024944Y-15446627D02*
X11034468Y-15418055D01*
X11034468Y-15418055D02*
X11043991Y-15399008D01*
X11043991Y-15399008D02*
X11063039Y-15370436D01*
X11063039Y-15370436D02*
X11072563Y-15360912D01*
X11243991Y-15389484D02*
X11148753Y-15389484D01*
X11148753Y-15389484D02*
X11139230Y-15484722D01*
X11139230Y-15484722D02*
X11148753Y-15475198D01*
X11148753Y-15475198D02*
X11167801Y-15465674D01*
X11167801Y-15465674D02*
X11215420Y-15465674D01*
X11215420Y-15465674D02*
X11234468Y-15475198D01*
X11234468Y-15475198D02*
X11243991Y-15484722D01*
X11243991Y-15484722D02*
X11253515Y-15503769D01*
X11253515Y-15503769D02*
X11253515Y-15551388D01*
X11253515Y-15551388D02*
X11243991Y-15570436D01*
X11243991Y-15570436D02*
X11234468Y-15579960D01*
X11234468Y-15579960D02*
X11215420Y-15589484D01*
X11215420Y-15589484D02*
X11167801Y-15589484D01*
X11167801Y-15589484D02*
X11148753Y-15579960D01*
X11148753Y-15579960D02*
X11139230Y-15570436D01*
X11491610Y-15589484D02*
X11491610Y-15389484D01*
X11577325Y-15589484D02*
X11577325Y-15484722D01*
X11577325Y-15484722D02*
X11567801Y-15465674D01*
X11567801Y-15465674D02*
X11548753Y-15456150D01*
X11548753Y-15456150D02*
X11520182Y-15456150D01*
X11520182Y-15456150D02*
X11501134Y-15465674D01*
X11501134Y-15465674D02*
X11491610Y-15475198D01*
X11701134Y-15589484D02*
X11682087Y-15579960D01*
X11682087Y-15579960D02*
X11672563Y-15570436D01*
X11672563Y-15570436D02*
X11663039Y-15551388D01*
X11663039Y-15551388D02*
X11663039Y-15494246D01*
X11663039Y-15494246D02*
X11672563Y-15475198D01*
X11672563Y-15475198D02*
X11682087Y-15465674D01*
X11682087Y-15465674D02*
X11701134Y-15456150D01*
X11701134Y-15456150D02*
X11729706Y-15456150D01*
X11729706Y-15456150D02*
X11748753Y-15465674D01*
X11748753Y-15465674D02*
X11758277Y-15475198D01*
X11758277Y-15475198D02*
X11767801Y-15494246D01*
X11767801Y-15494246D02*
X11767801Y-15551388D01*
X11767801Y-15551388D02*
X11758277Y-15570436D01*
X11758277Y-15570436D02*
X11748753Y-15579960D01*
X11748753Y-15579960D02*
X11729706Y-15589484D01*
X11729706Y-15589484D02*
X11701134Y-15589484D01*
X11882087Y-15589484D02*
X11863039Y-15579960D01*
X11863039Y-15579960D02*
X11853515Y-15560912D01*
X11853515Y-15560912D02*
X11853515Y-15389484D01*
X12034468Y-15579960D02*
X12015420Y-15589484D01*
X12015420Y-15589484D02*
X11977325Y-15589484D01*
X11977325Y-15589484D02*
X11958277Y-15579960D01*
X11958277Y-15579960D02*
X11948753Y-15560912D01*
X11948753Y-15560912D02*
X11948753Y-15484722D01*
X11948753Y-15484722D02*
X11958277Y-15465674D01*
X11958277Y-15465674D02*
X11977325Y-15456150D01*
X11977325Y-15456150D02*
X12015420Y-15456150D01*
X12015420Y-15456150D02*
X12034468Y-15465674D01*
X12034468Y-15465674D02*
X12043991Y-15484722D01*
X12043991Y-15484722D02*
X12043991Y-15503769D01*
X12043991Y-15503769D02*
X11948753Y-15522817D01*
X12120182Y-15579960D02*
X12139230Y-15589484D01*
X12139230Y-15589484D02*
X12177325Y-15589484D01*
X12177325Y-15589484D02*
X12196372Y-15579960D01*
X12196372Y-15579960D02*
X12205896Y-15560912D01*
X12205896Y-15560912D02*
X12205896Y-15551388D01*
X12205896Y-15551388D02*
X12196372Y-15532341D01*
X12196372Y-15532341D02*
X12177325Y-15522817D01*
X12177325Y-15522817D02*
X12148753Y-15522817D01*
X12148753Y-15522817D02*
X12129706Y-15513293D01*
X12129706Y-15513293D02*
X12120182Y-15494246D01*
X12120182Y-15494246D02*
X12120182Y-15484722D01*
X12120182Y-15484722D02*
X12129706Y-15465674D01*
X12129706Y-15465674D02*
X12148753Y-15456150D01*
X12148753Y-15456150D02*
X12177325Y-15456150D01*
X12177325Y-15456150D02*
X12196372Y-15465674D01*
X12272563Y-15665674D02*
X12282087Y-15656150D01*
X12282087Y-15656150D02*
X12301134Y-15627579D01*
X12301134Y-15627579D02*
X12310658Y-15608531D01*
X12310658Y-15608531D02*
X12320182Y-15579960D01*
X12320182Y-15579960D02*
X12329706Y-15532341D01*
X12329706Y-15532341D02*
X12329706Y-15494246D01*
X12329706Y-15494246D02*
X12320182Y-15446627D01*
X12320182Y-15446627D02*
X12310658Y-15418055D01*
X12310658Y-15418055D02*
X12301134Y-15399008D01*
X12301134Y-15399008D02*
X12282087Y-15370436D01*
X12282087Y-15370436D02*
X12272563Y-15360912D01*
D19*
X7367500Y-15697000D02*
X7497500Y-15827000D01*
X7497500Y-15697000D02*
X7367500Y-15827000D01*
X7432500Y-15827000D02*
X7497500Y-15762000D01*
X7432500Y-15697000D01*
X7367500Y-15762000D01*
X7432500Y-15827000D01*
D11*
X7863039Y-15853484D02*
X7748753Y-15853484D01*
X7805896Y-15853484D02*
X7805896Y-15653484D01*
X7805896Y-15653484D02*
X7786848Y-15682055D01*
X7786848Y-15682055D02*
X7767801Y-15701103D01*
X7767801Y-15701103D02*
X7748753Y-15710627D01*
X7948753Y-15834436D02*
X7958277Y-15843960D01*
X7958277Y-15843960D02*
X7948753Y-15853484D01*
X7948753Y-15853484D02*
X7939229Y-15843960D01*
X7939229Y-15843960D02*
X7948753Y-15834436D01*
X7948753Y-15834436D02*
X7948753Y-15853484D01*
X8024943Y-15653484D02*
X8148753Y-15653484D01*
X8148753Y-15653484D02*
X8082086Y-15729674D01*
X8082086Y-15729674D02*
X8110658Y-15729674D01*
X8110658Y-15729674D02*
X8129705Y-15739198D01*
X8129705Y-15739198D02*
X8139229Y-15748722D01*
X8139229Y-15748722D02*
X8148753Y-15767769D01*
X8148753Y-15767769D02*
X8148753Y-15815388D01*
X8148753Y-15815388D02*
X8139229Y-15834436D01*
X8139229Y-15834436D02*
X8129705Y-15843960D01*
X8129705Y-15843960D02*
X8110658Y-15853484D01*
X8110658Y-15853484D02*
X8053515Y-15853484D01*
X8053515Y-15853484D02*
X8034467Y-15843960D01*
X8034467Y-15843960D02*
X8024943Y-15834436D01*
X8272562Y-15653484D02*
X8291610Y-15653484D01*
X8291610Y-15653484D02*
X8310658Y-15663008D01*
X8310658Y-15663008D02*
X8320182Y-15672531D01*
X8320182Y-15672531D02*
X8329705Y-15691579D01*
X8329705Y-15691579D02*
X8339229Y-15729674D01*
X8339229Y-15729674D02*
X8339229Y-15777293D01*
X8339229Y-15777293D02*
X8329705Y-15815388D01*
X8329705Y-15815388D02*
X8320182Y-15834436D01*
X8320182Y-15834436D02*
X8310658Y-15843960D01*
X8310658Y-15843960D02*
X8291610Y-15853484D01*
X8291610Y-15853484D02*
X8272562Y-15853484D01*
X8272562Y-15853484D02*
X8253515Y-15843960D01*
X8253515Y-15843960D02*
X8243991Y-15834436D01*
X8243991Y-15834436D02*
X8234467Y-15815388D01*
X8234467Y-15815388D02*
X8224943Y-15777293D01*
X8224943Y-15777293D02*
X8224943Y-15729674D01*
X8224943Y-15729674D02*
X8234467Y-15691579D01*
X8234467Y-15691579D02*
X8243991Y-15672531D01*
X8243991Y-15672531D02*
X8253515Y-15663008D01*
X8253515Y-15663008D02*
X8272562Y-15653484D01*
X8463039Y-15653484D02*
X8482086Y-15653484D01*
X8482086Y-15653484D02*
X8501134Y-15663008D01*
X8501134Y-15663008D02*
X8510658Y-15672531D01*
X8510658Y-15672531D02*
X8520182Y-15691579D01*
X8520182Y-15691579D02*
X8529705Y-15729674D01*
X8529705Y-15729674D02*
X8529705Y-15777293D01*
X8529705Y-15777293D02*
X8520182Y-15815388D01*
X8520182Y-15815388D02*
X8510658Y-15834436D01*
X8510658Y-15834436D02*
X8501134Y-15843960D01*
X8501134Y-15843960D02*
X8482086Y-15853484D01*
X8482086Y-15853484D02*
X8463039Y-15853484D01*
X8463039Y-15853484D02*
X8443991Y-15843960D01*
X8443991Y-15843960D02*
X8434467Y-15834436D01*
X8434467Y-15834436D02*
X8424944Y-15815388D01*
X8424944Y-15815388D02*
X8415420Y-15777293D01*
X8415420Y-15777293D02*
X8415420Y-15729674D01*
X8415420Y-15729674D02*
X8424944Y-15691579D01*
X8424944Y-15691579D02*
X8434467Y-15672531D01*
X8434467Y-15672531D02*
X8443991Y-15663008D01*
X8443991Y-15663008D02*
X8463039Y-15653484D01*
X8615420Y-15853484D02*
X8615420Y-15720150D01*
X8615420Y-15739198D02*
X8624944Y-15729674D01*
X8624944Y-15729674D02*
X8643991Y-15720150D01*
X8643991Y-15720150D02*
X8672563Y-15720150D01*
X8672563Y-15720150D02*
X8691610Y-15729674D01*
X8691610Y-15729674D02*
X8701134Y-15748722D01*
X8701134Y-15748722D02*
X8701134Y-15853484D01*
X8701134Y-15748722D02*
X8710658Y-15729674D01*
X8710658Y-15729674D02*
X8729705Y-15720150D01*
X8729705Y-15720150D02*
X8758277Y-15720150D01*
X8758277Y-15720150D02*
X8777325Y-15729674D01*
X8777325Y-15729674D02*
X8786848Y-15748722D01*
X8786848Y-15748722D02*
X8786848Y-15853484D01*
X8882086Y-15853484D02*
X8882086Y-15720150D01*
X8882086Y-15739198D02*
X8891610Y-15729674D01*
X8891610Y-15729674D02*
X8910658Y-15720150D01*
X8910658Y-15720150D02*
X8939229Y-15720150D01*
X8939229Y-15720150D02*
X8958277Y-15729674D01*
X8958277Y-15729674D02*
X8967801Y-15748722D01*
X8967801Y-15748722D02*
X8967801Y-15853484D01*
X8967801Y-15748722D02*
X8977325Y-15729674D01*
X8977325Y-15729674D02*
X8996372Y-15720150D01*
X8996372Y-15720150D02*
X9024944Y-15720150D01*
X9024944Y-15720150D02*
X9043991Y-15729674D01*
X9043991Y-15729674D02*
X9053515Y-15748722D01*
X9053515Y-15748722D02*
X9053515Y-15853484D01*
X9443991Y-15643960D02*
X9272563Y-15901103D01*
X9701134Y-15653484D02*
X9720182Y-15653484D01*
X9720182Y-15653484D02*
X9739229Y-15663008D01*
X9739229Y-15663008D02*
X9748753Y-15672531D01*
X9748753Y-15672531D02*
X9758277Y-15691579D01*
X9758277Y-15691579D02*
X9767801Y-15729674D01*
X9767801Y-15729674D02*
X9767801Y-15777293D01*
X9767801Y-15777293D02*
X9758277Y-15815388D01*
X9758277Y-15815388D02*
X9748753Y-15834436D01*
X9748753Y-15834436D02*
X9739229Y-15843960D01*
X9739229Y-15843960D02*
X9720182Y-15853484D01*
X9720182Y-15853484D02*
X9701134Y-15853484D01*
X9701134Y-15853484D02*
X9682087Y-15843960D01*
X9682087Y-15843960D02*
X9672563Y-15834436D01*
X9672563Y-15834436D02*
X9663039Y-15815388D01*
X9663039Y-15815388D02*
X9653515Y-15777293D01*
X9653515Y-15777293D02*
X9653515Y-15729674D01*
X9653515Y-15729674D02*
X9663039Y-15691579D01*
X9663039Y-15691579D02*
X9672563Y-15672531D01*
X9672563Y-15672531D02*
X9682087Y-15663008D01*
X9682087Y-15663008D02*
X9701134Y-15653484D01*
X9853515Y-15834436D02*
X9863039Y-15843960D01*
X9863039Y-15843960D02*
X9853515Y-15853484D01*
X9853515Y-15853484D02*
X9843991Y-15843960D01*
X9843991Y-15843960D02*
X9853515Y-15834436D01*
X9853515Y-15834436D02*
X9853515Y-15853484D01*
X9986848Y-15653484D02*
X10005896Y-15653484D01*
X10005896Y-15653484D02*
X10024944Y-15663008D01*
X10024944Y-15663008D02*
X10034468Y-15672531D01*
X10034468Y-15672531D02*
X10043991Y-15691579D01*
X10043991Y-15691579D02*
X10053515Y-15729674D01*
X10053515Y-15729674D02*
X10053515Y-15777293D01*
X10053515Y-15777293D02*
X10043991Y-15815388D01*
X10043991Y-15815388D02*
X10034468Y-15834436D01*
X10034468Y-15834436D02*
X10024944Y-15843960D01*
X10024944Y-15843960D02*
X10005896Y-15853484D01*
X10005896Y-15853484D02*
X9986848Y-15853484D01*
X9986848Y-15853484D02*
X9967801Y-15843960D01*
X9967801Y-15843960D02*
X9958277Y-15834436D01*
X9958277Y-15834436D02*
X9948753Y-15815388D01*
X9948753Y-15815388D02*
X9939229Y-15777293D01*
X9939229Y-15777293D02*
X9939229Y-15729674D01*
X9939229Y-15729674D02*
X9948753Y-15691579D01*
X9948753Y-15691579D02*
X9958277Y-15672531D01*
X9958277Y-15672531D02*
X9967801Y-15663008D01*
X9967801Y-15663008D02*
X9986848Y-15653484D01*
X10234468Y-15653484D02*
X10139229Y-15653484D01*
X10139229Y-15653484D02*
X10129706Y-15748722D01*
X10129706Y-15748722D02*
X10139229Y-15739198D01*
X10139229Y-15739198D02*
X10158277Y-15729674D01*
X10158277Y-15729674D02*
X10205896Y-15729674D01*
X10205896Y-15729674D02*
X10224944Y-15739198D01*
X10224944Y-15739198D02*
X10234468Y-15748722D01*
X10234468Y-15748722D02*
X10243991Y-15767769D01*
X10243991Y-15767769D02*
X10243991Y-15815388D01*
X10243991Y-15815388D02*
X10234468Y-15834436D01*
X10234468Y-15834436D02*
X10224944Y-15843960D01*
X10224944Y-15843960D02*
X10205896Y-15853484D01*
X10205896Y-15853484D02*
X10158277Y-15853484D01*
X10158277Y-15853484D02*
X10139229Y-15843960D01*
X10139229Y-15843960D02*
X10129706Y-15834436D01*
X10434468Y-15853484D02*
X10320182Y-15853484D01*
X10377325Y-15853484D02*
X10377325Y-15653484D01*
X10377325Y-15653484D02*
X10358277Y-15682055D01*
X10358277Y-15682055D02*
X10339229Y-15701103D01*
X10339229Y-15701103D02*
X10320182Y-15710627D01*
X10510658Y-15672531D02*
X10520182Y-15663008D01*
X10520182Y-15663008D02*
X10539229Y-15653484D01*
X10539229Y-15653484D02*
X10586849Y-15653484D01*
X10586849Y-15653484D02*
X10605896Y-15663008D01*
X10605896Y-15663008D02*
X10615420Y-15672531D01*
X10615420Y-15672531D02*
X10624944Y-15691579D01*
X10624944Y-15691579D02*
X10624944Y-15710627D01*
X10624944Y-15710627D02*
X10615420Y-15739198D01*
X10615420Y-15739198D02*
X10501134Y-15853484D01*
X10501134Y-15853484D02*
X10624944Y-15853484D01*
X10701134Y-15653484D02*
X10701134Y-15691579D01*
X10777325Y-15653484D02*
X10777325Y-15691579D01*
X11072563Y-15929674D02*
X11063039Y-15920150D01*
X11063039Y-15920150D02*
X11043991Y-15891579D01*
X11043991Y-15891579D02*
X11034468Y-15872531D01*
X11034468Y-15872531D02*
X11024944Y-15843960D01*
X11024944Y-15843960D02*
X11015420Y-15796341D01*
X11015420Y-15796341D02*
X11015420Y-15758246D01*
X11015420Y-15758246D02*
X11024944Y-15710627D01*
X11024944Y-15710627D02*
X11034468Y-15682055D01*
X11034468Y-15682055D02*
X11043991Y-15663008D01*
X11043991Y-15663008D02*
X11063039Y-15634436D01*
X11063039Y-15634436D02*
X11072563Y-15624912D01*
X11139230Y-15672531D02*
X11148753Y-15663008D01*
X11148753Y-15663008D02*
X11167801Y-15653484D01*
X11167801Y-15653484D02*
X11215420Y-15653484D01*
X11215420Y-15653484D02*
X11234468Y-15663008D01*
X11234468Y-15663008D02*
X11243991Y-15672531D01*
X11243991Y-15672531D02*
X11253515Y-15691579D01*
X11253515Y-15691579D02*
X11253515Y-15710627D01*
X11253515Y-15710627D02*
X11243991Y-15739198D01*
X11243991Y-15739198D02*
X11129706Y-15853484D01*
X11129706Y-15853484D02*
X11253515Y-15853484D01*
X11491610Y-15853484D02*
X11491610Y-15653484D01*
X11577325Y-15853484D02*
X11577325Y-15748722D01*
X11577325Y-15748722D02*
X11567801Y-15729674D01*
X11567801Y-15729674D02*
X11548753Y-15720150D01*
X11548753Y-15720150D02*
X11520182Y-15720150D01*
X11520182Y-15720150D02*
X11501134Y-15729674D01*
X11501134Y-15729674D02*
X11491610Y-15739198D01*
X11701134Y-15853484D02*
X11682087Y-15843960D01*
X11682087Y-15843960D02*
X11672563Y-15834436D01*
X11672563Y-15834436D02*
X11663039Y-15815388D01*
X11663039Y-15815388D02*
X11663039Y-15758246D01*
X11663039Y-15758246D02*
X11672563Y-15739198D01*
X11672563Y-15739198D02*
X11682087Y-15729674D01*
X11682087Y-15729674D02*
X11701134Y-15720150D01*
X11701134Y-15720150D02*
X11729706Y-15720150D01*
X11729706Y-15720150D02*
X11748753Y-15729674D01*
X11748753Y-15729674D02*
X11758277Y-15739198D01*
X11758277Y-15739198D02*
X11767801Y-15758246D01*
X11767801Y-15758246D02*
X11767801Y-15815388D01*
X11767801Y-15815388D02*
X11758277Y-15834436D01*
X11758277Y-15834436D02*
X11748753Y-15843960D01*
X11748753Y-15843960D02*
X11729706Y-15853484D01*
X11729706Y-15853484D02*
X11701134Y-15853484D01*
X11882087Y-15853484D02*
X11863039Y-15843960D01*
X11863039Y-15843960D02*
X11853515Y-15824912D01*
X11853515Y-15824912D02*
X11853515Y-15653484D01*
X12034468Y-15843960D02*
X12015420Y-15853484D01*
X12015420Y-15853484D02*
X11977325Y-15853484D01*
X11977325Y-15853484D02*
X11958277Y-15843960D01*
X11958277Y-15843960D02*
X11948753Y-15824912D01*
X11948753Y-15824912D02*
X11948753Y-15748722D01*
X11948753Y-15748722D02*
X11958277Y-15729674D01*
X11958277Y-15729674D02*
X11977325Y-15720150D01*
X11977325Y-15720150D02*
X12015420Y-15720150D01*
X12015420Y-15720150D02*
X12034468Y-15729674D01*
X12034468Y-15729674D02*
X12043991Y-15748722D01*
X12043991Y-15748722D02*
X12043991Y-15767769D01*
X12043991Y-15767769D02*
X11948753Y-15786817D01*
X12120182Y-15843960D02*
X12139230Y-15853484D01*
X12139230Y-15853484D02*
X12177325Y-15853484D01*
X12177325Y-15853484D02*
X12196372Y-15843960D01*
X12196372Y-15843960D02*
X12205896Y-15824912D01*
X12205896Y-15824912D02*
X12205896Y-15815388D01*
X12205896Y-15815388D02*
X12196372Y-15796341D01*
X12196372Y-15796341D02*
X12177325Y-15786817D01*
X12177325Y-15786817D02*
X12148753Y-15786817D01*
X12148753Y-15786817D02*
X12129706Y-15777293D01*
X12129706Y-15777293D02*
X12120182Y-15758246D01*
X12120182Y-15758246D02*
X12120182Y-15748722D01*
X12120182Y-15748722D02*
X12129706Y-15729674D01*
X12129706Y-15729674D02*
X12148753Y-15720150D01*
X12148753Y-15720150D02*
X12177325Y-15720150D01*
X12177325Y-15720150D02*
X12196372Y-15729674D01*
X12272563Y-15929674D02*
X12282087Y-15920150D01*
X12282087Y-15920150D02*
X12301134Y-15891579D01*
X12301134Y-15891579D02*
X12310658Y-15872531D01*
X12310658Y-15872531D02*
X12320182Y-15843960D01*
X12320182Y-15843960D02*
X12329706Y-15796341D01*
X12329706Y-15796341D02*
X12329706Y-15758246D01*
X12329706Y-15758246D02*
X12320182Y-15710627D01*
X12320182Y-15710627D02*
X12310658Y-15682055D01*
X12310658Y-15682055D02*
X12301134Y-15663008D01*
X12301134Y-15663008D02*
X12282087Y-15634436D01*
X12282087Y-15634436D02*
X12272563Y-15624912D01*
D20*
X7417500Y-15946000D02*
X7417500Y-16106000D01*
X7337500Y-16026000D02*
X7497500Y-16026000D01*
X7497500Y-16026000D02*
G75*
G03*
X7497500Y-16026000I-80000J0D01*
G01*
D11*
X7863039Y-16117484D02*
X7748753Y-16117484D01*
X7805896Y-16117484D02*
X7805896Y-15917484D01*
X7805896Y-15917484D02*
X7786848Y-15946055D01*
X7786848Y-15946055D02*
X7767801Y-15965103D01*
X7767801Y-15965103D02*
X7748753Y-15974627D01*
X7948753Y-16098436D02*
X7958277Y-16107960D01*
X7958277Y-16107960D02*
X7948753Y-16117484D01*
X7948753Y-16117484D02*
X7939229Y-16107960D01*
X7939229Y-16107960D02*
X7948753Y-16098436D01*
X7948753Y-16098436D02*
X7948753Y-16117484D01*
X8129705Y-15917484D02*
X8091610Y-15917484D01*
X8091610Y-15917484D02*
X8072562Y-15927008D01*
X8072562Y-15927008D02*
X8063039Y-15936531D01*
X8063039Y-15936531D02*
X8043991Y-15965103D01*
X8043991Y-15965103D02*
X8034467Y-16003198D01*
X8034467Y-16003198D02*
X8034467Y-16079388D01*
X8034467Y-16079388D02*
X8043991Y-16098436D01*
X8043991Y-16098436D02*
X8053515Y-16107960D01*
X8053515Y-16107960D02*
X8072562Y-16117484D01*
X8072562Y-16117484D02*
X8110658Y-16117484D01*
X8110658Y-16117484D02*
X8129705Y-16107960D01*
X8129705Y-16107960D02*
X8139229Y-16098436D01*
X8139229Y-16098436D02*
X8148753Y-16079388D01*
X8148753Y-16079388D02*
X8148753Y-16031769D01*
X8148753Y-16031769D02*
X8139229Y-16012722D01*
X8139229Y-16012722D02*
X8129705Y-16003198D01*
X8129705Y-16003198D02*
X8110658Y-15993674D01*
X8110658Y-15993674D02*
X8072562Y-15993674D01*
X8072562Y-15993674D02*
X8053515Y-16003198D01*
X8053515Y-16003198D02*
X8043991Y-16012722D01*
X8043991Y-16012722D02*
X8034467Y-16031769D01*
X8272562Y-15917484D02*
X8291610Y-15917484D01*
X8291610Y-15917484D02*
X8310658Y-15927008D01*
X8310658Y-15927008D02*
X8320182Y-15936531D01*
X8320182Y-15936531D02*
X8329705Y-15955579D01*
X8329705Y-15955579D02*
X8339229Y-15993674D01*
X8339229Y-15993674D02*
X8339229Y-16041293D01*
X8339229Y-16041293D02*
X8329705Y-16079388D01*
X8329705Y-16079388D02*
X8320182Y-16098436D01*
X8320182Y-16098436D02*
X8310658Y-16107960D01*
X8310658Y-16107960D02*
X8291610Y-16117484D01*
X8291610Y-16117484D02*
X8272562Y-16117484D01*
X8272562Y-16117484D02*
X8253515Y-16107960D01*
X8253515Y-16107960D02*
X8243991Y-16098436D01*
X8243991Y-16098436D02*
X8234467Y-16079388D01*
X8234467Y-16079388D02*
X8224943Y-16041293D01*
X8224943Y-16041293D02*
X8224943Y-15993674D01*
X8224943Y-15993674D02*
X8234467Y-15955579D01*
X8234467Y-15955579D02*
X8243991Y-15936531D01*
X8243991Y-15936531D02*
X8253515Y-15927008D01*
X8253515Y-15927008D02*
X8272562Y-15917484D01*
X8463039Y-15917484D02*
X8482086Y-15917484D01*
X8482086Y-15917484D02*
X8501134Y-15927008D01*
X8501134Y-15927008D02*
X8510658Y-15936531D01*
X8510658Y-15936531D02*
X8520182Y-15955579D01*
X8520182Y-15955579D02*
X8529705Y-15993674D01*
X8529705Y-15993674D02*
X8529705Y-16041293D01*
X8529705Y-16041293D02*
X8520182Y-16079388D01*
X8520182Y-16079388D02*
X8510658Y-16098436D01*
X8510658Y-16098436D02*
X8501134Y-16107960D01*
X8501134Y-16107960D02*
X8482086Y-16117484D01*
X8482086Y-16117484D02*
X8463039Y-16117484D01*
X8463039Y-16117484D02*
X8443991Y-16107960D01*
X8443991Y-16107960D02*
X8434467Y-16098436D01*
X8434467Y-16098436D02*
X8424944Y-16079388D01*
X8424944Y-16079388D02*
X8415420Y-16041293D01*
X8415420Y-16041293D02*
X8415420Y-15993674D01*
X8415420Y-15993674D02*
X8424944Y-15955579D01*
X8424944Y-15955579D02*
X8434467Y-15936531D01*
X8434467Y-15936531D02*
X8443991Y-15927008D01*
X8443991Y-15927008D02*
X8463039Y-15917484D01*
X8615420Y-16117484D02*
X8615420Y-15984150D01*
X8615420Y-16003198D02*
X8624944Y-15993674D01*
X8624944Y-15993674D02*
X8643991Y-15984150D01*
X8643991Y-15984150D02*
X8672563Y-15984150D01*
X8672563Y-15984150D02*
X8691610Y-15993674D01*
X8691610Y-15993674D02*
X8701134Y-16012722D01*
X8701134Y-16012722D02*
X8701134Y-16117484D01*
X8701134Y-16012722D02*
X8710658Y-15993674D01*
X8710658Y-15993674D02*
X8729705Y-15984150D01*
X8729705Y-15984150D02*
X8758277Y-15984150D01*
X8758277Y-15984150D02*
X8777325Y-15993674D01*
X8777325Y-15993674D02*
X8786848Y-16012722D01*
X8786848Y-16012722D02*
X8786848Y-16117484D01*
X8882086Y-16117484D02*
X8882086Y-15984150D01*
X8882086Y-16003198D02*
X8891610Y-15993674D01*
X8891610Y-15993674D02*
X8910658Y-15984150D01*
X8910658Y-15984150D02*
X8939229Y-15984150D01*
X8939229Y-15984150D02*
X8958277Y-15993674D01*
X8958277Y-15993674D02*
X8967801Y-16012722D01*
X8967801Y-16012722D02*
X8967801Y-16117484D01*
X8967801Y-16012722D02*
X8977325Y-15993674D01*
X8977325Y-15993674D02*
X8996372Y-15984150D01*
X8996372Y-15984150D02*
X9024944Y-15984150D01*
X9024944Y-15984150D02*
X9043991Y-15993674D01*
X9043991Y-15993674D02*
X9053515Y-16012722D01*
X9053515Y-16012722D02*
X9053515Y-16117484D01*
X9443991Y-15907960D02*
X9272563Y-16165103D01*
X9701134Y-15917484D02*
X9720182Y-15917484D01*
X9720182Y-15917484D02*
X9739229Y-15927008D01*
X9739229Y-15927008D02*
X9748753Y-15936531D01*
X9748753Y-15936531D02*
X9758277Y-15955579D01*
X9758277Y-15955579D02*
X9767801Y-15993674D01*
X9767801Y-15993674D02*
X9767801Y-16041293D01*
X9767801Y-16041293D02*
X9758277Y-16079388D01*
X9758277Y-16079388D02*
X9748753Y-16098436D01*
X9748753Y-16098436D02*
X9739229Y-16107960D01*
X9739229Y-16107960D02*
X9720182Y-16117484D01*
X9720182Y-16117484D02*
X9701134Y-16117484D01*
X9701134Y-16117484D02*
X9682087Y-16107960D01*
X9682087Y-16107960D02*
X9672563Y-16098436D01*
X9672563Y-16098436D02*
X9663039Y-16079388D01*
X9663039Y-16079388D02*
X9653515Y-16041293D01*
X9653515Y-16041293D02*
X9653515Y-15993674D01*
X9653515Y-15993674D02*
X9663039Y-15955579D01*
X9663039Y-15955579D02*
X9672563Y-15936531D01*
X9672563Y-15936531D02*
X9682087Y-15927008D01*
X9682087Y-15927008D02*
X9701134Y-15917484D01*
X9853515Y-16098436D02*
X9863039Y-16107960D01*
X9863039Y-16107960D02*
X9853515Y-16117484D01*
X9853515Y-16117484D02*
X9843991Y-16107960D01*
X9843991Y-16107960D02*
X9853515Y-16098436D01*
X9853515Y-16098436D02*
X9853515Y-16117484D01*
X9986848Y-15917484D02*
X10005896Y-15917484D01*
X10005896Y-15917484D02*
X10024944Y-15927008D01*
X10024944Y-15927008D02*
X10034468Y-15936531D01*
X10034468Y-15936531D02*
X10043991Y-15955579D01*
X10043991Y-15955579D02*
X10053515Y-15993674D01*
X10053515Y-15993674D02*
X10053515Y-16041293D01*
X10053515Y-16041293D02*
X10043991Y-16079388D01*
X10043991Y-16079388D02*
X10034468Y-16098436D01*
X10034468Y-16098436D02*
X10024944Y-16107960D01*
X10024944Y-16107960D02*
X10005896Y-16117484D01*
X10005896Y-16117484D02*
X9986848Y-16117484D01*
X9986848Y-16117484D02*
X9967801Y-16107960D01*
X9967801Y-16107960D02*
X9958277Y-16098436D01*
X9958277Y-16098436D02*
X9948753Y-16079388D01*
X9948753Y-16079388D02*
X9939229Y-16041293D01*
X9939229Y-16041293D02*
X9939229Y-15993674D01*
X9939229Y-15993674D02*
X9948753Y-15955579D01*
X9948753Y-15955579D02*
X9958277Y-15936531D01*
X9958277Y-15936531D02*
X9967801Y-15927008D01*
X9967801Y-15927008D02*
X9986848Y-15917484D01*
X10224944Y-15917484D02*
X10186848Y-15917484D01*
X10186848Y-15917484D02*
X10167801Y-15927008D01*
X10167801Y-15927008D02*
X10158277Y-15936531D01*
X10158277Y-15936531D02*
X10139229Y-15965103D01*
X10139229Y-15965103D02*
X10129706Y-16003198D01*
X10129706Y-16003198D02*
X10129706Y-16079388D01*
X10129706Y-16079388D02*
X10139229Y-16098436D01*
X10139229Y-16098436D02*
X10148753Y-16107960D01*
X10148753Y-16107960D02*
X10167801Y-16117484D01*
X10167801Y-16117484D02*
X10205896Y-16117484D01*
X10205896Y-16117484D02*
X10224944Y-16107960D01*
X10224944Y-16107960D02*
X10234468Y-16098436D01*
X10234468Y-16098436D02*
X10243991Y-16079388D01*
X10243991Y-16079388D02*
X10243991Y-16031769D01*
X10243991Y-16031769D02*
X10234468Y-16012722D01*
X10234468Y-16012722D02*
X10224944Y-16003198D01*
X10224944Y-16003198D02*
X10205896Y-15993674D01*
X10205896Y-15993674D02*
X10167801Y-15993674D01*
X10167801Y-15993674D02*
X10148753Y-16003198D01*
X10148753Y-16003198D02*
X10139229Y-16012722D01*
X10139229Y-16012722D02*
X10129706Y-16031769D01*
X10310658Y-15917484D02*
X10434468Y-15917484D01*
X10434468Y-15917484D02*
X10367801Y-15993674D01*
X10367801Y-15993674D02*
X10396372Y-15993674D01*
X10396372Y-15993674D02*
X10415420Y-16003198D01*
X10415420Y-16003198D02*
X10424944Y-16012722D01*
X10424944Y-16012722D02*
X10434468Y-16031769D01*
X10434468Y-16031769D02*
X10434468Y-16079388D01*
X10434468Y-16079388D02*
X10424944Y-16098436D01*
X10424944Y-16098436D02*
X10415420Y-16107960D01*
X10415420Y-16107960D02*
X10396372Y-16117484D01*
X10396372Y-16117484D02*
X10339229Y-16117484D01*
X10339229Y-16117484D02*
X10320182Y-16107960D01*
X10320182Y-16107960D02*
X10310658Y-16098436D01*
X10558277Y-15917484D02*
X10577325Y-15917484D01*
X10577325Y-15917484D02*
X10596372Y-15927008D01*
X10596372Y-15927008D02*
X10605896Y-15936531D01*
X10605896Y-15936531D02*
X10615420Y-15955579D01*
X10615420Y-15955579D02*
X10624944Y-15993674D01*
X10624944Y-15993674D02*
X10624944Y-16041293D01*
X10624944Y-16041293D02*
X10615420Y-16079388D01*
X10615420Y-16079388D02*
X10605896Y-16098436D01*
X10605896Y-16098436D02*
X10596372Y-16107960D01*
X10596372Y-16107960D02*
X10577325Y-16117484D01*
X10577325Y-16117484D02*
X10558277Y-16117484D01*
X10558277Y-16117484D02*
X10539229Y-16107960D01*
X10539229Y-16107960D02*
X10529706Y-16098436D01*
X10529706Y-16098436D02*
X10520182Y-16079388D01*
X10520182Y-16079388D02*
X10510658Y-16041293D01*
X10510658Y-16041293D02*
X10510658Y-15993674D01*
X10510658Y-15993674D02*
X10520182Y-15955579D01*
X10520182Y-15955579D02*
X10529706Y-15936531D01*
X10529706Y-15936531D02*
X10539229Y-15927008D01*
X10539229Y-15927008D02*
X10558277Y-15917484D01*
X10701134Y-15917484D02*
X10701134Y-15955579D01*
X10777325Y-15917484D02*
X10777325Y-15955579D01*
X11072563Y-16193674D02*
X11063039Y-16184150D01*
X11063039Y-16184150D02*
X11043991Y-16155579D01*
X11043991Y-16155579D02*
X11034468Y-16136531D01*
X11034468Y-16136531D02*
X11024944Y-16107960D01*
X11024944Y-16107960D02*
X11015420Y-16060341D01*
X11015420Y-16060341D02*
X11015420Y-16022246D01*
X11015420Y-16022246D02*
X11024944Y-15974627D01*
X11024944Y-15974627D02*
X11034468Y-15946055D01*
X11034468Y-15946055D02*
X11043991Y-15927008D01*
X11043991Y-15927008D02*
X11063039Y-15898436D01*
X11063039Y-15898436D02*
X11072563Y-15888912D01*
X11139230Y-15936531D02*
X11148753Y-15927008D01*
X11148753Y-15927008D02*
X11167801Y-15917484D01*
X11167801Y-15917484D02*
X11215420Y-15917484D01*
X11215420Y-15917484D02*
X11234468Y-15927008D01*
X11234468Y-15927008D02*
X11243991Y-15936531D01*
X11243991Y-15936531D02*
X11253515Y-15955579D01*
X11253515Y-15955579D02*
X11253515Y-15974627D01*
X11253515Y-15974627D02*
X11243991Y-16003198D01*
X11243991Y-16003198D02*
X11129706Y-16117484D01*
X11129706Y-16117484D02*
X11253515Y-16117484D01*
X11491610Y-16117484D02*
X11491610Y-15917484D01*
X11577325Y-16117484D02*
X11577325Y-16012722D01*
X11577325Y-16012722D02*
X11567801Y-15993674D01*
X11567801Y-15993674D02*
X11548753Y-15984150D01*
X11548753Y-15984150D02*
X11520182Y-15984150D01*
X11520182Y-15984150D02*
X11501134Y-15993674D01*
X11501134Y-15993674D02*
X11491610Y-16003198D01*
X11701134Y-16117484D02*
X11682087Y-16107960D01*
X11682087Y-16107960D02*
X11672563Y-16098436D01*
X11672563Y-16098436D02*
X11663039Y-16079388D01*
X11663039Y-16079388D02*
X11663039Y-16022246D01*
X11663039Y-16022246D02*
X11672563Y-16003198D01*
X11672563Y-16003198D02*
X11682087Y-15993674D01*
X11682087Y-15993674D02*
X11701134Y-15984150D01*
X11701134Y-15984150D02*
X11729706Y-15984150D01*
X11729706Y-15984150D02*
X11748753Y-15993674D01*
X11748753Y-15993674D02*
X11758277Y-16003198D01*
X11758277Y-16003198D02*
X11767801Y-16022246D01*
X11767801Y-16022246D02*
X11767801Y-16079388D01*
X11767801Y-16079388D02*
X11758277Y-16098436D01*
X11758277Y-16098436D02*
X11748753Y-16107960D01*
X11748753Y-16107960D02*
X11729706Y-16117484D01*
X11729706Y-16117484D02*
X11701134Y-16117484D01*
X11882087Y-16117484D02*
X11863039Y-16107960D01*
X11863039Y-16107960D02*
X11853515Y-16088912D01*
X11853515Y-16088912D02*
X11853515Y-15917484D01*
X12034468Y-16107960D02*
X12015420Y-16117484D01*
X12015420Y-16117484D02*
X11977325Y-16117484D01*
X11977325Y-16117484D02*
X11958277Y-16107960D01*
X11958277Y-16107960D02*
X11948753Y-16088912D01*
X11948753Y-16088912D02*
X11948753Y-16012722D01*
X11948753Y-16012722D02*
X11958277Y-15993674D01*
X11958277Y-15993674D02*
X11977325Y-15984150D01*
X11977325Y-15984150D02*
X12015420Y-15984150D01*
X12015420Y-15984150D02*
X12034468Y-15993674D01*
X12034468Y-15993674D02*
X12043991Y-16012722D01*
X12043991Y-16012722D02*
X12043991Y-16031769D01*
X12043991Y-16031769D02*
X11948753Y-16050817D01*
X12120182Y-16107960D02*
X12139230Y-16117484D01*
X12139230Y-16117484D02*
X12177325Y-16117484D01*
X12177325Y-16117484D02*
X12196372Y-16107960D01*
X12196372Y-16107960D02*
X12205896Y-16088912D01*
X12205896Y-16088912D02*
X12205896Y-16079388D01*
X12205896Y-16079388D02*
X12196372Y-16060341D01*
X12196372Y-16060341D02*
X12177325Y-16050817D01*
X12177325Y-16050817D02*
X12148753Y-16050817D01*
X12148753Y-16050817D02*
X12129706Y-16041293D01*
X12129706Y-16041293D02*
X12120182Y-16022246D01*
X12120182Y-16022246D02*
X12120182Y-16012722D01*
X12120182Y-16012722D02*
X12129706Y-15993674D01*
X12129706Y-15993674D02*
X12148753Y-15984150D01*
X12148753Y-15984150D02*
X12177325Y-15984150D01*
X12177325Y-15984150D02*
X12196372Y-15993674D01*
X12272563Y-16193674D02*
X12282087Y-16184150D01*
X12282087Y-16184150D02*
X12301134Y-16155579D01*
X12301134Y-16155579D02*
X12310658Y-16136531D01*
X12310658Y-16136531D02*
X12320182Y-16107960D01*
X12320182Y-16107960D02*
X12329706Y-16060341D01*
X12329706Y-16060341D02*
X12329706Y-16022246D01*
X12329706Y-16022246D02*
X12320182Y-15974627D01*
X12320182Y-15974627D02*
X12310658Y-15946055D01*
X12310658Y-15946055D02*
X12301134Y-15927008D01*
X12301134Y-15927008D02*
X12282087Y-15898436D01*
X12282087Y-15898436D02*
X12272563Y-15888912D01*
X7468211Y-16376711D02*
X7468211Y-16235289D01*
X7326789Y-16235289D01*
X7326789Y-16376711D01*
X7468211Y-16376711D01*
X7497500Y-16306000D02*
G75*
G03*
X7497500Y-16306000I-100000J0D01*
G01*
X7748753Y-16216531D02*
X7758277Y-16207008D01*
X7758277Y-16207008D02*
X7777324Y-16197484D01*
X7777324Y-16197484D02*
X7824943Y-16197484D01*
X7824943Y-16197484D02*
X7843991Y-16207008D01*
X7843991Y-16207008D02*
X7853515Y-16216531D01*
X7853515Y-16216531D02*
X7863039Y-16235579D01*
X7863039Y-16235579D02*
X7863039Y-16254627D01*
X7863039Y-16254627D02*
X7853515Y-16283198D01*
X7853515Y-16283198D02*
X7739229Y-16397484D01*
X7739229Y-16397484D02*
X7863039Y-16397484D01*
X7948753Y-16378436D02*
X7958277Y-16387960D01*
X7958277Y-16387960D02*
X7948753Y-16397484D01*
X7948753Y-16397484D02*
X7939229Y-16387960D01*
X7939229Y-16387960D02*
X7948753Y-16378436D01*
X7948753Y-16378436D02*
X7948753Y-16397484D01*
X8034467Y-16216531D02*
X8043991Y-16207008D01*
X8043991Y-16207008D02*
X8063039Y-16197484D01*
X8063039Y-16197484D02*
X8110658Y-16197484D01*
X8110658Y-16197484D02*
X8129705Y-16207008D01*
X8129705Y-16207008D02*
X8139229Y-16216531D01*
X8139229Y-16216531D02*
X8148753Y-16235579D01*
X8148753Y-16235579D02*
X8148753Y-16254627D01*
X8148753Y-16254627D02*
X8139229Y-16283198D01*
X8139229Y-16283198D02*
X8024943Y-16397484D01*
X8024943Y-16397484D02*
X8148753Y-16397484D01*
X8272562Y-16197484D02*
X8291610Y-16197484D01*
X8291610Y-16197484D02*
X8310658Y-16207008D01*
X8310658Y-16207008D02*
X8320182Y-16216531D01*
X8320182Y-16216531D02*
X8329705Y-16235579D01*
X8329705Y-16235579D02*
X8339229Y-16273674D01*
X8339229Y-16273674D02*
X8339229Y-16321293D01*
X8339229Y-16321293D02*
X8329705Y-16359388D01*
X8329705Y-16359388D02*
X8320182Y-16378436D01*
X8320182Y-16378436D02*
X8310658Y-16387960D01*
X8310658Y-16387960D02*
X8291610Y-16397484D01*
X8291610Y-16397484D02*
X8272562Y-16397484D01*
X8272562Y-16397484D02*
X8253515Y-16387960D01*
X8253515Y-16387960D02*
X8243991Y-16378436D01*
X8243991Y-16378436D02*
X8234467Y-16359388D01*
X8234467Y-16359388D02*
X8224943Y-16321293D01*
X8224943Y-16321293D02*
X8224943Y-16273674D01*
X8224943Y-16273674D02*
X8234467Y-16235579D01*
X8234467Y-16235579D02*
X8243991Y-16216531D01*
X8243991Y-16216531D02*
X8253515Y-16207008D01*
X8253515Y-16207008D02*
X8272562Y-16197484D01*
X8463039Y-16197484D02*
X8482086Y-16197484D01*
X8482086Y-16197484D02*
X8501134Y-16207008D01*
X8501134Y-16207008D02*
X8510658Y-16216531D01*
X8510658Y-16216531D02*
X8520182Y-16235579D01*
X8520182Y-16235579D02*
X8529705Y-16273674D01*
X8529705Y-16273674D02*
X8529705Y-16321293D01*
X8529705Y-16321293D02*
X8520182Y-16359388D01*
X8520182Y-16359388D02*
X8510658Y-16378436D01*
X8510658Y-16378436D02*
X8501134Y-16387960D01*
X8501134Y-16387960D02*
X8482086Y-16397484D01*
X8482086Y-16397484D02*
X8463039Y-16397484D01*
X8463039Y-16397484D02*
X8443991Y-16387960D01*
X8443991Y-16387960D02*
X8434467Y-16378436D01*
X8434467Y-16378436D02*
X8424944Y-16359388D01*
X8424944Y-16359388D02*
X8415420Y-16321293D01*
X8415420Y-16321293D02*
X8415420Y-16273674D01*
X8415420Y-16273674D02*
X8424944Y-16235579D01*
X8424944Y-16235579D02*
X8434467Y-16216531D01*
X8434467Y-16216531D02*
X8443991Y-16207008D01*
X8443991Y-16207008D02*
X8463039Y-16197484D01*
X8615420Y-16397484D02*
X8615420Y-16264150D01*
X8615420Y-16283198D02*
X8624944Y-16273674D01*
X8624944Y-16273674D02*
X8643991Y-16264150D01*
X8643991Y-16264150D02*
X8672563Y-16264150D01*
X8672563Y-16264150D02*
X8691610Y-16273674D01*
X8691610Y-16273674D02*
X8701134Y-16292722D01*
X8701134Y-16292722D02*
X8701134Y-16397484D01*
X8701134Y-16292722D02*
X8710658Y-16273674D01*
X8710658Y-16273674D02*
X8729705Y-16264150D01*
X8729705Y-16264150D02*
X8758277Y-16264150D01*
X8758277Y-16264150D02*
X8777325Y-16273674D01*
X8777325Y-16273674D02*
X8786848Y-16292722D01*
X8786848Y-16292722D02*
X8786848Y-16397484D01*
X8882086Y-16397484D02*
X8882086Y-16264150D01*
X8882086Y-16283198D02*
X8891610Y-16273674D01*
X8891610Y-16273674D02*
X8910658Y-16264150D01*
X8910658Y-16264150D02*
X8939229Y-16264150D01*
X8939229Y-16264150D02*
X8958277Y-16273674D01*
X8958277Y-16273674D02*
X8967801Y-16292722D01*
X8967801Y-16292722D02*
X8967801Y-16397484D01*
X8967801Y-16292722D02*
X8977325Y-16273674D01*
X8977325Y-16273674D02*
X8996372Y-16264150D01*
X8996372Y-16264150D02*
X9024944Y-16264150D01*
X9024944Y-16264150D02*
X9043991Y-16273674D01*
X9043991Y-16273674D02*
X9053515Y-16292722D01*
X9053515Y-16292722D02*
X9053515Y-16397484D01*
X9443991Y-16187960D02*
X9272563Y-16445103D01*
X9701134Y-16197484D02*
X9720182Y-16197484D01*
X9720182Y-16197484D02*
X9739229Y-16207008D01*
X9739229Y-16207008D02*
X9748753Y-16216531D01*
X9748753Y-16216531D02*
X9758277Y-16235579D01*
X9758277Y-16235579D02*
X9767801Y-16273674D01*
X9767801Y-16273674D02*
X9767801Y-16321293D01*
X9767801Y-16321293D02*
X9758277Y-16359388D01*
X9758277Y-16359388D02*
X9748753Y-16378436D01*
X9748753Y-16378436D02*
X9739229Y-16387960D01*
X9739229Y-16387960D02*
X9720182Y-16397484D01*
X9720182Y-16397484D02*
X9701134Y-16397484D01*
X9701134Y-16397484D02*
X9682087Y-16387960D01*
X9682087Y-16387960D02*
X9672563Y-16378436D01*
X9672563Y-16378436D02*
X9663039Y-16359388D01*
X9663039Y-16359388D02*
X9653515Y-16321293D01*
X9653515Y-16321293D02*
X9653515Y-16273674D01*
X9653515Y-16273674D02*
X9663039Y-16235579D01*
X9663039Y-16235579D02*
X9672563Y-16216531D01*
X9672563Y-16216531D02*
X9682087Y-16207008D01*
X9682087Y-16207008D02*
X9701134Y-16197484D01*
X9853515Y-16378436D02*
X9863039Y-16387960D01*
X9863039Y-16387960D02*
X9853515Y-16397484D01*
X9853515Y-16397484D02*
X9843991Y-16387960D01*
X9843991Y-16387960D02*
X9853515Y-16378436D01*
X9853515Y-16378436D02*
X9853515Y-16397484D01*
X9986848Y-16197484D02*
X10005896Y-16197484D01*
X10005896Y-16197484D02*
X10024944Y-16207008D01*
X10024944Y-16207008D02*
X10034468Y-16216531D01*
X10034468Y-16216531D02*
X10043991Y-16235579D01*
X10043991Y-16235579D02*
X10053515Y-16273674D01*
X10053515Y-16273674D02*
X10053515Y-16321293D01*
X10053515Y-16321293D02*
X10043991Y-16359388D01*
X10043991Y-16359388D02*
X10034468Y-16378436D01*
X10034468Y-16378436D02*
X10024944Y-16387960D01*
X10024944Y-16387960D02*
X10005896Y-16397484D01*
X10005896Y-16397484D02*
X9986848Y-16397484D01*
X9986848Y-16397484D02*
X9967801Y-16387960D01*
X9967801Y-16387960D02*
X9958277Y-16378436D01*
X9958277Y-16378436D02*
X9948753Y-16359388D01*
X9948753Y-16359388D02*
X9939229Y-16321293D01*
X9939229Y-16321293D02*
X9939229Y-16273674D01*
X9939229Y-16273674D02*
X9948753Y-16235579D01*
X9948753Y-16235579D02*
X9958277Y-16216531D01*
X9958277Y-16216531D02*
X9967801Y-16207008D01*
X9967801Y-16207008D02*
X9986848Y-16197484D01*
X10167801Y-16283198D02*
X10148753Y-16273674D01*
X10148753Y-16273674D02*
X10139229Y-16264150D01*
X10139229Y-16264150D02*
X10129706Y-16245103D01*
X10129706Y-16245103D02*
X10129706Y-16235579D01*
X10129706Y-16235579D02*
X10139229Y-16216531D01*
X10139229Y-16216531D02*
X10148753Y-16207008D01*
X10148753Y-16207008D02*
X10167801Y-16197484D01*
X10167801Y-16197484D02*
X10205896Y-16197484D01*
X10205896Y-16197484D02*
X10224944Y-16207008D01*
X10224944Y-16207008D02*
X10234468Y-16216531D01*
X10234468Y-16216531D02*
X10243991Y-16235579D01*
X10243991Y-16235579D02*
X10243991Y-16245103D01*
X10243991Y-16245103D02*
X10234468Y-16264150D01*
X10234468Y-16264150D02*
X10224944Y-16273674D01*
X10224944Y-16273674D02*
X10205896Y-16283198D01*
X10205896Y-16283198D02*
X10167801Y-16283198D01*
X10167801Y-16283198D02*
X10148753Y-16292722D01*
X10148753Y-16292722D02*
X10139229Y-16302246D01*
X10139229Y-16302246D02*
X10129706Y-16321293D01*
X10129706Y-16321293D02*
X10129706Y-16359388D01*
X10129706Y-16359388D02*
X10139229Y-16378436D01*
X10139229Y-16378436D02*
X10148753Y-16387960D01*
X10148753Y-16387960D02*
X10167801Y-16397484D01*
X10167801Y-16397484D02*
X10205896Y-16397484D01*
X10205896Y-16397484D02*
X10224944Y-16387960D01*
X10224944Y-16387960D02*
X10234468Y-16378436D01*
X10234468Y-16378436D02*
X10243991Y-16359388D01*
X10243991Y-16359388D02*
X10243991Y-16321293D01*
X10243991Y-16321293D02*
X10234468Y-16302246D01*
X10234468Y-16302246D02*
X10224944Y-16292722D01*
X10224944Y-16292722D02*
X10205896Y-16283198D01*
X10415420Y-16197484D02*
X10377325Y-16197484D01*
X10377325Y-16197484D02*
X10358277Y-16207008D01*
X10358277Y-16207008D02*
X10348753Y-16216531D01*
X10348753Y-16216531D02*
X10329706Y-16245103D01*
X10329706Y-16245103D02*
X10320182Y-16283198D01*
X10320182Y-16283198D02*
X10320182Y-16359388D01*
X10320182Y-16359388D02*
X10329706Y-16378436D01*
X10329706Y-16378436D02*
X10339229Y-16387960D01*
X10339229Y-16387960D02*
X10358277Y-16397484D01*
X10358277Y-16397484D02*
X10396372Y-16397484D01*
X10396372Y-16397484D02*
X10415420Y-16387960D01*
X10415420Y-16387960D02*
X10424944Y-16378436D01*
X10424944Y-16378436D02*
X10434468Y-16359388D01*
X10434468Y-16359388D02*
X10434468Y-16311769D01*
X10434468Y-16311769D02*
X10424944Y-16292722D01*
X10424944Y-16292722D02*
X10415420Y-16283198D01*
X10415420Y-16283198D02*
X10396372Y-16273674D01*
X10396372Y-16273674D02*
X10358277Y-16273674D01*
X10358277Y-16273674D02*
X10339229Y-16283198D01*
X10339229Y-16283198D02*
X10329706Y-16292722D01*
X10329706Y-16292722D02*
X10320182Y-16311769D01*
X10605896Y-16197484D02*
X10567801Y-16197484D01*
X10567801Y-16197484D02*
X10548753Y-16207008D01*
X10548753Y-16207008D02*
X10539229Y-16216531D01*
X10539229Y-16216531D02*
X10520182Y-16245103D01*
X10520182Y-16245103D02*
X10510658Y-16283198D01*
X10510658Y-16283198D02*
X10510658Y-16359388D01*
X10510658Y-16359388D02*
X10520182Y-16378436D01*
X10520182Y-16378436D02*
X10529706Y-16387960D01*
X10529706Y-16387960D02*
X10548753Y-16397484D01*
X10548753Y-16397484D02*
X10586849Y-16397484D01*
X10586849Y-16397484D02*
X10605896Y-16387960D01*
X10605896Y-16387960D02*
X10615420Y-16378436D01*
X10615420Y-16378436D02*
X10624944Y-16359388D01*
X10624944Y-16359388D02*
X10624944Y-16311769D01*
X10624944Y-16311769D02*
X10615420Y-16292722D01*
X10615420Y-16292722D02*
X10605896Y-16283198D01*
X10605896Y-16283198D02*
X10586849Y-16273674D01*
X10586849Y-16273674D02*
X10548753Y-16273674D01*
X10548753Y-16273674D02*
X10529706Y-16283198D01*
X10529706Y-16283198D02*
X10520182Y-16292722D01*
X10520182Y-16292722D02*
X10510658Y-16311769D01*
X10701134Y-16197484D02*
X10701134Y-16235579D01*
X10777325Y-16197484D02*
X10777325Y-16235579D01*
X11072563Y-16473674D02*
X11063039Y-16464150D01*
X11063039Y-16464150D02*
X11043991Y-16435579D01*
X11043991Y-16435579D02*
X11034468Y-16416531D01*
X11034468Y-16416531D02*
X11024944Y-16387960D01*
X11024944Y-16387960D02*
X11015420Y-16340341D01*
X11015420Y-16340341D02*
X11015420Y-16302246D01*
X11015420Y-16302246D02*
X11024944Y-16254627D01*
X11024944Y-16254627D02*
X11034468Y-16226055D01*
X11034468Y-16226055D02*
X11043991Y-16207008D01*
X11043991Y-16207008D02*
X11063039Y-16178436D01*
X11063039Y-16178436D02*
X11072563Y-16168912D01*
X11139230Y-16216531D02*
X11148753Y-16207008D01*
X11148753Y-16207008D02*
X11167801Y-16197484D01*
X11167801Y-16197484D02*
X11215420Y-16197484D01*
X11215420Y-16197484D02*
X11234468Y-16207008D01*
X11234468Y-16207008D02*
X11243991Y-16216531D01*
X11243991Y-16216531D02*
X11253515Y-16235579D01*
X11253515Y-16235579D02*
X11253515Y-16254627D01*
X11253515Y-16254627D02*
X11243991Y-16283198D01*
X11243991Y-16283198D02*
X11129706Y-16397484D01*
X11129706Y-16397484D02*
X11253515Y-16397484D01*
X11491610Y-16397484D02*
X11491610Y-16197484D01*
X11577325Y-16397484D02*
X11577325Y-16292722D01*
X11577325Y-16292722D02*
X11567801Y-16273674D01*
X11567801Y-16273674D02*
X11548753Y-16264150D01*
X11548753Y-16264150D02*
X11520182Y-16264150D01*
X11520182Y-16264150D02*
X11501134Y-16273674D01*
X11501134Y-16273674D02*
X11491610Y-16283198D01*
X11701134Y-16397484D02*
X11682087Y-16387960D01*
X11682087Y-16387960D02*
X11672563Y-16378436D01*
X11672563Y-16378436D02*
X11663039Y-16359388D01*
X11663039Y-16359388D02*
X11663039Y-16302246D01*
X11663039Y-16302246D02*
X11672563Y-16283198D01*
X11672563Y-16283198D02*
X11682087Y-16273674D01*
X11682087Y-16273674D02*
X11701134Y-16264150D01*
X11701134Y-16264150D02*
X11729706Y-16264150D01*
X11729706Y-16264150D02*
X11748753Y-16273674D01*
X11748753Y-16273674D02*
X11758277Y-16283198D01*
X11758277Y-16283198D02*
X11767801Y-16302246D01*
X11767801Y-16302246D02*
X11767801Y-16359388D01*
X11767801Y-16359388D02*
X11758277Y-16378436D01*
X11758277Y-16378436D02*
X11748753Y-16387960D01*
X11748753Y-16387960D02*
X11729706Y-16397484D01*
X11729706Y-16397484D02*
X11701134Y-16397484D01*
X11882087Y-16397484D02*
X11863039Y-16387960D01*
X11863039Y-16387960D02*
X11853515Y-16368912D01*
X11853515Y-16368912D02*
X11853515Y-16197484D01*
X12034468Y-16387960D02*
X12015420Y-16397484D01*
X12015420Y-16397484D02*
X11977325Y-16397484D01*
X11977325Y-16397484D02*
X11958277Y-16387960D01*
X11958277Y-16387960D02*
X11948753Y-16368912D01*
X11948753Y-16368912D02*
X11948753Y-16292722D01*
X11948753Y-16292722D02*
X11958277Y-16273674D01*
X11958277Y-16273674D02*
X11977325Y-16264150D01*
X11977325Y-16264150D02*
X12015420Y-16264150D01*
X12015420Y-16264150D02*
X12034468Y-16273674D01*
X12034468Y-16273674D02*
X12043991Y-16292722D01*
X12043991Y-16292722D02*
X12043991Y-16311769D01*
X12043991Y-16311769D02*
X11948753Y-16330817D01*
X12120182Y-16387960D02*
X12139230Y-16397484D01*
X12139230Y-16397484D02*
X12177325Y-16397484D01*
X12177325Y-16397484D02*
X12196372Y-16387960D01*
X12196372Y-16387960D02*
X12205896Y-16368912D01*
X12205896Y-16368912D02*
X12205896Y-16359388D01*
X12205896Y-16359388D02*
X12196372Y-16340341D01*
X12196372Y-16340341D02*
X12177325Y-16330817D01*
X12177325Y-16330817D02*
X12148753Y-16330817D01*
X12148753Y-16330817D02*
X12129706Y-16321293D01*
X12129706Y-16321293D02*
X12120182Y-16302246D01*
X12120182Y-16302246D02*
X12120182Y-16292722D01*
X12120182Y-16292722D02*
X12129706Y-16273674D01*
X12129706Y-16273674D02*
X12148753Y-16264150D01*
X12148753Y-16264150D02*
X12177325Y-16264150D01*
X12177325Y-16264150D02*
X12196372Y-16273674D01*
X12272563Y-16473674D02*
X12282087Y-16464150D01*
X12282087Y-16464150D02*
X12301134Y-16435579D01*
X12301134Y-16435579D02*
X12310658Y-16416531D01*
X12310658Y-16416531D02*
X12320182Y-16387960D01*
X12320182Y-16387960D02*
X12329706Y-16340341D01*
X12329706Y-16340341D02*
X12329706Y-16302246D01*
X12329706Y-16302246D02*
X12320182Y-16254627D01*
X12320182Y-16254627D02*
X12310658Y-16226055D01*
X12310658Y-16226055D02*
X12301134Y-16207008D01*
X12301134Y-16207008D02*
X12282087Y-16178436D01*
X12282087Y-16178436D02*
X12272563Y-16168912D01*
M02*
