%TF.GenerationSoftware,KiCad,Pcbnew,7.0.8*%
%TF.CreationDate,2024-05-21T16:54:11+02:00*%
%TF.ProjectId,IssaScope_v0.2,49737361-5363-46f7-9065-5f76302e322e,rev?*%
%TF.SameCoordinates,Original*%
%TF.FileFunction,Legend,Top*%
%TF.FilePolarity,Positive*%
%FSLAX46Y46*%
G04 Gerber Fmt 4.6, Leading zero omitted, Abs format (unit mm)*
G04 Created by KiCad (PCBNEW 7.0.8) date 2024-05-21 16:54:11*
%MOMM*%
%LPD*%
G01*
G04 APERTURE LIST*
%ADD10C,0.150000*%
%ADD11C,0.050000*%
%ADD12C,0.127000*%
%ADD13C,0.120000*%
G04 APERTURE END LIST*
D10*
X136273476Y-66381819D02*
X136273476Y-67096104D01*
X136273476Y-67096104D02*
X136225857Y-67238961D01*
X136225857Y-67238961D02*
X136130619Y-67334200D01*
X136130619Y-67334200D02*
X135987762Y-67381819D01*
X135987762Y-67381819D02*
X135892524Y-67381819D01*
X136702048Y-66477057D02*
X136749667Y-66429438D01*
X136749667Y-66429438D02*
X136844905Y-66381819D01*
X136844905Y-66381819D02*
X137083000Y-66381819D01*
X137083000Y-66381819D02*
X137178238Y-66429438D01*
X137178238Y-66429438D02*
X137225857Y-66477057D01*
X137225857Y-66477057D02*
X137273476Y-66572295D01*
X137273476Y-66572295D02*
X137273476Y-66667533D01*
X137273476Y-66667533D02*
X137225857Y-66810390D01*
X137225857Y-66810390D02*
X136654429Y-67381819D01*
X136654429Y-67381819D02*
X137273476Y-67381819D01*
X138130619Y-66381819D02*
X137940143Y-66381819D01*
X137940143Y-66381819D02*
X137844905Y-66429438D01*
X137844905Y-66429438D02*
X137797286Y-66477057D01*
X137797286Y-66477057D02*
X137702048Y-66619914D01*
X137702048Y-66619914D02*
X137654429Y-66810390D01*
X137654429Y-66810390D02*
X137654429Y-67191342D01*
X137654429Y-67191342D02*
X137702048Y-67286580D01*
X137702048Y-67286580D02*
X137749667Y-67334200D01*
X137749667Y-67334200D02*
X137844905Y-67381819D01*
X137844905Y-67381819D02*
X138035381Y-67381819D01*
X138035381Y-67381819D02*
X138130619Y-67334200D01*
X138130619Y-67334200D02*
X138178238Y-67286580D01*
X138178238Y-67286580D02*
X138225857Y-67191342D01*
X138225857Y-67191342D02*
X138225857Y-66953247D01*
X138225857Y-66953247D02*
X138178238Y-66858009D01*
X138178238Y-66858009D02*
X138130619Y-66810390D01*
X138130619Y-66810390D02*
X138035381Y-66762771D01*
X138035381Y-66762771D02*
X137844905Y-66762771D01*
X137844905Y-66762771D02*
X137749667Y-66810390D01*
X137749667Y-66810390D02*
X137702048Y-66858009D01*
X137702048Y-66858009D02*
X137654429Y-66953247D01*
X128598809Y-50729819D02*
X129170237Y-50729819D01*
X128884523Y-51729819D02*
X128884523Y-50729819D01*
X129503571Y-51729819D02*
X129503571Y-51063152D01*
X129503571Y-51253628D02*
X129551190Y-51158390D01*
X129551190Y-51158390D02*
X129598809Y-51110771D01*
X129598809Y-51110771D02*
X129694047Y-51063152D01*
X129694047Y-51063152D02*
X129789285Y-51063152D01*
X130122619Y-51729819D02*
X130122619Y-51063152D01*
X130122619Y-50729819D02*
X130075000Y-50777438D01*
X130075000Y-50777438D02*
X130122619Y-50825057D01*
X130122619Y-50825057D02*
X130170238Y-50777438D01*
X130170238Y-50777438D02*
X130122619Y-50729819D01*
X130122619Y-50729819D02*
X130122619Y-50825057D01*
X131027380Y-51063152D02*
X131027380Y-51872676D01*
X131027380Y-51872676D02*
X130979761Y-51967914D01*
X130979761Y-51967914D02*
X130932142Y-52015533D01*
X130932142Y-52015533D02*
X130836904Y-52063152D01*
X130836904Y-52063152D02*
X130694047Y-52063152D01*
X130694047Y-52063152D02*
X130598809Y-52015533D01*
X131027380Y-51682200D02*
X130932142Y-51729819D01*
X130932142Y-51729819D02*
X130741666Y-51729819D01*
X130741666Y-51729819D02*
X130646428Y-51682200D01*
X130646428Y-51682200D02*
X130598809Y-51634580D01*
X130598809Y-51634580D02*
X130551190Y-51539342D01*
X130551190Y-51539342D02*
X130551190Y-51253628D01*
X130551190Y-51253628D02*
X130598809Y-51158390D01*
X130598809Y-51158390D02*
X130646428Y-51110771D01*
X130646428Y-51110771D02*
X130741666Y-51063152D01*
X130741666Y-51063152D02*
X130932142Y-51063152D01*
X130932142Y-51063152D02*
X131027380Y-51110771D01*
X131932142Y-51063152D02*
X131932142Y-51872676D01*
X131932142Y-51872676D02*
X131884523Y-51967914D01*
X131884523Y-51967914D02*
X131836904Y-52015533D01*
X131836904Y-52015533D02*
X131741666Y-52063152D01*
X131741666Y-52063152D02*
X131598809Y-52063152D01*
X131598809Y-52063152D02*
X131503571Y-52015533D01*
X131932142Y-51682200D02*
X131836904Y-51729819D01*
X131836904Y-51729819D02*
X131646428Y-51729819D01*
X131646428Y-51729819D02*
X131551190Y-51682200D01*
X131551190Y-51682200D02*
X131503571Y-51634580D01*
X131503571Y-51634580D02*
X131455952Y-51539342D01*
X131455952Y-51539342D02*
X131455952Y-51253628D01*
X131455952Y-51253628D02*
X131503571Y-51158390D01*
X131503571Y-51158390D02*
X131551190Y-51110771D01*
X131551190Y-51110771D02*
X131646428Y-51063152D01*
X131646428Y-51063152D02*
X131836904Y-51063152D01*
X131836904Y-51063152D02*
X131932142Y-51110771D01*
X132789285Y-51682200D02*
X132694047Y-51729819D01*
X132694047Y-51729819D02*
X132503571Y-51729819D01*
X132503571Y-51729819D02*
X132408333Y-51682200D01*
X132408333Y-51682200D02*
X132360714Y-51586961D01*
X132360714Y-51586961D02*
X132360714Y-51206009D01*
X132360714Y-51206009D02*
X132408333Y-51110771D01*
X132408333Y-51110771D02*
X132503571Y-51063152D01*
X132503571Y-51063152D02*
X132694047Y-51063152D01*
X132694047Y-51063152D02*
X132789285Y-51110771D01*
X132789285Y-51110771D02*
X132836904Y-51206009D01*
X132836904Y-51206009D02*
X132836904Y-51301247D01*
X132836904Y-51301247D02*
X132360714Y-51396485D01*
X133265476Y-51729819D02*
X133265476Y-51063152D01*
X133265476Y-51253628D02*
X133313095Y-51158390D01*
X133313095Y-51158390D02*
X133360714Y-51110771D01*
X133360714Y-51110771D02*
X133455952Y-51063152D01*
X133455952Y-51063152D02*
X133551190Y-51063152D01*
X120066976Y-108960657D02*
X120066976Y-109770493D01*
X120066976Y-109770493D02*
X120114613Y-109865768D01*
X120114613Y-109865768D02*
X120162251Y-109913406D01*
X120162251Y-109913406D02*
X120257525Y-109961043D01*
X120257525Y-109961043D02*
X120448075Y-109961043D01*
X120448075Y-109961043D02*
X120543350Y-109913406D01*
X120543350Y-109913406D02*
X120590987Y-109865768D01*
X120590987Y-109865768D02*
X120638625Y-109770493D01*
X120638625Y-109770493D02*
X120638625Y-108960657D01*
X121639010Y-109961043D02*
X121067361Y-109961043D01*
X121353186Y-109961043D02*
X121353186Y-108960657D01*
X121353186Y-108960657D02*
X121257911Y-109103569D01*
X121257911Y-109103569D02*
X121162636Y-109198844D01*
X121162636Y-109198844D02*
X121067361Y-109246482D01*
X144666666Y-128954819D02*
X144666666Y-129669104D01*
X144666666Y-129669104D02*
X144619047Y-129811961D01*
X144619047Y-129811961D02*
X144523809Y-129907200D01*
X144523809Y-129907200D02*
X144380952Y-129954819D01*
X144380952Y-129954819D02*
X144285714Y-129954819D01*
X145571428Y-129288152D02*
X145571428Y-129954819D01*
X145333333Y-128907200D02*
X145095238Y-129621485D01*
X145095238Y-129621485D02*
X145714285Y-129621485D01*
X168903333Y-90499819D02*
X168570000Y-90023628D01*
X168331905Y-90499819D02*
X168331905Y-89499819D01*
X168331905Y-89499819D02*
X168712857Y-89499819D01*
X168712857Y-89499819D02*
X168808095Y-89547438D01*
X168808095Y-89547438D02*
X168855714Y-89595057D01*
X168855714Y-89595057D02*
X168903333Y-89690295D01*
X168903333Y-89690295D02*
X168903333Y-89833152D01*
X168903333Y-89833152D02*
X168855714Y-89928390D01*
X168855714Y-89928390D02*
X168808095Y-89976009D01*
X168808095Y-89976009D02*
X168712857Y-90023628D01*
X168712857Y-90023628D02*
X168331905Y-90023628D01*
X169284286Y-89595057D02*
X169331905Y-89547438D01*
X169331905Y-89547438D02*
X169427143Y-89499819D01*
X169427143Y-89499819D02*
X169665238Y-89499819D01*
X169665238Y-89499819D02*
X169760476Y-89547438D01*
X169760476Y-89547438D02*
X169808095Y-89595057D01*
X169808095Y-89595057D02*
X169855714Y-89690295D01*
X169855714Y-89690295D02*
X169855714Y-89785533D01*
X169855714Y-89785533D02*
X169808095Y-89928390D01*
X169808095Y-89928390D02*
X169236667Y-90499819D01*
X169236667Y-90499819D02*
X169855714Y-90499819D01*
X168903333Y-95249819D02*
X168570000Y-94773628D01*
X168331905Y-95249819D02*
X168331905Y-94249819D01*
X168331905Y-94249819D02*
X168712857Y-94249819D01*
X168712857Y-94249819D02*
X168808095Y-94297438D01*
X168808095Y-94297438D02*
X168855714Y-94345057D01*
X168855714Y-94345057D02*
X168903333Y-94440295D01*
X168903333Y-94440295D02*
X168903333Y-94583152D01*
X168903333Y-94583152D02*
X168855714Y-94678390D01*
X168855714Y-94678390D02*
X168808095Y-94726009D01*
X168808095Y-94726009D02*
X168712857Y-94773628D01*
X168712857Y-94773628D02*
X168331905Y-94773628D01*
X169855714Y-95249819D02*
X169284286Y-95249819D01*
X169570000Y-95249819D02*
X169570000Y-94249819D01*
X169570000Y-94249819D02*
X169474762Y-94392676D01*
X169474762Y-94392676D02*
X169379524Y-94487914D01*
X169379524Y-94487914D02*
X169284286Y-94535533D01*
X87954819Y-122059523D02*
X88669104Y-122059523D01*
X88669104Y-122059523D02*
X88811961Y-122107142D01*
X88811961Y-122107142D02*
X88907200Y-122202380D01*
X88907200Y-122202380D02*
X88954819Y-122345237D01*
X88954819Y-122345237D02*
X88954819Y-122440475D01*
X87954819Y-121678570D02*
X87954819Y-121059523D01*
X87954819Y-121059523D02*
X88335771Y-121392856D01*
X88335771Y-121392856D02*
X88335771Y-121249999D01*
X88335771Y-121249999D02*
X88383390Y-121154761D01*
X88383390Y-121154761D02*
X88431009Y-121107142D01*
X88431009Y-121107142D02*
X88526247Y-121059523D01*
X88526247Y-121059523D02*
X88764342Y-121059523D01*
X88764342Y-121059523D02*
X88859580Y-121107142D01*
X88859580Y-121107142D02*
X88907200Y-121154761D01*
X88907200Y-121154761D02*
X88954819Y-121249999D01*
X88954819Y-121249999D02*
X88954819Y-121535713D01*
X88954819Y-121535713D02*
X88907200Y-121630951D01*
X88907200Y-121630951D02*
X88859580Y-121678570D01*
X87954819Y-120154761D02*
X87954819Y-120630951D01*
X87954819Y-120630951D02*
X88431009Y-120678570D01*
X88431009Y-120678570D02*
X88383390Y-120630951D01*
X88383390Y-120630951D02*
X88335771Y-120535713D01*
X88335771Y-120535713D02*
X88335771Y-120297618D01*
X88335771Y-120297618D02*
X88383390Y-120202380D01*
X88383390Y-120202380D02*
X88431009Y-120154761D01*
X88431009Y-120154761D02*
X88526247Y-120107142D01*
X88526247Y-120107142D02*
X88764342Y-120107142D01*
X88764342Y-120107142D02*
X88859580Y-120154761D01*
X88859580Y-120154761D02*
X88907200Y-120202380D01*
X88907200Y-120202380D02*
X88954819Y-120297618D01*
X88954819Y-120297618D02*
X88954819Y-120535713D01*
X88954819Y-120535713D02*
X88907200Y-120630951D01*
X88907200Y-120630951D02*
X88859580Y-120678570D01*
X87954819Y-62059523D02*
X88669104Y-62059523D01*
X88669104Y-62059523D02*
X88811961Y-62107142D01*
X88811961Y-62107142D02*
X88907200Y-62202380D01*
X88907200Y-62202380D02*
X88954819Y-62345237D01*
X88954819Y-62345237D02*
X88954819Y-62440475D01*
X87954819Y-61678570D02*
X87954819Y-61059523D01*
X87954819Y-61059523D02*
X88335771Y-61392856D01*
X88335771Y-61392856D02*
X88335771Y-61249999D01*
X88335771Y-61249999D02*
X88383390Y-61154761D01*
X88383390Y-61154761D02*
X88431009Y-61107142D01*
X88431009Y-61107142D02*
X88526247Y-61059523D01*
X88526247Y-61059523D02*
X88764342Y-61059523D01*
X88764342Y-61059523D02*
X88859580Y-61107142D01*
X88859580Y-61107142D02*
X88907200Y-61154761D01*
X88907200Y-61154761D02*
X88954819Y-61249999D01*
X88954819Y-61249999D02*
X88954819Y-61535713D01*
X88954819Y-61535713D02*
X88907200Y-61630951D01*
X88907200Y-61630951D02*
X88859580Y-61678570D01*
X88288152Y-60202380D02*
X88954819Y-60202380D01*
X87907200Y-60440475D02*
X88621485Y-60678570D01*
X88621485Y-60678570D02*
X88621485Y-60059523D01*
X87954819Y-77059523D02*
X88669104Y-77059523D01*
X88669104Y-77059523D02*
X88811961Y-77107142D01*
X88811961Y-77107142D02*
X88907200Y-77202380D01*
X88907200Y-77202380D02*
X88954819Y-77345237D01*
X88954819Y-77345237D02*
X88954819Y-77440475D01*
X87954819Y-76678570D02*
X87954819Y-76059523D01*
X87954819Y-76059523D02*
X88335771Y-76392856D01*
X88335771Y-76392856D02*
X88335771Y-76249999D01*
X88335771Y-76249999D02*
X88383390Y-76154761D01*
X88383390Y-76154761D02*
X88431009Y-76107142D01*
X88431009Y-76107142D02*
X88526247Y-76059523D01*
X88526247Y-76059523D02*
X88764342Y-76059523D01*
X88764342Y-76059523D02*
X88859580Y-76107142D01*
X88859580Y-76107142D02*
X88907200Y-76154761D01*
X88907200Y-76154761D02*
X88954819Y-76249999D01*
X88954819Y-76249999D02*
X88954819Y-76535713D01*
X88954819Y-76535713D02*
X88907200Y-76630951D01*
X88907200Y-76630951D02*
X88859580Y-76678570D01*
X87954819Y-75726189D02*
X87954819Y-75107142D01*
X87954819Y-75107142D02*
X88335771Y-75440475D01*
X88335771Y-75440475D02*
X88335771Y-75297618D01*
X88335771Y-75297618D02*
X88383390Y-75202380D01*
X88383390Y-75202380D02*
X88431009Y-75154761D01*
X88431009Y-75154761D02*
X88526247Y-75107142D01*
X88526247Y-75107142D02*
X88764342Y-75107142D01*
X88764342Y-75107142D02*
X88859580Y-75154761D01*
X88859580Y-75154761D02*
X88907200Y-75202380D01*
X88907200Y-75202380D02*
X88954819Y-75297618D01*
X88954819Y-75297618D02*
X88954819Y-75583332D01*
X88954819Y-75583332D02*
X88907200Y-75678570D01*
X88907200Y-75678570D02*
X88859580Y-75726189D01*
X87954819Y-92059523D02*
X88669104Y-92059523D01*
X88669104Y-92059523D02*
X88811961Y-92107142D01*
X88811961Y-92107142D02*
X88907200Y-92202380D01*
X88907200Y-92202380D02*
X88954819Y-92345237D01*
X88954819Y-92345237D02*
X88954819Y-92440475D01*
X87954819Y-91678570D02*
X87954819Y-91059523D01*
X87954819Y-91059523D02*
X88335771Y-91392856D01*
X88335771Y-91392856D02*
X88335771Y-91249999D01*
X88335771Y-91249999D02*
X88383390Y-91154761D01*
X88383390Y-91154761D02*
X88431009Y-91107142D01*
X88431009Y-91107142D02*
X88526247Y-91059523D01*
X88526247Y-91059523D02*
X88764342Y-91059523D01*
X88764342Y-91059523D02*
X88859580Y-91107142D01*
X88859580Y-91107142D02*
X88907200Y-91154761D01*
X88907200Y-91154761D02*
X88954819Y-91249999D01*
X88954819Y-91249999D02*
X88954819Y-91535713D01*
X88954819Y-91535713D02*
X88907200Y-91630951D01*
X88907200Y-91630951D02*
X88859580Y-91678570D01*
X88050057Y-90678570D02*
X88002438Y-90630951D01*
X88002438Y-90630951D02*
X87954819Y-90535713D01*
X87954819Y-90535713D02*
X87954819Y-90297618D01*
X87954819Y-90297618D02*
X88002438Y-90202380D01*
X88002438Y-90202380D02*
X88050057Y-90154761D01*
X88050057Y-90154761D02*
X88145295Y-90107142D01*
X88145295Y-90107142D02*
X88240533Y-90107142D01*
X88240533Y-90107142D02*
X88383390Y-90154761D01*
X88383390Y-90154761D02*
X88954819Y-90726189D01*
X88954819Y-90726189D02*
X88954819Y-90107142D01*
X180954819Y-122059523D02*
X181669104Y-122059523D01*
X181669104Y-122059523D02*
X181811961Y-122107142D01*
X181811961Y-122107142D02*
X181907200Y-122202380D01*
X181907200Y-122202380D02*
X181954819Y-122345237D01*
X181954819Y-122345237D02*
X181954819Y-122440475D01*
X180954819Y-121678570D02*
X180954819Y-121059523D01*
X180954819Y-121059523D02*
X181335771Y-121392856D01*
X181335771Y-121392856D02*
X181335771Y-121249999D01*
X181335771Y-121249999D02*
X181383390Y-121154761D01*
X181383390Y-121154761D02*
X181431009Y-121107142D01*
X181431009Y-121107142D02*
X181526247Y-121059523D01*
X181526247Y-121059523D02*
X181764342Y-121059523D01*
X181764342Y-121059523D02*
X181859580Y-121107142D01*
X181859580Y-121107142D02*
X181907200Y-121154761D01*
X181907200Y-121154761D02*
X181954819Y-121249999D01*
X181954819Y-121249999D02*
X181954819Y-121535713D01*
X181954819Y-121535713D02*
X181907200Y-121630951D01*
X181907200Y-121630951D02*
X181859580Y-121678570D01*
X181954819Y-120107142D02*
X181954819Y-120678570D01*
X181954819Y-120392856D02*
X180954819Y-120392856D01*
X180954819Y-120392856D02*
X181097676Y-120488094D01*
X181097676Y-120488094D02*
X181192914Y-120583332D01*
X181192914Y-120583332D02*
X181240533Y-120678570D01*
X87454819Y-107059523D02*
X88169104Y-107059523D01*
X88169104Y-107059523D02*
X88311961Y-107107142D01*
X88311961Y-107107142D02*
X88407200Y-107202380D01*
X88407200Y-107202380D02*
X88454819Y-107345237D01*
X88454819Y-107345237D02*
X88454819Y-107440475D01*
X87454819Y-106678570D02*
X87454819Y-106059523D01*
X87454819Y-106059523D02*
X87835771Y-106392856D01*
X87835771Y-106392856D02*
X87835771Y-106249999D01*
X87835771Y-106249999D02*
X87883390Y-106154761D01*
X87883390Y-106154761D02*
X87931009Y-106107142D01*
X87931009Y-106107142D02*
X88026247Y-106059523D01*
X88026247Y-106059523D02*
X88264342Y-106059523D01*
X88264342Y-106059523D02*
X88359580Y-106107142D01*
X88359580Y-106107142D02*
X88407200Y-106154761D01*
X88407200Y-106154761D02*
X88454819Y-106249999D01*
X88454819Y-106249999D02*
X88454819Y-106535713D01*
X88454819Y-106535713D02*
X88407200Y-106630951D01*
X88407200Y-106630951D02*
X88359580Y-106678570D01*
X87454819Y-105440475D02*
X87454819Y-105345237D01*
X87454819Y-105345237D02*
X87502438Y-105249999D01*
X87502438Y-105249999D02*
X87550057Y-105202380D01*
X87550057Y-105202380D02*
X87645295Y-105154761D01*
X87645295Y-105154761D02*
X87835771Y-105107142D01*
X87835771Y-105107142D02*
X88073866Y-105107142D01*
X88073866Y-105107142D02*
X88264342Y-105154761D01*
X88264342Y-105154761D02*
X88359580Y-105202380D01*
X88359580Y-105202380D02*
X88407200Y-105249999D01*
X88407200Y-105249999D02*
X88454819Y-105345237D01*
X88454819Y-105345237D02*
X88454819Y-105440475D01*
X88454819Y-105440475D02*
X88407200Y-105535713D01*
X88407200Y-105535713D02*
X88359580Y-105583332D01*
X88359580Y-105583332D02*
X88264342Y-105630951D01*
X88264342Y-105630951D02*
X88073866Y-105678570D01*
X88073866Y-105678570D02*
X87835771Y-105678570D01*
X87835771Y-105678570D02*
X87645295Y-105630951D01*
X87645295Y-105630951D02*
X87550057Y-105583332D01*
X87550057Y-105583332D02*
X87502438Y-105535713D01*
X87502438Y-105535713D02*
X87454819Y-105440475D01*
X180954819Y-107059523D02*
X181669104Y-107059523D01*
X181669104Y-107059523D02*
X181811961Y-107107142D01*
X181811961Y-107107142D02*
X181907200Y-107202380D01*
X181907200Y-107202380D02*
X181954819Y-107345237D01*
X181954819Y-107345237D02*
X181954819Y-107440475D01*
X181050057Y-106630951D02*
X181002438Y-106583332D01*
X181002438Y-106583332D02*
X180954819Y-106488094D01*
X180954819Y-106488094D02*
X180954819Y-106249999D01*
X180954819Y-106249999D02*
X181002438Y-106154761D01*
X181002438Y-106154761D02*
X181050057Y-106107142D01*
X181050057Y-106107142D02*
X181145295Y-106059523D01*
X181145295Y-106059523D02*
X181240533Y-106059523D01*
X181240533Y-106059523D02*
X181383390Y-106107142D01*
X181383390Y-106107142D02*
X181954819Y-106678570D01*
X181954819Y-106678570D02*
X181954819Y-106059523D01*
X181954819Y-105583332D02*
X181954819Y-105392856D01*
X181954819Y-105392856D02*
X181907200Y-105297618D01*
X181907200Y-105297618D02*
X181859580Y-105249999D01*
X181859580Y-105249999D02*
X181716723Y-105154761D01*
X181716723Y-105154761D02*
X181526247Y-105107142D01*
X181526247Y-105107142D02*
X181145295Y-105107142D01*
X181145295Y-105107142D02*
X181050057Y-105154761D01*
X181050057Y-105154761D02*
X181002438Y-105202380D01*
X181002438Y-105202380D02*
X180954819Y-105297618D01*
X180954819Y-105297618D02*
X180954819Y-105488094D01*
X180954819Y-105488094D02*
X181002438Y-105583332D01*
X181002438Y-105583332D02*
X181050057Y-105630951D01*
X181050057Y-105630951D02*
X181145295Y-105678570D01*
X181145295Y-105678570D02*
X181383390Y-105678570D01*
X181383390Y-105678570D02*
X181478628Y-105630951D01*
X181478628Y-105630951D02*
X181526247Y-105583332D01*
X181526247Y-105583332D02*
X181573866Y-105488094D01*
X181573866Y-105488094D02*
X181573866Y-105297618D01*
X181573866Y-105297618D02*
X181526247Y-105202380D01*
X181526247Y-105202380D02*
X181478628Y-105154761D01*
X181478628Y-105154761D02*
X181383390Y-105107142D01*
X180954819Y-92059523D02*
X181669104Y-92059523D01*
X181669104Y-92059523D02*
X181811961Y-92107142D01*
X181811961Y-92107142D02*
X181907200Y-92202380D01*
X181907200Y-92202380D02*
X181954819Y-92345237D01*
X181954819Y-92345237D02*
X181954819Y-92440475D01*
X181050057Y-91630951D02*
X181002438Y-91583332D01*
X181002438Y-91583332D02*
X180954819Y-91488094D01*
X180954819Y-91488094D02*
X180954819Y-91249999D01*
X180954819Y-91249999D02*
X181002438Y-91154761D01*
X181002438Y-91154761D02*
X181050057Y-91107142D01*
X181050057Y-91107142D02*
X181145295Y-91059523D01*
X181145295Y-91059523D02*
X181240533Y-91059523D01*
X181240533Y-91059523D02*
X181383390Y-91107142D01*
X181383390Y-91107142D02*
X181954819Y-91678570D01*
X181954819Y-91678570D02*
X181954819Y-91059523D01*
X181383390Y-90488094D02*
X181335771Y-90583332D01*
X181335771Y-90583332D02*
X181288152Y-90630951D01*
X181288152Y-90630951D02*
X181192914Y-90678570D01*
X181192914Y-90678570D02*
X181145295Y-90678570D01*
X181145295Y-90678570D02*
X181050057Y-90630951D01*
X181050057Y-90630951D02*
X181002438Y-90583332D01*
X181002438Y-90583332D02*
X180954819Y-90488094D01*
X180954819Y-90488094D02*
X180954819Y-90297618D01*
X180954819Y-90297618D02*
X181002438Y-90202380D01*
X181002438Y-90202380D02*
X181050057Y-90154761D01*
X181050057Y-90154761D02*
X181145295Y-90107142D01*
X181145295Y-90107142D02*
X181192914Y-90107142D01*
X181192914Y-90107142D02*
X181288152Y-90154761D01*
X181288152Y-90154761D02*
X181335771Y-90202380D01*
X181335771Y-90202380D02*
X181383390Y-90297618D01*
X181383390Y-90297618D02*
X181383390Y-90488094D01*
X181383390Y-90488094D02*
X181431009Y-90583332D01*
X181431009Y-90583332D02*
X181478628Y-90630951D01*
X181478628Y-90630951D02*
X181573866Y-90678570D01*
X181573866Y-90678570D02*
X181764342Y-90678570D01*
X181764342Y-90678570D02*
X181859580Y-90630951D01*
X181859580Y-90630951D02*
X181907200Y-90583332D01*
X181907200Y-90583332D02*
X181954819Y-90488094D01*
X181954819Y-90488094D02*
X181954819Y-90297618D01*
X181954819Y-90297618D02*
X181907200Y-90202380D01*
X181907200Y-90202380D02*
X181859580Y-90154761D01*
X181859580Y-90154761D02*
X181764342Y-90107142D01*
X181764342Y-90107142D02*
X181573866Y-90107142D01*
X181573866Y-90107142D02*
X181478628Y-90154761D01*
X181478628Y-90154761D02*
X181431009Y-90202380D01*
X181431009Y-90202380D02*
X181383390Y-90297618D01*
X180954819Y-77059523D02*
X181669104Y-77059523D01*
X181669104Y-77059523D02*
X181811961Y-77107142D01*
X181811961Y-77107142D02*
X181907200Y-77202380D01*
X181907200Y-77202380D02*
X181954819Y-77345237D01*
X181954819Y-77345237D02*
X181954819Y-77440475D01*
X181050057Y-76630951D02*
X181002438Y-76583332D01*
X181002438Y-76583332D02*
X180954819Y-76488094D01*
X180954819Y-76488094D02*
X180954819Y-76249999D01*
X180954819Y-76249999D02*
X181002438Y-76154761D01*
X181002438Y-76154761D02*
X181050057Y-76107142D01*
X181050057Y-76107142D02*
X181145295Y-76059523D01*
X181145295Y-76059523D02*
X181240533Y-76059523D01*
X181240533Y-76059523D02*
X181383390Y-76107142D01*
X181383390Y-76107142D02*
X181954819Y-76678570D01*
X181954819Y-76678570D02*
X181954819Y-76059523D01*
X180954819Y-75726189D02*
X180954819Y-75059523D01*
X180954819Y-75059523D02*
X181954819Y-75488094D01*
X184666666Y-128954819D02*
X184666666Y-129669104D01*
X184666666Y-129669104D02*
X184619047Y-129811961D01*
X184619047Y-129811961D02*
X184523809Y-129907200D01*
X184523809Y-129907200D02*
X184380952Y-129954819D01*
X184380952Y-129954819D02*
X184285714Y-129954819D01*
X185571428Y-128954819D02*
X185380952Y-128954819D01*
X185380952Y-128954819D02*
X185285714Y-129002438D01*
X185285714Y-129002438D02*
X185238095Y-129050057D01*
X185238095Y-129050057D02*
X185142857Y-129192914D01*
X185142857Y-129192914D02*
X185095238Y-129383390D01*
X185095238Y-129383390D02*
X185095238Y-129764342D01*
X185095238Y-129764342D02*
X185142857Y-129859580D01*
X185142857Y-129859580D02*
X185190476Y-129907200D01*
X185190476Y-129907200D02*
X185285714Y-129954819D01*
X185285714Y-129954819D02*
X185476190Y-129954819D01*
X185476190Y-129954819D02*
X185571428Y-129907200D01*
X185571428Y-129907200D02*
X185619047Y-129859580D01*
X185619047Y-129859580D02*
X185666666Y-129764342D01*
X185666666Y-129764342D02*
X185666666Y-129526247D01*
X185666666Y-129526247D02*
X185619047Y-129431009D01*
X185619047Y-129431009D02*
X185571428Y-129383390D01*
X185571428Y-129383390D02*
X185476190Y-129335771D01*
X185476190Y-129335771D02*
X185285714Y-129335771D01*
X185285714Y-129335771D02*
X185190476Y-129383390D01*
X185190476Y-129383390D02*
X185142857Y-129431009D01*
X185142857Y-129431009D02*
X185095238Y-129526247D01*
X164666666Y-128954819D02*
X164666666Y-129669104D01*
X164666666Y-129669104D02*
X164619047Y-129811961D01*
X164619047Y-129811961D02*
X164523809Y-129907200D01*
X164523809Y-129907200D02*
X164380952Y-129954819D01*
X164380952Y-129954819D02*
X164285714Y-129954819D01*
X165619047Y-128954819D02*
X165142857Y-128954819D01*
X165142857Y-128954819D02*
X165095238Y-129431009D01*
X165095238Y-129431009D02*
X165142857Y-129383390D01*
X165142857Y-129383390D02*
X165238095Y-129335771D01*
X165238095Y-129335771D02*
X165476190Y-129335771D01*
X165476190Y-129335771D02*
X165571428Y-129383390D01*
X165571428Y-129383390D02*
X165619047Y-129431009D01*
X165619047Y-129431009D02*
X165666666Y-129526247D01*
X165666666Y-129526247D02*
X165666666Y-129764342D01*
X165666666Y-129764342D02*
X165619047Y-129859580D01*
X165619047Y-129859580D02*
X165571428Y-129907200D01*
X165571428Y-129907200D02*
X165476190Y-129954819D01*
X165476190Y-129954819D02*
X165238095Y-129954819D01*
X165238095Y-129954819D02*
X165142857Y-129907200D01*
X165142857Y-129907200D02*
X165095238Y-129859580D01*
X124666666Y-128954819D02*
X124666666Y-129669104D01*
X124666666Y-129669104D02*
X124619047Y-129811961D01*
X124619047Y-129811961D02*
X124523809Y-129907200D01*
X124523809Y-129907200D02*
X124380952Y-129954819D01*
X124380952Y-129954819D02*
X124285714Y-129954819D01*
X125047619Y-128954819D02*
X125666666Y-128954819D01*
X125666666Y-128954819D02*
X125333333Y-129335771D01*
X125333333Y-129335771D02*
X125476190Y-129335771D01*
X125476190Y-129335771D02*
X125571428Y-129383390D01*
X125571428Y-129383390D02*
X125619047Y-129431009D01*
X125619047Y-129431009D02*
X125666666Y-129526247D01*
X125666666Y-129526247D02*
X125666666Y-129764342D01*
X125666666Y-129764342D02*
X125619047Y-129859580D01*
X125619047Y-129859580D02*
X125571428Y-129907200D01*
X125571428Y-129907200D02*
X125476190Y-129954819D01*
X125476190Y-129954819D02*
X125190476Y-129954819D01*
X125190476Y-129954819D02*
X125095238Y-129907200D01*
X125095238Y-129907200D02*
X125047619Y-129859580D01*
X104666666Y-128954819D02*
X104666666Y-129669104D01*
X104666666Y-129669104D02*
X104619047Y-129811961D01*
X104619047Y-129811961D02*
X104523809Y-129907200D01*
X104523809Y-129907200D02*
X104380952Y-129954819D01*
X104380952Y-129954819D02*
X104285714Y-129954819D01*
X105095238Y-129050057D02*
X105142857Y-129002438D01*
X105142857Y-129002438D02*
X105238095Y-128954819D01*
X105238095Y-128954819D02*
X105476190Y-128954819D01*
X105476190Y-128954819D02*
X105571428Y-129002438D01*
X105571428Y-129002438D02*
X105619047Y-129050057D01*
X105619047Y-129050057D02*
X105666666Y-129145295D01*
X105666666Y-129145295D02*
X105666666Y-129240533D01*
X105666666Y-129240533D02*
X105619047Y-129383390D01*
X105619047Y-129383390D02*
X105047619Y-129954819D01*
X105047619Y-129954819D02*
X105666666Y-129954819D01*
X84666666Y-128954819D02*
X84666666Y-129669104D01*
X84666666Y-129669104D02*
X84619047Y-129811961D01*
X84619047Y-129811961D02*
X84523809Y-129907200D01*
X84523809Y-129907200D02*
X84380952Y-129954819D01*
X84380952Y-129954819D02*
X84285714Y-129954819D01*
X85666666Y-129954819D02*
X85095238Y-129954819D01*
X85380952Y-129954819D02*
X85380952Y-128954819D01*
X85380952Y-128954819D02*
X85285714Y-129097676D01*
X85285714Y-129097676D02*
X85190476Y-129192914D01*
X85190476Y-129192914D02*
X85095238Y-129240533D01*
X152141667Y-54887200D02*
X152284524Y-54934819D01*
X152284524Y-54934819D02*
X152522619Y-54934819D01*
X152522619Y-54934819D02*
X152617857Y-54887200D01*
X152617857Y-54887200D02*
X152665476Y-54839580D01*
X152665476Y-54839580D02*
X152713095Y-54744342D01*
X152713095Y-54744342D02*
X152713095Y-54649104D01*
X152713095Y-54649104D02*
X152665476Y-54553866D01*
X152665476Y-54553866D02*
X152617857Y-54506247D01*
X152617857Y-54506247D02*
X152522619Y-54458628D01*
X152522619Y-54458628D02*
X152332143Y-54411009D01*
X152332143Y-54411009D02*
X152236905Y-54363390D01*
X152236905Y-54363390D02*
X152189286Y-54315771D01*
X152189286Y-54315771D02*
X152141667Y-54220533D01*
X152141667Y-54220533D02*
X152141667Y-54125295D01*
X152141667Y-54125295D02*
X152189286Y-54030057D01*
X152189286Y-54030057D02*
X152236905Y-53982438D01*
X152236905Y-53982438D02*
X152332143Y-53934819D01*
X152332143Y-53934819D02*
X152570238Y-53934819D01*
X152570238Y-53934819D02*
X152713095Y-53982438D01*
X153046429Y-53934819D02*
X153284524Y-54934819D01*
X153284524Y-54934819D02*
X153475000Y-54220533D01*
X153475000Y-54220533D02*
X153665476Y-54934819D01*
X153665476Y-54934819D02*
X153903572Y-53934819D01*
X154236905Y-54030057D02*
X154284524Y-53982438D01*
X154284524Y-53982438D02*
X154379762Y-53934819D01*
X154379762Y-53934819D02*
X154617857Y-53934819D01*
X154617857Y-53934819D02*
X154713095Y-53982438D01*
X154713095Y-53982438D02*
X154760714Y-54030057D01*
X154760714Y-54030057D02*
X154808333Y-54125295D01*
X154808333Y-54125295D02*
X154808333Y-54220533D01*
X154808333Y-54220533D02*
X154760714Y-54363390D01*
X154760714Y-54363390D02*
X154189286Y-54934819D01*
X154189286Y-54934819D02*
X154808333Y-54934819D01*
X166613095Y-48609819D02*
X166613095Y-49419342D01*
X166613095Y-49419342D02*
X166660714Y-49514580D01*
X166660714Y-49514580D02*
X166708333Y-49562200D01*
X166708333Y-49562200D02*
X166803571Y-49609819D01*
X166803571Y-49609819D02*
X166994047Y-49609819D01*
X166994047Y-49609819D02*
X167089285Y-49562200D01*
X167089285Y-49562200D02*
X167136904Y-49514580D01*
X167136904Y-49514580D02*
X167184523Y-49419342D01*
X167184523Y-49419342D02*
X167184523Y-48609819D01*
X167565476Y-48609819D02*
X168184523Y-48609819D01*
X168184523Y-48609819D02*
X167851190Y-48990771D01*
X167851190Y-48990771D02*
X167994047Y-48990771D01*
X167994047Y-48990771D02*
X168089285Y-49038390D01*
X168089285Y-49038390D02*
X168136904Y-49086009D01*
X168136904Y-49086009D02*
X168184523Y-49181247D01*
X168184523Y-49181247D02*
X168184523Y-49419342D01*
X168184523Y-49419342D02*
X168136904Y-49514580D01*
X168136904Y-49514580D02*
X168089285Y-49562200D01*
X168089285Y-49562200D02*
X167994047Y-49609819D01*
X167994047Y-49609819D02*
X167708333Y-49609819D01*
X167708333Y-49609819D02*
X167613095Y-49562200D01*
X167613095Y-49562200D02*
X167565476Y-49514580D01*
X187491667Y-62082200D02*
X187634524Y-62129819D01*
X187634524Y-62129819D02*
X187872619Y-62129819D01*
X187872619Y-62129819D02*
X187967857Y-62082200D01*
X187967857Y-62082200D02*
X188015476Y-62034580D01*
X188015476Y-62034580D02*
X188063095Y-61939342D01*
X188063095Y-61939342D02*
X188063095Y-61844104D01*
X188063095Y-61844104D02*
X188015476Y-61748866D01*
X188015476Y-61748866D02*
X187967857Y-61701247D01*
X187967857Y-61701247D02*
X187872619Y-61653628D01*
X187872619Y-61653628D02*
X187682143Y-61606009D01*
X187682143Y-61606009D02*
X187586905Y-61558390D01*
X187586905Y-61558390D02*
X187539286Y-61510771D01*
X187539286Y-61510771D02*
X187491667Y-61415533D01*
X187491667Y-61415533D02*
X187491667Y-61320295D01*
X187491667Y-61320295D02*
X187539286Y-61225057D01*
X187539286Y-61225057D02*
X187586905Y-61177438D01*
X187586905Y-61177438D02*
X187682143Y-61129819D01*
X187682143Y-61129819D02*
X187920238Y-61129819D01*
X187920238Y-61129819D02*
X188063095Y-61177438D01*
X188396429Y-61129819D02*
X188634524Y-62129819D01*
X188634524Y-62129819D02*
X188825000Y-61415533D01*
X188825000Y-61415533D02*
X189015476Y-62129819D01*
X189015476Y-62129819D02*
X189253572Y-61129819D01*
X190158333Y-62129819D02*
X189586905Y-62129819D01*
X189872619Y-62129819D02*
X189872619Y-61129819D01*
X189872619Y-61129819D02*
X189777381Y-61272676D01*
X189777381Y-61272676D02*
X189682143Y-61367914D01*
X189682143Y-61367914D02*
X189586905Y-61415533D01*
X174608333Y-62179819D02*
X174132143Y-62179819D01*
X174132143Y-62179819D02*
X174132143Y-61179819D01*
X175465476Y-62179819D02*
X174894048Y-62179819D01*
X175179762Y-62179819D02*
X175179762Y-61179819D01*
X175179762Y-61179819D02*
X175084524Y-61322676D01*
X175084524Y-61322676D02*
X174989286Y-61417914D01*
X174989286Y-61417914D02*
X174894048Y-61465533D01*
X182879819Y-51934523D02*
X183594104Y-51934523D01*
X183594104Y-51934523D02*
X183736961Y-51982142D01*
X183736961Y-51982142D02*
X183832200Y-52077380D01*
X183832200Y-52077380D02*
X183879819Y-52220237D01*
X183879819Y-52220237D02*
X183879819Y-52315475D01*
X182879819Y-51553570D02*
X182879819Y-50934523D01*
X182879819Y-50934523D02*
X183260771Y-51267856D01*
X183260771Y-51267856D02*
X183260771Y-51124999D01*
X183260771Y-51124999D02*
X183308390Y-51029761D01*
X183308390Y-51029761D02*
X183356009Y-50982142D01*
X183356009Y-50982142D02*
X183451247Y-50934523D01*
X183451247Y-50934523D02*
X183689342Y-50934523D01*
X183689342Y-50934523D02*
X183784580Y-50982142D01*
X183784580Y-50982142D02*
X183832200Y-51029761D01*
X183832200Y-51029761D02*
X183879819Y-51124999D01*
X183879819Y-51124999D02*
X183879819Y-51410713D01*
X183879819Y-51410713D02*
X183832200Y-51505951D01*
X183832200Y-51505951D02*
X183784580Y-51553570D01*
X182879819Y-50077380D02*
X182879819Y-50267856D01*
X182879819Y-50267856D02*
X182927438Y-50363094D01*
X182927438Y-50363094D02*
X182975057Y-50410713D01*
X182975057Y-50410713D02*
X183117914Y-50505951D01*
X183117914Y-50505951D02*
X183308390Y-50553570D01*
X183308390Y-50553570D02*
X183689342Y-50553570D01*
X183689342Y-50553570D02*
X183784580Y-50505951D01*
X183784580Y-50505951D02*
X183832200Y-50458332D01*
X183832200Y-50458332D02*
X183879819Y-50363094D01*
X183879819Y-50363094D02*
X183879819Y-50172618D01*
X183879819Y-50172618D02*
X183832200Y-50077380D01*
X183832200Y-50077380D02*
X183784580Y-50029761D01*
X183784580Y-50029761D02*
X183689342Y-49982142D01*
X183689342Y-49982142D02*
X183451247Y-49982142D01*
X183451247Y-49982142D02*
X183356009Y-50029761D01*
X183356009Y-50029761D02*
X183308390Y-50077380D01*
X183308390Y-50077380D02*
X183260771Y-50172618D01*
X183260771Y-50172618D02*
X183260771Y-50363094D01*
X183260771Y-50363094D02*
X183308390Y-50458332D01*
X183308390Y-50458332D02*
X183356009Y-50505951D01*
X183356009Y-50505951D02*
X183451247Y-50553570D01*
X91238095Y-116454819D02*
X91238095Y-115454819D01*
X91238095Y-115931009D02*
X91809523Y-115931009D01*
X91809523Y-116454819D02*
X91809523Y-115454819D01*
X92714285Y-115788152D02*
X92714285Y-116454819D01*
X92476190Y-115407200D02*
X92238095Y-116121485D01*
X92238095Y-116121485D02*
X92857142Y-116121485D01*
X177238095Y-116454819D02*
X177238095Y-115454819D01*
X177238095Y-115931009D02*
X177809523Y-115931009D01*
X177809523Y-116454819D02*
X177809523Y-115454819D01*
X178190476Y-115454819D02*
X178809523Y-115454819D01*
X178809523Y-115454819D02*
X178476190Y-115835771D01*
X178476190Y-115835771D02*
X178619047Y-115835771D01*
X178619047Y-115835771D02*
X178714285Y-115883390D01*
X178714285Y-115883390D02*
X178761904Y-115931009D01*
X178761904Y-115931009D02*
X178809523Y-116026247D01*
X178809523Y-116026247D02*
X178809523Y-116264342D01*
X178809523Y-116264342D02*
X178761904Y-116359580D01*
X178761904Y-116359580D02*
X178714285Y-116407200D01*
X178714285Y-116407200D02*
X178619047Y-116454819D01*
X178619047Y-116454819D02*
X178333333Y-116454819D01*
X178333333Y-116454819D02*
X178238095Y-116407200D01*
X178238095Y-116407200D02*
X178190476Y-116359580D01*
X177238095Y-56454819D02*
X177238095Y-55454819D01*
X177238095Y-55931009D02*
X177809523Y-55931009D01*
X177809523Y-56454819D02*
X177809523Y-55454819D01*
X178238095Y-55550057D02*
X178285714Y-55502438D01*
X178285714Y-55502438D02*
X178380952Y-55454819D01*
X178380952Y-55454819D02*
X178619047Y-55454819D01*
X178619047Y-55454819D02*
X178714285Y-55502438D01*
X178714285Y-55502438D02*
X178761904Y-55550057D01*
X178761904Y-55550057D02*
X178809523Y-55645295D01*
X178809523Y-55645295D02*
X178809523Y-55740533D01*
X178809523Y-55740533D02*
X178761904Y-55883390D01*
X178761904Y-55883390D02*
X178190476Y-56454819D01*
X178190476Y-56454819D02*
X178809523Y-56454819D01*
X91238095Y-56454819D02*
X91238095Y-55454819D01*
X91238095Y-55931009D02*
X91809523Y-55931009D01*
X91809523Y-56454819D02*
X91809523Y-55454819D01*
X92809523Y-56454819D02*
X92238095Y-56454819D01*
X92523809Y-56454819D02*
X92523809Y-55454819D01*
X92523809Y-55454819D02*
X92428571Y-55597676D01*
X92428571Y-55597676D02*
X92333333Y-55692914D01*
X92333333Y-55692914D02*
X92238095Y-55740533D01*
X169849819Y-74333094D02*
X168849819Y-74333094D01*
X168849819Y-74333094D02*
X168849819Y-74094999D01*
X168849819Y-74094999D02*
X168897438Y-73952142D01*
X168897438Y-73952142D02*
X168992676Y-73856904D01*
X168992676Y-73856904D02*
X169087914Y-73809285D01*
X169087914Y-73809285D02*
X169278390Y-73761666D01*
X169278390Y-73761666D02*
X169421247Y-73761666D01*
X169421247Y-73761666D02*
X169611723Y-73809285D01*
X169611723Y-73809285D02*
X169706961Y-73856904D01*
X169706961Y-73856904D02*
X169802200Y-73952142D01*
X169802200Y-73952142D02*
X169849819Y-74094999D01*
X169849819Y-74094999D02*
X169849819Y-74333094D01*
X169849819Y-72809285D02*
X169849819Y-73380713D01*
X169849819Y-73094999D02*
X168849819Y-73094999D01*
X168849819Y-73094999D02*
X168992676Y-73190237D01*
X168992676Y-73190237D02*
X169087914Y-73285475D01*
X169087914Y-73285475D02*
X169135533Y-73380713D01*
X168729819Y-66236904D02*
X167729819Y-66236904D01*
X168729819Y-65665476D02*
X168158390Y-66094047D01*
X167729819Y-65665476D02*
X168301247Y-66236904D01*
X175340713Y-79759580D02*
X175293094Y-79807200D01*
X175293094Y-79807200D02*
X175150237Y-79854819D01*
X175150237Y-79854819D02*
X175054999Y-79854819D01*
X175054999Y-79854819D02*
X174912142Y-79807200D01*
X174912142Y-79807200D02*
X174816904Y-79711961D01*
X174816904Y-79711961D02*
X174769285Y-79616723D01*
X174769285Y-79616723D02*
X174721666Y-79426247D01*
X174721666Y-79426247D02*
X174721666Y-79283390D01*
X174721666Y-79283390D02*
X174769285Y-79092914D01*
X174769285Y-79092914D02*
X174816904Y-78997676D01*
X174816904Y-78997676D02*
X174912142Y-78902438D01*
X174912142Y-78902438D02*
X175054999Y-78854819D01*
X175054999Y-78854819D02*
X175150237Y-78854819D01*
X175150237Y-78854819D02*
X175293094Y-78902438D01*
X175293094Y-78902438D02*
X175340713Y-78950057D01*
X175721666Y-78950057D02*
X175769285Y-78902438D01*
X175769285Y-78902438D02*
X175864523Y-78854819D01*
X175864523Y-78854819D02*
X176102618Y-78854819D01*
X176102618Y-78854819D02*
X176197856Y-78902438D01*
X176197856Y-78902438D02*
X176245475Y-78950057D01*
X176245475Y-78950057D02*
X176293094Y-79045295D01*
X176293094Y-79045295D02*
X176293094Y-79140533D01*
X176293094Y-79140533D02*
X176245475Y-79283390D01*
X176245475Y-79283390D02*
X175674047Y-79854819D01*
X175674047Y-79854819D02*
X176293094Y-79854819D01*
X155133333Y-70684580D02*
X155085714Y-70732200D01*
X155085714Y-70732200D02*
X154942857Y-70779819D01*
X154942857Y-70779819D02*
X154847619Y-70779819D01*
X154847619Y-70779819D02*
X154704762Y-70732200D01*
X154704762Y-70732200D02*
X154609524Y-70636961D01*
X154609524Y-70636961D02*
X154561905Y-70541723D01*
X154561905Y-70541723D02*
X154514286Y-70351247D01*
X154514286Y-70351247D02*
X154514286Y-70208390D01*
X154514286Y-70208390D02*
X154561905Y-70017914D01*
X154561905Y-70017914D02*
X154609524Y-69922676D01*
X154609524Y-69922676D02*
X154704762Y-69827438D01*
X154704762Y-69827438D02*
X154847619Y-69779819D01*
X154847619Y-69779819D02*
X154942857Y-69779819D01*
X154942857Y-69779819D02*
X155085714Y-69827438D01*
X155085714Y-69827438D02*
X155133333Y-69875057D01*
X156085714Y-70779819D02*
X155514286Y-70779819D01*
X155800000Y-70779819D02*
X155800000Y-69779819D01*
X155800000Y-69779819D02*
X155704762Y-69922676D01*
X155704762Y-69922676D02*
X155609524Y-70017914D01*
X155609524Y-70017914D02*
X155514286Y-70065533D01*
D11*
%TO.C,U2*%
X132410000Y-71370000D02*
X132410000Y-122170000D01*
X132410000Y-122170000D02*
X157810000Y-122170000D01*
X157810000Y-122170000D02*
X157810000Y-71370000D01*
X157810000Y-71370000D02*
X132410000Y-71370000D01*
D10*
%TO.C,J26*%
X128774660Y-50074100D02*
X128774660Y-64475900D01*
X144375340Y-50074100D02*
X128774660Y-50074100D01*
X144375340Y-64475900D02*
X144375340Y-50074100D01*
X128774660Y-64475900D02*
X144375340Y-64475900D01*
X131075900Y-42576020D02*
X131075900Y-50074100D01*
X142074100Y-42576020D02*
X131075900Y-42576020D01*
X142074100Y-50074100D02*
X142074100Y-42576020D01*
X131774400Y-30574520D02*
X131774400Y-42576020D01*
X141375600Y-30574520D02*
X131774400Y-30574520D01*
X141375600Y-42576020D02*
X141375600Y-30574520D01*
X137575760Y-34575020D02*
G75*
G03*
X137575760Y-34575020I-1000760J0D01*
G01*
X131075900Y-49474660D02*
X142074100Y-48674560D01*
X131075900Y-48674560D02*
X142074100Y-47874460D01*
X131075900Y-47874460D02*
X142074100Y-47074360D01*
X131075900Y-47074360D02*
X142074100Y-46274260D01*
X131075900Y-46274260D02*
X142074100Y-45474160D01*
X131075900Y-45474160D02*
X142074100Y-44674060D01*
D12*
%TO.C,U1*%
X123950000Y-53810000D02*
X123950000Y-108210000D01*
X123950000Y-108210000D02*
X96050000Y-108210000D01*
X96050000Y-108210000D02*
X96050000Y-53810000D01*
X96050000Y-53810000D02*
X123950000Y-53810000D01*
D13*
%TO.C,J4*%
X144750000Y-141700000D02*
X145250000Y-141700000D01*
X147750000Y-136200000D02*
X147250000Y-136200000D01*
X142250000Y-141700000D02*
X142750000Y-141700000D01*
X152560000Y-142310000D02*
X152560000Y-130590000D01*
X137440000Y-142310000D02*
X137440000Y-130590000D01*
X145000000Y-142310000D02*
X137440000Y-142310000D01*
X139750000Y-141700000D02*
X140250000Y-141700000D01*
X139750000Y-136200000D02*
X139750000Y-141700000D01*
X151140000Y-135090000D02*
X145000000Y-135090000D01*
X138860000Y-135090000D02*
X145000000Y-135090000D01*
X149750000Y-136200000D02*
X149750000Y-141700000D01*
X151140000Y-130590000D02*
X151140000Y-135090000D01*
X137440000Y-130590000D02*
X138860000Y-130590000D01*
X147250000Y-141700000D02*
X147750000Y-141700000D01*
X149750000Y-141700000D02*
X150250000Y-141700000D01*
X140250000Y-141700000D02*
X140250000Y-136200000D01*
X145250000Y-141700000D02*
X145250000Y-136200000D01*
X147250000Y-136200000D02*
X147250000Y-141700000D01*
X140250000Y-136200000D02*
X139750000Y-136200000D01*
X140000000Y-131500000D02*
X139700000Y-130900000D01*
X140300000Y-130900000D02*
X140000000Y-131500000D01*
X138860000Y-130590000D02*
X138860000Y-135090000D01*
X142250000Y-136200000D02*
X142250000Y-141700000D01*
X145000000Y-142310000D02*
X152560000Y-142310000D01*
X152560000Y-130590000D02*
X151140000Y-130590000D01*
X150250000Y-136200000D02*
X149750000Y-136200000D01*
X145250000Y-136200000D02*
X144750000Y-136200000D01*
X139700000Y-130900000D02*
X140300000Y-130900000D01*
X144750000Y-136200000D02*
X144750000Y-141700000D01*
X150250000Y-141700000D02*
X150250000Y-136200000D01*
X147750000Y-141700000D02*
X147750000Y-136200000D01*
X142750000Y-141700000D02*
X142750000Y-136200000D01*
X142750000Y-136200000D02*
X142250000Y-136200000D01*
%TO.C,R2*%
X162490000Y-87325000D02*
X164450000Y-87325000D01*
X164450000Y-85605000D02*
X164450000Y-89045000D01*
X175650000Y-87325000D02*
X173690000Y-87325000D01*
X164450000Y-89045000D02*
X173690000Y-89045000D01*
X173690000Y-89045000D02*
X173690000Y-85605000D01*
X173690000Y-85605000D02*
X164450000Y-85605000D01*
%TO.C,R1*%
X162490000Y-92075000D02*
X164450000Y-92075000D01*
X164450000Y-90355000D02*
X164450000Y-93795000D01*
X175650000Y-92075000D02*
X173690000Y-92075000D01*
X164450000Y-93795000D02*
X173690000Y-93795000D01*
X173690000Y-93795000D02*
X173690000Y-90355000D01*
X173690000Y-90355000D02*
X164450000Y-90355000D01*
%TO.C,J35*%
X81800000Y-122750000D02*
X81800000Y-122250000D01*
X81800000Y-117750000D02*
X81800000Y-117250000D01*
X81800000Y-122250000D02*
X76300000Y-122250000D01*
X87100000Y-117200000D02*
X87100000Y-117800000D01*
X75690000Y-121250000D02*
X75690000Y-114940000D01*
X81800000Y-125250000D02*
X81800000Y-124750000D01*
X87100000Y-117800000D02*
X86500000Y-117500000D01*
X87410000Y-116360000D02*
X82910000Y-116360000D01*
X81800000Y-120250000D02*
X81800000Y-119750000D01*
X82910000Y-126140000D02*
X82910000Y-121250000D01*
X87410000Y-127560000D02*
X87410000Y-126140000D01*
X76300000Y-117250000D02*
X76300000Y-117750000D01*
X87410000Y-126140000D02*
X82910000Y-126140000D01*
X76300000Y-120250000D02*
X81800000Y-120250000D01*
X86500000Y-117500000D02*
X87100000Y-117200000D01*
X76300000Y-124750000D02*
X76300000Y-125250000D01*
X76300000Y-119750000D02*
X76300000Y-120250000D01*
X75690000Y-121250000D02*
X75690000Y-127560000D01*
X81800000Y-117250000D02*
X76300000Y-117250000D01*
X76300000Y-117750000D02*
X81800000Y-117750000D01*
X87410000Y-114940000D02*
X87410000Y-116360000D01*
X75690000Y-127560000D02*
X87410000Y-127560000D01*
X81800000Y-119750000D02*
X76300000Y-119750000D01*
X76300000Y-125250000D02*
X81800000Y-125250000D01*
X75690000Y-114940000D02*
X87410000Y-114940000D01*
X82910000Y-116360000D02*
X82910000Y-121250000D01*
X81800000Y-124750000D02*
X76300000Y-124750000D01*
X76300000Y-122250000D02*
X76300000Y-122750000D01*
X76300000Y-122750000D02*
X81800000Y-122750000D01*
%TO.C,J34*%
X81800000Y-62750000D02*
X81800000Y-62250000D01*
X81800000Y-57750000D02*
X81800000Y-57250000D01*
X81800000Y-62250000D02*
X76300000Y-62250000D01*
X87100000Y-57200000D02*
X87100000Y-57800000D01*
X75690000Y-61250000D02*
X75690000Y-54940000D01*
X81800000Y-65250000D02*
X81800000Y-64750000D01*
X87100000Y-57800000D02*
X86500000Y-57500000D01*
X87410000Y-56360000D02*
X82910000Y-56360000D01*
X81800000Y-60250000D02*
X81800000Y-59750000D01*
X82910000Y-66140000D02*
X82910000Y-61250000D01*
X87410000Y-67560000D02*
X87410000Y-66140000D01*
X76300000Y-57250000D02*
X76300000Y-57750000D01*
X87410000Y-66140000D02*
X82910000Y-66140000D01*
X76300000Y-60250000D02*
X81800000Y-60250000D01*
X86500000Y-57500000D02*
X87100000Y-57200000D01*
X76300000Y-64750000D02*
X76300000Y-65250000D01*
X76300000Y-59750000D02*
X76300000Y-60250000D01*
X75690000Y-61250000D02*
X75690000Y-67560000D01*
X81800000Y-57250000D02*
X76300000Y-57250000D01*
X76300000Y-57750000D02*
X81800000Y-57750000D01*
X87410000Y-54940000D02*
X87410000Y-56360000D01*
X75690000Y-67560000D02*
X87410000Y-67560000D01*
X81800000Y-59750000D02*
X76300000Y-59750000D01*
X76300000Y-65250000D02*
X81800000Y-65250000D01*
X75690000Y-54940000D02*
X87410000Y-54940000D01*
X82910000Y-56360000D02*
X82910000Y-61250000D01*
X81800000Y-64750000D02*
X76300000Y-64750000D01*
X76300000Y-62250000D02*
X76300000Y-62750000D01*
X76300000Y-62750000D02*
X81800000Y-62750000D01*
%TO.C,J33*%
X81800000Y-77750000D02*
X81800000Y-77250000D01*
X81800000Y-72750000D02*
X81800000Y-72250000D01*
X81800000Y-77250000D02*
X76300000Y-77250000D01*
X87100000Y-72200000D02*
X87100000Y-72800000D01*
X75690000Y-76250000D02*
X75690000Y-69940000D01*
X81800000Y-80250000D02*
X81800000Y-79750000D01*
X87100000Y-72800000D02*
X86500000Y-72500000D01*
X87410000Y-71360000D02*
X82910000Y-71360000D01*
X81800000Y-75250000D02*
X81800000Y-74750000D01*
X82910000Y-81140000D02*
X82910000Y-76250000D01*
X87410000Y-82560000D02*
X87410000Y-81140000D01*
X76300000Y-72250000D02*
X76300000Y-72750000D01*
X87410000Y-81140000D02*
X82910000Y-81140000D01*
X76300000Y-75250000D02*
X81800000Y-75250000D01*
X86500000Y-72500000D02*
X87100000Y-72200000D01*
X76300000Y-79750000D02*
X76300000Y-80250000D01*
X76300000Y-74750000D02*
X76300000Y-75250000D01*
X75690000Y-76250000D02*
X75690000Y-82560000D01*
X81800000Y-72250000D02*
X76300000Y-72250000D01*
X76300000Y-72750000D02*
X81800000Y-72750000D01*
X87410000Y-69940000D02*
X87410000Y-71360000D01*
X75690000Y-82560000D02*
X87410000Y-82560000D01*
X81800000Y-74750000D02*
X76300000Y-74750000D01*
X76300000Y-80250000D02*
X81800000Y-80250000D01*
X75690000Y-69940000D02*
X87410000Y-69940000D01*
X82910000Y-71360000D02*
X82910000Y-76250000D01*
X81800000Y-79750000D02*
X76300000Y-79750000D01*
X76300000Y-77250000D02*
X76300000Y-77750000D01*
X76300000Y-77750000D02*
X81800000Y-77750000D01*
%TO.C,J32*%
X76300000Y-92750000D02*
X81800000Y-92750000D01*
X76300000Y-92250000D02*
X76300000Y-92750000D01*
X81800000Y-94750000D02*
X76300000Y-94750000D01*
X82910000Y-86360000D02*
X82910000Y-91250000D01*
X75690000Y-84940000D02*
X87410000Y-84940000D01*
X76300000Y-95250000D02*
X81800000Y-95250000D01*
X81800000Y-89750000D02*
X76300000Y-89750000D01*
X75690000Y-97560000D02*
X87410000Y-97560000D01*
X87410000Y-84940000D02*
X87410000Y-86360000D01*
X76300000Y-87750000D02*
X81800000Y-87750000D01*
X81800000Y-87250000D02*
X76300000Y-87250000D01*
X75690000Y-91250000D02*
X75690000Y-97560000D01*
X76300000Y-89750000D02*
X76300000Y-90250000D01*
X76300000Y-94750000D02*
X76300000Y-95250000D01*
X86500000Y-87500000D02*
X87100000Y-87200000D01*
X76300000Y-90250000D02*
X81800000Y-90250000D01*
X87410000Y-96140000D02*
X82910000Y-96140000D01*
X76300000Y-87250000D02*
X76300000Y-87750000D01*
X87410000Y-97560000D02*
X87410000Y-96140000D01*
X82910000Y-96140000D02*
X82910000Y-91250000D01*
X81800000Y-90250000D02*
X81800000Y-89750000D01*
X87410000Y-86360000D02*
X82910000Y-86360000D01*
X87100000Y-87800000D02*
X86500000Y-87500000D01*
X81800000Y-95250000D02*
X81800000Y-94750000D01*
X75690000Y-91250000D02*
X75690000Y-84940000D01*
X87100000Y-87200000D02*
X87100000Y-87800000D01*
X81800000Y-92250000D02*
X76300000Y-92250000D01*
X81800000Y-87750000D02*
X81800000Y-87250000D01*
X81800000Y-92750000D02*
X81800000Y-92250000D01*
%TO.C,J31*%
X193700000Y-119750000D02*
X188200000Y-119750000D01*
X193700000Y-120250000D02*
X193700000Y-119750000D01*
X188200000Y-117750000D02*
X193700000Y-117750000D01*
X187090000Y-126140000D02*
X187090000Y-121250000D01*
X194310000Y-127560000D02*
X182590000Y-127560000D01*
X193700000Y-117250000D02*
X188200000Y-117250000D01*
X188200000Y-122750000D02*
X193700000Y-122750000D01*
X194310000Y-114940000D02*
X182590000Y-114940000D01*
X182590000Y-127560000D02*
X182590000Y-126140000D01*
X193700000Y-124750000D02*
X188200000Y-124750000D01*
X188200000Y-125250000D02*
X193700000Y-125250000D01*
X194310000Y-121250000D02*
X194310000Y-114940000D01*
X193700000Y-122750000D02*
X193700000Y-122250000D01*
X193700000Y-117750000D02*
X193700000Y-117250000D01*
X183500000Y-125000000D02*
X182900000Y-125300000D01*
X193700000Y-122250000D02*
X188200000Y-122250000D01*
X182590000Y-116360000D02*
X187090000Y-116360000D01*
X193700000Y-125250000D02*
X193700000Y-124750000D01*
X182590000Y-114940000D02*
X182590000Y-116360000D01*
X187090000Y-116360000D02*
X187090000Y-121250000D01*
X188200000Y-122250000D02*
X188200000Y-122750000D01*
X182590000Y-126140000D02*
X187090000Y-126140000D01*
X182900000Y-124700000D02*
X183500000Y-125000000D01*
X188200000Y-117250000D02*
X188200000Y-117750000D01*
X194310000Y-121250000D02*
X194310000Y-127560000D01*
X182900000Y-125300000D02*
X182900000Y-124700000D01*
X188200000Y-120250000D02*
X193700000Y-120250000D01*
X188200000Y-124750000D02*
X188200000Y-125250000D01*
X188200000Y-119750000D02*
X188200000Y-120250000D01*
%TO.C,J30*%
X81300000Y-107750000D02*
X81300000Y-107250000D01*
X81300000Y-102750000D02*
X81300000Y-102250000D01*
X81300000Y-107250000D02*
X75800000Y-107250000D01*
X86600000Y-102200000D02*
X86600000Y-102800000D01*
X75190000Y-106250000D02*
X75190000Y-99940000D01*
X81300000Y-110250000D02*
X81300000Y-109750000D01*
X86600000Y-102800000D02*
X86000000Y-102500000D01*
X86910000Y-101360000D02*
X82410000Y-101360000D01*
X81300000Y-105250000D02*
X81300000Y-104750000D01*
X82410000Y-111140000D02*
X82410000Y-106250000D01*
X86910000Y-112560000D02*
X86910000Y-111140000D01*
X75800000Y-102250000D02*
X75800000Y-102750000D01*
X86910000Y-111140000D02*
X82410000Y-111140000D01*
X75800000Y-105250000D02*
X81300000Y-105250000D01*
X86000000Y-102500000D02*
X86600000Y-102200000D01*
X75800000Y-109750000D02*
X75800000Y-110250000D01*
X75800000Y-104750000D02*
X75800000Y-105250000D01*
X75190000Y-106250000D02*
X75190000Y-112560000D01*
X81300000Y-102250000D02*
X75800000Y-102250000D01*
X75800000Y-102750000D02*
X81300000Y-102750000D01*
X86910000Y-99940000D02*
X86910000Y-101360000D01*
X75190000Y-112560000D02*
X86910000Y-112560000D01*
X81300000Y-104750000D02*
X75800000Y-104750000D01*
X75800000Y-110250000D02*
X81300000Y-110250000D01*
X75190000Y-99940000D02*
X86910000Y-99940000D01*
X82410000Y-101360000D02*
X82410000Y-106250000D01*
X81300000Y-109750000D02*
X75800000Y-109750000D01*
X75800000Y-107250000D02*
X75800000Y-107750000D01*
X75800000Y-107750000D02*
X81300000Y-107750000D01*
%TO.C,J29*%
X188200000Y-104750000D02*
X188200000Y-105250000D01*
X188200000Y-109750000D02*
X188200000Y-110250000D01*
X188200000Y-105250000D02*
X193700000Y-105250000D01*
X182900000Y-110300000D02*
X182900000Y-109700000D01*
X194310000Y-106250000D02*
X194310000Y-112560000D01*
X188200000Y-102250000D02*
X188200000Y-102750000D01*
X182900000Y-109700000D02*
X183500000Y-110000000D01*
X182590000Y-111140000D02*
X187090000Y-111140000D01*
X188200000Y-107250000D02*
X188200000Y-107750000D01*
X187090000Y-101360000D02*
X187090000Y-106250000D01*
X182590000Y-99940000D02*
X182590000Y-101360000D01*
X193700000Y-110250000D02*
X193700000Y-109750000D01*
X182590000Y-101360000D02*
X187090000Y-101360000D01*
X193700000Y-107250000D02*
X188200000Y-107250000D01*
X183500000Y-110000000D02*
X182900000Y-110300000D01*
X193700000Y-102750000D02*
X193700000Y-102250000D01*
X193700000Y-107750000D02*
X193700000Y-107250000D01*
X194310000Y-106250000D02*
X194310000Y-99940000D01*
X188200000Y-110250000D02*
X193700000Y-110250000D01*
X193700000Y-109750000D02*
X188200000Y-109750000D01*
X182590000Y-112560000D02*
X182590000Y-111140000D01*
X194310000Y-99940000D02*
X182590000Y-99940000D01*
X188200000Y-107750000D02*
X193700000Y-107750000D01*
X193700000Y-102250000D02*
X188200000Y-102250000D01*
X194310000Y-112560000D02*
X182590000Y-112560000D01*
X187090000Y-111140000D02*
X187090000Y-106250000D01*
X188200000Y-102750000D02*
X193700000Y-102750000D01*
X193700000Y-105250000D02*
X193700000Y-104750000D01*
X193700000Y-104750000D02*
X188200000Y-104750000D01*
%TO.C,J28*%
X193700000Y-89750000D02*
X188200000Y-89750000D01*
X193700000Y-90250000D02*
X193700000Y-89750000D01*
X188200000Y-87750000D02*
X193700000Y-87750000D01*
X187090000Y-96140000D02*
X187090000Y-91250000D01*
X194310000Y-97560000D02*
X182590000Y-97560000D01*
X193700000Y-87250000D02*
X188200000Y-87250000D01*
X188200000Y-92750000D02*
X193700000Y-92750000D01*
X194310000Y-84940000D02*
X182590000Y-84940000D01*
X182590000Y-97560000D02*
X182590000Y-96140000D01*
X193700000Y-94750000D02*
X188200000Y-94750000D01*
X188200000Y-95250000D02*
X193700000Y-95250000D01*
X194310000Y-91250000D02*
X194310000Y-84940000D01*
X193700000Y-92750000D02*
X193700000Y-92250000D01*
X193700000Y-87750000D02*
X193700000Y-87250000D01*
X183500000Y-95000000D02*
X182900000Y-95300000D01*
X193700000Y-92250000D02*
X188200000Y-92250000D01*
X182590000Y-86360000D02*
X187090000Y-86360000D01*
X193700000Y-95250000D02*
X193700000Y-94750000D01*
X182590000Y-84940000D02*
X182590000Y-86360000D01*
X187090000Y-86360000D02*
X187090000Y-91250000D01*
X188200000Y-92250000D02*
X188200000Y-92750000D01*
X182590000Y-96140000D02*
X187090000Y-96140000D01*
X182900000Y-94700000D02*
X183500000Y-95000000D01*
X188200000Y-87250000D02*
X188200000Y-87750000D01*
X194310000Y-91250000D02*
X194310000Y-97560000D01*
X182900000Y-95300000D02*
X182900000Y-94700000D01*
X188200000Y-90250000D02*
X193700000Y-90250000D01*
X188200000Y-94750000D02*
X188200000Y-95250000D01*
X188200000Y-89750000D02*
X188200000Y-90250000D01*
%TO.C,J27*%
X193700000Y-74750000D02*
X188200000Y-74750000D01*
X193700000Y-75250000D02*
X193700000Y-74750000D01*
X188200000Y-72750000D02*
X193700000Y-72750000D01*
X187090000Y-81140000D02*
X187090000Y-76250000D01*
X194310000Y-82560000D02*
X182590000Y-82560000D01*
X193700000Y-72250000D02*
X188200000Y-72250000D01*
X188200000Y-77750000D02*
X193700000Y-77750000D01*
X194310000Y-69940000D02*
X182590000Y-69940000D01*
X182590000Y-82560000D02*
X182590000Y-81140000D01*
X193700000Y-79750000D02*
X188200000Y-79750000D01*
X188200000Y-80250000D02*
X193700000Y-80250000D01*
X194310000Y-76250000D02*
X194310000Y-69940000D01*
X193700000Y-77750000D02*
X193700000Y-77250000D01*
X193700000Y-72750000D02*
X193700000Y-72250000D01*
X183500000Y-80000000D02*
X182900000Y-80300000D01*
X193700000Y-77250000D02*
X188200000Y-77250000D01*
X182590000Y-71360000D02*
X187090000Y-71360000D01*
X193700000Y-80250000D02*
X193700000Y-79750000D01*
X182590000Y-69940000D02*
X182590000Y-71360000D01*
X187090000Y-71360000D02*
X187090000Y-76250000D01*
X188200000Y-77250000D02*
X188200000Y-77750000D01*
X182590000Y-81140000D02*
X187090000Y-81140000D01*
X182900000Y-79700000D02*
X183500000Y-80000000D01*
X188200000Y-72250000D02*
X188200000Y-72750000D01*
X194310000Y-76250000D02*
X194310000Y-82560000D01*
X182900000Y-80300000D02*
X182900000Y-79700000D01*
X188200000Y-75250000D02*
X193700000Y-75250000D01*
X188200000Y-79750000D02*
X188200000Y-80250000D01*
X188200000Y-74750000D02*
X188200000Y-75250000D01*
%TO.C,J6*%
X184750000Y-141700000D02*
X185250000Y-141700000D01*
X187750000Y-136200000D02*
X187250000Y-136200000D01*
X182250000Y-141700000D02*
X182750000Y-141700000D01*
X192560000Y-142310000D02*
X192560000Y-130590000D01*
X177440000Y-142310000D02*
X177440000Y-130590000D01*
X185000000Y-142310000D02*
X177440000Y-142310000D01*
X179750000Y-141700000D02*
X180250000Y-141700000D01*
X179750000Y-136200000D02*
X179750000Y-141700000D01*
X191140000Y-135090000D02*
X185000000Y-135090000D01*
X178860000Y-135090000D02*
X185000000Y-135090000D01*
X189750000Y-136200000D02*
X189750000Y-141700000D01*
X191140000Y-130590000D02*
X191140000Y-135090000D01*
X177440000Y-130590000D02*
X178860000Y-130590000D01*
X187250000Y-141700000D02*
X187750000Y-141700000D01*
X189750000Y-141700000D02*
X190250000Y-141700000D01*
X180250000Y-141700000D02*
X180250000Y-136200000D01*
X185250000Y-141700000D02*
X185250000Y-136200000D01*
X187250000Y-136200000D02*
X187250000Y-141700000D01*
X180250000Y-136200000D02*
X179750000Y-136200000D01*
X180000000Y-131500000D02*
X179700000Y-130900000D01*
X180300000Y-130900000D02*
X180000000Y-131500000D01*
X178860000Y-130590000D02*
X178860000Y-135090000D01*
X182250000Y-136200000D02*
X182250000Y-141700000D01*
X185000000Y-142310000D02*
X192560000Y-142310000D01*
X192560000Y-130590000D02*
X191140000Y-130590000D01*
X190250000Y-136200000D02*
X189750000Y-136200000D01*
X185250000Y-136200000D02*
X184750000Y-136200000D01*
X179700000Y-130900000D02*
X180300000Y-130900000D01*
X184750000Y-136200000D02*
X184750000Y-141700000D01*
X190250000Y-141700000D02*
X190250000Y-136200000D01*
X187750000Y-141700000D02*
X187750000Y-136200000D01*
X182750000Y-141700000D02*
X182750000Y-136200000D01*
X182750000Y-136200000D02*
X182250000Y-136200000D01*
%TO.C,J5*%
X164750000Y-141700000D02*
X165250000Y-141700000D01*
X167750000Y-136200000D02*
X167250000Y-136200000D01*
X162250000Y-141700000D02*
X162750000Y-141700000D01*
X172560000Y-142310000D02*
X172560000Y-130590000D01*
X157440000Y-142310000D02*
X157440000Y-130590000D01*
X165000000Y-142310000D02*
X157440000Y-142310000D01*
X159750000Y-141700000D02*
X160250000Y-141700000D01*
X159750000Y-136200000D02*
X159750000Y-141700000D01*
X171140000Y-135090000D02*
X165000000Y-135090000D01*
X158860000Y-135090000D02*
X165000000Y-135090000D01*
X169750000Y-136200000D02*
X169750000Y-141700000D01*
X171140000Y-130590000D02*
X171140000Y-135090000D01*
X157440000Y-130590000D02*
X158860000Y-130590000D01*
X167250000Y-141700000D02*
X167750000Y-141700000D01*
X169750000Y-141700000D02*
X170250000Y-141700000D01*
X160250000Y-141700000D02*
X160250000Y-136200000D01*
X165250000Y-141700000D02*
X165250000Y-136200000D01*
X167250000Y-136200000D02*
X167250000Y-141700000D01*
X160250000Y-136200000D02*
X159750000Y-136200000D01*
X160000000Y-131500000D02*
X159700000Y-130900000D01*
X160300000Y-130900000D02*
X160000000Y-131500000D01*
X158860000Y-130590000D02*
X158860000Y-135090000D01*
X162250000Y-136200000D02*
X162250000Y-141700000D01*
X165000000Y-142310000D02*
X172560000Y-142310000D01*
X172560000Y-130590000D02*
X171140000Y-130590000D01*
X170250000Y-136200000D02*
X169750000Y-136200000D01*
X165250000Y-136200000D02*
X164750000Y-136200000D01*
X159700000Y-130900000D02*
X160300000Y-130900000D01*
X164750000Y-136200000D02*
X164750000Y-141700000D01*
X170250000Y-141700000D02*
X170250000Y-136200000D01*
X167750000Y-141700000D02*
X167750000Y-136200000D01*
X162750000Y-141700000D02*
X162750000Y-136200000D01*
X162750000Y-136200000D02*
X162250000Y-136200000D01*
%TO.C,J3*%
X124750000Y-141700000D02*
X125250000Y-141700000D01*
X127750000Y-136200000D02*
X127250000Y-136200000D01*
X122250000Y-141700000D02*
X122750000Y-141700000D01*
X132560000Y-142310000D02*
X132560000Y-130590000D01*
X117440000Y-142310000D02*
X117440000Y-130590000D01*
X125000000Y-142310000D02*
X117440000Y-142310000D01*
X119750000Y-141700000D02*
X120250000Y-141700000D01*
X119750000Y-136200000D02*
X119750000Y-141700000D01*
X131140000Y-135090000D02*
X125000000Y-135090000D01*
X118860000Y-135090000D02*
X125000000Y-135090000D01*
X129750000Y-136200000D02*
X129750000Y-141700000D01*
X131140000Y-130590000D02*
X131140000Y-135090000D01*
X117440000Y-130590000D02*
X118860000Y-130590000D01*
X127250000Y-141700000D02*
X127750000Y-141700000D01*
X129750000Y-141700000D02*
X130250000Y-141700000D01*
X120250000Y-141700000D02*
X120250000Y-136200000D01*
X125250000Y-141700000D02*
X125250000Y-136200000D01*
X127250000Y-136200000D02*
X127250000Y-141700000D01*
X120250000Y-136200000D02*
X119750000Y-136200000D01*
X120000000Y-131500000D02*
X119700000Y-130900000D01*
X120300000Y-130900000D02*
X120000000Y-131500000D01*
X118860000Y-130590000D02*
X118860000Y-135090000D01*
X122250000Y-136200000D02*
X122250000Y-141700000D01*
X125000000Y-142310000D02*
X132560000Y-142310000D01*
X132560000Y-130590000D02*
X131140000Y-130590000D01*
X130250000Y-136200000D02*
X129750000Y-136200000D01*
X125250000Y-136200000D02*
X124750000Y-136200000D01*
X119700000Y-130900000D02*
X120300000Y-130900000D01*
X124750000Y-136200000D02*
X124750000Y-141700000D01*
X130250000Y-141700000D02*
X130250000Y-136200000D01*
X127750000Y-141700000D02*
X127750000Y-136200000D01*
X122750000Y-141700000D02*
X122750000Y-136200000D01*
X122750000Y-136200000D02*
X122250000Y-136200000D01*
%TO.C,J2*%
X104750000Y-141700000D02*
X105250000Y-141700000D01*
X107750000Y-136200000D02*
X107250000Y-136200000D01*
X102250000Y-141700000D02*
X102750000Y-141700000D01*
X112560000Y-142310000D02*
X112560000Y-130590000D01*
X97440000Y-142310000D02*
X97440000Y-130590000D01*
X105000000Y-142310000D02*
X97440000Y-142310000D01*
X99750000Y-141700000D02*
X100250000Y-141700000D01*
X99750000Y-136200000D02*
X99750000Y-141700000D01*
X111140000Y-135090000D02*
X105000000Y-135090000D01*
X98860000Y-135090000D02*
X105000000Y-135090000D01*
X109750000Y-136200000D02*
X109750000Y-141700000D01*
X111140000Y-130590000D02*
X111140000Y-135090000D01*
X97440000Y-130590000D02*
X98860000Y-130590000D01*
X107250000Y-141700000D02*
X107750000Y-141700000D01*
X109750000Y-141700000D02*
X110250000Y-141700000D01*
X100250000Y-141700000D02*
X100250000Y-136200000D01*
X105250000Y-141700000D02*
X105250000Y-136200000D01*
X107250000Y-136200000D02*
X107250000Y-141700000D01*
X100250000Y-136200000D02*
X99750000Y-136200000D01*
X100000000Y-131500000D02*
X99700000Y-130900000D01*
X100300000Y-130900000D02*
X100000000Y-131500000D01*
X98860000Y-130590000D02*
X98860000Y-135090000D01*
X102250000Y-136200000D02*
X102250000Y-141700000D01*
X105000000Y-142310000D02*
X112560000Y-142310000D01*
X112560000Y-130590000D02*
X111140000Y-130590000D01*
X110250000Y-136200000D02*
X109750000Y-136200000D01*
X105250000Y-136200000D02*
X104750000Y-136200000D01*
X99700000Y-130900000D02*
X100300000Y-130900000D01*
X104750000Y-136200000D02*
X104750000Y-141700000D01*
X110250000Y-141700000D02*
X110250000Y-136200000D01*
X107750000Y-141700000D02*
X107750000Y-136200000D01*
X102750000Y-141700000D02*
X102750000Y-136200000D01*
X102750000Y-136200000D02*
X102250000Y-136200000D01*
%TO.C,J1*%
X84750000Y-141700000D02*
X85250000Y-141700000D01*
X87750000Y-136200000D02*
X87250000Y-136200000D01*
X82250000Y-141700000D02*
X82750000Y-141700000D01*
X92560000Y-142310000D02*
X92560000Y-130590000D01*
X77440000Y-142310000D02*
X77440000Y-130590000D01*
X85000000Y-142310000D02*
X77440000Y-142310000D01*
X79750000Y-141700000D02*
X80250000Y-141700000D01*
X79750000Y-136200000D02*
X79750000Y-141700000D01*
X91140000Y-135090000D02*
X85000000Y-135090000D01*
X78860000Y-135090000D02*
X85000000Y-135090000D01*
X89750000Y-136200000D02*
X89750000Y-141700000D01*
X91140000Y-130590000D02*
X91140000Y-135090000D01*
X77440000Y-130590000D02*
X78860000Y-130590000D01*
X87250000Y-141700000D02*
X87750000Y-141700000D01*
X89750000Y-141700000D02*
X90250000Y-141700000D01*
X80250000Y-141700000D02*
X80250000Y-136200000D01*
X85250000Y-141700000D02*
X85250000Y-136200000D01*
X87250000Y-136200000D02*
X87250000Y-141700000D01*
X80250000Y-136200000D02*
X79750000Y-136200000D01*
X80000000Y-131500000D02*
X79700000Y-130900000D01*
X80300000Y-130900000D02*
X80000000Y-131500000D01*
X78860000Y-130590000D02*
X78860000Y-135090000D01*
X82250000Y-136200000D02*
X82250000Y-141700000D01*
X85000000Y-142310000D02*
X92560000Y-142310000D01*
X92560000Y-130590000D02*
X91140000Y-130590000D01*
X90250000Y-136200000D02*
X89750000Y-136200000D01*
X85250000Y-136200000D02*
X84750000Y-136200000D01*
X79700000Y-130900000D02*
X80300000Y-130900000D01*
X84750000Y-136200000D02*
X84750000Y-141700000D01*
X90250000Y-141700000D02*
X90250000Y-136200000D01*
X87750000Y-141700000D02*
X87750000Y-136200000D01*
X82750000Y-141700000D02*
X82750000Y-136200000D01*
X82750000Y-136200000D02*
X82250000Y-136200000D01*
%TO.C,SW2*%
X149615000Y-50100000D02*
X149615000Y-54000000D01*
X156815000Y-56600000D02*
X156815000Y-57110000D01*
X149615000Y-57110000D02*
X150135000Y-57110000D01*
X156275000Y-53770000D02*
X156815000Y-53770000D01*
X156815000Y-57110000D02*
X157335000Y-57110000D01*
X150135000Y-53770000D02*
X150135000Y-54000000D01*
X149615000Y-56600000D02*
X149615000Y-57110000D01*
X150135000Y-56600000D02*
X150135000Y-57110000D01*
X156815000Y-53770000D02*
X156815000Y-54000000D01*
X150135000Y-53770000D02*
X150675000Y-53770000D01*
X157335000Y-56600000D02*
X157335000Y-57110000D01*
X157335000Y-50100000D02*
X157335000Y-54000000D01*
X151775000Y-53770000D02*
X155175000Y-53770000D01*
X149615000Y-50100000D02*
X157335000Y-50100000D01*
%TO.C,U3*%
X162254000Y-51664000D02*
X172495000Y-51664000D01*
X172495000Y-50155000D02*
X172495000Y-54796000D01*
X162254000Y-50155000D02*
X172495000Y-50155000D01*
X165525000Y-50155000D02*
X165525000Y-51664000D01*
X166740000Y-54796000D02*
X168010000Y-54796000D01*
X162254000Y-50155000D02*
X162254000Y-54796000D01*
X170775000Y-54796000D02*
X170775000Y-57410000D01*
X169225000Y-50155000D02*
X169225000Y-51664000D01*
X167375000Y-54796000D02*
X167375000Y-57410000D01*
X163975000Y-54796000D02*
X163975000Y-57426000D01*
X170140000Y-54796000D02*
X172495000Y-54796000D01*
X162254000Y-54796000D02*
X164610000Y-54796000D01*
%TO.C,SW1*%
X183475000Y-62475000D02*
X183475000Y-63725000D01*
X183765000Y-68735000D02*
X193885000Y-68735000D01*
X187075000Y-63525000D02*
X190575000Y-63525000D01*
X183775000Y-63525000D02*
X185575000Y-63525000D01*
X193885000Y-68735000D02*
X193885000Y-62765000D01*
X187075000Y-62775000D02*
X187075000Y-63525000D01*
X185575000Y-63525000D02*
X185575000Y-62775000D01*
X192075000Y-63525000D02*
X193875000Y-63525000D01*
X184525000Y-65025000D02*
X184525000Y-67975000D01*
X183775000Y-65025000D02*
X184525000Y-65025000D01*
X183765000Y-62765000D02*
X183765000Y-68735000D01*
X190575000Y-63525000D02*
X190575000Y-62775000D01*
X184525000Y-67975000D02*
X188825000Y-67975000D01*
X183775000Y-62775000D02*
X183775000Y-63525000D01*
X193885000Y-62765000D02*
X183765000Y-62765000D01*
X184725000Y-62475000D02*
X183475000Y-62475000D01*
X193875000Y-63525000D02*
X193875000Y-62775000D01*
X190575000Y-62775000D02*
X187075000Y-62775000D01*
X193125000Y-65025000D02*
X193125000Y-67975000D01*
X193875000Y-65025000D02*
X193125000Y-65025000D01*
X192075000Y-62775000D02*
X192075000Y-63525000D01*
X185575000Y-62775000D02*
X183775000Y-62775000D01*
X193875000Y-62775000D02*
X192075000Y-62775000D01*
X193125000Y-67975000D02*
X188825000Y-67975000D01*
%TO.C,L1*%
X177629260Y-64715000D02*
G75*
G03*
X171920740Y-64715000I-2854260J-1260000D01*
G01*
X171920740Y-67235000D02*
G75*
G03*
X177629260Y-67235000I2854260J1260000D01*
G01*
%TO.C,J36*%
X193775000Y-45775000D02*
X193775000Y-60475000D01*
X184575000Y-45775000D02*
X193775000Y-45775000D01*
X184575000Y-60475000D02*
X184575000Y-58575000D01*
X187275000Y-60475000D02*
X184575000Y-60475000D01*
X193775000Y-60475000D02*
X191175000Y-60475000D01*
X184575000Y-54575000D02*
X184575000Y-45775000D01*
X192925000Y-60675000D02*
X193975000Y-60675000D01*
X193975000Y-59625000D02*
X193975000Y-60675000D01*
%TO.C,D1*%
X162955000Y-68725000D02*
X162955000Y-78465000D01*
X165675000Y-67815000D02*
X165675000Y-68725000D01*
X168395000Y-70150000D02*
X162955000Y-70150000D01*
X165675000Y-79375000D02*
X165675000Y-78465000D01*
X168395000Y-78465000D02*
X168395000Y-68725000D01*
X168395000Y-70390000D02*
X162955000Y-70390000D01*
X168395000Y-68725000D02*
X162955000Y-68725000D01*
X162955000Y-78465000D02*
X168395000Y-78465000D01*
X168395000Y-70270000D02*
X162955000Y-70270000D01*
%TO.C,C2*%
X178777380Y-75000000D02*
G75*
G03*
X178777380Y-75000000I-3270000J0D01*
G01*
X175307380Y-78224000D02*
X175307380Y-71776000D01*
X173746380Y-77716000D02*
X173746380Y-76040000D01*
X173386380Y-73960000D02*
X173386380Y-72550000D01*
X174827380Y-73960000D02*
X174827380Y-71841000D01*
X174106380Y-77916000D02*
X174106380Y-76040000D01*
X175027380Y-78195000D02*
X175027380Y-76040000D01*
X174306380Y-73960000D02*
X174306380Y-71998000D01*
X174306380Y-78002000D02*
X174306380Y-76040000D01*
X175147380Y-78211000D02*
X175147380Y-76040000D01*
X174466380Y-78061000D02*
X174466380Y-76040000D01*
X174506380Y-78074000D02*
X174506380Y-76040000D01*
X174266380Y-77986000D02*
X174266380Y-76040000D01*
X173466380Y-77516000D02*
X173466380Y-76040000D01*
X175107380Y-78206000D02*
X175107380Y-76040000D01*
X173666380Y-73960000D02*
X173666380Y-72336000D01*
X174026380Y-77876000D02*
X174026380Y-76040000D01*
X175147380Y-73960000D02*
X175147380Y-71789000D01*
X173506380Y-77548000D02*
X173506380Y-76040000D01*
X173706380Y-73960000D02*
X173706380Y-72310000D01*
X173426380Y-73960000D02*
X173426380Y-72516000D01*
X175347380Y-78227000D02*
X175347380Y-71773000D01*
X174146380Y-73960000D02*
X174146380Y-72066000D01*
X174867380Y-78167000D02*
X174867380Y-76040000D01*
X173786380Y-77742000D02*
X173786380Y-76040000D01*
X173306380Y-73960000D02*
X173306380Y-72620000D01*
X175107380Y-73960000D02*
X175107380Y-71794000D01*
X172506380Y-76262000D02*
X172506380Y-73738000D01*
X172906380Y-76944000D02*
X172906380Y-73056000D01*
X173106380Y-77182000D02*
X173106380Y-72818000D01*
X174426380Y-73960000D02*
X174426380Y-71953000D01*
X173466380Y-73960000D02*
X173466380Y-72484000D01*
X173626380Y-77636000D02*
X173626380Y-76040000D01*
X172466380Y-76165000D02*
X172466380Y-73835000D01*
X174586380Y-73960000D02*
X174586380Y-71902000D01*
X174546380Y-78086000D02*
X174546380Y-76040000D01*
X175267380Y-73960000D02*
X175267380Y-71778000D01*
X173546380Y-77578000D02*
X173546380Y-76040000D01*
X174066380Y-73960000D02*
X174066380Y-72104000D01*
X173186380Y-77265000D02*
X173186380Y-72735000D01*
X173386380Y-77450000D02*
X173386380Y-76040000D01*
X175227380Y-78218000D02*
X175227380Y-76040000D01*
X174746380Y-78141000D02*
X174746380Y-76040000D01*
X174386380Y-73960000D02*
X174386380Y-71967000D01*
X174666380Y-78121000D02*
X174666380Y-76040000D01*
X173826380Y-77766000D02*
X173826380Y-76040000D01*
X174666380Y-73960000D02*
X174666380Y-71879000D01*
X175507380Y-78230000D02*
X175507380Y-71770000D01*
X174586380Y-78098000D02*
X174586380Y-76040000D01*
X174827380Y-78159000D02*
X174827380Y-76040000D01*
X174987380Y-78189000D02*
X174987380Y-76040000D01*
X174466380Y-73960000D02*
X174466380Y-71939000D01*
X174066380Y-77896000D02*
X174066380Y-76040000D01*
X175067380Y-73960000D02*
X175067380Y-71799000D01*
X172386380Y-75940000D02*
X172386380Y-74060000D01*
X172426380Y-76059000D02*
X172426380Y-73941000D01*
X174907380Y-78175000D02*
X174907380Y-76040000D01*
X172666380Y-76581000D02*
X172666380Y-73419000D01*
X173306380Y-77380000D02*
X173306380Y-76040000D01*
X172746380Y-76714000D02*
X172746380Y-73286000D01*
X173946380Y-73960000D02*
X173946380Y-72166000D01*
X178692621Y-77154000D02*
X178692621Y-76524000D01*
X174786380Y-73960000D02*
X174786380Y-71850000D01*
X174386380Y-78033000D02*
X174386380Y-76040000D01*
X173346380Y-73960000D02*
X173346380Y-72584000D01*
X173586380Y-73960000D02*
X173586380Y-72393000D01*
X174626380Y-78110000D02*
X174626380Y-76040000D01*
X175027380Y-73960000D02*
X175027380Y-71805000D01*
X173986380Y-73960000D02*
X173986380Y-72144000D01*
X174346380Y-78018000D02*
X174346380Y-76040000D01*
X173266380Y-73960000D02*
X173266380Y-72657000D01*
X174146380Y-77934000D02*
X174146380Y-76040000D01*
X174786380Y-78150000D02*
X174786380Y-76040000D01*
X172546380Y-76350000D02*
X172546380Y-73650000D01*
X174546380Y-73960000D02*
X174546380Y-71914000D01*
X173266380Y-77343000D02*
X173266380Y-76040000D01*
X174186380Y-73960000D02*
X174186380Y-72048000D01*
X173026380Y-77092000D02*
X173026380Y-72908000D01*
X172986380Y-77044000D02*
X172986380Y-72956000D01*
X174106380Y-73960000D02*
X174106380Y-72084000D01*
X174226380Y-73960000D02*
X174226380Y-72030000D01*
X174746380Y-73960000D02*
X174746380Y-71859000D01*
X173586380Y-77607000D02*
X173586380Y-76040000D01*
X173066380Y-77137000D02*
X173066380Y-72863000D01*
X173826380Y-73960000D02*
X173826380Y-72234000D01*
X174186380Y-77952000D02*
X174186380Y-76040000D01*
X173866380Y-77790000D02*
X173866380Y-76040000D01*
X175187380Y-78215000D02*
X175187380Y-76040000D01*
X174226380Y-77970000D02*
X174226380Y-76040000D01*
X175187380Y-73960000D02*
X175187380Y-71785000D01*
X173546380Y-73960000D02*
X173546380Y-72422000D01*
X173226380Y-73960000D02*
X173226380Y-72695000D01*
X172306380Y-75633000D02*
X172306380Y-74367000D01*
X173626380Y-73960000D02*
X173626380Y-72364000D01*
X172786380Y-76776000D02*
X172786380Y-73224000D01*
X173706380Y-77690000D02*
X173706380Y-76040000D01*
X173346380Y-77416000D02*
X173346380Y-76040000D01*
X175267380Y-78222000D02*
X175267380Y-76040000D01*
X174706380Y-73960000D02*
X174706380Y-71869000D01*
X173946380Y-77834000D02*
X173946380Y-76040000D01*
X175067380Y-78201000D02*
X175067380Y-76040000D01*
X172586380Y-76432000D02*
X172586380Y-73568000D01*
X173666380Y-77664000D02*
X173666380Y-76040000D01*
X175227380Y-73960000D02*
X175227380Y-71782000D01*
X174907380Y-73960000D02*
X174907380Y-71825000D01*
X172706380Y-76650000D02*
X172706380Y-73350000D01*
X173426380Y-77484000D02*
X173426380Y-76040000D01*
X174346380Y-73960000D02*
X174346380Y-71982000D01*
X173146380Y-77224000D02*
X173146380Y-72776000D01*
X172626380Y-76509000D02*
X172626380Y-73491000D01*
X174987380Y-73960000D02*
X174987380Y-71811000D01*
X173746380Y-73960000D02*
X173746380Y-72284000D01*
X173906380Y-77812000D02*
X173906380Y-76040000D01*
X174266380Y-73960000D02*
X174266380Y-72014000D01*
X174867380Y-73960000D02*
X174867380Y-71833000D01*
X172266380Y-75402000D02*
X172266380Y-74598000D01*
X173786380Y-73960000D02*
X173786380Y-72258000D01*
X179007621Y-76839000D02*
X178377621Y-76839000D01*
X173866380Y-73960000D02*
X173866380Y-72210000D01*
X175387380Y-78228000D02*
X175387380Y-71772000D01*
X172346380Y-75802000D02*
X172346380Y-74198000D01*
X174947380Y-78182000D02*
X174947380Y-76040000D01*
X173226380Y-77305000D02*
X173226380Y-76040000D01*
X173986380Y-77856000D02*
X173986380Y-76040000D01*
X173906380Y-73960000D02*
X173906380Y-72188000D01*
X174947380Y-73960000D02*
X174947380Y-71818000D01*
X172946380Y-76995000D02*
X172946380Y-73005000D01*
X172826380Y-76834000D02*
X172826380Y-73166000D01*
X175467380Y-78230000D02*
X175467380Y-71770000D01*
X174506380Y-73960000D02*
X174506380Y-71926000D01*
X174626380Y-73960000D02*
X174626380Y-71890000D01*
X175427380Y-78230000D02*
X175427380Y-71770000D01*
X174706380Y-78131000D02*
X174706380Y-76040000D01*
X172866380Y-76890000D02*
X172866380Y-73110000D01*
X174426380Y-78047000D02*
X174426380Y-76040000D01*
X174026380Y-73960000D02*
X174026380Y-72124000D01*
X173506380Y-73960000D02*
X173506380Y-72452000D01*
%TO.C,C1*%
X153299000Y-64885000D02*
X153299000Y-63377000D01*
X153819000Y-64885000D02*
X153819000Y-63049000D01*
X154219000Y-68972000D02*
X154219000Y-66965000D01*
X152659000Y-67815000D02*
X152659000Y-64035000D01*
X154499000Y-69056000D02*
X154499000Y-66965000D01*
X155220000Y-69155000D02*
X155220000Y-62695000D01*
X154419000Y-64885000D02*
X154419000Y-62815000D01*
X154299000Y-64885000D02*
X154299000Y-62851000D01*
X155260000Y-69155000D02*
X155260000Y-62695000D01*
X152619000Y-67759000D02*
X152619000Y-64091000D01*
X152739000Y-67920000D02*
X152739000Y-63930000D01*
X154740000Y-64885000D02*
X154740000Y-62743000D01*
X153699000Y-64885000D02*
X153699000Y-63113000D01*
X153779000Y-68781000D02*
X153779000Y-66965000D01*
X153019000Y-68230000D02*
X153019000Y-66965000D01*
X154740000Y-69107000D02*
X154740000Y-66965000D01*
X152139000Y-66727000D02*
X152139000Y-65123000D01*
X155180000Y-69153000D02*
X155180000Y-62697000D01*
X153659000Y-64885000D02*
X153659000Y-63135000D01*
X158800241Y-67764000D02*
X158170241Y-67764000D01*
X153579000Y-64885000D02*
X153579000Y-63183000D01*
X152059000Y-66327000D02*
X152059000Y-65523000D01*
X154660000Y-64885000D02*
X154660000Y-62758000D01*
X154059000Y-64885000D02*
X154059000Y-62939000D01*
X153699000Y-68737000D02*
X153699000Y-66965000D01*
X153539000Y-64885000D02*
X153539000Y-63209000D01*
X154780000Y-64885000D02*
X154780000Y-62736000D01*
X152419000Y-67434000D02*
X152419000Y-64416000D01*
X152939000Y-68149000D02*
X152939000Y-63701000D01*
X154139000Y-64885000D02*
X154139000Y-62907000D01*
X153219000Y-68409000D02*
X153219000Y-66965000D01*
X152499000Y-67575000D02*
X152499000Y-64275000D01*
X154700000Y-64885000D02*
X154700000Y-62750000D01*
X155020000Y-64885000D02*
X155020000Y-62707000D01*
X153459000Y-68589000D02*
X153459000Y-66965000D01*
X152379000Y-67357000D02*
X152379000Y-64493000D01*
X154860000Y-69126000D02*
X154860000Y-66965000D01*
X153739000Y-68759000D02*
X153739000Y-66965000D01*
X154499000Y-64885000D02*
X154499000Y-62794000D01*
X155060000Y-69147000D02*
X155060000Y-66965000D01*
X153139000Y-68341000D02*
X153139000Y-66965000D01*
X153499000Y-68615000D02*
X153499000Y-66965000D01*
X152579000Y-67701000D02*
X152579000Y-64149000D01*
X153419000Y-64885000D02*
X153419000Y-63289000D01*
X152099000Y-66558000D02*
X152099000Y-65292000D01*
X153019000Y-64885000D02*
X153019000Y-63620000D01*
X153339000Y-64885000D02*
X153339000Y-63347000D01*
X154980000Y-64885000D02*
X154980000Y-62710000D01*
X154019000Y-68895000D02*
X154019000Y-66965000D01*
X154980000Y-69140000D02*
X154980000Y-66965000D01*
X153659000Y-68715000D02*
X153659000Y-66965000D01*
X153979000Y-68877000D02*
X153979000Y-66965000D01*
X153619000Y-64885000D02*
X153619000Y-63159000D01*
X152859000Y-68062000D02*
X152859000Y-63788000D01*
X153379000Y-68532000D02*
X153379000Y-66965000D01*
X154539000Y-64885000D02*
X154539000Y-62784000D01*
X154019000Y-64885000D02*
X154019000Y-62955000D01*
X153899000Y-64885000D02*
X153899000Y-63009000D01*
X152779000Y-67969000D02*
X152779000Y-63881000D01*
X152819000Y-68017000D02*
X152819000Y-63833000D01*
X153979000Y-64885000D02*
X153979000Y-62973000D01*
X153059000Y-68268000D02*
X153059000Y-66965000D01*
X154339000Y-64885000D02*
X154339000Y-62839000D01*
X152339000Y-67275000D02*
X152339000Y-64575000D01*
X154579000Y-69075000D02*
X154579000Y-66965000D01*
X153939000Y-68859000D02*
X153939000Y-66965000D01*
X153059000Y-64885000D02*
X153059000Y-63582000D01*
X154139000Y-68943000D02*
X154139000Y-66965000D01*
X153779000Y-64885000D02*
X153779000Y-63069000D01*
X154820000Y-64885000D02*
X154820000Y-62730000D01*
X154419000Y-69035000D02*
X154419000Y-66965000D01*
X153379000Y-64885000D02*
X153379000Y-63318000D01*
X153139000Y-64885000D02*
X153139000Y-63509000D01*
X154179000Y-68958000D02*
X154179000Y-66965000D01*
X154579000Y-64885000D02*
X154579000Y-62775000D01*
X158485241Y-68079000D02*
X158485241Y-67449000D01*
X153739000Y-64885000D02*
X153739000Y-63091000D01*
X152539000Y-67639000D02*
X152539000Y-64211000D01*
X153099000Y-68305000D02*
X153099000Y-66965000D01*
X152459000Y-67506000D02*
X152459000Y-64344000D01*
X154700000Y-69100000D02*
X154700000Y-66965000D01*
X152219000Y-66984000D02*
X152219000Y-64866000D01*
X152179000Y-66865000D02*
X152179000Y-64985000D01*
X154860000Y-64885000D02*
X154860000Y-62724000D01*
X153859000Y-68821000D02*
X153859000Y-66965000D01*
X154259000Y-64885000D02*
X154259000Y-62864000D01*
X154780000Y-69114000D02*
X154780000Y-66965000D01*
X154620000Y-69084000D02*
X154620000Y-66965000D01*
X154379000Y-69023000D02*
X154379000Y-66965000D01*
X155300000Y-69155000D02*
X155300000Y-62695000D01*
X154459000Y-64885000D02*
X154459000Y-62804000D01*
X153619000Y-68691000D02*
X153619000Y-66965000D01*
X154459000Y-69046000D02*
X154459000Y-66965000D01*
X154179000Y-64885000D02*
X154179000Y-62892000D01*
X154539000Y-69066000D02*
X154539000Y-66965000D01*
X155020000Y-69143000D02*
X155020000Y-66965000D01*
X153179000Y-68375000D02*
X153179000Y-66965000D01*
X152979000Y-68190000D02*
X152979000Y-63660000D01*
X153859000Y-64885000D02*
X153859000Y-63029000D01*
X153339000Y-68503000D02*
X153339000Y-66965000D01*
X155060000Y-64885000D02*
X155060000Y-62703000D01*
X154339000Y-69011000D02*
X154339000Y-66965000D01*
X154379000Y-64885000D02*
X154379000Y-62827000D01*
X152259000Y-67090000D02*
X152259000Y-64760000D01*
X153419000Y-68561000D02*
X153419000Y-66965000D01*
X153259000Y-64885000D02*
X153259000Y-63409000D01*
X154219000Y-64885000D02*
X154219000Y-62878000D01*
X152899000Y-68107000D02*
X152899000Y-63743000D01*
X152699000Y-67869000D02*
X152699000Y-63981000D01*
X152299000Y-67187000D02*
X152299000Y-64663000D01*
X154900000Y-64885000D02*
X154900000Y-62719000D01*
X153099000Y-64885000D02*
X153099000Y-63545000D01*
X153579000Y-68667000D02*
X153579000Y-66965000D01*
X154660000Y-69092000D02*
X154660000Y-66965000D01*
X153939000Y-64885000D02*
X153939000Y-62991000D01*
X155140000Y-69152000D02*
X155140000Y-62698000D01*
X153219000Y-64885000D02*
X153219000Y-63441000D01*
X153499000Y-64885000D02*
X153499000Y-63235000D01*
X153299000Y-68473000D02*
X153299000Y-66965000D01*
X154940000Y-64885000D02*
X154940000Y-62714000D01*
X153819000Y-68801000D02*
X153819000Y-66965000D01*
X153459000Y-64885000D02*
X153459000Y-63261000D01*
X154900000Y-69131000D02*
X154900000Y-66965000D01*
X153259000Y-68441000D02*
X153259000Y-66965000D01*
X154059000Y-68911000D02*
X154059000Y-66965000D01*
X154299000Y-68999000D02*
X154299000Y-66965000D01*
X154259000Y-68986000D02*
X154259000Y-66965000D01*
X154940000Y-69136000D02*
X154940000Y-66965000D01*
X154099000Y-68927000D02*
X154099000Y-66965000D01*
X154099000Y-64885000D02*
X154099000Y-62923000D01*
X154820000Y-69120000D02*
X154820000Y-66965000D01*
X153899000Y-68841000D02*
X153899000Y-66965000D01*
X154620000Y-64885000D02*
X154620000Y-62766000D01*
X153179000Y-64885000D02*
X153179000Y-63475000D01*
X153539000Y-68641000D02*
X153539000Y-66965000D01*
X155100000Y-69149000D02*
X155100000Y-62701000D01*
X158570000Y-65925000D02*
G75*
G03*
X158570000Y-65925000I-3270000J0D01*
G01*
%TD*%
M02*
