M48
; DRILL file {KiCad 7.0.8} date Tue May 21 05:38:35 2024
; FORMAT={-:-/ absolute / inch / decimal}
; #@! TF.CreationDate,2024-05-21T05:38:35+02:00
; #@! TF.GenerationSoftware,Kicad,Pcbnew,7.0.8
; #@! TF.FileFunction,Plated,1,2,PTH
FMAT,2
INCH
; #@! TA.AperFunction,Plated,PTH,ViaDrill
T1C0.0118
; #@! TA.AperFunction,Plated,PTH,ComponentDrill
T2C0.0315
; #@! TA.AperFunction,Plated,PTH,ComponentDrill
T3C0.0374
; #@! TA.AperFunction,Plated,PTH,ComponentDrill
T4C0.0390
; #@! TA.AperFunction,Plated,PTH,ComponentDrill
T5C0.0394
; #@! TA.AperFunction,Plated,PTH,ComponentDrill
T6C0.0394
; #@! TA.AperFunction,Plated,PTH,ComponentDrill
T7C0.0400
; #@! TA.AperFunction,Plated,PTH,ComponentDrill
T8C0.0409
; #@! TA.AperFunction,Plated,PTH,ComponentDrill
T9C0.0433
; #@! TA.AperFunction,Plated,PTH,ComponentDrill
T10C0.0512
; #@! TA.AperFunction,Plated,PTH,ComponentDrill
T11C0.0630
; #@! TA.AperFunction,Plated,PTH,ComponentDrill
T12C0.0866
%
G90
G05
T1
X4.5276Y-4.2461
X4.5276Y-4.3307
X4.5276Y-4.3681
X4.5276Y-4.4065
X4.5276Y-4.4449
X4.5276Y-4.4862
X4.5276Y-4.5266
X4.5285Y-4.2894
X4.9213Y-4.6407
X4.9213Y-4.6831
X4.9213Y-4.7244
X4.9213Y-4.7638
X4.9213Y-4.8012
X4.9213Y-4.8386
X4.9213Y-4.8819
X4.9213Y-4.9213
X5.6634Y-4.1339
X5.7638Y-3.6417
X5.813Y-3.6417
X6.2992Y-4.8228
X6.3976Y-4.8228
X6.4961Y-4.8228
X6.4961Y-5.1772
X6.5945Y-4.8228
X6.5945Y-5.1722
X6.6929Y-4.8228
X6.6929Y-5.1732
X6.7913Y-4.8228
X6.7913Y-5.1732
T2
X6.065Y-2.5955
X6.1634Y-2.5955
X6.3563Y-3.438
X6.3563Y-3.625
X6.8605Y-2.9931
X6.9563Y-3.438
X6.9563Y-3.625
X6.959Y-2.9931
T3
X3.0709Y-2.2638
X3.0709Y-2.3622
X3.0709Y-2.4606
X3.0709Y-2.5591
X3.0709Y-2.8543
X3.0709Y-2.9528
X3.0709Y-3.0512
X3.0709Y-3.1496
X3.0709Y-3.4449
X3.0709Y-3.5433
X3.0709Y-3.6417
X3.0709Y-3.7402
X3.0709Y-4.0354
X3.0709Y-4.1339
X3.0709Y-4.2323
X3.0709Y-4.3307
X3.0709Y-4.626
X3.0709Y-4.7244
X3.0709Y-4.8228
X3.0709Y-4.9213
X3.1496Y-5.5118
X3.248Y-5.5118
X3.3465Y-5.5118
X3.4449Y-5.5118
X3.5433Y-5.5118
X3.937Y-5.5118
X4.0354Y-5.5118
X4.1339Y-5.5118
X4.2323Y-5.5118
X4.3307Y-5.5118
X4.7244Y-5.5118
X4.8228Y-5.5118
X4.9213Y-5.5118
X5.0197Y-5.5118
X5.1181Y-5.5118
X5.5118Y-5.5118
X5.6102Y-5.5118
X5.7087Y-5.5118
X5.8071Y-5.5118
X5.9055Y-5.5118
X6.2992Y-5.5118
X6.3976Y-5.5118
X6.4961Y-5.5118
X6.5945Y-5.5118
X6.6929Y-5.5118
X7.0866Y-5.5118
X7.185Y-5.5118
X7.2835Y-5.5118
X7.3356Y-2.5679
X7.3819Y-5.5118
X7.4341Y-2.5679
X7.4803Y-5.5118
X7.5325Y-2.5679
X7.5591Y-2.874
X7.5591Y-2.9724
X7.5591Y-3.0709
X7.5591Y-3.1693
X7.5591Y-3.4646
X7.5591Y-3.563
X7.5591Y-3.6614
X7.5591Y-3.7598
X7.5591Y-4.0551
X7.5591Y-4.1535
X7.5591Y-4.252
X7.5591Y-4.3504
X7.5591Y-4.6457
X7.5591Y-4.7441
X7.5591Y-4.8425
X7.5591Y-4.9409
T4
X5.9537Y-2.0787
X6.1309Y-2.0787
T5
X5.263Y-3.1098
X5.263Y-3.2098
X5.263Y-3.3098
X5.263Y-3.5098
X5.263Y-3.6098
X5.263Y-3.7098
X5.263Y-3.9098
X5.263Y-4.0098
X5.263Y-4.1098
X5.263Y-4.3098
X5.263Y-4.4098
X5.263Y-4.5098
X5.363Y-3.1098
X5.363Y-3.2098
X5.363Y-3.3098
X5.363Y-3.5098
X5.363Y-3.6098
X5.363Y-3.7098
X5.363Y-3.9098
X5.363Y-4.0098
X5.363Y-4.1098
X5.363Y-4.3098
X5.363Y-4.4098
X5.363Y-4.5098
X6.063Y-3.1098
X6.063Y-3.2098
X6.063Y-3.3098
X6.063Y-3.5098
X6.063Y-3.6098
X6.063Y-3.7098
X6.063Y-3.9098
X6.063Y-4.0098
X6.063Y-4.1098
X6.063Y-4.3098
X6.063Y-4.4098
X6.063Y-4.5098
X6.1579Y-4.5098
X6.163Y-3.1098
X6.163Y-3.2098
X6.163Y-3.3098
X6.163Y-3.5098
X6.163Y-3.6098
X6.163Y-3.7098
X6.163Y-3.9098
X6.163Y-4.0098
X6.163Y-4.1098
X6.163Y-4.3098
X6.163Y-4.4098
X6.8022Y-2.5974
X6.9596Y-2.5974
T6
X5.2786Y-2.4518
X5.377Y-2.4518
T7
X5.463Y-4.7098
X5.4634Y-2.9098
X5.5626Y-2.9098
X5.563Y-4.7098
X5.663Y-2.9098
X5.663Y-4.7098
X5.763Y-2.9098
X5.763Y-4.7098
X5.863Y-2.9098
X5.863Y-4.7098
X5.963Y-2.9098
X5.963Y-4.7098
T8
X3.8307Y-2.3957
X3.8307Y-2.4957
X3.8307Y-2.5957
X3.8307Y-2.6957
X3.8307Y-2.7957
X3.8307Y-2.8957
X3.8307Y-2.9957
X3.8307Y-3.0957
X3.8307Y-3.1957
X3.8307Y-3.2957
X3.8307Y-3.3957
X3.8307Y-3.4957
X3.8307Y-3.5957
X3.8307Y-3.6957
X3.8307Y-3.7957
X3.8307Y-3.8957
X3.8307Y-3.9957
X3.8307Y-4.0957
X3.8307Y-4.1957
X4.8307Y-2.3957
X4.8307Y-2.4957
X4.8307Y-2.5957
X4.8307Y-2.6957
X4.8307Y-2.7957
X4.8307Y-2.8957
X4.8307Y-2.9957
X4.8307Y-3.0957
X4.8307Y-3.1957
X4.8307Y-3.2957
X4.8307Y-3.3957
X4.8307Y-3.4957
X4.8307Y-3.5957
X4.8307Y-3.6957
X4.8307Y-3.7957
X4.8307Y-3.8957
X4.8307Y-3.9957
X4.8307Y-4.0957
X4.8307Y-4.1957
T9
X6.4557Y-2.3022
X6.5226Y-2.1565
X6.5896Y-2.3022
X6.6565Y-2.1565
X6.7234Y-2.3022
T10
X5.9045Y-2.1768
X6.1805Y-2.1768
T11
X6.5226Y-2.5974
X6.5226Y-3.1974
T12
X5.1763Y-2.2839
X5.5778Y-2.2839
T5
G00X7.2628Y-2.188
M15
G01X7.2628Y-2.2667
M16
G05
G00X7.4872Y-2.1093
M15
G01X7.4085Y-2.1093
M16
G05
G00X7.4872Y-2.3455
M15
G01X7.4085Y-2.3455
M16
G05
T0
M30
