%TF.GenerationSoftware,KiCad,Pcbnew,7.0.8*%
%TF.CreationDate,2024-05-21T16:54:11+02:00*%
%TF.ProjectId,IssaScope_v0.2,49737361-5363-46f7-9065-5f76302e322e,rev?*%
%TF.SameCoordinates,Original*%
%TF.FileFunction,Copper,L1,Top*%
%TF.FilePolarity,Positive*%
%FSLAX46Y46*%
G04 Gerber Fmt 4.6, Leading zero omitted, Abs format (unit mm)*
G04 Created by KiCad (PCBNEW 7.0.8) date 2024-05-21 16:54:11*
%MOMM*%
%LPD*%
G01*
G04 APERTURE LIST*
G04 Aperture macros list*
%AMRoundRect*
0 Rectangle with rounded corners*
0 $1 Rounding radius*
0 $2 $3 $4 $5 $6 $7 $8 $9 X,Y pos of 4 corners*
0 Add a 4 corners polygon primitive as box body*
4,1,4,$2,$3,$4,$5,$6,$7,$8,$9,$2,$3,0*
0 Add four circle primitives for the rounded corners*
1,1,$1+$1,$2,$3*
1,1,$1+$1,$4,$5*
1,1,$1+$1,$6,$7*
1,1,$1+$1,$8,$9*
0 Add four rect primitives between the rounded corners*
20,1,$1+$1,$2,$3,$4,$5,0*
20,1,$1+$1,$4,$5,$6,$7,0*
20,1,$1+$1,$6,$7,$8,$9,0*
20,1,$1+$1,$8,$9,$2,$3,0*%
G04 Aperture macros list end*
%TA.AperFunction,ComponentPad*%
%ADD10C,1.778000*%
%TD*%
%TA.AperFunction,ComponentPad*%
%ADD11R,1.778000X1.778000*%
%TD*%
%TA.AperFunction,ComponentPad*%
%ADD12O,1.600200X2.499360*%
%TD*%
%TA.AperFunction,ComponentPad*%
%ADD13O,3.500120X7.000240*%
%TD*%
%TA.AperFunction,ComponentPad*%
%ADD14R,1.560000X1.560000*%
%TD*%
%TA.AperFunction,ComponentPad*%
%ADD15C,1.560000*%
%TD*%
%TA.AperFunction,ComponentPad*%
%ADD16RoundRect,0.250000X-0.600000X-0.725000X0.600000X-0.725000X0.600000X0.725000X-0.600000X0.725000X0*%
%TD*%
%TA.AperFunction,ComponentPad*%
%ADD17O,1.700000X1.950000*%
%TD*%
%TA.AperFunction,ComponentPad*%
%ADD18C,1.600000*%
%TD*%
%TA.AperFunction,ComponentPad*%
%ADD19O,1.600000X1.600000*%
%TD*%
%TA.AperFunction,ComponentPad*%
%ADD20RoundRect,0.250000X-0.725000X0.600000X-0.725000X-0.600000X0.725000X-0.600000X0.725000X0.600000X0*%
%TD*%
%TA.AperFunction,ComponentPad*%
%ADD21O,1.950000X1.700000*%
%TD*%
%TA.AperFunction,ComponentPad*%
%ADD22RoundRect,0.250000X0.725000X-0.600000X0.725000X0.600000X-0.725000X0.600000X-0.725000X-0.600000X0*%
%TD*%
%TA.AperFunction,ComponentPad*%
%ADD23C,1.750000*%
%TD*%
%TA.AperFunction,ComponentPad*%
%ADD24C,2.100000*%
%TD*%
%TA.AperFunction,ComponentPad*%
%ADD25R,1.800000X1.800000*%
%TD*%
%TA.AperFunction,ComponentPad*%
%ADD26O,1.800000X1.800000*%
%TD*%
%TA.AperFunction,ComponentPad*%
%ADD27C,2.000000*%
%TD*%
%TA.AperFunction,ComponentPad*%
%ADD28R,3.500000X3.500000*%
%TD*%
%TA.AperFunction,ComponentPad*%
%ADD29RoundRect,0.750000X-1.000000X0.750000X-1.000000X-0.750000X1.000000X-0.750000X1.000000X0.750000X0*%
%TD*%
%TA.AperFunction,ComponentPad*%
%ADD30RoundRect,0.875000X-0.875000X0.875000X-0.875000X-0.875000X0.875000X-0.875000X0.875000X0.875000X0*%
%TD*%
%TA.AperFunction,ComponentPad*%
%ADD31O,3.200000X3.200000*%
%TD*%
%TA.AperFunction,ComponentPad*%
%ADD32R,3.200000X3.200000*%
%TD*%
%TA.AperFunction,ComponentPad*%
%ADD33R,1.600000X1.600000*%
%TD*%
%TA.AperFunction,ViaPad*%
%ADD34C,0.600000*%
%TD*%
%TA.AperFunction,Conductor*%
%ADD35C,0.200000*%
%TD*%
%TA.AperFunction,Conductor*%
%ADD36C,1.000000*%
%TD*%
G04 APERTURE END LIST*
D10*
%TO.P,U2,30,XLAT*%
%TO.N,Latch*%
X151460000Y-119630000D03*
%TO.P,U2,2,BLANK*%
%TO.N,OE*%
X148920000Y-119630000D03*
%TO.P,U2,3,SCLK*%
%TO.N,CLK*%
X146380000Y-119630000D03*
%TO.P,U2,29,SOUT*%
%TO.N,MISO*%
X143840000Y-119630000D03*
%TO.P,U2,1,GND*%
%TO.N,GNDREF*%
X141300000Y-119630000D03*
%TO.P,U2,32,VCC*%
%TO.N,VCC*%
X138760000Y-119630000D03*
X138770000Y-73910000D03*
%TO.P,U2,1,GND*%
%TO.N,GNDREF*%
X141290000Y-73910000D03*
%TO.P,U2,4,SIN*%
%TO.N,MOSI*%
X143840000Y-73910000D03*
%TO.P,U2,3,SCLK*%
%TO.N,CLK*%
X146380000Y-73910000D03*
%TO.P,U2,2,BLANK*%
%TO.N,OE*%
X148920000Y-73910000D03*
%TO.P,U2,30,XLAT*%
%TO.N,Latch*%
X151460000Y-73910000D03*
%TO.P,U2,5,OUT0*%
%TO.N,FirstOpto1*%
X136220000Y-78990000D03*
%TO.P,U2,6,OUT1*%
%TO.N,FirstOpto2*%
X136220000Y-81530000D03*
%TO.P,U2,7,OUT2*%
%TO.N,FirstOpto3*%
X136220000Y-84070000D03*
D11*
%TO.P,U2,32,VCC*%
%TO.N,VCC*%
X133680000Y-78990000D03*
D10*
X133680000Y-81530000D03*
X133680000Y-84070000D03*
%TO.P,U2,8,OUT3*%
%TO.N,FirstOpto4*%
X136220000Y-89150000D03*
%TO.P,U2,9,OUT4*%
%TO.N,SecondOpto1*%
X136220000Y-91690000D03*
%TO.P,U2,10,OUT5*%
%TO.N,SecondOpto2*%
X136220000Y-94230000D03*
D11*
%TO.P,U2,32,VCC*%
%TO.N,VCC*%
X133680000Y-89150000D03*
D10*
X133680000Y-91690000D03*
X133680000Y-94230000D03*
D11*
X133680000Y-99310000D03*
X133680000Y-109470000D03*
X156410000Y-114550000D03*
X156540000Y-104390000D03*
X156540000Y-94230000D03*
X156540000Y-84070000D03*
D10*
%TO.P,U2,11,OUT6*%
%TO.N,SecondOpto3*%
X136220000Y-99310000D03*
%TO.P,U2,12,OUT7*%
%TO.N,SecondOpto4*%
X136220000Y-101850000D03*
%TO.P,U2,13,OUT8*%
%TO.N,ThirdOpto1*%
X136220000Y-104390000D03*
%TO.P,U2,32,VCC*%
%TO.N,VCC*%
X133680000Y-101850000D03*
X133680000Y-104390000D03*
%TO.P,U2,14,OUT9*%
%TO.N,ThirdOpto2*%
X136220000Y-109470000D03*
%TO.P,U2,15,OUT10*%
%TO.N,ThirdOpto3*%
X136220000Y-112010000D03*
%TO.P,U2,32,VCC*%
%TO.N,VCC*%
X133680000Y-112010000D03*
X133680000Y-114550000D03*
%TO.P,U2,16,OUT11*%
%TO.N,ThirdOpto4*%
X136220000Y-114550000D03*
%TO.P,U2,17,OUT12*%
%TO.N,FourthOpto1*%
X154000000Y-114550000D03*
%TO.P,U2,18,OUT13*%
%TO.N,FourthOpto2*%
X154000000Y-112010000D03*
%TO.P,U2,32,VCC*%
%TO.N,VCC*%
X156540000Y-112010000D03*
X156540000Y-109470000D03*
%TO.P,U2,19,OUT14*%
%TO.N,FourthOpto3*%
X154000000Y-109470000D03*
%TO.P,U2,20,OUT15*%
%TO.N,FourthOpto4*%
X154000000Y-104390000D03*
%TO.P,U2,21,OUT16*%
%TO.N,White1*%
X154000000Y-101850000D03*
%TO.P,U2,22,OUT17*%
%TO.N,White2*%
X154000000Y-99310000D03*
%TO.P,U2,32,VCC*%
%TO.N,VCC*%
X156540000Y-99310000D03*
X156540000Y-101850000D03*
%TO.P,U2,23,OUT18*%
%TO.N,White3*%
X154000000Y-94230000D03*
%TO.P,U2,24,OUT19*%
%TO.N,White4*%
X154000000Y-91690000D03*
%TO.P,U2,32,VCC*%
%TO.N,VCC*%
X156540000Y-91690000D03*
%TO.P,U2,28,OUT23*%
%TO.N,IR4*%
X154000000Y-78990000D03*
%TO.P,U2,32,VCC*%
%TO.N,VCC*%
X156540000Y-78990000D03*
%TO.P,U2,27,OUT22*%
%TO.N,IR3*%
X154000000Y-81530000D03*
%TO.P,U2,32,VCC*%
%TO.N,VCC*%
X156540000Y-81530000D03*
%TO.P,U2,26,OUT21*%
%TO.N,IR2*%
X154000000Y-84070000D03*
%TO.P,U2,32,VCC*%
%TO.N,VCC*%
X156540000Y-89150000D03*
%TO.P,U2,25,OUT20*%
%TO.N,IR1*%
X154000000Y-89150000D03*
%TD*%
D12*
%TO.P,J26,2,Ext*%
%TO.N,GNDREF*%
X134075640Y-62276260D03*
%TO.P,J26,1,In*%
%TO.N,Trigger*%
X136575000Y-62276260D03*
D13*
%TO.P,J26,2,Ext*%
%TO.N,GNDREF*%
X141675320Y-58011600D03*
X131477220Y-58011600D03*
%TD*%
D14*
%TO.P,U1,1,3V3*%
%TO.N,3.3V*%
X122700000Y-100820000D03*
D15*
%TO.P,U1,2,EN*%
%TO.N,Net-(U1-EN)*%
X122700000Y-98280000D03*
%TO.P,U1,19,EXT_5V*%
%TO.N,5V*%
X122700000Y-55100000D03*
%TO.P,U1,3,SENSOR_VP*%
%TO.N,Sensor_VP*%
X122700000Y-95740000D03*
%TO.P,U1,4,SENSOR_VN*%
%TO.N,Sensor_VN*%
X122700000Y-93200000D03*
%TO.P,U1,5,IO34*%
%TO.N,GPIO34*%
X122700000Y-90660000D03*
%TO.P,U1,6,IO35*%
%TO.N,GPIO35*%
X122700000Y-88120000D03*
%TO.P,U1,7,IO32*%
%TO.N,GPIO32*%
X122700000Y-85580000D03*
%TO.P,U1,8,IO33*%
%TO.N,GPIO33*%
X122700000Y-83040000D03*
%TO.P,U1,9,IO25*%
%TO.N,GPIO25*%
X122700000Y-80500000D03*
%TO.P,U1,10,IO26*%
%TO.N,GPIO26*%
X122700000Y-77960000D03*
%TO.P,U1,11,IO27*%
%TO.N,GPIO27*%
X122700000Y-75420000D03*
%TO.P,U1,12,IO14*%
%TO.N,GPIO14*%
X122700000Y-72880000D03*
%TO.P,U1,13,IO12*%
%TO.N,GPIO12*%
X122700000Y-70340000D03*
%TO.P,U1,14,GND1*%
%TO.N,GNDREF*%
X122700000Y-67800000D03*
%TO.P,U1,15,IO13*%
%TO.N,GPIO13*%
X122700000Y-65260000D03*
%TO.P,U1,16,SD2*%
%TO.N,unconnected-(U1-SD2-Pad16)*%
X122700000Y-62720000D03*
%TO.P,U1,17,SD3*%
%TO.N,unconnected-(U1-SD3-Pad17)*%
X122700000Y-60180000D03*
%TO.P,U1,18,CMD*%
%TO.N,unconnected-(U1-CMD-Pad18)*%
X122700000Y-57640000D03*
%TO.P,U1,20,GND3*%
%TO.N,GNDREF*%
X97300000Y-100820000D03*
%TO.P,U1,21,IO23*%
%TO.N,MOSI*%
X97300000Y-98280000D03*
%TO.P,U1,22,IO22*%
%TO.N,GPIO22*%
X97300000Y-95740000D03*
%TO.P,U1,23,TXD0*%
%TO.N,unconnected-(U1-TXD0-Pad23)*%
X97300000Y-93200000D03*
%TO.P,U1,24,RXD0*%
%TO.N,unconnected-(U1-RXD0-Pad24)*%
X97300000Y-90660000D03*
%TO.P,U1,25,IO21*%
%TO.N,GPIO21*%
X97300000Y-88120000D03*
%TO.P,U1,26,GND2*%
%TO.N,GNDREF*%
X97300000Y-85580000D03*
%TO.P,U1,27,IO19*%
%TO.N,MISO*%
X97300000Y-83040000D03*
%TO.P,U1,28,IO18*%
%TO.N,CLK*%
X97300000Y-80500000D03*
%TO.P,U1,29,IO5*%
%TO.N,Latch*%
X97300000Y-77960000D03*
%TO.P,U1,30,IO17*%
%TO.N,GPIO17*%
X97300000Y-75420000D03*
%TO.P,U1,31,IO16*%
%TO.N,GPIO16*%
X97300000Y-72880000D03*
%TO.P,U1,32,IO4*%
%TO.N,GPIO4*%
X97300000Y-70340000D03*
%TO.P,U1,33,IO0*%
%TO.N,Trigger*%
X97300000Y-67800000D03*
%TO.P,U1,34,IO2*%
%TO.N,GPIO2*%
X97300000Y-65260000D03*
%TO.P,U1,35,IO15*%
%TO.N,Net-(U1-IO15)*%
X97300000Y-62720000D03*
%TO.P,U1,36,SD1*%
%TO.N,unconnected-(U1-SD1-Pad36)*%
X97300000Y-60180000D03*
%TO.P,U1,37,SD0*%
%TO.N,unconnected-(U1-SD0-Pad37)*%
X97300000Y-57640000D03*
%TO.P,U1,38,CLK*%
%TO.N,unconnected-(U1-CLK-Pad38)*%
X97300000Y-55100000D03*
%TD*%
D16*
%TO.P,J4,1,Pin_1*%
%TO.N,VCC*%
X140000000Y-133000000D03*
D17*
%TO.P,J4,2,Pin_2*%
%TO.N,FourthOpto1*%
X142500000Y-133000000D03*
%TO.P,J4,3,Pin_3*%
%TO.N,FourthOpto2*%
X145000000Y-133000000D03*
%TO.P,J4,4,Pin_4*%
%TO.N,FourthOpto3*%
X147500000Y-133000000D03*
%TO.P,J4,5,Pin_5*%
%TO.N,FourthOpto4*%
X150000000Y-133000000D03*
%TD*%
D18*
%TO.P,R2,1*%
%TO.N,GNDREF*%
X176690000Y-87325000D03*
D19*
%TO.P,R2,2*%
%TO.N,OE*%
X161450000Y-87325000D03*
%TD*%
D18*
%TO.P,R1,1*%
%TO.N,Net-(U1-IO15)*%
X176690000Y-92075000D03*
D19*
%TO.P,R1,2*%
%TO.N,OE*%
X161450000Y-92075000D03*
%TD*%
D20*
%TO.P,J35,1,Pin_1*%
%TO.N,Sensor_VN*%
X85000000Y-117500000D03*
D21*
%TO.P,J35,2,Pin_2*%
%TO.N,Sensor_VP*%
X85000000Y-120000000D03*
%TO.P,J35,3,Pin_3*%
%TO.N,5V*%
X85000000Y-122500000D03*
%TO.P,J35,4,Pin_4*%
%TO.N,GNDREF*%
X85000000Y-125000000D03*
%TD*%
D20*
%TO.P,J34,1,Pin_1*%
%TO.N,GPIO2*%
X85000000Y-57500000D03*
D21*
%TO.P,J34,2,Pin_2*%
%TO.N,GPIO4*%
X85000000Y-60000000D03*
%TO.P,J34,3,Pin_3*%
%TO.N,5V*%
X85000000Y-62500000D03*
%TO.P,J34,4,Pin_4*%
%TO.N,GNDREF*%
X85000000Y-65000000D03*
%TD*%
D20*
%TO.P,J33,1,Pin_1*%
%TO.N,GPIO16*%
X85000000Y-72500000D03*
D21*
%TO.P,J33,2,Pin_2*%
%TO.N,GPIO17*%
X85000000Y-75000000D03*
%TO.P,J33,3,Pin_3*%
%TO.N,5V*%
X85000000Y-77500000D03*
%TO.P,J33,4,Pin_4*%
%TO.N,GNDREF*%
X85000000Y-80000000D03*
%TD*%
%TO.P,J32,4,Pin_4*%
%TO.N,GNDREF*%
X85000000Y-95000000D03*
%TO.P,J32,3,Pin_3*%
%TO.N,5V*%
X85000000Y-92500000D03*
%TO.P,J32,2,Pin_2*%
%TO.N,GPIO22*%
X85000000Y-90000000D03*
D20*
%TO.P,J32,1,Pin_1*%
%TO.N,GPIO21*%
X85000000Y-87500000D03*
%TD*%
D21*
%TO.P,J31,4,Pin_4*%
%TO.N,GNDREF*%
X185000000Y-117500000D03*
%TO.P,J31,3,Pin_3*%
%TO.N,5V*%
X185000000Y-120000000D03*
%TO.P,J31,2,Pin_2*%
%TO.N,GPIO12*%
X185000000Y-122500000D03*
D22*
%TO.P,J31,1,Pin_1*%
%TO.N,GPIO13*%
X185000000Y-125000000D03*
%TD*%
D20*
%TO.P,J30,1,Pin_1*%
%TO.N,GPIO14*%
X84500000Y-102500000D03*
D21*
%TO.P,J30,2,Pin_2*%
%TO.N,GPIO27*%
X84500000Y-105000000D03*
%TO.P,J30,3,Pin_3*%
%TO.N,5V*%
X84500000Y-107500000D03*
%TO.P,J30,4,Pin_4*%
%TO.N,GNDREF*%
X84500000Y-110000000D03*
%TD*%
D22*
%TO.P,J29,1,Pin_1*%
%TO.N,GPIO26*%
X185000000Y-110000000D03*
D21*
%TO.P,J29,2,Pin_2*%
%TO.N,GPIO25*%
X185000000Y-107500000D03*
%TO.P,J29,3,Pin_3*%
%TO.N,5V*%
X185000000Y-105000000D03*
%TO.P,J29,4,Pin_4*%
%TO.N,GNDREF*%
X185000000Y-102500000D03*
%TD*%
%TO.P,J28,4,Pin_4*%
%TO.N,GNDREF*%
X185000000Y-87500000D03*
%TO.P,J28,3,Pin_3*%
%TO.N,5V*%
X185000000Y-90000000D03*
%TO.P,J28,2,Pin_2*%
%TO.N,GPIO32*%
X185000000Y-92500000D03*
D22*
%TO.P,J28,1,Pin_1*%
%TO.N,GPIO33*%
X185000000Y-95000000D03*
%TD*%
D21*
%TO.P,J27,4,Pin_4*%
%TO.N,GNDREF*%
X185000000Y-72500000D03*
%TO.P,J27,3,Pin_3*%
%TO.N,5V*%
X185000000Y-75000000D03*
%TO.P,J27,2,Pin_2*%
%TO.N,GPIO34*%
X185000000Y-77500000D03*
D22*
%TO.P,J27,1,Pin_1*%
%TO.N,GPIO35*%
X185000000Y-80000000D03*
%TD*%
D16*
%TO.P,J6,1,Pin_1*%
%TO.N,VCC*%
X180000000Y-133000000D03*
D17*
%TO.P,J6,2,Pin_2*%
%TO.N,IR1*%
X182500000Y-133000000D03*
%TO.P,J6,3,Pin_3*%
%TO.N,IR2*%
X185000000Y-133000000D03*
%TO.P,J6,4,Pin_4*%
%TO.N,IR3*%
X187500000Y-133000000D03*
%TO.P,J6,5,Pin_5*%
%TO.N,IR4*%
X190000000Y-133000000D03*
%TD*%
D16*
%TO.P,J5,1,Pin_1*%
%TO.N,VCC*%
X160000000Y-133000000D03*
D17*
%TO.P,J5,2,Pin_2*%
%TO.N,White1*%
X162500000Y-133000000D03*
%TO.P,J5,3,Pin_3*%
%TO.N,White2*%
X165000000Y-133000000D03*
%TO.P,J5,4,Pin_4*%
%TO.N,White3*%
X167500000Y-133000000D03*
%TO.P,J5,5,Pin_5*%
%TO.N,White4*%
X170000000Y-133000000D03*
%TD*%
D16*
%TO.P,J3,1,Pin_1*%
%TO.N,VCC*%
X120000000Y-133000000D03*
D17*
%TO.P,J3,2,Pin_2*%
%TO.N,ThirdOpto1*%
X122500000Y-133000000D03*
%TO.P,J3,3,Pin_3*%
%TO.N,ThirdOpto2*%
X125000000Y-133000000D03*
%TO.P,J3,4,Pin_4*%
%TO.N,ThirdOpto3*%
X127500000Y-133000000D03*
%TO.P,J3,5,Pin_5*%
%TO.N,ThirdOpto4*%
X130000000Y-133000000D03*
%TD*%
D16*
%TO.P,J2,1,Pin_1*%
%TO.N,VCC*%
X100000000Y-133000000D03*
D17*
%TO.P,J2,2,Pin_2*%
%TO.N,SecondOpto1*%
X102500000Y-133000000D03*
%TO.P,J2,3,Pin_3*%
%TO.N,SecondOpto2*%
X105000000Y-133000000D03*
%TO.P,J2,4,Pin_4*%
%TO.N,SecondOpto3*%
X107500000Y-133000000D03*
%TO.P,J2,5,Pin_5*%
%TO.N,SecondOpto4*%
X110000000Y-133000000D03*
%TD*%
D16*
%TO.P,J1,1,Pin_1*%
%TO.N,VCC*%
X80000000Y-133000000D03*
D17*
%TO.P,J1,2,Pin_2*%
%TO.N,FirstOpto1*%
X82500000Y-133000000D03*
%TO.P,J1,3,Pin_3*%
%TO.N,FirstOpto2*%
X85000000Y-133000000D03*
%TO.P,J1,4,Pin_4*%
%TO.N,FirstOpto3*%
X87500000Y-133000000D03*
%TO.P,J1,5,Pin_5*%
%TO.N,FirstOpto4*%
X90000000Y-133000000D03*
%TD*%
D23*
%TO.P,SW2,2,2*%
%TO.N,Net-(U1-EN)*%
X155725000Y-52800000D03*
%TO.P,SW2,1,1*%
%TO.N,GNDREF*%
X151225000Y-52800000D03*
D24*
%TO.P,SW2,*%
%TO.N,*%
X156985000Y-55290000D03*
X149975000Y-55290000D03*
%TD*%
D25*
%TO.P,U3,1,VIN*%
%TO.N,VCC*%
X163975000Y-58475000D03*
D26*
%TO.P,U3,2,OUT*%
%TO.N,Net-(D1-K)*%
X165675000Y-54775000D03*
%TO.P,U3,3,GND*%
%TO.N,GNDREF*%
X167375000Y-58475000D03*
%TO.P,U3,4,FB*%
%TO.N,5V*%
X169075000Y-54775000D03*
%TO.P,U3,5,~{ON}/OFF*%
%TO.N,GNDREF*%
X170775000Y-58475000D03*
%TD*%
D17*
%TO.P,SW1,3,K*%
%TO.N,GNDREF*%
X191325000Y-65225000D03*
%TO.P,SW1,2,2*%
%TO.N,VCC*%
X188825000Y-65225000D03*
D16*
%TO.P,SW1,1,1*%
%TO.N,Net-(J36-Pad1)*%
X186325000Y-65225000D03*
%TD*%
D27*
%TO.P,L1,1,1*%
%TO.N,Net-(D1-K)*%
X172775000Y-65975000D03*
%TO.P,L1,2,2*%
%TO.N,5V*%
X176775000Y-65975000D03*
%TD*%
D28*
%TO.P,J36,1*%
%TO.N,Net-(J36-Pad1)*%
X189175000Y-59575000D03*
D29*
%TO.P,J36,2*%
%TO.N,GNDREF*%
X189175000Y-53575000D03*
D30*
%TO.P,J36,3*%
X184475000Y-56575000D03*
%TD*%
D31*
%TO.P,D1,2,A*%
%TO.N,GNDREF*%
X165675000Y-81215000D03*
D32*
%TO.P,D1,1,K*%
%TO.N,Net-(D1-K)*%
X165675000Y-65975000D03*
%TD*%
D18*
%TO.P,C2,2*%
%TO.N,GNDREF*%
X174257380Y-75000000D03*
D33*
%TO.P,C2,1*%
%TO.N,5V*%
X176757380Y-75000000D03*
%TD*%
%TO.P,C1,1*%
%TO.N,VCC*%
X156550000Y-65925000D03*
D18*
%TO.P,C1,2*%
%TO.N,GNDREF*%
X154050000Y-65925000D03*
%TD*%
D34*
%TO.N,Net-(U1-EN)*%
X132600000Y-53075000D03*
%TO.N,IR4*%
X182025000Y-125000000D03*
%TO.N,IR3*%
X175000000Y-125000000D03*
%TO.N,IR2*%
X173750000Y-125000000D03*
X173750000Y-125000000D03*
%TO.N,IR1*%
X172500000Y-125000000D03*
%TD*%
D35*
%TO.N,Net-(U1-EN)*%
X144025000Y-53075000D02*
X144337500Y-53387500D01*
X132600000Y-53075000D02*
X144025000Y-53075000D01*
X144337500Y-53387500D02*
X148337500Y-57387500D01*
X144187500Y-53237500D02*
X144337500Y-53387500D01*
%TO.N,White4*%
X155260000Y-92950000D02*
X154000000Y-91690000D01*
X159700000Y-92950000D02*
X155260000Y-92950000D01*
X161475000Y-94725000D02*
X159700000Y-92950000D01*
X170000000Y-103250000D02*
X161475000Y-94725000D01*
%TO.N,IR1*%
X172500000Y-110075000D02*
X172500000Y-125000000D01*
X180825000Y-101750000D02*
X172500000Y-110075000D01*
X180825000Y-91540686D02*
X180825000Y-101750000D01*
X179709314Y-90425000D02*
X180825000Y-91540686D01*
X155275000Y-90425000D02*
X179709314Y-90425000D01*
X154000000Y-89150000D02*
X155275000Y-90425000D01*
%TO.N,IR2*%
X154135686Y-84070000D02*
X154000000Y-84070000D01*
X159690686Y-89625000D02*
X154135686Y-84070000D01*
X179475000Y-89625000D02*
X159690686Y-89625000D01*
X181225000Y-91375000D02*
X179475000Y-89625000D01*
X181225000Y-101915686D02*
X181225000Y-91375000D01*
X176345343Y-106795343D02*
X181225000Y-101915686D01*
%TO.N,IR3*%
X155255000Y-80275000D02*
X154000000Y-81530000D01*
X159275000Y-80275000D02*
X155255000Y-80275000D01*
X160825000Y-78725000D02*
X159275000Y-80275000D01*
X173775000Y-78725000D02*
X160825000Y-78725000D01*
X181625000Y-86575000D02*
X173775000Y-78725000D01*
X181625000Y-102081372D02*
X181625000Y-86575000D01*
X175000000Y-108706372D02*
X181625000Y-102081372D01*
X175000000Y-125000000D02*
X175000000Y-108706372D01*
%TO.N,IR4*%
X182025000Y-86409314D02*
X180632843Y-85017157D01*
X180632843Y-85017157D02*
X181062500Y-85446815D01*
X173940686Y-78325000D02*
X180632843Y-85017157D01*
X182025000Y-125000000D02*
X182025000Y-86409314D01*
%TO.N,IR2*%
X176345343Y-106795343D02*
X173750000Y-109390686D01*
X173750000Y-109390686D02*
X173750000Y-125000000D01*
X176345343Y-106795343D02*
X175025000Y-108115686D01*
%TO.N,White4*%
X170000000Y-133000000D02*
X170000000Y-103250000D01*
%TO.N,White3*%
X167500000Y-107730000D02*
X154000000Y-94230000D01*
X167500000Y-133000000D02*
X167500000Y-107730000D01*
%TO.N,FourthOpto1*%
X155168628Y-115718628D02*
X155168628Y-121756371D01*
X143773753Y-131726247D02*
X142500000Y-133000000D01*
X154000000Y-114550000D02*
X155168628Y-115718628D01*
X155168628Y-121756371D02*
X145198753Y-131726247D01*
X145198753Y-131726247D02*
X143773753Y-131726247D01*
%TO.N,GPIO13*%
X187625000Y-125300000D02*
X187325000Y-125000000D01*
X187625000Y-126200000D02*
X187625000Y-125300000D01*
X186700000Y-127125000D02*
X187625000Y-126200000D01*
X173950002Y-130315198D02*
X177140205Y-127125000D01*
X177140205Y-127125000D02*
X186700000Y-127125000D01*
X173950000Y-136096570D02*
X173950002Y-130315198D01*
X173071570Y-136975000D02*
X173950000Y-136096570D01*
X78650000Y-134600000D02*
X81025000Y-136975000D01*
X81025000Y-136975000D02*
X173071570Y-136975000D01*
X78650000Y-132175000D02*
X78650000Y-134600000D01*
X81650000Y-129175000D02*
X78650000Y-132175000D01*
X103496570Y-129175000D02*
X81650000Y-129175000D01*
X187325000Y-125000000D02*
X185000000Y-125000000D01*
X105971572Y-126700000D02*
X103496570Y-129175000D01*
X111774512Y-126700000D02*
X105971572Y-126700000D01*
X128338971Y-110135541D02*
X111774512Y-126700000D01*
X128338971Y-66813971D02*
X128338971Y-110135541D01*
X126785000Y-65260000D02*
X128338971Y-66813971D01*
X122700000Y-65260000D02*
X126785000Y-65260000D01*
%TO.N,GPIO12*%
X187400000Y-122500000D02*
X185000000Y-122500000D01*
X188025000Y-123125000D02*
X187400000Y-122500000D01*
X188025000Y-126365686D02*
X188025000Y-123125000D01*
X186865686Y-127525000D02*
X188025000Y-126365686D01*
X177305890Y-127525000D02*
X186865686Y-127525000D01*
X174350001Y-130480884D02*
X177305890Y-127525000D01*
X174350000Y-136262256D02*
X174350001Y-130480884D01*
X173237256Y-137375000D02*
X174350000Y-136262256D01*
X80859314Y-137375000D02*
X173237256Y-137375000D01*
X78250000Y-134765685D02*
X80859314Y-137375000D01*
X78250000Y-132009314D02*
X78250000Y-134765685D01*
X81484315Y-128775000D02*
X78250000Y-132009314D01*
X103330884Y-128775000D02*
X81484315Y-128775000D01*
X105805887Y-126300000D02*
X103330884Y-128775000D01*
X111608825Y-126300001D02*
X105805887Y-126300000D01*
X127938971Y-109969855D02*
X111608825Y-126300001D01*
X127938971Y-75578971D02*
X127938971Y-109969855D01*
X122700000Y-70340000D02*
X127938971Y-75578971D01*
%TO.N,GPIO26*%
X188425000Y-113425000D02*
X185000000Y-110000000D01*
X188425000Y-126531372D02*
X188425000Y-113425000D01*
X187031372Y-127925000D02*
X188425000Y-126531372D01*
X177471575Y-127925000D02*
X187031372Y-127925000D01*
X174750000Y-136427942D02*
X174750001Y-130646570D01*
X173402942Y-137775000D02*
X174750000Y-136427942D01*
X80693628Y-137775000D02*
X173402942Y-137775000D01*
X77850000Y-134931370D02*
X80693628Y-137775000D01*
X77850000Y-131843628D02*
X77850000Y-134931370D01*
X81318630Y-128375000D02*
X77850000Y-131843628D01*
X103165198Y-128375000D02*
X81318630Y-128375000D01*
X105640202Y-125900000D02*
X103165198Y-128375000D01*
X111443140Y-125900000D02*
X105640202Y-125900000D01*
X127538971Y-109804169D02*
X111443140Y-125900000D01*
X127538971Y-82798971D02*
X127538971Y-109804169D01*
X122700000Y-77960000D02*
X127538971Y-82798971D01*
X174750001Y-130646570D02*
X177471575Y-127925000D01*
%TO.N,GPIO25*%
X188825000Y-111325000D02*
X185000000Y-107500000D01*
X188825000Y-126697058D02*
X188825000Y-111325000D01*
X187197058Y-128325000D02*
X188825000Y-126697058D01*
X177637260Y-128325000D02*
X187197058Y-128325000D01*
X175150000Y-130812256D02*
X177637260Y-128325000D01*
X175150000Y-136593628D02*
X175150000Y-130812256D01*
X173568628Y-138175000D02*
X175150000Y-136593628D01*
X137540199Y-138174998D02*
X173568628Y-138175000D01*
X137540197Y-138175000D02*
X137540199Y-138174998D01*
X80525000Y-138175000D02*
X137540197Y-138175000D01*
X77450000Y-135100000D02*
X80525000Y-138175000D01*
X77450000Y-131677942D02*
X77450000Y-135100000D01*
X81152945Y-127975000D02*
X77450000Y-131677942D01*
X102999513Y-127975000D02*
X81152945Y-127975000D01*
X105474514Y-125500000D02*
X102999513Y-127975000D01*
X111277454Y-125500000D02*
X105474514Y-125500000D01*
X127138971Y-109638483D02*
X111277454Y-125500000D01*
X127138971Y-84938971D02*
X127138971Y-109638483D01*
X122700000Y-80500000D02*
X127138971Y-84938971D01*
%TO.N,GPIO33*%
X189225000Y-99150000D02*
X187275000Y-97200000D01*
X189225000Y-126862744D02*
X189225000Y-99150000D01*
X187362744Y-128725000D02*
X189225000Y-126862744D01*
X177802945Y-128725000D02*
X187362744Y-128725000D01*
X175550000Y-130977942D02*
X177802945Y-128725000D01*
X175550000Y-136759314D02*
X175550000Y-130977942D01*
X173734314Y-138575000D02*
X175550000Y-136759314D01*
X80359312Y-138574998D02*
X173734314Y-138575000D01*
X77050000Y-135265685D02*
X80359312Y-138574998D01*
X77050000Y-131512256D02*
X77050000Y-135265685D01*
X80987260Y-127575000D02*
X77050000Y-131512256D01*
X187275000Y-97200000D02*
X187200000Y-97200000D01*
X102833827Y-127575000D02*
X80987260Y-127575000D01*
X187200000Y-97200000D02*
X185000000Y-95000000D01*
X105308829Y-125100000D02*
X102833827Y-127575000D01*
X111111768Y-125100000D02*
X105308829Y-125100000D01*
X126738971Y-109472797D02*
X111111768Y-125100000D01*
X126738971Y-87078971D02*
X126738971Y-109472797D01*
X122700000Y-83040000D02*
X126738971Y-87078971D01*
%TO.N,GPIO32*%
X189625000Y-97125000D02*
X185000000Y-92500000D01*
X189625000Y-127028430D02*
X189625000Y-97125000D01*
X187528430Y-129125000D02*
X189625000Y-127028430D01*
X177968630Y-129125000D02*
X187528430Y-129125000D01*
X175950000Y-131143628D02*
X177968630Y-129125000D01*
X175950000Y-136925000D02*
X175950000Y-131143628D01*
X173900000Y-138975000D02*
X175950000Y-136925000D01*
X80193626Y-138974998D02*
X173900000Y-138975000D01*
X76650000Y-135431370D02*
X80193626Y-138974998D01*
X76650000Y-131346570D02*
X76650000Y-135431370D01*
X80821575Y-127175000D02*
X76650000Y-131346570D01*
X102668141Y-127175000D02*
X80821575Y-127175000D01*
X105143144Y-124700000D02*
X102668141Y-127175000D01*
X110946082Y-124700000D02*
X105143144Y-124700000D01*
X126338971Y-109307111D02*
X110946082Y-124700000D01*
X126338971Y-107175000D02*
X126338971Y-109307111D01*
%TO.N,GPIO35*%
X190025000Y-127194116D02*
X190025000Y-85025000D01*
X187694116Y-129525000D02*
X190025000Y-127194116D01*
X176350000Y-131309314D02*
X178134315Y-129525000D01*
X176350000Y-137184314D02*
X176350000Y-131309314D01*
X174159314Y-139375000D02*
X176350000Y-137184314D01*
X111574996Y-139374996D02*
X174159314Y-139375000D01*
X111574992Y-139375000D02*
X111574996Y-139374996D01*
X178134315Y-129525000D02*
X187694116Y-129525000D01*
X80027942Y-139375000D02*
X111574992Y-139375000D01*
X76250000Y-131180884D02*
X76250000Y-135597055D01*
X80655890Y-126775000D02*
X76250000Y-131180884D01*
X102502455Y-126775000D02*
X80655890Y-126775000D01*
X104977459Y-124300000D02*
X102502455Y-126775000D01*
X110780396Y-124300000D02*
X104977459Y-124300000D01*
X190025000Y-85025000D02*
X185000000Y-80000000D01*
X125938971Y-109141425D02*
X110780396Y-124300000D01*
X125925000Y-109127454D02*
X125938971Y-109141425D01*
X125925000Y-91345000D02*
X125925000Y-109127454D01*
X122700000Y-88120000D02*
X125925000Y-91345000D01*
X76250000Y-135597055D02*
X80027942Y-139375000D01*
%TO.N,GPIO34*%
X125525000Y-93485000D02*
X122700000Y-90660000D01*
X125525000Y-108989710D02*
X125525000Y-93485000D01*
X110614710Y-123900000D02*
X125525000Y-108989710D01*
X80490205Y-126375000D02*
X102125000Y-126375000D01*
X75850000Y-131015198D02*
X80490205Y-126375000D01*
X75850000Y-135762740D02*
X75850000Y-131015198D01*
X79862256Y-139775000D02*
X75850000Y-135762740D01*
X136877451Y-139775000D02*
X79862256Y-139775000D01*
X136877455Y-139774996D02*
X136877451Y-139775000D01*
X190424998Y-127359804D02*
X187859802Y-129925000D01*
X187859802Y-129925000D02*
X178300000Y-129925000D01*
X104600000Y-123900000D02*
X110614710Y-123900000D01*
X176750000Y-137350000D02*
X174325000Y-139775000D01*
X102125000Y-126375000D02*
X104600000Y-123900000D01*
X174325000Y-139775000D02*
X136877455Y-139774996D01*
X190425000Y-82925000D02*
X190424998Y-127359804D01*
X176750000Y-131475000D02*
X176750000Y-137350000D01*
X178300000Y-129925000D02*
X176750000Y-131475000D01*
X185000000Y-77500000D02*
X190425000Y-82925000D01*
%TO.N,IR4*%
X158775000Y-78325000D02*
X173940686Y-78325000D01*
X157775000Y-77325000D02*
X158775000Y-78325000D01*
X157775000Y-77325000D02*
X155665000Y-77325000D01*
X157975000Y-77325000D02*
X157775000Y-77325000D01*
%TO.N,GPIO27*%
X98025000Y-105000000D02*
X84500000Y-105000000D01*
X106050000Y-96975000D02*
X98025000Y-105000000D01*
X106050000Y-92070000D02*
X106050000Y-96975000D01*
X122700000Y-75420000D02*
X106050000Y-92070000D01*
%TO.N,GPIO14*%
X105650000Y-94750000D02*
X97900000Y-102500000D01*
X105655000Y-89925000D02*
X105650000Y-89925000D01*
X105650000Y-89925000D02*
X105650000Y-94750000D01*
X122700000Y-72880000D02*
X105655000Y-89925000D01*
X97900000Y-102500000D02*
X84500000Y-102500000D01*
%TO.N,MOSI*%
X128927942Y-64000000D02*
X119125000Y-64000000D01*
X119125000Y-64000000D02*
X99300000Y-83825000D01*
X99300000Y-83825000D02*
X99300000Y-96280000D01*
X141602942Y-65750000D02*
X130677943Y-65750000D01*
X99300000Y-96280000D02*
X97300000Y-98280000D01*
X143840000Y-67987058D02*
X141602942Y-65750000D01*
X130677943Y-65750000D02*
X128927942Y-64000000D01*
X143840000Y-73910000D02*
X143840000Y-67987058D01*
%TO.N,MISO*%
X145125000Y-118345000D02*
X143840000Y-119630000D01*
X141768628Y-65350000D02*
X145125000Y-68706372D01*
X130843628Y-65350000D02*
X141768628Y-65350000D01*
X126943628Y-61450000D02*
X130843628Y-65350000D01*
X119050000Y-61450000D02*
X126943628Y-61450000D01*
X97460000Y-83040000D02*
X119050000Y-61450000D01*
X145125000Y-68706372D02*
X145125000Y-118345000D01*
X97300000Y-83040000D02*
X97460000Y-83040000D01*
%TO.N,CLK*%
X128375000Y-62315686D02*
X129092157Y-63032843D01*
X128375000Y-60250000D02*
X128375000Y-62315686D01*
X127025000Y-58900000D02*
X128375000Y-60250000D01*
X118925000Y-58900000D02*
X127025000Y-58900000D01*
X115275000Y-62550000D02*
X118925000Y-58900000D01*
X131009314Y-64950000D02*
X129092157Y-63032843D01*
X115275000Y-62550000D02*
X116375000Y-61450000D01*
X106300000Y-71525000D02*
X115275000Y-62550000D01*
X106275000Y-71525000D02*
X106300000Y-71525000D01*
X97300000Y-80500000D02*
X106275000Y-71525000D01*
%TO.N,Latch*%
X119300000Y-56375000D02*
X118885000Y-56375000D01*
X119300000Y-56375000D02*
X126600000Y-56375000D01*
X118885000Y-56375000D02*
X97300000Y-77960000D01*
X128775000Y-62150000D02*
X128912500Y-62287500D01*
X128775000Y-58550000D02*
X128775000Y-62150000D01*
X126600000Y-56375000D02*
X128775000Y-58550000D01*
X131175000Y-64550000D02*
X128912500Y-62287500D01*
X108225000Y-67035000D02*
X97300000Y-77960000D01*
%TO.N,CLK*%
X146400000Y-69415686D02*
X141934314Y-64950000D01*
X141934314Y-64950000D02*
X131009314Y-64950000D01*
X146400000Y-71625000D02*
X146400000Y-69415686D01*
X146380000Y-73910000D02*
X146380000Y-71645000D01*
X146380000Y-71645000D02*
X146400000Y-71625000D01*
D36*
%TO.N,5V*%
X126750000Y-51050000D02*
X122700000Y-55100000D01*
X133600000Y-51050000D02*
X126750000Y-51050000D01*
X133600000Y-51050000D02*
X165350000Y-51050000D01*
X80000000Y-51050000D02*
X133600000Y-51050000D01*
D35*
%TO.N,Net-(U1-EN)*%
X151137500Y-57387500D02*
X155725000Y-52800000D01*
X148337500Y-57387500D02*
X151137500Y-57387500D01*
%TO.N,OE*%
X148920000Y-104280000D02*
X148900000Y-104300000D01*
X148920000Y-73910000D02*
X148920000Y-104280000D01*
X148900000Y-104300000D02*
X148900000Y-101075000D01*
X148900000Y-104450000D02*
X148900000Y-104300000D01*
%TO.N,CLK*%
X146380000Y-119630000D02*
X146380000Y-73910000D01*
%TO.N,Latch*%
X142100000Y-64550000D02*
X131175000Y-64550000D01*
X151460000Y-73910000D02*
X142100000Y-64550000D01*
%TO.N,OE*%
X161450000Y-85250000D02*
X161450000Y-87325000D01*
X153225000Y-82800000D02*
X159000000Y-82800000D01*
X148920000Y-78495000D02*
X153225000Y-82800000D01*
X159000000Y-82800000D02*
X161450000Y-85250000D01*
X148920000Y-73910000D02*
X148920000Y-78495000D01*
%TO.N,ThirdOpto1*%
X135295000Y-106900000D02*
X136220000Y-105975000D01*
X122500000Y-121065686D02*
X131950000Y-111615686D01*
X122500000Y-133000000D02*
X122500000Y-121065686D01*
X131950000Y-111615686D02*
X131950000Y-107350000D01*
X131950000Y-107350000D02*
X132400000Y-106900000D01*
X132400000Y-106900000D02*
X135295000Y-106900000D01*
X136220000Y-105975000D02*
X136220000Y-104390000D01*
%TO.N,SecondOpto4*%
X132250000Y-103125000D02*
X134945000Y-103125000D01*
X131550000Y-103825000D02*
X132250000Y-103125000D01*
X131550000Y-111450000D02*
X131550000Y-103825000D01*
X134945000Y-103125000D02*
X136220000Y-101850000D01*
X110000000Y-133000000D02*
X131550000Y-111450000D01*
%TO.N,SecondOpto3*%
X134955000Y-100575000D02*
X136220000Y-99310000D01*
X131150000Y-111284314D02*
X131150000Y-101700000D01*
X131150000Y-101700000D02*
X132275000Y-100575000D01*
X112934314Y-129500000D02*
X131150000Y-111284314D01*
X132275000Y-100575000D02*
X134955000Y-100575000D01*
X111000000Y-129500000D02*
X112934314Y-129500000D01*
X107500000Y-133000000D02*
X111000000Y-129500000D01*
%TO.N,SecondOpto2*%
X112768628Y-129100000D02*
X130750000Y-111118628D01*
X108900000Y-129100000D02*
X112768628Y-129100000D01*
X130750000Y-111118628D02*
X130750000Y-99700000D01*
X130750000Y-99700000D02*
X136220000Y-94230000D01*
X105000000Y-133000000D02*
X108900000Y-129100000D01*
%TO.N,SecondOpto1*%
X130338971Y-110963971D02*
X130338971Y-95286029D01*
X134960000Y-92950000D02*
X136220000Y-91690000D01*
X112602942Y-128700000D02*
X130338971Y-110963971D01*
X106800000Y-128700000D02*
X112602942Y-128700000D01*
X102500000Y-133000000D02*
X106800000Y-128700000D01*
X130338971Y-95286029D02*
X132675000Y-92950000D01*
X132675000Y-92950000D02*
X134960000Y-92950000D01*
%TO.N,FirstOpto4*%
X134945000Y-90425000D02*
X136220000Y-89150000D01*
X129938971Y-93011029D02*
X132525000Y-90425000D01*
X129938971Y-110798285D02*
X129938971Y-93011029D01*
X112437256Y-128300000D02*
X129938971Y-110798285D01*
X106634315Y-128300000D02*
X112437256Y-128300000D01*
X132525000Y-90425000D02*
X134945000Y-90425000D01*
X92225000Y-130775000D02*
X104159314Y-130775000D01*
X90000000Y-133000000D02*
X92225000Y-130775000D01*
X104159314Y-130775000D02*
X106634315Y-128300000D01*
%TO.N,FirstOpto3*%
X131825000Y-83400000D02*
X129538971Y-85686029D01*
X129538971Y-87600000D02*
X129538971Y-86486029D01*
X129538971Y-108625000D02*
X129538971Y-87600000D01*
X131825000Y-83400000D02*
X132425000Y-82800000D01*
X129538971Y-85686029D02*
X129538971Y-87600000D01*
X131100000Y-84125000D02*
X131825000Y-83400000D01*
X129538971Y-108625000D02*
X129538971Y-107766913D01*
X129538971Y-110632599D02*
X129538971Y-108625000D01*
%TO.N,FirstOpto2*%
X134965000Y-80275000D02*
X136220000Y-81530000D01*
X106302942Y-127500000D02*
X112105884Y-127500000D01*
X112105884Y-127500000D02*
X129138971Y-110466913D01*
X132425000Y-80275000D02*
X134965000Y-80275000D01*
X129138971Y-83561029D02*
X132425000Y-80275000D01*
X103827942Y-129975000D02*
X106302942Y-127500000D01*
X129138971Y-110466913D02*
X129138971Y-83561029D01*
X88025000Y-129975000D02*
X103827942Y-129975000D01*
X85000000Y-133000000D02*
X88025000Y-129975000D01*
%TO.N,FirstOpto1*%
X134930000Y-77700000D02*
X136220000Y-78990000D01*
X111940198Y-127100000D02*
X128738971Y-110301227D01*
X103662256Y-129575000D02*
X106137257Y-127100000D01*
X106137257Y-127100000D02*
X111940198Y-127100000D01*
X132425000Y-77700000D02*
X134930000Y-77700000D01*
X85925000Y-129575000D02*
X103662256Y-129575000D01*
X128738971Y-110301227D02*
X128738971Y-81386029D01*
X82500000Y-133000000D02*
X85925000Y-129575000D01*
X128738971Y-81386029D02*
X132425000Y-77700000D01*
%TO.N,GPIO32*%
X126338971Y-107175000D02*
X126338971Y-89218971D01*
X122700000Y-85580000D02*
X125835000Y-88715000D01*
X126338971Y-107175000D02*
X126338971Y-106441425D01*
X126338971Y-89218971D02*
X125835000Y-88715000D01*
D36*
%TO.N,VCC*%
X185296258Y-69725000D02*
X160350000Y-69725000D01*
X188825000Y-66196258D02*
X185296258Y-69725000D01*
X188825000Y-65225000D02*
X188825000Y-66196258D01*
X156550000Y-65925000D02*
X160350000Y-69725000D01*
D35*
%TO.N,FirstOpto3*%
X112271570Y-127900000D02*
X129538971Y-110632599D01*
X106468630Y-127900000D02*
X112271570Y-127900000D01*
X105896814Y-128471814D02*
X106468630Y-127900000D01*
X103993628Y-130375000D02*
X105896814Y-128471814D01*
%TO.N,ThirdOpto3*%
X131422058Y-113275000D02*
X134955000Y-113275000D01*
X134955000Y-113275000D02*
X136220000Y-112010000D01*
X127500000Y-117197058D02*
X131422058Y-113275000D01*
X127500000Y-133000000D02*
X127500000Y-117197058D01*
%TO.N,ThirdOpto2*%
X132825000Y-110750000D02*
X134940000Y-110750000D01*
X134940000Y-110750000D02*
X136220000Y-109470000D01*
X132350000Y-111225000D02*
X132825000Y-110750000D01*
X132350000Y-111781372D02*
X132350000Y-111225000D01*
X125000000Y-119131372D02*
X132350000Y-111781372D01*
X125000000Y-133000000D02*
X125000000Y-119131372D01*
%TO.N,FirstOpto3*%
X134950000Y-82800000D02*
X136220000Y-84070000D01*
X132425000Y-82800000D02*
X134950000Y-82800000D01*
X87500000Y-133000000D02*
X90125000Y-130375000D01*
X90125000Y-130375000D02*
X103993628Y-130375000D01*
%TO.N,Sensor_VP*%
X109990000Y-108450000D02*
X122700000Y-95740000D01*
X96575000Y-108450000D02*
X109990000Y-108450000D01*
X95900000Y-109100000D02*
X95925000Y-109100000D01*
X95925000Y-109100000D02*
X96575000Y-108450000D01*
X85000000Y-120000000D02*
X95900000Y-109100000D01*
%TO.N,Sensor_VN*%
X94450000Y-108050000D02*
X85000000Y-117500000D01*
X107850000Y-108050000D02*
X94450000Y-108050000D01*
X122700000Y-93200000D02*
X107850000Y-108050000D01*
%TO.N,ThirdOpto4*%
X130000000Y-120770000D02*
X136220000Y-114550000D01*
X130000000Y-133000000D02*
X130000000Y-120770000D01*
%TO.N,White2*%
X149320000Y-114332744D02*
X149320000Y-103990000D01*
X153168628Y-118181372D02*
X149320000Y-114332744D01*
X153168628Y-120927942D02*
X153168628Y-118181372D01*
X145496570Y-128600000D02*
X153168628Y-120927942D01*
X149320000Y-103990000D02*
X154000000Y-99310000D01*
X138787260Y-128600000D02*
X145496570Y-128600000D01*
X136437500Y-130949756D02*
X138787260Y-128600000D01*
X136437500Y-134809555D02*
X136437500Y-130949756D01*
X138202943Y-136575000D02*
X136437500Y-134809555D01*
X161425000Y-136575000D02*
X138202943Y-136575000D01*
X165000000Y-133000000D02*
X161425000Y-136575000D01*
%TO.N,White1*%
X149720000Y-106130000D02*
X154000000Y-101850000D01*
X149720000Y-114167058D02*
X149720000Y-106130000D01*
X153568628Y-118015687D02*
X149720000Y-114167058D01*
X153568628Y-121093628D02*
X153568628Y-118015687D01*
X145662256Y-129000000D02*
X153568628Y-121093628D01*
X138952945Y-129000000D02*
X145662256Y-129000000D01*
X136837500Y-131115442D02*
X138952945Y-129000000D01*
X136837500Y-134643870D02*
X136837500Y-131115442D01*
X138368628Y-136175000D02*
X136837500Y-134643870D01*
X159325000Y-136175000D02*
X138368628Y-136175000D01*
X162500000Y-133000000D02*
X159325000Y-136175000D01*
%TO.N,FourthOpto4*%
X145827942Y-129400000D02*
X153038971Y-122188971D01*
X139118630Y-129400000D02*
X145827942Y-129400000D01*
X137237500Y-131281128D02*
X139118630Y-129400000D01*
X137237500Y-134478185D02*
X137237500Y-131281128D01*
X137954657Y-135195343D02*
X137237500Y-134478185D01*
X153038971Y-122188971D02*
X153968628Y-121259312D01*
X152252942Y-122975000D02*
X153038971Y-122188971D01*
X138534314Y-135775000D02*
X137954657Y-135195343D01*
%TO.N,FourthOpto3*%
X139284315Y-129800000D02*
X145950000Y-129800000D01*
X145950000Y-129800000D02*
X145971814Y-129821814D01*
X137637500Y-131446814D02*
X139284315Y-129800000D01*
X137637500Y-134312500D02*
X137637500Y-131446814D01*
X145971814Y-129821814D02*
X153159313Y-122634313D01*
X138425000Y-135100000D02*
X137637500Y-134312500D01*
X153159313Y-122634313D02*
X154368628Y-121424997D01*
X152418628Y-123375000D02*
X153159313Y-122634313D01*
X138425000Y-135100000D02*
X138700000Y-135375000D01*
X145125000Y-135375000D02*
X147500000Y-133000000D01*
X138700000Y-135375000D02*
X145125000Y-135375000D01*
%TO.N,FourthOpto2*%
X146134314Y-130225000D02*
X153729657Y-122629657D01*
X139425000Y-130225000D02*
X146134314Y-130225000D01*
X138037500Y-131612500D02*
X139425000Y-130225000D01*
X138037500Y-134137500D02*
X138037500Y-131612500D01*
X152584314Y-123775000D02*
X153729657Y-122629657D01*
X153729657Y-122629657D02*
X154768628Y-121590686D01*
X138875000Y-134975000D02*
X138037500Y-134137500D01*
%TO.N,OE*%
X148920000Y-104470000D02*
X148900000Y-104450000D01*
X148920000Y-119630000D02*
X148920000Y-104470000D01*
%TO.N,FourthOpto4*%
X147225000Y-135775000D02*
X138534314Y-135775000D01*
X148350000Y-134650000D02*
X147225000Y-135775000D01*
X150000000Y-133000000D02*
X148350000Y-134650000D01*
%TO.N,FourthOpto2*%
X143025000Y-134975000D02*
X138875000Y-134975000D01*
X145000000Y-133000000D02*
X143025000Y-134975000D01*
D36*
%TO.N,5V*%
X81600000Y-122500000D02*
X85000000Y-122500000D01*
X76025000Y-116925000D02*
X81600000Y-122500000D01*
X76025000Y-113975000D02*
X76025000Y-116925000D01*
X76025000Y-111875000D02*
X76025000Y-113975000D01*
X81100000Y-107500000D02*
X84500000Y-107500000D01*
X76025000Y-102425000D02*
X81100000Y-107500000D01*
X76025000Y-101325000D02*
X76025000Y-102425000D01*
X76025000Y-101325000D02*
X76025000Y-103025000D01*
X76025000Y-88025000D02*
X76025000Y-101325000D01*
D35*
%TO.N,GPIO22*%
X91560000Y-90000000D02*
X97300000Y-95740000D01*
X85000000Y-90000000D02*
X91560000Y-90000000D01*
%TO.N,GPIO21*%
X96680000Y-87500000D02*
X97300000Y-88120000D01*
X85000000Y-87500000D02*
X96680000Y-87500000D01*
D36*
%TO.N,5V*%
X76025000Y-86950000D02*
X81575000Y-92500000D01*
X76025000Y-86450000D02*
X76025000Y-86950000D01*
X76025000Y-86450000D02*
X76025000Y-88025000D01*
X76025000Y-73025000D02*
X76025000Y-86450000D01*
X81575000Y-92500000D02*
X85000000Y-92500000D01*
D35*
%TO.N,GPIO17*%
X96880000Y-75000000D02*
X97300000Y-75420000D01*
X85000000Y-75000000D02*
X96880000Y-75000000D01*
%TO.N,GPIO16*%
X96920000Y-72500000D02*
X97300000Y-72880000D01*
X85000000Y-72500000D02*
X96920000Y-72500000D01*
D36*
%TO.N,5V*%
X81175000Y-77500000D02*
X85000000Y-77500000D01*
X85000000Y-62500000D02*
X81550000Y-62500000D01*
X76025000Y-56975000D02*
X76025000Y-55025000D01*
X81550000Y-62500000D02*
X76025000Y-56975000D01*
X76025000Y-58025000D02*
X76025000Y-56975000D01*
X76025000Y-60950000D02*
X76025000Y-71375000D01*
X76025000Y-58025000D02*
X76025000Y-60950000D01*
X76025000Y-71375000D02*
X76025000Y-72350000D01*
X76025000Y-71375000D02*
X76025000Y-73025000D01*
X76025000Y-72350000D02*
X81175000Y-77500000D01*
D35*
%TO.N,GPIO4*%
X95340000Y-70340000D02*
X97300000Y-70340000D01*
X85000000Y-60000000D02*
X95340000Y-70340000D01*
%TO.N,GPIO2*%
X92760000Y-65260000D02*
X97300000Y-65260000D01*
X85000000Y-57500000D02*
X92760000Y-65260000D01*
%TO.N,IR4*%
X155665000Y-77325000D02*
X154000000Y-78990000D01*
%TO.N,Latch*%
X151460000Y-120940000D02*
X151460000Y-119630000D01*
X149150000Y-121775000D02*
X150625000Y-121775000D01*
X147650000Y-120275000D02*
X149150000Y-121775000D01*
X150625000Y-121775000D02*
X151460000Y-120940000D01*
%TO.N,FourthOpto2*%
X152990000Y-112010000D02*
X154000000Y-112010000D01*
X151975000Y-113025000D02*
X152990000Y-112010000D01*
X151987500Y-113037500D02*
X151975000Y-113025000D01*
X151987500Y-114737500D02*
X151987500Y-113037500D01*
X154768628Y-117518629D02*
X151987500Y-114737500D01*
X154768628Y-121590686D02*
X154768628Y-117518629D01*
%TO.N,FourthOpto3*%
X152505000Y-109470000D02*
X154000000Y-109470000D01*
X154368628Y-117684314D02*
X150520000Y-113835686D01*
X154368628Y-121424997D02*
X154368628Y-117684314D01*
X150520000Y-111455000D02*
X152505000Y-109470000D01*
X150520000Y-113835686D02*
X150520000Y-111455000D01*
%TO.N,FourthOpto4*%
X150120000Y-114001372D02*
X150120000Y-108270000D01*
X150120000Y-108270000D02*
X154000000Y-104390000D01*
X153968628Y-121259312D02*
X153968628Y-117850002D01*
X153968628Y-117850002D02*
X150120000Y-114001372D01*
D36*
%TO.N,5V*%
X76025000Y-103025000D02*
X76025000Y-111875000D01*
D35*
%TO.N,Net-(D1-K)*%
X165675000Y-65975000D02*
X172775000Y-65975000D01*
X165675000Y-54775000D02*
X165675000Y-65975000D01*
D36*
%TO.N,Net-(J36-Pad1)*%
X186325000Y-62425000D02*
X189175000Y-59575000D01*
X186325000Y-65225000D02*
X186325000Y-62425000D01*
%TO.N,5V*%
X165350000Y-51050000D02*
X169075000Y-54775000D01*
X76025000Y-55025000D02*
X80000000Y-51050000D01*
%TO.N,VCC*%
X133680000Y-78990000D02*
X133690000Y-78990000D01*
X133680000Y-89150000D02*
X133680000Y-84070000D01*
X156540000Y-114420000D02*
X156410000Y-114550000D01*
X156550000Y-78980000D02*
X156540000Y-78990000D01*
X158325000Y-64150000D02*
X156550000Y-65925000D01*
X158325000Y-64125000D02*
X158325000Y-64150000D01*
X158325000Y-64125000D02*
X163975000Y-58475000D01*
%TO.N,5V*%
X173325000Y-62525000D02*
X176775000Y-65975000D01*
X173325000Y-59025000D02*
X173325000Y-62525000D01*
X169075000Y-54775000D02*
X173325000Y-59025000D01*
%TD*%
M02*
