%TF.GenerationSoftware,KiCad,Pcbnew,7.0.8*%
%TF.CreationDate,2024-05-21T03:17:24+02:00*%
%TF.ProjectId,IssaScope_v0.2,49737361-5363-46f7-9065-5f76302e322e,rev?*%
%TF.SameCoordinates,Original*%
%TF.FileFunction,Drillmap*%
%TF.FilePolarity,Positive*%
%FSLAX45Y45*%
G04 Gerber Fmt 4.5, Leading zero omitted, Abs format (unit mm)*
G04 Created by KiCad (PCBNEW 7.0.8) date 2024-05-21 03:17:24*
%MOMM*%
%LPD*%
G01*
G04 APERTURE LIST*
%ADD10C,0.100000*%
%ADD11C,0.200000*%
%ADD12C,0.300000*%
G04 APERTURE END LIST*
D10*
X19502500Y-5005000D02*
X19502500Y-13005000D01*
X19502500Y-13005000D02*
X7502500Y-13005000D01*
X7502500Y-13005000D02*
X7502500Y-5005000D01*
X7502500Y-5005000D02*
X19502500Y-5005000D01*
D11*
D12*
X33284500Y-8960000D02*
X33584500Y-9260000D01*
X33584500Y-8960000D02*
X33284500Y-9260000D01*
X33284500Y-9715000D02*
X33584500Y-10015000D01*
X33584500Y-9715000D02*
X33284500Y-10015000D01*
X33284500Y-10470000D02*
X33584500Y-10770000D01*
X33584500Y-10470000D02*
X33284500Y-10770000D01*
X33284500Y-11225000D02*
X33584500Y-11525000D01*
X33584500Y-11225000D02*
X33284500Y-11525000D01*
D11*
X7758277Y-13321484D02*
X7758277Y-13121484D01*
X7758277Y-13121484D02*
X7805896Y-13121484D01*
X7805896Y-13121484D02*
X7834467Y-13131008D01*
X7834467Y-13131008D02*
X7853515Y-13150055D01*
X7853515Y-13150055D02*
X7863039Y-13169103D01*
X7863039Y-13169103D02*
X7872562Y-13207198D01*
X7872562Y-13207198D02*
X7872562Y-13235769D01*
X7872562Y-13235769D02*
X7863039Y-13273865D01*
X7863039Y-13273865D02*
X7853515Y-13292912D01*
X7853515Y-13292912D02*
X7834467Y-13311960D01*
X7834467Y-13311960D02*
X7805896Y-13321484D01*
X7805896Y-13321484D02*
X7758277Y-13321484D01*
X7958277Y-13321484D02*
X7958277Y-13188150D01*
X7958277Y-13226246D02*
X7967801Y-13207198D01*
X7967801Y-13207198D02*
X7977324Y-13197674D01*
X7977324Y-13197674D02*
X7996372Y-13188150D01*
X7996372Y-13188150D02*
X8015420Y-13188150D01*
X8082086Y-13321484D02*
X8082086Y-13188150D01*
X8082086Y-13121484D02*
X8072562Y-13131008D01*
X8072562Y-13131008D02*
X8082086Y-13140531D01*
X8082086Y-13140531D02*
X8091610Y-13131008D01*
X8091610Y-13131008D02*
X8082086Y-13121484D01*
X8082086Y-13121484D02*
X8082086Y-13140531D01*
X8205896Y-13321484D02*
X8186848Y-13311960D01*
X8186848Y-13311960D02*
X8177324Y-13292912D01*
X8177324Y-13292912D02*
X8177324Y-13121484D01*
X8310658Y-13321484D02*
X8291610Y-13311960D01*
X8291610Y-13311960D02*
X8282086Y-13292912D01*
X8282086Y-13292912D02*
X8282086Y-13121484D01*
X8539229Y-13321484D02*
X8539229Y-13121484D01*
X8539229Y-13121484D02*
X8605896Y-13264341D01*
X8605896Y-13264341D02*
X8672563Y-13121484D01*
X8672563Y-13121484D02*
X8672563Y-13321484D01*
X8853515Y-13321484D02*
X8853515Y-13216722D01*
X8853515Y-13216722D02*
X8843991Y-13197674D01*
X8843991Y-13197674D02*
X8824944Y-13188150D01*
X8824944Y-13188150D02*
X8786848Y-13188150D01*
X8786848Y-13188150D02*
X8767801Y-13197674D01*
X8853515Y-13311960D02*
X8834467Y-13321484D01*
X8834467Y-13321484D02*
X8786848Y-13321484D01*
X8786848Y-13321484D02*
X8767801Y-13311960D01*
X8767801Y-13311960D02*
X8758277Y-13292912D01*
X8758277Y-13292912D02*
X8758277Y-13273865D01*
X8758277Y-13273865D02*
X8767801Y-13254817D01*
X8767801Y-13254817D02*
X8786848Y-13245293D01*
X8786848Y-13245293D02*
X8834467Y-13245293D01*
X8834467Y-13245293D02*
X8853515Y-13235769D01*
X8948753Y-13188150D02*
X8948753Y-13388150D01*
X8948753Y-13197674D02*
X8967801Y-13188150D01*
X8967801Y-13188150D02*
X9005896Y-13188150D01*
X9005896Y-13188150D02*
X9024944Y-13197674D01*
X9024944Y-13197674D02*
X9034467Y-13207198D01*
X9034467Y-13207198D02*
X9043991Y-13226246D01*
X9043991Y-13226246D02*
X9043991Y-13283388D01*
X9043991Y-13283388D02*
X9034467Y-13302436D01*
X9034467Y-13302436D02*
X9024944Y-13311960D01*
X9024944Y-13311960D02*
X9005896Y-13321484D01*
X9005896Y-13321484D02*
X8967801Y-13321484D01*
X8967801Y-13321484D02*
X8948753Y-13311960D01*
X9129705Y-13302436D02*
X9139229Y-13311960D01*
X9139229Y-13311960D02*
X9129705Y-13321484D01*
X9129705Y-13321484D02*
X9120182Y-13311960D01*
X9120182Y-13311960D02*
X9129705Y-13302436D01*
X9129705Y-13302436D02*
X9129705Y-13321484D01*
X9129705Y-13197674D02*
X9139229Y-13207198D01*
X9139229Y-13207198D02*
X9129705Y-13216722D01*
X9129705Y-13216722D02*
X9120182Y-13207198D01*
X9120182Y-13207198D02*
X9129705Y-13197674D01*
X9129705Y-13197674D02*
X9129705Y-13216722D01*
X7297500Y-13550000D02*
X7497500Y-13750000D01*
X7497500Y-13550000D02*
X7297500Y-13750000D01*
X7739229Y-13541484D02*
X7863039Y-13541484D01*
X7863039Y-13541484D02*
X7796372Y-13617674D01*
X7796372Y-13617674D02*
X7824943Y-13617674D01*
X7824943Y-13617674D02*
X7843991Y-13627198D01*
X7843991Y-13627198D02*
X7853515Y-13636722D01*
X7853515Y-13636722D02*
X7863039Y-13655769D01*
X7863039Y-13655769D02*
X7863039Y-13703388D01*
X7863039Y-13703388D02*
X7853515Y-13722436D01*
X7853515Y-13722436D02*
X7843991Y-13731960D01*
X7843991Y-13731960D02*
X7824943Y-13741484D01*
X7824943Y-13741484D02*
X7767801Y-13741484D01*
X7767801Y-13741484D02*
X7748753Y-13731960D01*
X7748753Y-13731960D02*
X7739229Y-13722436D01*
X7948753Y-13722436D02*
X7958277Y-13731960D01*
X7958277Y-13731960D02*
X7948753Y-13741484D01*
X7948753Y-13741484D02*
X7939229Y-13731960D01*
X7939229Y-13731960D02*
X7948753Y-13722436D01*
X7948753Y-13722436D02*
X7948753Y-13741484D01*
X8082086Y-13541484D02*
X8101134Y-13541484D01*
X8101134Y-13541484D02*
X8120182Y-13551008D01*
X8120182Y-13551008D02*
X8129705Y-13560531D01*
X8129705Y-13560531D02*
X8139229Y-13579579D01*
X8139229Y-13579579D02*
X8148753Y-13617674D01*
X8148753Y-13617674D02*
X8148753Y-13665293D01*
X8148753Y-13665293D02*
X8139229Y-13703388D01*
X8139229Y-13703388D02*
X8129705Y-13722436D01*
X8129705Y-13722436D02*
X8120182Y-13731960D01*
X8120182Y-13731960D02*
X8101134Y-13741484D01*
X8101134Y-13741484D02*
X8082086Y-13741484D01*
X8082086Y-13741484D02*
X8063039Y-13731960D01*
X8063039Y-13731960D02*
X8053515Y-13722436D01*
X8053515Y-13722436D02*
X8043991Y-13703388D01*
X8043991Y-13703388D02*
X8034467Y-13665293D01*
X8034467Y-13665293D02*
X8034467Y-13617674D01*
X8034467Y-13617674D02*
X8043991Y-13579579D01*
X8043991Y-13579579D02*
X8053515Y-13560531D01*
X8053515Y-13560531D02*
X8063039Y-13551008D01*
X8063039Y-13551008D02*
X8082086Y-13541484D01*
X8272562Y-13541484D02*
X8291610Y-13541484D01*
X8291610Y-13541484D02*
X8310658Y-13551008D01*
X8310658Y-13551008D02*
X8320182Y-13560531D01*
X8320182Y-13560531D02*
X8329705Y-13579579D01*
X8329705Y-13579579D02*
X8339229Y-13617674D01*
X8339229Y-13617674D02*
X8339229Y-13665293D01*
X8339229Y-13665293D02*
X8329705Y-13703388D01*
X8329705Y-13703388D02*
X8320182Y-13722436D01*
X8320182Y-13722436D02*
X8310658Y-13731960D01*
X8310658Y-13731960D02*
X8291610Y-13741484D01*
X8291610Y-13741484D02*
X8272562Y-13741484D01*
X8272562Y-13741484D02*
X8253515Y-13731960D01*
X8253515Y-13731960D02*
X8243991Y-13722436D01*
X8243991Y-13722436D02*
X8234467Y-13703388D01*
X8234467Y-13703388D02*
X8224943Y-13665293D01*
X8224943Y-13665293D02*
X8224943Y-13617674D01*
X8224943Y-13617674D02*
X8234467Y-13579579D01*
X8234467Y-13579579D02*
X8243991Y-13560531D01*
X8243991Y-13560531D02*
X8253515Y-13551008D01*
X8253515Y-13551008D02*
X8272562Y-13541484D01*
X8463039Y-13541484D02*
X8482086Y-13541484D01*
X8482086Y-13541484D02*
X8501134Y-13551008D01*
X8501134Y-13551008D02*
X8510658Y-13560531D01*
X8510658Y-13560531D02*
X8520182Y-13579579D01*
X8520182Y-13579579D02*
X8529705Y-13617674D01*
X8529705Y-13617674D02*
X8529705Y-13665293D01*
X8529705Y-13665293D02*
X8520182Y-13703388D01*
X8520182Y-13703388D02*
X8510658Y-13722436D01*
X8510658Y-13722436D02*
X8501134Y-13731960D01*
X8501134Y-13731960D02*
X8482086Y-13741484D01*
X8482086Y-13741484D02*
X8463039Y-13741484D01*
X8463039Y-13741484D02*
X8443991Y-13731960D01*
X8443991Y-13731960D02*
X8434467Y-13722436D01*
X8434467Y-13722436D02*
X8424944Y-13703388D01*
X8424944Y-13703388D02*
X8415420Y-13665293D01*
X8415420Y-13665293D02*
X8415420Y-13617674D01*
X8415420Y-13617674D02*
X8424944Y-13579579D01*
X8424944Y-13579579D02*
X8434467Y-13560531D01*
X8434467Y-13560531D02*
X8443991Y-13551008D01*
X8443991Y-13551008D02*
X8463039Y-13541484D01*
X8615420Y-13741484D02*
X8615420Y-13608150D01*
X8615420Y-13627198D02*
X8624944Y-13617674D01*
X8624944Y-13617674D02*
X8643991Y-13608150D01*
X8643991Y-13608150D02*
X8672563Y-13608150D01*
X8672563Y-13608150D02*
X8691610Y-13617674D01*
X8691610Y-13617674D02*
X8701134Y-13636722D01*
X8701134Y-13636722D02*
X8701134Y-13741484D01*
X8701134Y-13636722D02*
X8710658Y-13617674D01*
X8710658Y-13617674D02*
X8729705Y-13608150D01*
X8729705Y-13608150D02*
X8758277Y-13608150D01*
X8758277Y-13608150D02*
X8777325Y-13617674D01*
X8777325Y-13617674D02*
X8786848Y-13636722D01*
X8786848Y-13636722D02*
X8786848Y-13741484D01*
X8882086Y-13741484D02*
X8882086Y-13608150D01*
X8882086Y-13627198D02*
X8891610Y-13617674D01*
X8891610Y-13617674D02*
X8910658Y-13608150D01*
X8910658Y-13608150D02*
X8939229Y-13608150D01*
X8939229Y-13608150D02*
X8958277Y-13617674D01*
X8958277Y-13617674D02*
X8967801Y-13636722D01*
X8967801Y-13636722D02*
X8967801Y-13741484D01*
X8967801Y-13636722D02*
X8977325Y-13617674D01*
X8977325Y-13617674D02*
X8996372Y-13608150D01*
X8996372Y-13608150D02*
X9024944Y-13608150D01*
X9024944Y-13608150D02*
X9043991Y-13617674D01*
X9043991Y-13617674D02*
X9053515Y-13636722D01*
X9053515Y-13636722D02*
X9053515Y-13741484D01*
X9443991Y-13531960D02*
X9272563Y-13789103D01*
X9701134Y-13541484D02*
X9720182Y-13541484D01*
X9720182Y-13541484D02*
X9739229Y-13551008D01*
X9739229Y-13551008D02*
X9748753Y-13560531D01*
X9748753Y-13560531D02*
X9758277Y-13579579D01*
X9758277Y-13579579D02*
X9767801Y-13617674D01*
X9767801Y-13617674D02*
X9767801Y-13665293D01*
X9767801Y-13665293D02*
X9758277Y-13703388D01*
X9758277Y-13703388D02*
X9748753Y-13722436D01*
X9748753Y-13722436D02*
X9739229Y-13731960D01*
X9739229Y-13731960D02*
X9720182Y-13741484D01*
X9720182Y-13741484D02*
X9701134Y-13741484D01*
X9701134Y-13741484D02*
X9682087Y-13731960D01*
X9682087Y-13731960D02*
X9672563Y-13722436D01*
X9672563Y-13722436D02*
X9663039Y-13703388D01*
X9663039Y-13703388D02*
X9653515Y-13665293D01*
X9653515Y-13665293D02*
X9653515Y-13617674D01*
X9653515Y-13617674D02*
X9663039Y-13579579D01*
X9663039Y-13579579D02*
X9672563Y-13560531D01*
X9672563Y-13560531D02*
X9682087Y-13551008D01*
X9682087Y-13551008D02*
X9701134Y-13541484D01*
X9853515Y-13722436D02*
X9863039Y-13731960D01*
X9863039Y-13731960D02*
X9853515Y-13741484D01*
X9853515Y-13741484D02*
X9843991Y-13731960D01*
X9843991Y-13731960D02*
X9853515Y-13722436D01*
X9853515Y-13722436D02*
X9853515Y-13741484D01*
X10053515Y-13741484D02*
X9939229Y-13741484D01*
X9996372Y-13741484D02*
X9996372Y-13541484D01*
X9996372Y-13541484D02*
X9977325Y-13570055D01*
X9977325Y-13570055D02*
X9958277Y-13589103D01*
X9958277Y-13589103D02*
X9939229Y-13598627D01*
X10243991Y-13741484D02*
X10129706Y-13741484D01*
X10186848Y-13741484D02*
X10186848Y-13541484D01*
X10186848Y-13541484D02*
X10167801Y-13570055D01*
X10167801Y-13570055D02*
X10148753Y-13589103D01*
X10148753Y-13589103D02*
X10129706Y-13598627D01*
X10358277Y-13627198D02*
X10339229Y-13617674D01*
X10339229Y-13617674D02*
X10329706Y-13608150D01*
X10329706Y-13608150D02*
X10320182Y-13589103D01*
X10320182Y-13589103D02*
X10320182Y-13579579D01*
X10320182Y-13579579D02*
X10329706Y-13560531D01*
X10329706Y-13560531D02*
X10339229Y-13551008D01*
X10339229Y-13551008D02*
X10358277Y-13541484D01*
X10358277Y-13541484D02*
X10396372Y-13541484D01*
X10396372Y-13541484D02*
X10415420Y-13551008D01*
X10415420Y-13551008D02*
X10424944Y-13560531D01*
X10424944Y-13560531D02*
X10434468Y-13579579D01*
X10434468Y-13579579D02*
X10434468Y-13589103D01*
X10434468Y-13589103D02*
X10424944Y-13608150D01*
X10424944Y-13608150D02*
X10415420Y-13617674D01*
X10415420Y-13617674D02*
X10396372Y-13627198D01*
X10396372Y-13627198D02*
X10358277Y-13627198D01*
X10358277Y-13627198D02*
X10339229Y-13636722D01*
X10339229Y-13636722D02*
X10329706Y-13646246D01*
X10329706Y-13646246D02*
X10320182Y-13665293D01*
X10320182Y-13665293D02*
X10320182Y-13703388D01*
X10320182Y-13703388D02*
X10329706Y-13722436D01*
X10329706Y-13722436D02*
X10339229Y-13731960D01*
X10339229Y-13731960D02*
X10358277Y-13741484D01*
X10358277Y-13741484D02*
X10396372Y-13741484D01*
X10396372Y-13741484D02*
X10415420Y-13731960D01*
X10415420Y-13731960D02*
X10424944Y-13722436D01*
X10424944Y-13722436D02*
X10434468Y-13703388D01*
X10434468Y-13703388D02*
X10434468Y-13665293D01*
X10434468Y-13665293D02*
X10424944Y-13646246D01*
X10424944Y-13646246D02*
X10415420Y-13636722D01*
X10415420Y-13636722D02*
X10396372Y-13627198D01*
X10624944Y-13741484D02*
X10510658Y-13741484D01*
X10567801Y-13741484D02*
X10567801Y-13541484D01*
X10567801Y-13541484D02*
X10548753Y-13570055D01*
X10548753Y-13570055D02*
X10529706Y-13589103D01*
X10529706Y-13589103D02*
X10510658Y-13598627D01*
X10701134Y-13541484D02*
X10701134Y-13579579D01*
X10777325Y-13541484D02*
X10777325Y-13579579D01*
X11072563Y-13817674D02*
X11063039Y-13808150D01*
X11063039Y-13808150D02*
X11043991Y-13779579D01*
X11043991Y-13779579D02*
X11034468Y-13760531D01*
X11034468Y-13760531D02*
X11024944Y-13731960D01*
X11024944Y-13731960D02*
X11015420Y-13684341D01*
X11015420Y-13684341D02*
X11015420Y-13646246D01*
X11015420Y-13646246D02*
X11024944Y-13598627D01*
X11024944Y-13598627D02*
X11034468Y-13570055D01*
X11034468Y-13570055D02*
X11043991Y-13551008D01*
X11043991Y-13551008D02*
X11063039Y-13522436D01*
X11063039Y-13522436D02*
X11072563Y-13512912D01*
X11234468Y-13608150D02*
X11234468Y-13741484D01*
X11186848Y-13531960D02*
X11139230Y-13674817D01*
X11139230Y-13674817D02*
X11263039Y-13674817D01*
X11491610Y-13741484D02*
X11491610Y-13541484D01*
X11577325Y-13741484D02*
X11577325Y-13636722D01*
X11577325Y-13636722D02*
X11567801Y-13617674D01*
X11567801Y-13617674D02*
X11548753Y-13608150D01*
X11548753Y-13608150D02*
X11520182Y-13608150D01*
X11520182Y-13608150D02*
X11501134Y-13617674D01*
X11501134Y-13617674D02*
X11491610Y-13627198D01*
X11701134Y-13741484D02*
X11682087Y-13731960D01*
X11682087Y-13731960D02*
X11672563Y-13722436D01*
X11672563Y-13722436D02*
X11663039Y-13703388D01*
X11663039Y-13703388D02*
X11663039Y-13646246D01*
X11663039Y-13646246D02*
X11672563Y-13627198D01*
X11672563Y-13627198D02*
X11682087Y-13617674D01*
X11682087Y-13617674D02*
X11701134Y-13608150D01*
X11701134Y-13608150D02*
X11729706Y-13608150D01*
X11729706Y-13608150D02*
X11748753Y-13617674D01*
X11748753Y-13617674D02*
X11758277Y-13627198D01*
X11758277Y-13627198D02*
X11767801Y-13646246D01*
X11767801Y-13646246D02*
X11767801Y-13703388D01*
X11767801Y-13703388D02*
X11758277Y-13722436D01*
X11758277Y-13722436D02*
X11748753Y-13731960D01*
X11748753Y-13731960D02*
X11729706Y-13741484D01*
X11729706Y-13741484D02*
X11701134Y-13741484D01*
X11882087Y-13741484D02*
X11863039Y-13731960D01*
X11863039Y-13731960D02*
X11853515Y-13712912D01*
X11853515Y-13712912D02*
X11853515Y-13541484D01*
X12034468Y-13731960D02*
X12015420Y-13741484D01*
X12015420Y-13741484D02*
X11977325Y-13741484D01*
X11977325Y-13741484D02*
X11958277Y-13731960D01*
X11958277Y-13731960D02*
X11948753Y-13712912D01*
X11948753Y-13712912D02*
X11948753Y-13636722D01*
X11948753Y-13636722D02*
X11958277Y-13617674D01*
X11958277Y-13617674D02*
X11977325Y-13608150D01*
X11977325Y-13608150D02*
X12015420Y-13608150D01*
X12015420Y-13608150D02*
X12034468Y-13617674D01*
X12034468Y-13617674D02*
X12043991Y-13636722D01*
X12043991Y-13636722D02*
X12043991Y-13655769D01*
X12043991Y-13655769D02*
X11948753Y-13674817D01*
X12120182Y-13731960D02*
X12139230Y-13741484D01*
X12139230Y-13741484D02*
X12177325Y-13741484D01*
X12177325Y-13741484D02*
X12196372Y-13731960D01*
X12196372Y-13731960D02*
X12205896Y-13712912D01*
X12205896Y-13712912D02*
X12205896Y-13703388D01*
X12205896Y-13703388D02*
X12196372Y-13684341D01*
X12196372Y-13684341D02*
X12177325Y-13674817D01*
X12177325Y-13674817D02*
X12148753Y-13674817D01*
X12148753Y-13674817D02*
X12129706Y-13665293D01*
X12129706Y-13665293D02*
X12120182Y-13646246D01*
X12120182Y-13646246D02*
X12120182Y-13636722D01*
X12120182Y-13636722D02*
X12129706Y-13617674D01*
X12129706Y-13617674D02*
X12148753Y-13608150D01*
X12148753Y-13608150D02*
X12177325Y-13608150D01*
X12177325Y-13608150D02*
X12196372Y-13617674D01*
X12272563Y-13817674D02*
X12282087Y-13808150D01*
X12282087Y-13808150D02*
X12301134Y-13779579D01*
X12301134Y-13779579D02*
X12310658Y-13760531D01*
X12310658Y-13760531D02*
X12320182Y-13731960D01*
X12320182Y-13731960D02*
X12329706Y-13684341D01*
X12329706Y-13684341D02*
X12329706Y-13646246D01*
X12329706Y-13646246D02*
X12320182Y-13598627D01*
X12320182Y-13598627D02*
X12310658Y-13570055D01*
X12310658Y-13570055D02*
X12301134Y-13551008D01*
X12301134Y-13551008D02*
X12282087Y-13522436D01*
X12282087Y-13522436D02*
X12272563Y-13512912D01*
X12634468Y-13817674D02*
X12624944Y-13808150D01*
X12624944Y-13808150D02*
X12605896Y-13779579D01*
X12605896Y-13779579D02*
X12596372Y-13760531D01*
X12596372Y-13760531D02*
X12586849Y-13731960D01*
X12586849Y-13731960D02*
X12577325Y-13684341D01*
X12577325Y-13684341D02*
X12577325Y-13646246D01*
X12577325Y-13646246D02*
X12586849Y-13598627D01*
X12586849Y-13598627D02*
X12596372Y-13570055D01*
X12596372Y-13570055D02*
X12605896Y-13551008D01*
X12605896Y-13551008D02*
X12624944Y-13522436D01*
X12624944Y-13522436D02*
X12634468Y-13512912D01*
X12710658Y-13608150D02*
X12710658Y-13741484D01*
X12710658Y-13627198D02*
X12720182Y-13617674D01*
X12720182Y-13617674D02*
X12739230Y-13608150D01*
X12739230Y-13608150D02*
X12767801Y-13608150D01*
X12767801Y-13608150D02*
X12786849Y-13617674D01*
X12786849Y-13617674D02*
X12796372Y-13636722D01*
X12796372Y-13636722D02*
X12796372Y-13741484D01*
X12920182Y-13741484D02*
X12901134Y-13731960D01*
X12901134Y-13731960D02*
X12891611Y-13722436D01*
X12891611Y-13722436D02*
X12882087Y-13703388D01*
X12882087Y-13703388D02*
X12882087Y-13646246D01*
X12882087Y-13646246D02*
X12891611Y-13627198D01*
X12891611Y-13627198D02*
X12901134Y-13617674D01*
X12901134Y-13617674D02*
X12920182Y-13608150D01*
X12920182Y-13608150D02*
X12948753Y-13608150D01*
X12948753Y-13608150D02*
X12967801Y-13617674D01*
X12967801Y-13617674D02*
X12977325Y-13627198D01*
X12977325Y-13627198D02*
X12986849Y-13646246D01*
X12986849Y-13646246D02*
X12986849Y-13703388D01*
X12986849Y-13703388D02*
X12977325Y-13722436D01*
X12977325Y-13722436D02*
X12967801Y-13731960D01*
X12967801Y-13731960D02*
X12948753Y-13741484D01*
X12948753Y-13741484D02*
X12920182Y-13741484D01*
X13043992Y-13608150D02*
X13120182Y-13608150D01*
X13072563Y-13541484D02*
X13072563Y-13712912D01*
X13072563Y-13712912D02*
X13082087Y-13731960D01*
X13082087Y-13731960D02*
X13101134Y-13741484D01*
X13101134Y-13741484D02*
X13120182Y-13741484D01*
X13339230Y-13608150D02*
X13339230Y-13808150D01*
X13339230Y-13617674D02*
X13358277Y-13608150D01*
X13358277Y-13608150D02*
X13396373Y-13608150D01*
X13396373Y-13608150D02*
X13415420Y-13617674D01*
X13415420Y-13617674D02*
X13424944Y-13627198D01*
X13424944Y-13627198D02*
X13434468Y-13646246D01*
X13434468Y-13646246D02*
X13434468Y-13703388D01*
X13434468Y-13703388D02*
X13424944Y-13722436D01*
X13424944Y-13722436D02*
X13415420Y-13731960D01*
X13415420Y-13731960D02*
X13396373Y-13741484D01*
X13396373Y-13741484D02*
X13358277Y-13741484D01*
X13358277Y-13741484D02*
X13339230Y-13731960D01*
X13548753Y-13741484D02*
X13529706Y-13731960D01*
X13529706Y-13731960D02*
X13520182Y-13712912D01*
X13520182Y-13712912D02*
X13520182Y-13541484D01*
X13710658Y-13741484D02*
X13710658Y-13636722D01*
X13710658Y-13636722D02*
X13701134Y-13617674D01*
X13701134Y-13617674D02*
X13682087Y-13608150D01*
X13682087Y-13608150D02*
X13643992Y-13608150D01*
X13643992Y-13608150D02*
X13624944Y-13617674D01*
X13710658Y-13731960D02*
X13691611Y-13741484D01*
X13691611Y-13741484D02*
X13643992Y-13741484D01*
X13643992Y-13741484D02*
X13624944Y-13731960D01*
X13624944Y-13731960D02*
X13615420Y-13712912D01*
X13615420Y-13712912D02*
X13615420Y-13693865D01*
X13615420Y-13693865D02*
X13624944Y-13674817D01*
X13624944Y-13674817D02*
X13643992Y-13665293D01*
X13643992Y-13665293D02*
X13691611Y-13665293D01*
X13691611Y-13665293D02*
X13710658Y-13655769D01*
X13777325Y-13608150D02*
X13853515Y-13608150D01*
X13805896Y-13541484D02*
X13805896Y-13712912D01*
X13805896Y-13712912D02*
X13815420Y-13731960D01*
X13815420Y-13731960D02*
X13834468Y-13741484D01*
X13834468Y-13741484D02*
X13853515Y-13741484D01*
X13996373Y-13731960D02*
X13977325Y-13741484D01*
X13977325Y-13741484D02*
X13939230Y-13741484D01*
X13939230Y-13741484D02*
X13920182Y-13731960D01*
X13920182Y-13731960D02*
X13910658Y-13712912D01*
X13910658Y-13712912D02*
X13910658Y-13636722D01*
X13910658Y-13636722D02*
X13920182Y-13617674D01*
X13920182Y-13617674D02*
X13939230Y-13608150D01*
X13939230Y-13608150D02*
X13977325Y-13608150D01*
X13977325Y-13608150D02*
X13996373Y-13617674D01*
X13996373Y-13617674D02*
X14005896Y-13636722D01*
X14005896Y-13636722D02*
X14005896Y-13655769D01*
X14005896Y-13655769D02*
X13910658Y-13674817D01*
X14177325Y-13741484D02*
X14177325Y-13541484D01*
X14177325Y-13731960D02*
X14158277Y-13741484D01*
X14158277Y-13741484D02*
X14120182Y-13741484D01*
X14120182Y-13741484D02*
X14101134Y-13731960D01*
X14101134Y-13731960D02*
X14091611Y-13722436D01*
X14091611Y-13722436D02*
X14082087Y-13703388D01*
X14082087Y-13703388D02*
X14082087Y-13646246D01*
X14082087Y-13646246D02*
X14091611Y-13627198D01*
X14091611Y-13627198D02*
X14101134Y-13617674D01*
X14101134Y-13617674D02*
X14120182Y-13608150D01*
X14120182Y-13608150D02*
X14158277Y-13608150D01*
X14158277Y-13608150D02*
X14177325Y-13617674D01*
X14253515Y-13817674D02*
X14263039Y-13808150D01*
X14263039Y-13808150D02*
X14282087Y-13779579D01*
X14282087Y-13779579D02*
X14291611Y-13760531D01*
X14291611Y-13760531D02*
X14301134Y-13731960D01*
X14301134Y-13731960D02*
X14310658Y-13684341D01*
X14310658Y-13684341D02*
X14310658Y-13646246D01*
X14310658Y-13646246D02*
X14301134Y-13598627D01*
X14301134Y-13598627D02*
X14291611Y-13570055D01*
X14291611Y-13570055D02*
X14282087Y-13551008D01*
X14282087Y-13551008D02*
X14263039Y-13522436D01*
X14263039Y-13522436D02*
X14253515Y-13512912D01*
M02*
